<svg width="97" height="25" viewBox="0 0 97 25" fill="none" xmlns="http://www.w3.org/2000/svg">
<path d="M14.32 0.437999C13.8213 1.20867 13.2547 2.05867 12.62 2.988C12.008 3.91733 11.3733 4.88067 10.716 5.878C10.0587 6.85267 9.39 7.816 8.71 8.768C8.05267 9.72 7.418 10.604 6.806 11.42C7.486 12.1 8.22267 12.9613 9.016 14.004C9.80933 15.024 10.5913 16.112 11.362 17.268C12.1327 18.4013 12.858 19.5573 13.538 20.736C14.218 21.9147 14.762 23.0027 15.17 24H11.736C11.26 22.9573 10.7047 21.892 10.07 20.804C9.458 19.716 8.80067 18.6733 8.098 17.676C7.418 16.656 6.71533 15.7153 5.99 14.854C5.28733 13.9927 4.596 13.2673 3.916 12.678V24H0.856V0.437999H3.916V10.842C4.50533 10.094 5.12867 9.244 5.786 8.292C6.44333 7.34 7.08933 6.388 7.724 5.436C8.38133 4.484 8.99333 3.57733 9.56 2.716C10.1267 1.832 10.6027 1.07267 10.988 0.437999H14.32ZM21.754 0.437999H24.814V24H21.754V0.437999ZM42.1137 20.736C41.6603 19.104 41.1957 17.54 40.7197 16.044C40.2437 14.548 39.779 13.1427 39.3257 11.828C38.895 10.4907 38.4757 9.278 38.0677 8.19C37.6597 7.102 37.2857 6.15 36.9457 5.334C36.855 6.626 36.7757 8.054 36.7077 9.618C36.6623 11.1593 36.6057 12.746 36.5377 14.378C36.4923 16.01 36.447 17.6533 36.4017 19.308C36.379 20.94 36.3563 22.504 36.3337 24H33.4097C33.4777 21.96 33.5457 19.9087 33.6137 17.846C33.6817 15.7607 33.761 13.7207 33.8517 11.726C33.965 9.70867 34.0783 7.748 34.1917 5.844C34.3277 3.94 34.475 2.138 34.6337 0.437999H37.6597C38.0677 1.41267 38.5323 2.58 39.0537 3.94C39.575 5.27733 40.0963 6.68267 40.6177 8.156C41.1617 9.62933 41.683 11.1027 42.1817 12.576C42.6803 14.0493 43.111 15.398 43.4737 16.622C43.8363 15.398 44.2557 14.0493 44.7317 12.576C45.2077 11.1027 45.7063 9.62933 46.2277 8.156C46.749 6.68267 47.259 5.27733 47.7577 3.94C48.279 2.58 48.7437 1.41267 49.1517 0.437999H52.1777C52.3363 2.138 52.4723 3.94 52.5857 5.844C52.7217 7.748 52.835 9.70867 52.9257 11.726C53.039 13.7207 53.1297 15.7607 53.1977 17.846C53.2657 19.9087 53.3337 21.96 53.4017 24H50.4777C50.4323 22.504 50.387 20.9287 50.3417 19.274C50.319 17.6193 50.2737 15.9647 50.2057 14.31C50.1603 12.6327 50.1037 11.012 50.0357 9.448C49.9677 7.86133 49.8883 6.41067 49.7977 5.096C49.5937 5.66267 49.333 6.37667 49.0157 7.238C48.721 8.07667 48.4037 8.99467 48.0637 9.992C47.7463 10.9893 47.4063 12.0207 47.0437 13.086C46.7037 14.1287 46.375 15.1373 46.0577 16.112C45.763 17.0867 45.491 17.982 45.2417 18.798C45.015 19.5913 44.8337 20.2373 44.6977 20.736H42.1137ZM65.0496 10.468H67.1576C69.9683 10.468 71.3736 9.19867 71.3736 6.66C71.3736 5.86667 71.2489 5.22067 70.9996 4.722C70.7729 4.20067 70.4669 3.804 70.0816 3.532C69.6963 3.23733 69.2429 3.03333 68.7216 2.92C68.2229 2.80667 67.6903 2.75 67.1236 2.75C66.7836 2.75 66.4323 2.76133 66.0696 2.784C65.7296 2.80667 65.3896 2.84067 65.0496 2.886V10.468ZM65.0496 12.916V21.416C65.4803 21.484 65.8996 21.5407 66.3076 21.586C66.7383 21.6313 67.1576 21.654 67.5656 21.654C68.2003 21.654 68.8009 21.586 69.3676 21.45C69.9343 21.314 70.4216 21.0873 70.8296 20.77C71.2603 20.4527 71.5889 20.022 71.8156 19.478C72.0649 18.9113 72.1896 18.22 72.1896 17.404C72.1896 15.9987 71.8043 14.8993 71.0336 14.106C70.2856 13.3127 69.1069 12.916 67.4976 12.916H65.0496ZM61.9896 0.777999C62.7829 0.596665 63.5876 0.460665 64.4036 0.369998C65.2423 0.256665 66.0696 0.199998 66.8856 0.199998C67.9056 0.199998 68.8689 0.301998 69.7756 0.505998C70.7049 0.687332 71.5209 1.016 72.2236 1.492C72.9263 1.94533 73.4816 2.55733 73.8896 3.328C74.3203 4.076 74.5356 5.01667 74.5356 6.15C74.5356 7.55533 74.2409 8.71133 73.6516 9.618C73.0623 10.502 72.3029 11.1593 71.3736 11.59C72.5296 12.0433 73.4816 12.7347 74.2296 13.664C74.9776 14.5933 75.3516 15.874 75.3516 17.506C75.3516 18.73 75.1476 19.7613 74.7396 20.6C74.3543 21.4387 73.7989 22.13 73.0736 22.674C72.3483 23.1953 71.4756 23.5807 70.4556 23.83C69.4583 24.0567 68.3589 24.17 67.1576 24.17C66.3643 24.17 65.5369 24.1247 64.6756 24.034C63.8143 23.9433 62.9189 23.8073 61.9896 23.626V0.777999ZM89.5121 24.51C87.3134 24.51 85.6587 23.8867 84.5481 22.64C83.4601 21.3933 82.9161 19.4213 82.9161 16.724V0.437999H85.9761V16.452C85.9761 18.2427 86.2367 19.5913 86.7581 20.498C87.2794 21.382 88.2201 21.824 89.5801 21.824C90.9854 21.824 91.9374 21.3707 92.4361 20.464C92.9574 19.5347 93.2181 18.1973 93.2181 16.452V0.437999H96.2781V16.724C96.2781 19.376 95.7114 21.3367 94.5781 22.606C93.4447 23.8753 91.7561 24.51 89.5121 24.51Z" fill="#4A5466"/>
</svg>
