<svg width="18" height="18" viewBox="0 0 18 18" fill="none" xmlns="http://www.w3.org/2000/svg">
<path d="M10.35 9.9C10.8471 9.9 11.25 10.3029 11.25 10.8C11.25 11.2616 10.9026 11.642 10.455 11.6939L10.35 11.7L6.18536 11.7008L5.32616 11.7088L4.81531 11.7223L4.52941 11.7357L4.28171 11.7531L4.06745 11.775C4.03426 11.779 4.00227 11.7833 3.97137 11.7877L3.79835 11.8171C3.71763 11.8331 3.64498 11.8512 3.57775 11.8716L3.44969 11.9156L3.3313 11.9663C3.3121 11.9753 3.29312 11.9846 3.27424 11.9943C2.7662 12.2531 2.35315 12.6662 2.09428 13.1742L2.04013 13.2896C2.03169 13.3093 2.02354 13.3293 2.01566 13.3497L1.97163 13.4777C1.95801 13.5226 1.94543 13.5698 1.9338 13.6202L1.90174 13.7819C1.89685 13.8107 1.89218 13.8405 1.88773 13.8714L1.86348 14.0707L1.84391 14.3011L1.82857 14.5673L1.81702 14.8741L1.80355 15.6283L1.8 16.2H10.35C10.8116 16.2 11.192 16.5474 11.2439 16.995L11.25 17.1C11.25 17.5616 10.9026 17.942 10.455 17.9939L10.35 18H0.9C0.438448 18 0.0580436 17.6526 0.00605498 17.205L0 17.1L0.000857878 16.0298L0.00968739 15.1277L0.0251152 14.572L0.0408227 14.2508L0.0616328 13.9636L0.088201 13.7061C0.103034 13.584 0.120272 13.4714 0.140284 13.3656L0.184115 13.1626C0.192073 13.1301 0.200367 13.0981 0.20901 13.0666L0.265165 12.8829C0.27526 12.853 0.28573 12.8234 0.296591 12.794L0.366546 12.6194L0.446521 12.4453L0.49047 12.3571C0.921901 11.5103 1.61032 10.8219 2.45707 10.3904L2.64648 10.2989C3.05308 10.1137 3.44846 10.0131 4.09093 9.9593L4.40594 9.93763L4.76169 9.92178L5.38403 9.9071L6.12977 9.90086L10.35 9.9ZM14.4 10.35C14.8616 10.35 15.242 10.6974 15.2939 11.145L15.3 11.25V13.05H17.1C17.5971 13.05 18 13.4529 18 13.95C18 14.4116 17.6526 14.792 17.205 14.8439L17.1 14.85H15.3V16.65C15.3 17.1471 14.8971 17.55 14.4 17.55C13.9384 17.55 13.558 17.2026 13.5061 16.755L13.5 16.65V14.85H11.7C11.2029 14.85 10.8 14.4471 10.8 13.95C10.8 13.4884 11.1474 13.108 11.595 13.0561L11.7 13.05H13.5V11.25C13.5 10.7529 13.9029 10.35 14.4 10.35ZM6.75 0C8.98675 0 10.8 1.81325 10.8 4.05C10.8 6.28676 8.98676 8.1 6.75 8.1C4.51324 8.1 2.7 6.28676 2.7 4.05C2.7 1.81325 4.51325 0 6.75 0ZM6.75 1.8C5.50736 1.8 4.5 2.80736 4.5 4.05C4.5 5.29264 5.50736 6.3 6.75 6.3C7.99264 6.3 9 5.29264 9 4.05C9 2.80736 7.99264 1.8 6.75 1.8Z" fill="currentColor"/>
</svg>
