<svg width="65" height="64" viewBox="0 0 65 64" fill="none" xmlns="http://www.w3.org/2000/svg">
<path fill-rule="evenodd" clip-rule="evenodd" d="M10.894 0.0380859H19.7347C22.267 0.0380859 24.6002 1.41145 25.8296 3.62569L30.0933 11.306C31.2097 13.3172 31.2622 15.7499 30.2334 17.8071L26.7123 24.8419L26.7672 25.0143L27.0976 25.948C27.7611 27.6996 28.6844 29.4541 29.8985 31.0786C30.4334 31.7943 31.015 32.47 31.645 33.1C32.2673 33.7223 32.9337 34.2968 33.6387 34.8254C35.2637 36.0437 37.0184 36.9676 38.7701 37.6293C39.1121 37.7586 39.4249 37.8677 39.7033 37.9584L39.8705 38.0106L46.9159 34.4918C48.7876 33.5558 50.9697 33.5147 52.8626 34.3554L53.4212 34.634L61.1232 38.9162C63.3353 40.1461 64.707 42.478 64.707 45.0089V53.8511C64.707 60.7363 58.1892 65.6731 51.6581 63.4691C38.604 59.0645 27.0393 53.1413 19.3216 45.4234C11.6039 37.7057 5.68061 26.1411 1.27588 13.0871C-0.92789 6.55574 4.00884 0.0380859 10.894 0.0380859ZM19.7347 7.00929H10.894C8.68929 7.00929 7.23176 8.93358 7.8812 10.8583C11.9715 22.9805 17.4671 33.7102 24.251 40.494C31.0349 47.278 41.7645 52.7736 53.8869 56.8638C55.8115 57.5133 57.7358 56.0558 57.7358 53.8511V45.0089L50.0338 40.7269L41.82 44.8337C41.1352 45.1761 40.3566 45.2835 39.6047 45.1393C36.9506 44.6303 33.2111 43.2176 29.457 40.4032C28.4927 39.6802 27.5763 38.89 26.7156 38.0294C25.8446 37.1584 25.0453 36.2298 24.3145 35.252C21.5147 31.5059 20.1017 27.7755 19.5869 25.1289C19.4401 24.3743 19.5469 23.5923 19.8907 22.9046L23.9983 14.6893L19.7347 7.00929ZM52.8285 3.66182C52.6271 1.9283 51.1539 0.582712 49.3663 0.582712C47.4413 0.582712 45.8807 2.14327 45.8807 4.06832V11.0395H38.9095L38.503 11.063C36.7695 11.2643 35.4239 12.7376 35.4239 14.5251C35.4239 16.4502 36.9845 18.0107 38.9095 18.0107H45.8807V24.9819L45.9042 25.3884C46.1055 27.122 47.5788 28.4675 49.3663 28.4675C51.2914 28.4675 52.8519 26.907 52.8519 24.9819V18.0107H59.8231L60.2296 17.9873C61.9632 17.7859 63.3087 16.3127 63.3087 14.5251C63.3087 12.6001 61.7482 11.0395 59.8231 11.0395H52.8519V4.06832L52.8285 3.66182Z" fill="currentColor"/>
</svg>
