<svg width="48" height="48" viewBox="0 0 48 48" fill="none" xmlns="http://www.w3.org/2000/svg">
<path d="M19.1845 32.2754C18.3324 33.1275 18.3324 34.5089 19.1845 35.361C20.0365 36.213 21.418 36.213 22.2701 35.361L32.0882 25.5428C32.9403 24.6907 32.9403 23.3093 32.0882 22.4572L22.2701 12.639C21.418 11.787 20.0365 11.787 19.1845 12.639C18.3324 13.4911 18.3324 14.8725 19.1845 15.7246L27.4599 24L19.1845 32.2754Z" fill="currentColor"/>
<path fill-rule="evenodd" clip-rule="evenodd" d="M-1.04907e-06 24C-4.69686e-07 37.2548 10.7452 48 24 48C37.2548 48 48 37.2548 48 24C48 10.7452 37.2548 2.18624e-06 24 2.76562e-06C10.7452 3.34501e-06 -1.62846e-06 10.7452 -1.04907e-06 24ZM24 43.6364C13.1551 43.6364 4.36364 34.8449 4.36364 24C4.36363 13.1551 13.1551 4.36364 24 4.36364C34.8449 4.36364 43.6364 13.1551 43.6364 24C43.6364 34.8449 34.8449 43.6364 24 43.6364Z" fill="currentColor"/>
</svg>
