<svg width="18" height="18" viewBox="0 0 18 18" fill="none" xmlns="http://www.w3.org/2000/svg">
<path d="M17.2506 0H0.749388C0.334286 0 0 0.334286 0 0.749388V17.2506C0 17.6657 0.334286 18 0.749388 18H17.2506C17.6657 18 18 17.6657 18 17.2506V0.749388C18 0.334286 17.6657 0 17.2506 0ZM16.5012 4.17306H12.1298L14.8114 1.50245H16.5012V4.17306ZM12.6845 1.49878L10.0322 4.14C10.0212 4.15102 10.0139 4.15837 10.0029 4.16939H5.37796L8.05959 1.49878H12.6845ZM1.49878 1.49878H5.93265L3.28041 4.14C3.26939 4.15102 3.26204 4.15837 3.25102 4.16939H1.49878V1.49878ZM16.5012 16.5012H1.49878V5.67184H16.4976V16.5012H16.5012Z" fill="currentColor"/>
<path d="M6.96997 15.0472C6.85976 15.0472 6.74589 15.0215 6.64303 14.9737C6.38221 14.8488 6.22058 14.5843 6.22058 14.2978V7.82881C6.22058 7.54228 6.38589 7.27779 6.64303 7.15289C6.90385 7.02799 7.21242 7.06105 7.4365 7.24105L11.4994 10.4774C11.6794 10.6206 11.7822 10.8374 11.7822 11.0651C11.7822 11.2929 11.6794 11.5096 11.4994 11.6529L7.43282 14.8892C7.30058 14.9921 7.13527 15.0472 6.96997 15.0472ZM7.71936 9.38268V12.7402L9.8316 11.0615L7.71936 9.38268Z" fill="currentColor"/>
</svg>
