<svg width="18" height="18" viewBox="0 0 18 18" fill="none" xmlns="http://www.w3.org/2000/svg">
<path fill-rule="evenodd" clip-rule="evenodd" d="M0 9C0 4.02944 4.02944 0 9 0C13.9706 0 18 4.02944 18 9C18 13.9706 13.9706 18 9 18C4.02944 18 0 13.9706 0 9ZM9 1.63636C4.93317 1.63636 1.63636 4.93317 1.63636 9C1.63636 13.0668 4.93317 16.3636 9 16.3636C13.0668 16.3636 16.3636 13.0668 16.3636 9C16.3636 4.93317 13.0668 1.63636 9 1.63636ZM6.95455 5.45717C7.20769 5.31102 7.51958 5.31102 7.77273 5.45717L12.6818 8.29143C12.935 8.43759 13.0909 8.70769 13.0909 9C13.0909 9.29231 12.935 9.56241 12.6818 9.70857L7.77273 12.5428C7.51958 12.689 7.20769 12.689 6.95455 12.5428C6.7014 12.3967 6.54545 12.1266 6.54545 11.8343V6.16574C6.54545 5.87343 6.7014 5.60332 6.95455 5.45717ZM8.18182 7.58287V10.4171L10.6364 9L8.18182 7.58287Z" fill="currentColor"/>
</svg>
