<svg width="18" height="18" viewBox="0 0 18 18" fill="none" xmlns="http://www.w3.org/2000/svg">
<path fill-rule="evenodd" clip-rule="evenodd" d="M4.06177 4.94792C4.06177 2.21634 6.27615 0.00195312 9.00773 0.00195312C11.7393 0.00195312 13.9537 2.21634 13.9537 4.94792V6.2486C14.0871 6.25452 14.214 6.26216 14.3346 6.27202C14.8905 6.31744 15.3926 6.41432 15.8615 6.65323C16.5953 7.02714 17.192 7.62376 17.5659 8.3576C17.8048 8.82648 17.9017 9.32856 17.9471 9.88448C17.991 10.4216 17.991 11.0824 17.9909 11.8905V11.9282V12.2926V12.3303C17.991 13.1383 17.991 13.7992 17.9471 14.3362C17.9017 14.8921 17.8048 15.3942 17.5659 15.8631C17.192 16.5969 16.5953 17.1936 15.8615 17.5675C15.3926 17.8064 14.8905 17.9033 14.3346 17.9487C13.7976 17.9926 13.1368 17.9926 12.3287 17.9926H12.3287H12.2909H5.70708H5.66938H5.66928C4.86127 17.9926 4.20045 17.9926 3.6634 17.9487C3.10749 17.9033 2.60541 17.8064 2.13652 17.5675C1.40269 17.1936 0.806062 16.5969 0.432156 15.8631C0.193245 15.3942 0.0963628 14.8921 0.0509429 14.3362C0.00706251 13.7992 0.00707054 13.1383 0.00708037 12.3303V12.3303V12.3303V12.2926V11.9282V11.8905V11.8904V11.8904C0.00707054 11.0824 0.00706251 10.4215 0.0509429 9.88448C0.0963628 9.32856 0.193245 8.82648 0.432156 8.3576C0.806062 7.62376 1.40269 7.02714 2.13652 6.65323C2.60541 6.41432 3.10749 6.31744 3.6634 6.27202C3.78929 6.26173 3.92198 6.25386 4.06177 6.24783V4.94792ZM12.1537 4.94792V6.22816H5.86177V4.94792C5.86177 3.21045 7.27027 1.80195 9.00773 1.80195C10.7452 1.80195 12.1537 3.21045 12.1537 4.94792ZM3.80998 8.06604C3.36538 8.10237 3.12655 8.16897 2.9537 8.25704C2.55856 8.45838 2.2373 8.77964 2.03597 9.17478C1.9479 9.34762 1.88129 9.58645 1.84496 10.0311C1.80778 10.4862 1.80708 11.0732 1.80708 11.9282V12.2926C1.80708 13.1475 1.80778 13.7346 1.84496 14.1897C1.88129 14.6343 1.9479 14.8731 2.03597 15.0459C2.2373 15.4411 2.55856 15.7623 2.9537 15.9637C3.12655 16.0517 3.36538 16.1183 3.80998 16.1547C4.26508 16.1919 4.85215 16.1926 5.70708 16.1926H12.2909C13.1459 16.1926 13.7329 16.1919 14.1881 16.1547C14.6327 16.1183 14.8715 16.0517 15.0443 15.9637C15.4395 15.7623 15.7607 15.4411 15.9621 15.0459C16.0501 14.8731 16.1167 14.6343 16.1531 14.1897C16.1902 13.7346 16.1909 13.1475 16.1909 12.2926V11.9282C16.1909 11.0732 16.1902 10.4862 16.1531 10.0311C16.1167 9.58645 16.0501 9.34762 15.9621 9.17478C15.7607 8.77964 15.4395 8.45838 15.0443 8.25704C14.8715 8.16897 14.6327 8.10237 14.1881 8.06604C13.7329 8.02886 13.1459 8.02816 12.2909 8.02816H5.70708C4.85215 8.02816 4.26508 8.02886 3.80998 8.06604ZM9.83864 12.5696C10.3721 12.2826 10.7309 11.7461 10.7309 11.1317C10.7309 10.215 9.93195 9.47178 8.94635 9.47178C7.96076 9.47178 7.16177 10.215 7.16177 11.1317C7.16177 11.7461 7.52065 12.2826 8.05406 12.5696V14.0366C8.05406 14.495 8.45355 14.8666 8.94635 14.8666C9.43915 14.8666 9.83864 14.495 9.83864 14.0366V12.5696Z" fill="currentColor"/>
</svg>
