<svg width="25" height="25" viewBox="0 0 25 25" fill="none" xmlns="http://www.w3.org/2000/svg">
<path fill-rule="evenodd" clip-rule="evenodd" d="M5.74451 6.47977C5.74451 2.91943 8.63073 0.0332031 12.1911
 0.0332031C15.7514 0.0332031 18.6376 2.91943 18.6376 6.47977V8.57227C19.3914 8.57236 20.0134 8.57444 20.5237 8.61613C21.0796 8.66155 21.5817 8.75843 22.0505 8.99734C22.7844 9.37125 23.381 9.96787 23.7549 10.7017C23.9938 11.1706 24.0907 11.6727 24.1361 12.2286C24.18 12.7657 24.18 13.4265 24.18 14.2346V14.2723V18.332V18.3697C24.18 19.1777 24.18 19.8386 24.1361 20.3757C24.0907 20.9316 23.9938 21.4336 23.7549 21.9025C23.381 22.6364 22.7844 23.233 22.0505 23.6069C21.5817 23.8458 21.0796 23.9427 20.5237 23.9881C19.9866 24.032 19.3258 24.032 18.5178 24.032H18.5177H18.48H5.89372H5.85602H5.85592C5.04791 24.032 4.3871 24.032 3.85004 23.9881C3.29413 23.9427 2.79205 23.8458 2.32316 23.6069C1.58933 23.233 0.992707 22.6364 0.618801 21.9025C0.37989 21.4336 0.283008 20.9316 0.237588 20.3757C0.193707 19.8386 0.193716 19.1777 0.193726 18.3697V18.3697V18.332V14.2723V14.2346V14.2345V14.2345C0.193716 13.4265 0.193708 12.7657 0.237588 12.2286C0.283008 11.6727 0.37989 11.1706 0.618801 10.7017C0.992707 9.96787 1.58933 9.37125 2.32316 8.99734C2.79205 8.75843 3.29413 8.66155 3.85004 8.61613C4.3622 8.57428 4.98692 8.57235 5.74451 8.57227V6.47977ZM16.8376 6.47977V8.57227H7.54451V6.47977C7.54451 3.91354 9.62484 1.8332 12.1911 1.8332C14.7573 1.8332 16.8376 3.91354 16.8376 6.47977ZM3.99662 10.4101C3.55202 10.4465 3.31319 10.5131 3.14035 10.6012C2.74521 10.8025 2.42395 11.1237 2.22261 11.5189C2.13454 11.6917 2.06794 11.9306 2.03161 12.3752C1.99443 12.8303 1.99373 13.4173 1.99373 14.2723V18.332C1.99373 19.1869 1.99443 19.774 2.03161 20.2291C2.06794 20.6737 2.13454 20.9125 2.22261 21.0854C2.42395 21.4805 2.74521 21.8018 3.14035 22.0031C3.31319 22.0912 3.55202 22.1578 3.99662 22.1941C4.45173 22.2313 5.03879 22.232 5.89372 22.232H18.48C19.3349 22.232 19.922 22.2313 20.3771 22.1941C20.8217 22.1578 21.0605 22.0912 21.2334 22.0031C21.6285 21.8018 21.9498 21.4805 22.1511 21.0854C22.2392 20.9125 22.3058 20.6737 22.3421 20.2291C22.3793 19.774 22.38 19.1869 22.38 18.332V14.2723C22.38 13.4173 22.3793 12.8303 22.3421 12.3752C22.3058 11.9306 22.2392 11.6917 22.1511 11.5189C21.9498 11.1237 21.6285 10.8025 21.2334 10.6012C21.0605 10.5131 20.8217 10.4465 20.3771 10.4101C19.922 10.373 19.3349 10.3723 18.48 10.3723H5.89373C5.0388 10.3723 4.45173 10.373 3.99662 10.4101ZM13.322 17.1428C14.0532 16.7492 14.5452 16.0134 14.5452 15.1708C14.5452 13.9134 13.4499 12.8941 12.0988 12.8941C10.7476 12.8941 9.65232 13.9134 9.65232 15.1708C9.65232 16.0134 10.1443 16.7492 10.8755 17.1428V19.1548C10.8755 19.7835 11.4232 20.2931 12.0988 20.2931C12.7743 20.2931 13.322 19.7835 13.322 19.1548V17.1428Z" fill="currentColor"/>
</svg>