<svg width="24" height="24" viewBox="0 0 24 24" fill="none" xmlns="http://www.w3.org/2000/svg">
<path d="M12 0C18.6274 0 24 5.37258 24 12C24 18.6274 18.6274 24 12 24C5.37258 24 0 18.6274 0 12C0 5.37258 5.37258 0 12 0ZM12 1.8C6.3667 1.8 1.8 6.3667 1.8 12C1.8 17.6333 6.3667 22.2 12 22.2C17.6333 22.2 22.2 17.6333 22.2 12C22.2 6.3667 17.6333 1.8 12 1.8ZM12 3.84231C15.3137 3.84231 18 6.5286 18 9.84231C18 11.6859 17.1621 13.3937 15.7318 14.5404L15.7704 14.5068L14.8529 18.5478C14.668 19.3489 14.031 19.9578 13.1975 20.1205L13.0159 20.1485L12.8291 20.1577H11.1709C10.29 20.1577 9.50738 19.6024 9.19813 18.7277L9.1465 18.545L8.2272 14.5056L8.04174 14.3512C6.92321 13.3694 6.19888 11.9982 6.03441 10.4746L6.00903 10.168L6 9.84231C6 6.5286 8.68629 3.84231 12 3.84231ZM13.404 16.8H10.5936L10.888 18.0932L10.9101 18.1742C10.949 18.2835 11.0535 18.3577 11.1709 18.3577L12.7777 18.3592L12.8615 18.3559C12.9768 18.3426 13.0726 18.2574 13.0983 18.146L13.404 16.8ZM12 5.64231C9.6804 5.64231 7.8 7.52271 7.79962 9.81632L7.80715 10.0899C7.88114 11.3668 8.53086 12.5241 9.55741 13.2588C9.73648 13.387 9.86235 13.5764 9.91119 13.7911L10.1856 15.0024L10.2346 15H13.7654L13.812 15.0024L14.0876 13.7926C14.1251 13.6272 14.2084 13.4767 14.3268 13.3576L14.4219 13.2745L14.6254 13.1208C15.6143 12.3277 16.2 11.134 16.2 9.84231C16.2 7.52271 14.3196 5.64231 12 5.64231Z" fill="currentColor"/>
</svg>
