<svg width="54" height="54" viewBox="0 0 54 54" fill="none" xmlns="http://www.w3.org/2000/svg">
<path d="M14.738 17.1905C13.3836 17.1905 12.2856 18.2884 12.2856 19.6429C12.2856 20.9973 13.3836 22.0953 14.738 22.0953H36.8099C38.1643 22.0953 39.2623 20.9973 39.2623 19.6429C39.2623 18.2884 38.1643 17.1905 36.8099 17.1905H14.738Z" fill="#3F8AE0"/>
<path d="M12.2856 29.4526C12.2856 28.0982 13.3836 27.0002 14.738 27.0002H36.8099C38.1643 27.0002 39.2623 28.0982 39.2623 29.4526C39.2623 30.8071 38.1643 31.905 36.8099 31.905H14.738C13.3836 31.905 12.2856 30.8071 12.2856 29.4526Z" fill="#3F8AE0"/>
<path d="M14.738 36.8099C13.3836 36.8099 12.2856 37.9079 12.2856 39.2623C12.2856 40.6168 13.3836 41.7148 14.738 41.7148H27.0002C28.3546 41.7148 29.4526 40.6168 29.4526 39.2623C29.4526 37.9079 28.3546 36.8099 27.0002 36.8099H14.738Z" fill="#3F8AE0"/>
<path fill-rule="evenodd" clip-rule="evenodd" d="M0.0234375 27.0002V51.5243C0.0234375 52.8787 1.12163 53.9769 2.47607 53.9769H27.0002C41.899 53.9769 53.9769 41.899 53.9769 27.0002C53.9769 12.1013 41.899 0.0234375 27.0002 0.0234375C12.1013 0.0234375 0.0234375 12.1013 0.0234375 27.0002ZM4.9283 27.0002C4.9283 14.8102 14.8102 4.9283 27.0002 4.9283C39.1901 4.9283 49.0721 14.8102 49.0721 27.0002C49.0721 39.1901 39.1901 49.0721 27.0002 49.0721H4.9283V27.0002Z" fill="#3F8AE0"/>
</svg>
