<svg width="10" height="10" viewBox="0 0 10 10" fill="none" xmlns="http://www.w3.org/2000/svg">
<path fill-rule="evenodd" clip-rule="evenodd" d="M0.382525 0.382525C0.892557 -0.127508 1.71948 -0.127508 2.22952 0.382525L5 3.15301L7.77048 0.382525C8.28052 -0.127508 9.10744 -0.127508 9.61747 0.382525C10.1275 0.892557 10.1275 1.71948 9.61747 2.22952L6.84699 5L9.61747 7.77048C10.1275 8.28052 10.1275 9.10744 9.61747 9.61748C9.10744 10.1275 8.28052 10.1275 7.77048 9.61748L5 6.84699L2.22952 9.61748C1.71948 10.1275 0.892557 10.1275 0.382525 9.61748C-0.127508 9.10744 -0.127508 8.28052 0.382525 7.77048L3.15301 5L0.382525 2.22952C-0.127508 1.71948 -0.127508 0.892557 0.382525 0.382525Z" fill="currentColor"/>
</svg>
