<svg width="24" height="24" viewBox="0 0 24 24" fill="none" xmlns="http://www.w3.org/2000/svg">
<path fill-rule="evenodd" clip-rule="evenodd" d="M0 12C0 5.37258 5.37258 0 12 0C18.6274 0 24 5.37258 24 12C24 18.6274 18.6274 24 12 24C5.37258 24 0 18.6274 0 12ZM12 2.18182C6.57757 2.18182 2.18182 6.57757 2.18182 12C2.18182 17.4224 6.57757 21.8182 12 21.8182C17.4224 21.8182 21.8182 17.4224 21.8182 12C21.8182 6.57757 17.4224 2.18182 12 2.18182ZM8.14308 8.14303C8.56911 7.717 9.25984 7.717 9.68586 8.14303L12 10.4572L14.3142 8.14303C14.7402 7.717 15.4309 7.717 15.857 8.14303C16.283 8.56906 16.283 9.25978 15.857 9.68581L13.5428 12L15.857 14.3141C16.283 14.7402 16.283 15.4309 15.857 15.8569C15.4309 16.2829 14.7402 16.2829 14.3142 15.8569L12 13.5428L9.68586 15.8569C9.25984 16.2829 8.56911 16.2829 8.14308 15.8569C7.71706 15.4309 7.71706 14.7402 8.14308 14.3141L10.4572 12L8.14308 9.68581C7.71706 9.25978 7.71706 8.56906 8.14308 8.14303Z" fill="currentColor"/>
</svg>
