<svg width="18" height="18" viewBox="0 0 18 18" fill="none" xmlns="http://www.w3.org/2000/svg">
<path d="M0 9C0 4.02944 4.02944 0 9 0V0C13.9706 0 18 4.02944 18 9V9C18 13.9706 13.9706 18 9 18V18C4.02944 18 0 13.9706 0 9V9Z" fill="currentColor" fill-opacity="0.5"/>
<path fill-rule="evenodd" clip-rule="evenodd" d="M0 9C0 4.02944 4.02944 0 9 0C13.9706 0 18 4.02944 18 9C18 13.9706 13.9706 18 9 18C4.02944 18 0 13.9706 0 9ZM9 1.63636C4.93317 1.63636 1.63636 4.93317 1.63636 9C1.63636 13.0668 4.93317 16.3636 9 16.3636C13.0668 16.3636 16.3636 13.0668 16.3636 9C16.3636 4.93317 13.0668 1.63636 9 1.63636ZM6.10731 6.10727C6.42683 5.78775 6.94488 5.78775 7.2644 6.10727L9.00002 7.8429L10.7356 6.10727C11.0552 5.78775 11.5732 5.78775 11.8927 6.10727C12.2122 6.42679 12.2122 6.94484 11.8927 7.26436L10.1571 8.99998L11.8927 10.7356C12.2122 11.0551 12.2122 11.5732 11.8927 11.8927C11.5732 12.2122 11.0552 12.2122 10.7356 11.8927L9.00002 10.1571L7.2644 11.8927C6.94488 12.2122 6.42683 12.2122 6.10731 11.8927C5.78779 11.5732 5.78779 11.0551 6.10731 10.7356L7.84294 8.99998L6.10731 7.26436C5.78779 6.94484 5.78779 6.42679 6.10731 6.10727Z" fill="white"/>
</svg>
