<svg width="30" height="30" viewBox="0 0 30 30" fill="none" xmlns="http://www.w3.org/2000/svg">
<path d="M14.3289 16.0791C14.4595 16.0799 14.5864 16.0809 14.7099 16.0822L15.4099 16.0938L16.0341 16.1139L16.591 16.1442C17.9058 16.234 18.6668 16.4345 19.4591 16.8595C20.742 17.5478 21.7851 18.6462 22.4388 19.9971L22.5054 20.1379L22.6265 20.4156L22.7325 20.6942C22.749 20.7411 22.7648 20.7883 22.7801 20.836L22.8652 21.1292C22.8783 21.1794 22.8909 21.2304 22.9029 21.2823L22.9693 21.6062C22.9794 21.6624 22.9891 21.7199 22.9983 21.7787L23.0482 22.1494L23.0885 22.5602L23.12 23.0184L23.1438 23.5309L23.1672 24.4174L23.1806 25.8566L23.1819 27.5641C23.1819 28.3571 22.5713 29 21.8182 29H1.36364C0.610358 29 -0.000233189 28.3569 6.68083e-08 27.5637L0.00051728 25.8234L0.00490974 24.9979L0.0158915 24.2608L0.0350017 23.6035L0.0637797 23.0171C0.149092 21.6326 0.339469 20.8313 0.743139 19.9971C1.39682 18.6462 2.43988 17.5478 3.72284 16.8595C4.5679 16.4061 5.37738 16.2083 6.86142 16.1277L7.45094 16.1026L8.11202 16.087L8.85299 16.0791H14.3289ZM26.2772 16.8595C27.5601 17.5478 28.6032 18.6462 29.2569 19.9971L29.386 20.2771C29.4062 20.3233 29.4258 20.3695 29.4447 20.4156L29.5506 20.6942C29.5671 20.7411 29.583 20.7883 29.5983 20.836L29.6833 21.1292C29.6964 21.1794 29.709 21.2304 29.7211 21.2823L29.7875 21.6062C29.8077 21.7187 29.826 21.836 29.8427 21.9595L29.8876 22.3494L29.9234 22.7829L29.9619 23.5309L29.9853 24.4174L29.9969 25.4666L30 27.5641C30 28.3571 29.3895 29 28.6364 29C27.937 29 27.3607 28.4457 27.2819 27.7316L27.2727 27.5641L27.2716 25.9453L27.2593 24.5745L27.2389 23.7595L27.2186 23.3034L27.1922 22.9082L27.1591 22.5664C27.153 22.5134 27.1466 22.4624 27.1398 22.4131L27.0953 22.137C27.0711 22.0082 27.0436 21.8923 27.0127 21.7851L26.946 21.5808L26.8692 21.3919C26.8556 21.3613 26.8414 21.331 26.8269 21.3008C26.4782 20.5804 25.945 19.9796 25.2901 19.5649L25.039 19.4183C24.368 19.0582 24.1012 18.1936 24.4431 17.487C24.785 16.7804 25.6062 16.4995 26.2772 16.8595ZM14.2818 18.9507H8.90242L7.95115 18.9626L7.16933 18.9884L6.73039 19.0146L6.34897 19.049L6.01794 19.0922L5.73018 19.1452C5.55119 19.1839 5.39629 19.2296 5.25599 19.2834L5.05532 19.3701L4.96097 19.4183C4.19123 19.8313 3.56538 20.4903 3.17317 21.3008C3.14164 21.366 3.11222 21.4331 3.08476 21.5034L3.00817 21.7253C2.9727 21.8423 2.94139 21.9694 2.91382 22.1107L2.86352 22.4137L2.82243 22.7621L2.7898 23.1635L2.75511 23.8814L2.73528 24.7607L2.72728 26.1282H20.4532L20.4492 25.2139L20.4412 24.5705L20.4205 23.7538L20.4001 23.297L20.3735 22.9014L20.3402 22.5595L20.2993 22.2634L20.2504 22.0055C20.2415 21.9653 20.2323 21.9264 20.2226 21.8886L20.1602 21.6737L20.088 21.4779L20.0087 21.3008C19.6165 20.4903 18.9907 19.8313 18.2209 19.4183C18.1591 19.3851 18.0953 19.3541 18.0285 19.3252L17.8178 19.2445C17.7067 19.2072 17.586 19.1742 17.4518 19.1452L17.1641 19.0922L16.8332 19.049L16.452 19.0146L15.7703 18.9781L14.9354 18.9572L14.2818 18.9507ZM21.5727 1.20623C23.402 2.3669 24.5456 4.45209 24.5456 6.74376C24.5456 9.03543 23.5 12 21.4163 12.8161C20.7713 13.2253 19.9332 13.0065 19.5445 12.3273C19.1559 11.648 19.3637 10.7656 20.0087 10.3563C21.4286 9.8378 21.8183 8.01814 21.8183 6.74376C21.8183 5.46938 21.1837 4.31223 20.1651 3.66597C19.5201 3.25668 19.3123 2.37426 19.7009 1.69502C20.0896 1.01579 20.9277 0.796948 21.5727 1.20623Z" fill="currentColor"/>
<circle cx="12" cy="7" r="4.5" stroke="currentColor" stroke-width="3"/>
</svg>
