<svg width="13" height="14" viewBox="0 0 13 14" fill="none" xmlns="http://www.w3.org/2000/svg">
<path d="M9.89143 7.415L10.0016 7.45818L10.1084 7.51147L11.5815 8.33046C11.972 8.54757 12.2256 8.94435 12.2624 9.38485L12.267 9.4958V11.187C12.267 12.5038 11.0191 13.4477 9.76993 13.0261C8.06285 12.45 6.44323 11.7151 5.09847 10.8054C4.79351 10.5991 4.71355 10.1846 4.91986 9.87964C5.12617 9.57468 5.54064 9.49471 5.8456 9.70103C7.0758 10.5333 8.59316 11.2218 10.1963 11.7628C10.5418 11.8794 10.8875 11.6415 10.9294 11.2642L10.9336 11.187V9.4958L9.46052 8.6768L7.88955 9.46228C7.75856 9.52778 7.60964 9.54832 7.46581 9.52073C7.27713 9.48454 6.98524 9.40038 6.63153 9.24997C6.2927 9.1059 6.13482 8.71442 6.27889 8.37559C6.42297 8.03676 6.81444 7.87889 7.15327 8.02296C7.26459 8.0703 7.36542 8.10807 7.45228 8.13732L7.516 8.15727L8.86426 7.4842C9.18645 7.32313 9.5567 7.30068 9.89143 7.415ZM11.8047 1.19453C12.0451 1.43485 12.0635 1.81301 11.8602 2.07453L11.8047 2.13734L1.13807 12.804C0.877722 13.0644 0.455612 13.0644 0.195262 12.804C-0.0450605 12.5637 -0.0635468 12.1855 0.139803 11.924L0.195262 11.8612L10.8619 1.19453C11.1223 0.93418 11.5444 0.93418 11.8047 1.19453ZM3.6654 0.894531C4.11253 0.894531 4.52719 1.11836 4.77322 1.48587L4.83114 1.5807L5.64665 3.04967C5.84077 3.39936 5.86669 3.81566 5.72199 4.18409L5.67345 4.29307L5 5.63927L5.00685 5.66139C5.02283 5.71072 5.04189 5.76565 5.06425 5.82538L5.10029 5.91847C5.23698 6.26035 5.07064 6.64831 4.72876 6.78499C4.38688 6.92168 3.99893 6.75534 3.86224 6.41346C3.80937 6.28121 3.76621 6.1596 3.7317 6.05114L3.67387 5.8525C3.65822 5.79263 3.64609 5.73935 3.63715 5.6934C3.61471 5.57795 3.6233 5.45914 3.66129 5.34891L3.69528 5.26803L4.48088 3.69679L3.66537 2.22783L1.97453 2.22786C1.55314 2.22786 1.27424 2.59641 1.39855 2.96477C1.91181 4.48576 2.56021 5.93507 3.34106 7.13587C3.54178 7.44454 3.45427 7.85748 3.1456 8.05819C2.83693 8.25891 2.42399 8.1714 2.22327 7.86273C1.37266 6.55465 0.681235 5.00916 0.135207 3.3911C-0.273561 2.17978 0.601695 0.970133 1.85587 0.897933L1.97453 0.894531H3.6654Z" fill="currentColor"/>
</svg>
