<svg width="15" height="16" viewBox="0 0 15 16" fill="none" xmlns="http://www.w3.org/2000/svg">
<path d="M6.66748 8.53403C6.66748 8.14129 6.29438 7.82292 5.83415 7.82292C5.37391 7.82292 5.00081 8.14129 5.00081 8.53403V12.0897C5.00081 12.4824 5.37391 12.8008 5.83415 12.8008C6.29438 12.8008 6.66748 12.4824 6.66748 12.0897V8.53403Z" fill="currentColor"/>
<path d="M9.16768 7.82222C9.62792 7.82222 10.001 8.1406 10.001 8.53334V12.0881C10.001 12.4808 9.62792 12.7992 9.16768 12.7992C8.70745 12.7992 8.33435 12.4808 8.33435 12.0881V8.53334C8.33435 8.1406 8.70745 7.82222 9.16768 7.82222Z" fill="currentColor"/>
<path fill-rule="evenodd" clip-rule="evenodd" d="M10.0038 0.327937C9.87961 0.16232 9.68066 0.0479514 9.45415 0.0119969C9.22765 -0.0239577 8.99381 0.0217108 8.80818 0.138154L2.22661 4.26667H0.833337C0.597401 4.26667 0.372522 4.35201 0.214506 4.50152C0.0564908 4.65103 -0.0198504 4.85069 0.00442717 5.05095L1.25443 15.3621C1.29837 15.7245 1.6563 16 2.08334 16H12.9167C13.3437 16 13.7016 15.7245 13.7456 15.3621L14.9956 5.05095C15.0199 4.85069 14.9435 4.65103 14.7855 4.50152C14.6275 4.35201 14.4026 4.26667 14.1667 4.26667H12.9562L10.0038 0.327937ZM12.4877 5.68889C12.4964 5.68901 12.5051 5.68901 12.5139 5.68889H13.2427L12.1651 14.5778H2.83491L1.75732 5.68889H2.49592C2.49909 5.68891 2.50225 5.68891 2.50542 5.68889H12.4877ZM10.9777 4.26667L9.07888 1.73349L5.04055 4.26667H10.9777Z" fill="currentColor"/>
</svg>
