<svg width="18" height="18" viewBox="0 0 18 18" fill="none" xmlns="http://www.w3.org/2000/svg">
<path d="M10.6154 9.9C11.1252 9.9 11.5385 10.3029 11.5385 10.8C11.5385 11.2616 11.1821 11.642 10.723 11.6939L10.6154 11.7L6.34396 11.7008L5.46273 11.7088L4.93878 11.7223L4.64555 11.7357L4.3915 11.7531L4.17174 11.775C4.13771 11.779 4.10489 11.7833 4.0732 11.7877L3.89575 11.8171C3.81295 11.8331 3.73844 11.8512 3.66948 11.8716L3.53814 11.9156L3.41671 11.9663C3.39703 11.9753 3.37756 11.9846 3.35819 11.9943C2.83713 12.2531 2.41348 12.6662 2.14798 13.1742L2.09245 13.2896C2.08379 13.3093 2.07542 13.3293 2.06734 13.3497L2.02218 13.4778C2.00822 13.5226 1.99531 13.5698 1.98339 13.6202L1.9505 13.7819C1.94548 13.8107 1.9407 13.8405 1.93613 13.8714L1.91127 14.0707L1.89119 14.3011L1.87545 14.5673L1.86361 14.8741L1.84979 15.6283L1.84615 16.2H10.6154C11.0888 16.2 11.4789 16.5474 11.5323 16.995L11.5385 17.1C11.5385 17.5616 11.1821 17.942 10.723 17.9939L10.6154 18H0.923077C0.44969 18 0.0595318 17.6526 0.00621018 17.205L0 17.1L0.000879875 16.0298L0.00728593 15.284L0.0161872 14.8566L0.0297813 14.4784L0.0489151 14.1437C0.0969846 13.4617 0.190026 13.0466 0.366806 12.6402L0.454483 12.4523C0.470134 12.4208 0.486316 12.3891 0.503046 12.3571C0.94554 11.5103 1.65161 10.8219 2.52007 10.3904L2.71433 10.2989C3.13137 10.1137 3.53688 10.0131 4.19582 9.9593L4.51891 9.93763L4.88378 9.92178L5.52208 9.9071L6.28695 9.90086L10.6154 9.9ZM13.9504 11.4387L14.0373 11.5136L15.2308 12.6765L16.4242 11.5136C16.7847 11.1621 17.3692 11.1621 17.7296 11.5136C18.0624 11.838 18.088 12.3485 17.8064 12.7016L17.7296 12.7864L16.5369 13.95L17.7296 15.1136C18.0901 15.4651 18.0901 16.0349 17.7296 16.3864C17.3969 16.7108 16.8733 16.7358 16.5112 16.4613L16.4242 16.3864L15.2308 15.2235L14.0373 16.3864C13.6768 16.7379 13.0924 16.7379 12.7319 16.3864C12.3991 16.062 12.3736 15.5515 12.6551 15.1984L12.7319 15.1136L13.9246 13.95L12.7319 12.7864C12.3714 12.4349 12.3714 11.8651 12.7319 11.5136C13.0647 11.1892 13.5883 11.1642 13.9504 11.4387ZM6.92308 0C9.21718 0 11.0769 1.81325 11.0769 4.05C11.0769 6.28676 9.21719 8.1 6.92308 8.1C4.62897 8.1 2.76923 6.28676 2.76923 4.05C2.76923 1.81325 4.62897 0 6.92308 0ZM6.92308 1.8C5.64857 1.8 4.61538 2.80736 4.61538 4.05C4.61538 5.29264 5.64857 6.3 6.92308 6.3C8.19758 6.3 9.23077 5.29264 9.23077 4.05C9.23077 2.80736 8.19758 1.8 6.92308 1.8Z" fill="currentColor"/>
</svg>
