<svg width="20" height="23" viewBox="0 0 20 23" fill="none" xmlns="http://www.w3.org/2000/svg">
<path d="M4.14121 6.60149C7.21768 1.15129 10.5919 1.54767 11.485 1.54767C20.4167 1.1513 19.9205 18.5919 18.1342 19.8802C16.3478 21.1684 16.5463 19.0874 14.9585 18.0965C13.3706 17.1055 13.4699 19.8802 11.485 21.4657C9.50022 23.0512 9.40098 18.7901 8.11084 16.61C6.82071 14.43 4.43893 18.0965 2.25563 19.0874C0.0723298 20.0784 1.06474 12.0517 4.14121 6.60149Z" stroke="currentColor" stroke-width="1.5"/>
<ellipse cx="8.51347" cy="8.29814" rx="1.75676" ry="1.89189" fill="currentColor"/>
<circle cx="14.1891" cy="8.70328" r="1.48649" fill="currentColor"/>
<path d="M5.1351 12.7568C4.48645 12.973 4.41438 11.6757 4.45942 11C4.72969 10.3244 5.40538 11.2703 6.89186 11.946C8.37835 12.6216 14.7297 12.4865 16.0811 12.2162C17.4324 11.946 17.8378 13.1622 17.2973 13.8379C16.7567 14.5135 16.8919 12.7568 15.8108 13.2973C14.7297 13.8379 11.3513 13.5676 9.86483 13.1622C8.37835 12.7568 7.027 13.7027 6.48646 13.0271C5.94592 12.3514 5.94591 12.4865 5.1351 12.7568Z" fill="currentColor"/>
</svg>
