<svg width="18" height="20" viewBox="0 0 18 20" fill="none" xmlns="http://www.w3.org/2000/svg">
<path d="M8.00098 10.6675C8.00098 10.1766 7.55326 9.77865 7.00098 9.77865C6.44869 9.77865 6.00098 10.1766 6.00098 10.6675V15.1121C6.00098 15.603 6.44869 16.001 7.00098 16.001C7.55326 16.001 8.00098 15.603 8.00098 15.1121V10.6675Z" fill="currentColor"/>
<path d="M11.0012 9.77778C11.5535 9.77778 12.0012 10.1757 12.0012 10.6667V15.1101C12.0012 15.601 11.5535 15.999 11.0012 15.999C10.4489 15.999 10.0012 15.601 10.0012 15.1101V10.6667C10.0012 10.1757 10.4489 9.77778 11.0012 9.77778Z" fill="currentColor"/>
<path fill-rule="evenodd" clip-rule="evenodd" d="M12.0045 0.409921C11.8555 0.2029 11.6168 0.0599393 11.345 0.0149961C11.0732 -0.0299471 10.7926 0.0271384 10.5698 0.172693L2.67193 5.33334H1C0.716881 5.33334 0.447027 5.44002 0.257408 5.6269C0.067789 5.81379 -0.0238205 6.06336 0.0053126 6.31369L1.50531 19.2026C1.55804 19.6557 1.98756 20 2.5 20H15.5C16.0124 20 16.442 19.6557 16.4947 19.2026L17.9947 6.31369C18.0238 6.06336 17.9322 5.81379 17.7426 5.6269C17.553 5.44002 17.2831 5.33334 17 5.33334H15.5474L12.0045 0.409921ZM14.9852 7.11111C14.9957 7.11126 15.0062 7.11126 15.0167 7.11111H15.8912L14.5981 18.2222H3.40189L2.10879 7.11111H2.99511C2.99891 7.11113 3.0027 7.11113 3.0065 7.11111H14.9852ZM13.1733 5.33334L10.8947 2.16686L6.04866 5.33334H13.1733Z" fill="currentColor"/>
</svg>
