<svg width="24" height="24" viewBox="0 0 24 24" fill="none" xmlns="http://www.w3.org/2000/svg">
<path d="M23.9935 10.969C23.9905 10.9235 23.982 10.88 23.967 10.837C23.9615 10.821 23.9575 10.8055 23.9505 10.79C23.9265 10.738 23.896 10.689 23.854 10.6475C23.8535 10.647 23.8535 10.647 23.8535 10.647L21 7.793V5C21 4.989 20.9945 4.9795 20.9935 4.9685C20.9905 4.9245 20.982 4.882 20.968 4.84C20.9625 4.824 20.9585 4.8085 20.951 4.793C20.9265 4.74 20.896 4.6895 20.853 4.6465L16.353 0.1465C16.31 0.1035 16.2595 0.0725 16.206 0.0485C16.191 0.0415 16.176 0.0375 16.1605 0.0325C16.118 0.0175 16.0745 0.009 16.029 0.0065C16.0195 0.005 16.0105 0 16 0H3.5C3.224 0 3 0.224 3 0.5V7.793L0.1465 10.6465C0.1465 10.6465 0.146 10.647 0.1455 10.6475C0.1035 10.6895 0.0735 10.7385 0.0495 10.79C0.0425 10.8055 0.0385 10.821 0.033 10.837C0.018 10.88 0.009 10.9235 0.0065 10.969C0.0055 10.98 0 10.989 0 11V20.5C0 20.776 0.224 21 0.5 21H3V23.5C3 23.776 3.224 24 3.5 24H20.5C20.776 24 21 23.776 21 23.5V21H23.5C23.776 21 24 20.776 24 20.5V11C24 10.989 23.9945 10.98 23.9935 10.969ZM22.293 10.5H21V9.207L22.293 10.5ZM19.293 4.5H16.5V1.707L19.293 4.5ZM4 1H15.5V5C15.5 5.276 15.724 5.5 16 5.5H20V8V10.5H4V8V1ZM3 9.207V10.5H1.707L3 9.207ZM20 23H4V21H20V23ZM23 20H1V11.5H3.5H20.5H23V20Z" fill="currentColor"/>
<path d="M4 18.68V13H7.816V13.968H5.104V15.432H7.36V16.328H5.104V18.68H4Z" fill="currentColor"/>
<path d="M8.59375 18.68V13H9.69775V18.68H8.59375Z" fill="currentColor"/>
<path d="M10.8828 18.68V13H11.9868V17.712H14.8828V18.68H10.8828Z" fill="currentColor"/>
<path d="M19.4987 17.712V18.68H15.5547V13H19.4267V13.968H16.6587V15.336H19.0507V16.232H16.6587V17.712H19.4987Z" fill="currentColor"/>
</svg>
