<svg width="16" height="16" viewBox="0 0 16 16" fill="none" xmlns="http://www.w3.org/2000/svg">
<path fill-rule="evenodd" clip-rule="evenodd" d="M2.34316 2.34315C3.78997 0.896306 5.79107 0 8 0C12.4183 0 16 3.58173 16 8C16 12.4183 12.4183 16 8 16C5.79107 16 3.78997 15.1037 2.34315 13.6568C2.03073 13.3444 2.03074 12.8379 2.34316 12.5255C2.65559 12.2131 3.16212 12.2131 3.47453 12.5255C4.63355 13.6845 6.23245 14.4 8 14.4C11.5346 14.4 14.4 11.5346 14.4 8C14.4 4.46539 11.5346 1.6 8 1.6C6.23245 1.6 4.63355 2.31547 3.47453 3.47452C3.25109 3.69796 2.92804 4.04308 2.60024 4.4H4C4.44183 4.4 4.8 4.75817 4.8 5.2C4.8 5.64183 4.44183 6 4 6H0.8C0.358172 6 0 5.64183 0 5.2V2C0 1.55817 0.358172 1.2 0.8 1.2C1.24183 1.2 1.6 1.55817 1.6 2V3.12438C1.87479 2.82739 2.1414 2.54491 2.34316 2.34315Z" fill="currentColor"/>
</svg>
