<svg width="24" height="24" viewBox="0 0 24 24" fill="none" xmlns="http://www.w3.org/2000/svg">
<g clip-path="url(#clip0)">
<path d="M20.4851 3.51487C15.7986 -1.17164 8.20036 -1.17164 3.51483 3.51497C-1.17164 8.20144 -1.17164 15.7996 3.51502 20.4852C8.20036 25.1716 15.7986 25.1716 20.4851 20.4851C25.1716 15.7996 25.1716 8.20144 20.4851 3.51487ZM19.071 19.0708C15.1655 22.9763 8.83369 22.9763 4.92923 19.071C1.0237 15.1664 1.0237 8.83458 4.92914 4.92914C8.83369 1.02366 15.1655 1.02366 19.0709 4.92914C22.9763 8.83463 22.9763 15.1664 19.071 19.0708Z" fill="white"/>
<path d="M12 4C11.4477 4 11 4.4477 11 4.99998V15C11 15.5522 11.4477 15.9999 12 15.9999C12.5523 15.9999 13 15.5522 13 15V4.99998C13 4.4477 12.5523 4 12 4Z" fill="white"/>
<path d="M11.5 4.99998C11.5 4.72385 11.7238 4.5 12 4.5C12.2761 4.5 12.5 4.72385 12.5 4.99998V15C12.5 15.2761 12.2761 15.4999 12 15.4999C11.7238 15.4999 11.5 15.2761 11.5 15V4.99998Z" stroke="white" stroke-opacity="0.5"/>
<path d="M12 18C11.448 18 11 18.448 11 19C11 19.552 11.448 20 12 20C12.552 20 13 19.552 13 19C13 18.448 12.552 18 12 18Z" fill="white"/>
<path d="M11.5 19C11.5 18.7241 11.7241 18.5 12 18.5C12.2758 18.5 12.5 18.7241 12.5 19C12.5 19.2758 12.2758 19.5 12 19.5C11.7241 19.5 11.5 19.2758 11.5 19Z" stroke="white" stroke-opacity="0.5"/>
</g>
<defs>
<clipPath id="clip0">
<rect width="24" height="24" fill="white"/>
</clipPath>
</defs>
</svg>
