<?xml version="1.0" encoding="UTF-8"?>
<svg width="24px" height="24px" viewBox="0 0 24 24" version="1.1" xmlns="http://www.w3.org/2000/svg" xmlns:xlink="http://www.w3.org/1999/xlink">
    <g id="Icons/ic-arrow-up" stroke="none" stroke-width="1" fill="none" fill-rule="evenodd">
        <g>
            <rect id="Rectangle" x="0" y="0" width="24" height="24"></rect>
            <g id="arrow_right_outline_28-@-forward" transform="translate(12.000000, 12.000000) rotate(-90.000000) translate(-12.000000, -12.000000) translate(3.000000, 4.000000)" fill="currentColor">
                <path d="M17.7071,7.2929 L10.7071,0.29289 C10.3166,-0.09763 9.6834,-0.09763 9.2929,0.29289 C8.9324,0.65338 8.9047,1.22061 9.2097,1.6129 L9.2929,1.70711 L14.586,7 L1,7 C0.48716,7 0.06449,7.386 0.00673,7.8834 L0,8 C0,8.5128 0.38604,8.9355 0.88338,8.9933 L1,9 L14.586,9 L9.2929,14.2929 C8.9324,14.6534 8.9047,15.2206 9.2097,15.6129 L9.2929,15.7071 C9.6534,16.0676 10.2206,16.0953 10.6129,15.7903 L10.7071,15.7071 L17.7071,8.7071 L17.8037,8.5953 L17.8753,8.4841 L17.9288,8.3713 L17.9642,8.266 L17.989,8.1485 L17.996,8.0893 L17.9998,7.9808 L17.996,7.9107 L17.9798,7.7993 L17.9503,7.6879 L17.9063,7.5768 L17.854,7.4793 L17.7872,7.3833 C17.7623,7.3515 17.7356,7.3214 17.7071,7.2929 L10.7071,0.29289 L17.7071,7.2929 Z" id="Path"></path>
            </g>
        </g>
    </g>
</svg>