<?xml version="1.0" encoding="UTF-8"?>
<svg width="24px" height="24px" viewBox="0 0 24 24" version="1.1" xmlns="http://www.w3.org/2000/svg" xmlns:xlink="http://www.w3.org/1999/xlink">
    <g id="Icons/ic-arrow-down" stroke="none" stroke-width="1" fill="none" fill-rule="evenodd">
        <g>
            <rect id="Rectangle" x="0" y="0" width="24" height="24"></rect>
            <g id="arrow_left_outline_28-@-back" transform="translate(12.000000, 12.000000) rotate(-90.000000) translate(-12.000000, -12.000000) translate(3.000000, 4.000000)" fill="currentColor">
                <path d="M7.2929,0.29289 C7.6834,-0.09763 8.3166,-0.09763 8.7071,0.29289 C9.0976,0.68342 9.0976,1.31658 8.7071,1.70711 L3.414,7 L17,7 C17.5128,7 17.9355,7.386 17.9933,7.8834 L18,8 C18,8.5523 17.5523,9 17,9 L3.414,9 L8.7071,14.2929 C9.0676,14.6534 9.0953,15.2206 8.7903,15.6129 L8.7071,15.7071 C8.3166,16.0976 7.6834,16.0976 7.2929,15.7071 L0.29289,8.7071 L0.21969,8.6254 C0.21737,8.6226 0.21507,8.6197 0.21279,8.6167 C0.20728,8.6098 0.20175,8.6026 0.19633,8.5953 C0.17849,8.5711 0.16172,8.5463 0.14607,8.5207 C0.13861,8.5086 0.1315,8.4964 0.12467,8.4841 C0.11379,8.4643 0.10338,8.4439 0.09365,8.4231 C0.08568,8.4061 0.0782,8.3888 0.07123,8.3713 C0.06332,8.3516 0.05612,8.3318 0.04955,8.3117 C0.04473,8.2969 0.0401,8.2815 0.03585,8.266 C0.02983,8.2444 0.02464,8.2227 0.02016,8.2008 C0.0167,8.1834 0.01363,8.1659 0.01102,8.1485 C0.00376,8.1004 0,8.0506 0,8 L0.00397,8.0893 C0.00189,8.066 0.00063,8.0427 0.00019,8.0194 L0,8 C0,7.9936 0,7.9872 0.00018,7.9808 C0.0006,7.958 0.00187,7.9343 0.00397,7.9107 C0.00577,7.8902 0.00811,7.8705 0.01102,7.851 C0.01363,7.8341 0.0167,7.8166 0.02024,7.7993 C0.02464,7.7773 0.02983,7.7556 0.03572,7.7342 C0.0401,7.7185 0.04473,7.7031 0.04974,7.6879 C0.05612,7.6682 0.06332,7.6484 0.0711,7.6289 C0.0782,7.6112 0.08568,7.5939 0.09367,7.5768 C0.10338,7.5561 0.11379,7.5357 0.12488,7.5157 C0.1315,7.5036 0.13861,7.4914 0.146,7.4793 C0.16172,7.4537 0.17849,7.4289 0.19631,7.4048 C0.22531,7.3657 0.2575,7.3283 0.29289,7.2929 L0.21279,7.3833 C0.23767,7.3515 0.26443,7.3214 0.29289,7.2929 L7.2929,0.29289 Z" id="Path"></path>
            </g>
        </g>
    </g>
</svg>