<?xml version="1.0" encoding="UTF-8"?>
<svg width="24px" height="24px" viewBox="0 0 24 24" version="1.1" xmlns="http://www.w3.org/2000/svg" xmlns:xlink="http://www.w3.org/1999/xlink">
    <g id="Icons/ic-check-outline" stroke="none" stroke-width="1" fill="none" fill-rule="evenodd">
        <g>
            <rect id="Rectangle" x="0" y="0" width="24" height="24"></rect>
            <g id="check_circle_outline_28" transform="translate(3.000000, 3.000000)" fill="currentColor">
                <path d="M9,0 C13.97055,0 18,4.029435 18,9 C18,13.97055 13.97055,18 9,18 C4.029435,18 0,13.97055 0,9 C0,4.029435 4.029435,0 9,0 Z M9,1.5 C4.8578625,1.5 1.5,4.8578625 1.5,9 C1.5,13.1421 4.8578625,16.5 9,16.5 C13.1421,16.5 16.5,13.1421 16.5,9 C16.5,4.8578625 13.1421,1.5 9,1.5 Z M12.2175,6.2175 C12.510375,5.92461 12.989625,5.92461 13.2825,6.2175 C13.575375,6.510375 13.575375,6.989625 13.2825,7.2825 L8.030325,12.530325 C7.73745,12.8232 7.26255,12.8232 6.969675,12.530325 L4.3446675,9.905325 C4.0517775,9.61245 4.0517775,9.13755 4.3446675,8.844675 C4.637565,8.5518 5.112435,8.5518 5.4053325,8.844675 L7.5,10.93935 L12.2175,6.2175 Z" id="Shape"></path>
            </g>
        </g>
    </g>
</svg>