<?xml version="1.0" encoding="UTF-8"?>
<svg width="24px" height="24px" viewBox="0 0 24 24" version="1.1" xmlns="http://www.w3.org/2000/svg" xmlns:xlink="http://www.w3.org/1999/xlink">
    <g id="Icons/ic-call-outline" stroke="none" stroke-width="1" fill="none" fill-rule="evenodd">
        <g>
            <rect id="Rectangle" x="0" y="0" width="24" height="24"></rect>
            <g id="phone_outline_28" transform="translate(3.000000, 4.000000)" fill="currentColor">
                <path d="M11.0439391,11.0183182 L10.4694261,11.5855773 C10.3159565,11.7372636 10.0872783,11.7871818 9.88333043,11.7134636 C9.31194783,11.5059864 8.5971913,10.9792955 7.73898261,10.1318455 C6.88147826,9.28509091 6.34734783,8.57928182 6.13801565,8.01434091 C6.06312783,7.81312273 6.11334783,7.58725455 6.26673913,7.43556818 L6.84195652,6.86830909 C7.90176522,5.82180455 7.99865217,4.17360818 7.06445217,3.07965045 L6.39,2.28807636 C5.62014,1.38397773 4.23318522,1.29287318 3.29122957,2.08368227 C2.94091043,2.381785 2.67755478,2.76684273 2.52836609,3.19907545 C2.46389478,3.38722682 2.42225217,3.58227864 2.40432261,3.78012 C2.05933304,6.3087 3.29433652,8.96286364 6.10855826,11.7417455 C8.92275652,14.5206273 11.6098435,15.7393727 14.1713217,15.3987545 C14.8367739,15.3360091 15.4521391,15.0223591 15.8893043,14.5229455 C16.6909304,13.5935864 16.5979565,12.2233091 15.683087,11.4631 L14.8814609,10.7963136 C13.772113,9.87537727 12.1036696,9.97181364 11.0439391,11.0183182 Z M8.84574783,9.03905455 C9.25567826,9.44388636 9.61317391,9.75089091 9.9021913,9.95999091 C11.5639043,8.31918182 14.1495652,8.16958182 15.8899304,9.61435 L16.6910087,10.2806727 C18.2790783,11.6003364 18.4379478,13.9518227 17.0734696,15.5335955 C16.3728,16.3339091 15.3866348,16.8366455 14.3802783,16.9303773 C11.2638522,17.3448682 8.12981739,15.9233591 5.00173826,12.8345364 C1.87357304,9.74555909 0.433377391,6.65024545 0.845334783,3.64239682 C0.87429913,3.32278909 0.941564348,3.00770955 1.04682522,2.70054273 C1.28591217,2.00784682 1.70797304,1.39074682 2.2773287,0.906300909 C3.87171391,-0.432248182 6.25205739,-0.275438636 7.58770435,1.29313591 L8.26106087,2.08342727 C9.72626087,3.79913682 9.57615652,6.35413636 7.94801739,7.96179545 C8.12488696,8.28124091 8.43566087,8.63406818 8.84574783,9.03905455 Z" id="Shape"></path>
            </g>
        </g>
    </g>
</svg>