<?xml version="1.0" encoding="UTF-8"?>
<svg width="24px" height="24px" viewBox="0 0 24 24" version="1.1" xmlns="http://www.w3.org/2000/svg" xmlns:xlink="http://www.w3.org/1999/xlink">
    <g id="Icons/ic-documents" stroke="none" stroke-width="1" fill="none" fill-rule="evenodd">
        <g>
            <rect id="Rectangle" x="0" y="0" width="24" height="24"></rect>
            <g id="document_outline_28" transform="translate(5.000000, 4.000000)" fill="currentColor">
                <path d="M7.84371,0.08136 C8.12735,0.14362 8.38362,0.244706667 8.63044,0.391693333 C8.87957,0.54008 9.07067,0.695953333 9.46505,1.07151333 L12.87489,4.31900667 C13.26927,4.69457333 13.43293,4.87662667 13.58875,5.11389333 C13.74303,5.34893333 13.84922,5.593 13.9146,5.86313333 C13.98054,6.1358 14,6.37473333 14,6.90586667 L14,11.4875333 C14,12.8074 13.87015,13.4476 13.49656,14.113 C13.15678,14.7180667 12.65397,15.1969333 12.01865,15.5205333 C11.31998,15.8763333 10.64777,16 9.26191,16 L4.73809,16 C3.352258,16 2.680006,15.8763333 1.98135,15.5205333 C1.34603,15.1969333 0.843241,14.7180667 0.503468,14.113 C0.129815,13.4476 0,12.8074 0,11.4875333 L0,4.04396667 C0,3.18739333 0.16219,2.49474667 0.503468,1.887 C0.843241,1.28193333 1.34603,0.803086667 1.98135,0.479493333 C2.619484,0.154466667 3.346763,0 4.2462,0 L6.74884,0 C7.30653,0 7.55741,0.0185133333 7.84371,0.08136 Z M6.87827,1.33369333 L4.2462,1.33333333 C3.565996,1.33333333 3.064474,1.43985333 2.64159,1.65524 C2.250241,1.85456667 1.947295,2.14308667 1.738002,2.5158 C1.511846,2.91854667 1.4,3.39618667 1.4,4.04396667 L1.4,11.4875333 C1.4,12.6060667 1.487654,13.0384 1.738002,13.4842 C1.947295,13.8569333 2.250241,14.1454 2.64159,14.3447333 C3.109701,14.5832 3.563609,14.6666667 4.73809,14.6666667 L9.26191,14.6666667 C10.43637,14.6666667 10.89032,14.5832 11.35841,14.3447333 C11.74978,14.1454 12.05267,13.8569333 12.26197,13.4842 C12.51236,13.0384 12.6,12.6060667 12.6,11.4875333 L12.6,6.90586667 C12.6,6.81433333 12.59944,6.7354 12.59832,6.6664 L8.75,6.66666667 C7.78351,6.66666667 7,5.92046667 7,5 L7.00105,1.33496667 C6.96311,1.33438 6.92237,1.33396 6.87827,1.33369333 Z M8.47511,2.01432667 L8.4,1.94333333 L8.4,5 C8.4,5.16364 8.52383,5.29974 8.68707,5.32796 L8.75,5.33333333 L11.96111,5.33473333 C11.93717,5.31166667 11.91183,5.28740667 11.88495,5.26182 L8.47511,2.01432667 Z" id="Shape"></path>
            </g>
        </g>
    </g>
</svg>