<?xml version="1.0" encoding="UTF-8"?>
<svg width="24px" height="24px" viewBox="0 0 24 24" version="1.1" xmlns="http://www.w3.org/2000/svg" xmlns:xlink="http://www.w3.org/1999/xlink">
    <g id="Icons/ic-dismiss" stroke="none" stroke-width="1" fill="none" fill-rule="evenodd">
        <g>
            <rect id="Base" x="0" y="0" width="24" height="24"></rect>
            <path d="M12,3 C16.97055,3 21,7.029435 21,12 C21,16.97055 16.97055,21 12,21 C7.029435,21 3,16.97055 3,12 C3,7.029435 7.029435,3 12,3 Z M15.5523,8.4477 C15.288675,8.1840975 14.861325,8.1840975 14.5977,8.4477 L12,11.04525 L9.4022925,8.4477 L9.3331725,8.3872875 C9.068595,8.1859275 8.689335,8.206065 8.4477,8.4477 L8.3872875,8.51682 C8.1859275,8.7813975 8.206065,9.1606575 8.4477,9.4022925 L11.04525,12 L8.4477,14.5977 C8.1840975,14.861325 8.1840975,15.288675 8.4477,15.5523 C8.7113025,15.815925 9.13869,15.815925 9.4022925,15.5523 L12,12.95475 L14.5977,15.5523 L14.66685,15.612675 C14.931375,15.81405 15.31065,15.79395 15.5523,15.5523 L15.612675,15.48315 C15.81405,15.218625 15.79395,14.83935 15.5523,14.5977 L12.95475,12 L15.5523,9.4022925 C15.815925,9.13869 15.815925,8.7113025 15.5523,8.4477 Z" id="Icon" fill="currentColor"></path>
        </g>
    </g>
</svg>