<?xml version="1.0" encoding="UTF-8"?>
<svg width="24px" height="24px" viewBox="0 0 24 24" version="1.1" xmlns="http://www.w3.org/2000/svg" xmlns:xlink="http://www.w3.org/1999/xlink">
    <g id="Icons/Download" stroke="none" stroke-width="1" fill="none" fill-rule="evenodd">
        <g>
            <rect id="Rectangle" x="0" y="0" width="24" height="24"></rect>
            <g id="download_24" transform="translate(5.000000, 4.000000)" fill="currentColor">
                <path d="M4,0 L10,0 L10,6 L13.0343,6 C13.2552,6 13.4343,6.17909 13.4343,6.4 C13.4343,6.50609 13.3922,6.60783 13.3172,6.68284 L7.2828,12.7172 C7.1266,12.8734 6.8734,12.8734 6.7172,12.7172 L0.68284,6.68284 C0.52663,6.52663 0.52663,6.27337 0.68284,6.11716 C0.75786,6.04214 0.8596,6 0.96569,6 L4,6 L4,0 Z M1,15 L13,15 C13.5523,15 14,15.4477 14,16 C14,16.5523 13.5523,17 13,17 L1,17 C0.44772,17 0,16.5523 0,16 C0,15.4477 0.44772,15 1,15 Z" id="Shape"></path>
            </g>
        </g>
    </g>
</svg>