<?xml version="1.0" encoding="UTF-8"?>
<svg width="24px" height="24px" viewBox="0 0 24 24" version="1.1" xmlns="http://www.w3.org/2000/svg" xmlns:xlink="http://www.w3.org/1999/xlink">
    <title>Icons/ic-email_1</title>
    <g id="Icons/ic-email_1" stroke="none" stroke-width="1" fill="none" fill-rule="evenodd">
        <g id="Icons/ic-email">
            <rect id="Rectangle" x="0" y="0" width="24" height="24"></rect>
            <g id="mention_outline_28" transform="translate(3.000000, 3.000000)" fill="currentColor">
                <path d="M8.73237273,17.7264 C7.01713636,17.7264 5.52008455,17.3947304 4.24113545,16.731313 C2.96218636,16.0678957 1.97409273,15.1263391 1.27682182,13.9065652 C0.579550909,12.6867913 0.230923636,11.2637739 0.230923636,9.63743478 L0.230923636,9.04891304 C0.230923636,7.42969565 0.594466364,5.99236435 1.32156818,4.73691913 C2.04867,3.48148174 3.07031727,2.50603043 4.38655091,1.81054957 C5.70278455,1.11506087 7.20728182,0.767324348 8.9001,0.767324348 L8.98960909,0.767324348 C10.5705818,0.767324348 11.9856273,1.07939739 13.2347455,1.7035513 C14.4838636,2.32770522 15.4607727,3.19080522 16.1654727,4.29288261 C16.8702545,5.39496 17.2225636,6.64505217 17.2225636,8.04310435 L17.2225636,8.57809565 C17.2225636,9.53397391 17.0585182,10.3792696 16.7304273,11.1139826 C16.4022545,11.8486957 15.9436636,12.4210957 15.3544909,12.8312609 C14.7654,13.2414261 14.0867182,13.4464696 13.3186091,13.4464696 C12.6251182,13.4464696 12.0285,13.3074 11.5288364,13.0291826 C11.0292545,12.7510435 10.7309455,12.3872087 10.6339909,11.9378348 L10.5221455,11.9378348 C10.4400818,12.2160522 10.2760364,12.4710261 10.0299273,12.7028348 C9.78381818,12.9347217 9.48370909,13.1166 9.12943636,13.2485478 C8.77524545,13.3804957 8.4042,13.4464696 8.01646364,13.4464696 C7.40495455,13.4464696 6.87174545,13.3038783 6.41683636,13.0185391 C5.96192727,12.7332 5.61142636,12.3266348 5.36533364,11.7987652 C5.11924091,11.2708957 4.99619455,10.6467652 4.99619455,9.92629565 L4.99619455,8.85631304 C4.99619455,8.15728696 5.12110636,7.5474 5.37093,7.02665217 C5.62075364,6.50590435 5.9787,6.10649217 6.44481818,5.82829826 C6.91085455,5.55009652 7.45715455,5.41100348 8.08355455,5.41100348 C8.63541818,5.41100348 9.12010909,5.54118261 9.53770909,5.8015487 C9.95539091,6.06190696 10.2312818,6.40252174 10.3655455,6.8234087 L10.4549727,6.8234087 L10.4549727,6.5451913 C10.4549727,6.25985217 10.5370364,6.03337304 10.7010818,5.86574609 C10.8651273,5.6981113 11.0889,5.61430174 11.3722364,5.61430174 C11.6482091,5.61430174 11.8681364,5.6981113 12.0322636,5.86574609 C12.1963091,6.03337304 12.2783727,6.25985217 12.2783727,6.5451913 L12.2783727,10.8250435 C12.2783727,11.1888783 12.3939,11.4795391 12.6251182,11.6971043 C12.8562545,11.9146696 13.1583273,12.0234522 13.5311727,12.0234522 C13.9264364,12.0234522 14.2731818,11.8771826 14.5714909,11.5847217 C14.8698,11.2922609 15.0990545,10.8767739 15.2594182,10.3382609 C15.4197818,9.79966957 15.4999636,9.17021739 15.4999636,8.44974783 L15.4999636,8.09663478 C15.4999636,6.97672174 15.2221091,5.9745287 14.6665636,5.09001652 C14.1110182,4.20549652 13.3391455,3.51359217 12.3510273,3.01426435 C11.3629091,2.51494435 10.2424909,2.26528435 8.98960909,2.26528435 L8.9001,2.26528435 C7.5429,2.26528435 6.34221818,2.55060783 5.29821818,3.12126261 C4.25417727,3.69191739 3.44319545,4.49617304 2.86524818,5.53405304 C2.28729273,6.57195652 1.99832727,7.76496522 1.99832727,9.11308696 L1.99832727,9.57318261 C1.99832727,10.9142609 2.27797364,12.0894261 2.83728273,13.0987565 C3.39659182,14.108087 4.18892727,14.8856087 5.21432182,15.4313217 C6.2397,15.9769565 7.43473636,16.2498522 8.79946364,16.2498522 L8.88897273,16.2498522 C9.39608182,16.2498522 10.0261636,16.1963217 10.7793818,16.0893391 C11.1746455,16.0394087 11.4318818,16.0144435 11.5512545,16.0144435 C11.7675,16.0144435 11.9465182,16.0768174 12.0881455,16.2016435 C12.2298545,16.3265478 12.3007091,16.4852609 12.3007091,16.6777826 C12.3007091,16.8703826 12.2410636,17.0344957 12.1216909,17.1700435 C12.0024,17.305513 11.8309091,17.4018522 11.6071364,17.4589043 C10.8837818,17.6372609 9.95907273,17.7264 8.83300909,17.7264 L8.73237273,17.7264 Z M6.9426,9.68016522 C6.9426,10.4006348 7.08610909,10.9481478 7.37320909,11.3226261 C7.66030909,11.6971043 8.08355455,11.8843043 8.64286364,11.8843043 C9.19472727,11.8843043 9.61600909,11.7042261 9.90687273,11.3439913 C10.1977364,10.9837565 10.3431273,10.461287 10.3431273,9.77650435 L10.3431273,8.90984348 C10.3431273,8.28211304 10.1884091,7.78633043 9.87889091,7.42257391 C9.56945455,7.05873913 9.14997273,6.87686087 8.62044545,6.87686087 C8.091,6.87686087 7.67896364,7.06766087 7.38441818,7.44933913 C7.08987273,7.83093913 6.9426,8.36413043 6.9426,9.04891304 L6.9426,9.68016522 Z" id="Shape"></path>
            </g>
        </g>
    </g>
</svg>