<?xml version="1.0" encoding="UTF-8"?>
<svg width="24px" height="24px" viewBox="0 0 24 24" version="1.1" xmlns="http://www.w3.org/2000/svg" xmlns:xlink="http://www.w3.org/1999/xlink">
    <title>Icons/ic-fullscreen-exit</title>
    <g id="Icons/ic-fullscreen-exit" stroke="none" stroke-width="1" fill="none" fill-rule="evenodd">
        <g>
            <rect id="Rectangle" x="0" y="0" width="24" height="24"></rect>
            <g id="fullscreen_exit_24" transform="translate(3.000000, 3.000000)" fill="currentColor">
                <path d="M6.8625,10.125 C7.4217375,10.125 7.875,10.5782625 7.875,11.1375 L7.875,15.8625 C7.875,16.4217375 7.4217375,16.875 6.8625,16.875 C6.3033075,16.875 5.85,16.4217375 5.85,15.8625 L5.85,13.5819 L1.72845,17.70345 C1.333035,18.0988875 0.691965,18.0988875 0.29655,17.70345 C-0.09885375,17.3080125 -0.09885375,16.6669875 0.29655,16.27155 L4.41811125,12.15 L2.13751125,12.15 C1.57831875,12.15 1.12501125,11.6967375 1.12501125,11.1375 C1.12501125,10.5782625 1.57831875,10.125 2.13751125,10.125 L6.8625,10.125 Z M17.70345,0.29655 C18.0988875,0.691965 18.0988875,1.333035 17.70345,1.72845 L13.5819,5.85 L15.860475,5.85 C16.4196,5.85 16.872975,6.3033075 16.872975,6.8625 C16.872975,7.4217375 16.4196,7.875 15.860475,7.875 L11.1375,7.875 C10.5782625,7.875 10.125,7.4217375 10.125,6.8625 L10.125,2.13751125 C10.125,1.57831875 10.5782625,1.12501125 11.1375,1.12501125 C11.6967375,1.12501125 12.15,1.57831875 12.15,2.13751125 L12.15,4.41811125 L16.27155,0.29655 C16.6669875,-0.09885375 17.3080125,-0.09885375 17.70345,0.29655 Z" id="Combined-Shape"></path>
            </g>
        </g>
    </g>
</svg>