<svg width="24" height="24" viewBox="0 0 24 24" fill="none" xmlns="http://www.w3.org/2000/svg">
<path fill-rule="evenodd" clip-rule="evenodd" d="M12 2.18182C11.0963 2.18182 10.3636 2.91444 10.3636 3.81818C10.3636 4.72192 11.0963 5.45455 12 5.45455C12.9037 5.45455 13.6364 4.72192 13.6364 3.81818C13.6364 2.91444 12.9037 2.18182 12 2.18182ZM14.9996 6.18081C15.5123 5.53084 15.8182 4.71024 15.8182 3.81818C15.8182 1.70946 14.1087 0 12 0C9.89128 0 8.18182 1.70946 8.18182 3.81818C8.18182 4.71024 8.48773 5.53084 9.00038 6.18081C7.16324 7.12972 5.8331 8.92307 5.52336 11.0474C3.91093 11.4943 2.72727 12.9726 2.72727 14.7273C2.72727 15.6193 3.03319 16.4399 3.54583 17.0899C1.43976 18.1777 0 20.3753 0 22.9091C0 23.5116 0.488417 24 1.09091 24C1.6934 24 2.18182 23.5116 2.18182 22.9091C2.18182 20.4991 4.13549 18.5455 6.54545 18.5455C8.9554 18.5455 10.9091 20.4991 10.9091 22.9091C10.9091 23.5116 11.3975 24 12 24C12.6025 24 13.0909 23.5116 13.0909 22.9091C13.0909 20.4991 15.0446 18.5455 17.4545 18.5455C19.8645 18.5455 21.8182 20.4991 21.8182 22.9091C21.8182 23.5116 22.3066 24 22.9091 24C23.5116 24 24 23.5116 24 22.9091C24 20.3753 22.5602 18.1777 20.4542 17.0899C20.9668 16.4399 21.2727 15.6193 21.2727 14.7273C21.2727 12.9726 20.0891 11.4943 18.4766 11.0474C18.1669 8.92307 16.8368 7.12972 14.9996 6.18081ZM16.27 11.0964C15.8538 9.12005 14.1001 7.63636 12 7.63636C9.89985 7.63636 8.14619 9.12005 7.73004 11.0964C9.25887 11.5949 10.3636 13.0321 10.3636 14.7273C10.3636 15.6193 10.0577 16.4399 9.54507 17.0899C10.5388 17.6032 11.3842 18.3635 12 19.2897C12.6158 18.3635 13.4612 17.6032 14.4549 17.0899C13.9423 16.4399 13.6364 15.6193 13.6364 14.7273C13.6364 13.0321 14.7411 11.5949 16.27 11.0964ZM17.4545 16.3636C18.3583 16.3636 19.0909 15.631 19.0909 14.7273C19.0909 13.8235 18.3583 13.0909 17.4545 13.0909C16.5508 13.0909 15.8182 13.8235 15.8182 14.7273C15.8182 15.631 16.5508 16.3636 17.4545 16.3636ZM6.54545 16.3636C7.44919 16.3636 8.18182 15.631 8.18182 14.7273C8.18182 13.8235 7.44919 13.0909 6.54545 13.0909C5.64172 13.0909 4.90909 13.8235 4.90909 14.7273C4.90909 15.631 5.64172 16.3636 6.54545 16.3636Z" fill="white"/>
</svg>
