<?xml version="1.0" encoding="UTF-8"?>
<svg width="24px" height="24px" viewBox="0 0 24 24" version="1.1" xmlns="http://www.w3.org/2000/svg" xmlns:xlink="http://www.w3.org/1999/xlink">
    <g id="Icons/ic-leave-chat" stroke="none" stroke-width="1" fill="none" fill-rule="evenodd">
        <g>
            <rect id="Rectangle" x="0" y="0" width="24" height="24"></rect>
            <g id="icons8-logout_rounded" transform="translate(3.000000, 4.000000)" fill="currentColor">
                <path d="M8.30769231,0 C3.72775403,0 0,3.58968907 0,8 C0,12.4103107 3.72775403,16 8.30769231,16 C10.0764852,16 11.7115615,15.4542833 13.0524342,14.5455727 C13.3653345,14.3337915 13.4407047,13.9178478 13.2207781,13.6165363 C13.0008515,13.3152249 12.56891,13.2426462 12.2560096,13.4544273 C11.1336515,14.21505 9.78166869,14.6666667 8.30769231,14.6666667 C4.47609212,14.6666667 1.38461538,11.6896893 1.38461538,8 C1.38461538,4.31031093 4.47609212,1.33333333 8.30769231,1.33333333 C9.78166869,1.33333333 11.1336515,1.7849498 12.2560096,2.54557293 C12.4584208,2.68257132 12.7213552,2.70517743 12.9457681,2.60487576 C13.170181,2.50457409 13.3219786,2.29660286 13.3439804,2.05930282 C13.3659821,1.82200277 13.2548453,1.59142544 13.0524342,1.45442707 C11.7115615,0.545716867 10.0764852,0 8.30769231,0 Z M13.8393928,4.66015627 C13.5576769,4.66022773 13.3040946,4.82466015 13.1980872,5.07600316 C13.0920797,5.32734618 13.1547862,5.61547939 13.3566708,5.80468733 L14.9441109,7.33333333 L7.61538462,7.33333333 C7.3657136,7.32993314 7.13348213,7.4562502 7.00761619,7.66391523 C6.88175025,7.87158027 6.88175025,8.12841973 7.00761619,8.33608477 C7.13348213,8.5437498 7.3657136,8.67006686 7.61538462,8.66666667 L14.9441109,8.66666667 L13.3566708,10.1953127 C13.1758118,10.3625237 13.1029569,10.610824 13.166204,10.844452 C13.229451,11.0780801 13.4189168,11.2605287 13.6615306,11.3214332 C13.9041443,11.3823378 14.1619946,11.3121812 14.3356368,11.1380207 L17.0440207,8.529948 C17.2159491,8.40365289 17.316729,8.20725875 17.3164642,7.99902632 C17.3161984,7.79079389 17.2149184,7.59463847 17.0426686,7.46875 L14.3356368,4.86197933 C14.2052953,4.73295742 14.0263171,4.66015627 13.8393928,4.66015627 Z" id="Shape"></path>
            </g>
        </g>
    </g>
</svg>