<?xml version="1.0" encoding="UTF-8"?>
<svg width="24px" height="24px" viewBox="0 0 24 24" version="1.1" xmlns="http://www.w3.org/2000/svg" xmlns:xlink="http://www.w3.org/1999/xlink">
    <g id="Icons/ic-microphone" stroke="none" stroke-width="1" fill="none" fill-rule="evenodd">
        <g>
            <rect id="Rectangle" x="0" y="0" width="24" height="24"></rect>
            <g id="voice_outline_28" transform="translate(5.000000, 3.000000)" fill="currentColor">
                <path d="M14.25,7.5 C14.664225,7.5 15,7.835775 15,8.25 C15,12.13875 12.040425,15.336225 8.250825,15.712875 L8.25,17.25 C8.25,17.664225 7.914225,18 7.5,18 C7.085775,18 6.75,17.664225 6.75,17.25 L6.749925,15.71295 C2.959965,15.3366 0,12.138975 0,8.25 C0,7.835775 0.33579,7.5 0.75,7.5 C1.16421,7.5 1.5,7.835775 1.5,8.25 C1.5,11.563725 4.18629,14.25 7.5,14.25 C10.813725,14.25 13.5,11.563725 13.5,8.25 C13.5,7.835775 13.835775,7.5 14.25,7.5 Z M7.5,0 C9.985275,0 12,2.0147175 12,4.5 L12,8.25 C12,10.735275 9.985275,12.75 7.5,12.75 C5.014725,12.75 3,10.735275 3,8.25 L3,4.5 C3,2.0147175 5.014725,0 7.5,0 Z M7.5,1.5 C5.843175,1.5 4.5,2.843145 4.5,4.5 L4.5,8.25 C4.5,9.906825 5.843175,11.25 7.5,11.25 C9.156825,11.25 10.5,9.906825 10.5,8.25 L10.5,4.5 C10.5,2.843145 9.156825,1.5 7.5,1.5 Z" id="Shape"></path>
            </g>
        </g>
    </g>
</svg>