<?xml version="1.0" encoding="UTF-8"?>
<svg width="24px" height="24px" viewBox="0 0 24 24" version="1.1" xmlns="http://www.w3.org/2000/svg" xmlns:xlink="http://www.w3.org/1999/xlink">
    <title>Icons/ic-notifications-on</title>
    <g id="Icons/ic-notifications-on" stroke="none" stroke-width="1" fill="none" fill-rule="evenodd">
        <g>
            <rect id="Rectangle" x="0" y="0" width="24" height="24"></rect>
            <g id="notification_outline_28" transform="translate(3.000000, 3.000000)" fill="currentColor">
                <path d="M9.00376364,0.409090909 C12.7111909,0.409090909 15.5454545,3.51333 15.5454545,7.43031818 L15.5416909,8.92480909 C15.5420182,9.17623636 15.7046727,9.46693636 16.1455909,9.98590909 C16.2009818,10.0511182 16.2531,10.1115 16.3671545,10.2432273 C17.2426909,11.2563 17.5909091,11.8427727 17.5909091,12.7539818 C17.5909091,13.1639727 17.5442727,13.4824091 17.3500364,13.8645818 C16.9360364,14.6789182 16.0512545,15.1363636 14.7272727,15.1363636 L12.5991,15.1369364 C12.0526364,16.9891364 10.8100636,18 9,18 C7.18993636,18 5.94736364,16.9891364 5.40094091,15.1369364 L3.27272727,15.1363636 C1.91031545,15.1363636 1.01620636,14.6665636 0.620157273,13.8241636 C0.44838,13.4588455 0.409090909,13.1625 0.409090909,12.7539818 C0.409090909,11.8431818 0.756613636,11.2567091 1.63049727,10.2438 C1.74429,10.1120727 1.79633455,10.0516909 1.85161091,9.98648182 C2.29230818,9.46685455 2.45454545,9.17599091 2.45454545,8.92399091 L2.45454545,7.42819091 C2.45454545,3.51467182 5.29528909,0.409090909 9.00376364,0.409090909 Z M10.8649636,15.1370182 L7.13503636,15.1370182 C7.50387273,15.9898909 8.09893636,16.3636364 9,16.3636364 C9.90106364,16.3636364 10.4961273,15.9898909 10.8649636,15.1370182 Z M9.00376364,2.04545455 C6.23323636,2.04545455 4.09090909,4.38745909 4.09090909,7.42819091 L4.09090909,8.92399091 C4.09090909,9.68301818 3.7764,10.2468273 3.09960818,11.0448818 C3.03961909,11.1155727 2.98298455,11.1813545 2.86950273,11.3126727 C2.24764364,12.0334909 2.04545455,12.3746727 2.04545455,12.7539818 C2.04545455,12.9390545 2.05852091,13.0375636 2.10101727,13.1279727 C2.20241455,13.3436455 2.50002,13.5 3.27272727,13.5 L14.7272727,13.5 C15.4752545,13.5 15.7797,13.3425818 15.8913818,13.1229818 C15.9396545,13.0279091 15.9545455,12.9263727 15.9545455,12.7539818 C15.9545455,12.3750818 15.7519636,12.0339 15.1290818,11.3132455 C15.0154364,11.1819273 14.9586545,11.1161455 14.8986,11.0454545 C14.2204909,10.2473182 13.9053273,9.68342727 13.9053273,8.92399091 L13.9090909,7.42819091 C13.9090909,4.38552 11.7724909,2.04545455 9.00376364,2.04545455 Z" id="Shape"></path>
            </g>
        </g>
    </g>
</svg>