<?xml version="1.0" encoding="UTF-8"?>
<svg width="24px" height="24px" viewBox="0 0 24 24" version="1.1" xmlns="http://www.w3.org/2000/svg" xmlns:xlink="http://www.w3.org/1999/xlink">
    <title>Icons/ic-preferences</title>
    <g id="Icons/ic-preferences" stroke="none" stroke-width="1" fill="none" fill-rule="evenodd">
        <g>
            <rect id="Rectangle" x="0" y="0" width="24" height="24"></rect>
            <path d="M15,13.1 C16.2987,13.1 17.3979,13.9536 17.7674,15.1304 C17.8416,15.1106 17.9196,15.1 18,15.1 L20,15.1 C20.4971,15.1 20.9,15.5029 20.9,16 C20.9,16.4971 20.4971,16.9 20,16.9 L18,16.9 C17.9196,16.9 17.8416,16.8894 17.7674,16.8696 C17.3979,18.0464 16.2987,18.9 15,18.9 C13.7014,18.9 12.6021,18.0464 12.2327,16.8696 C12.1584,16.8894 12.0805,16.9 12,16.9 L4.00001,16.9 C3.50295,16.9 3.10001,16.4971 3.10001,16 C3.10001,15.5029 3.50295,15.1 4.00001,15.1 L12,15.1 C12.0805,15.1 12.1584,15.1106 12.2327,15.1304 C12.6021,13.9536 13.7014,13.1 15,13.1 Z M15,14.9 C14.3925,14.9 13.9,15.3925 13.9,16 C13.9,16.6075 14.3925,17.1 15,17.1 C15.6075,17.1 16.1,16.6075 16.1,16 C16.1,15.3925 15.6075,14.9 15,14.9 Z M9.00001,5.10001 C10.2987,5.10001 11.3979,5.95362 11.7674,7.13037 C11.8416,7.11057 11.9196,7.10001 12,7.10001 L12,7.10001 L20,7.10001 C20.4971,7.10001 20.9,7.50295 20.9,8.00001 C20.9,8.49706 20.4971,8.90001 20,8.90001 L20,8.90001 L12,8.90001 C11.9196,8.90001 11.8416,8.88945 11.7674,8.86964 C11.3979,10.0464 10.2987,10.9 9.00001,10.9 C7.70136,10.9 6.60208,10.0464 6.23266,8.86965 C6.15844,8.88945 6.08046,8.90001 6.00001,8.90001 L6.00001,8.90001 L4.00001,8.90001 C3.50295,8.90001 3.10001,8.49706 3.10001,8.00001 C3.10001,7.50295 3.50295,7.10001 4.00001,7.10001 L4.00001,7.10001 L6.00001,7.10001 C6.08046,7.10001 6.15844,7.11056 6.23266,7.13037 C6.60208,5.95362 7.70136,5.10001 9.00001,5.10001 Z M9.00001,6.90001 C8.39249,6.90001 7.90001,7.39249 7.90001,8.00001 C7.90001,8.60752 8.39249,9.10001 9.00001,9.10001 C9.60752,9.10001 10.1,8.60752 10.1,8.00001 C10.1,7.39249 9.60752,6.90001 9.00001,6.90001 Z" id="Icon" fill="currentColor"></path>
        </g>
    </g>
</svg>