<?xml version="1.0" encoding="UTF-8"?>
<svg width="24px" height="24px" viewBox="0 0 24 24" version="1.1" xmlns="http://www.w3.org/2000/svg" xmlns:xlink="http://www.w3.org/1999/xlink">
    <g id="Icons/ic-photo" stroke="none" stroke-width="1" fill="none" fill-rule="evenodd">
        <g>
            <rect id="Rectangle" x="0" y="0" width="24" height="24"></rect>
            <g id="story_outline_28" transform="translate(3.000000, 3.000000)" fill="currentColor">
                <path d="M12.2119364,0.00139909091 C13.8141,0.0183190909 14.6294182,0.190971818 15.4748455,0.643107273 C16.2841091,1.07589273 16.9240909,1.71589091 17.3569091,2.52514636 C17.8090364,3.37055727 17.9816727,4.18589182 17.9986091,5.78806364 L17.9986091,12.2119364 C17.9816727,13.8141 17.8090364,14.6294182 17.3569091,15.4748455 C16.9240909,16.2841091 16.2841091,16.9240909 15.4748455,17.3569091 C14.6294182,17.8090364 13.8141,17.9816727 12.2119364,17.9986091 L5.78806364,17.9986091 C4.18589182,17.9816727 3.37055727,17.8090364 2.52514636,17.3569091 C1.71589091,16.9240909 1.07589273,16.2841091 0.643107273,15.4748455 C0.190971818,14.6294182 0.0183190909,13.8141 0.00139909091,12.2119364 L0.00139909091,5.78806364 C0.0183190909,4.18589182 0.190971818,3.37055727 0.643107273,2.52514636 C1.07589273,1.71589091 1.71589091,1.07589273 2.52514636,0.643107273 C3.37055727,0.190971818 4.18589182,0.0183190909 5.78806364,0.00139909091 L12.2119364,0.00139909091 Z M11.9375182,1.63636364 L6.06248182,1.63636364 L5.60645182,1.64035636 C4.39612364,1.66330636 3.85419273,1.78800545 3.29684727,2.08606909 C2.77276909,2.36635364 2.36635364,2.77276909 2.08606909,3.29684727 C1.78800545,3.85419273 1.66330636,4.39612364 1.64035636,5.60645182 L1.63636364,6.06248182 L1.63636364,11.9375182 L1.64035636,12.3935727 C1.66330636,13.6039091 1.78800545,14.1457909 2.08606909,14.7031364 C2.36635364,15.2272636 2.77276909,15.6336545 3.29684727,15.9139636 C3.85419273,16.2120273 4.39612364,16.3367182 5.60645182,16.3596273 L6.06248182,16.3636364 L11.9375182,16.3636364 L12.3935727,16.3596273 C13.6039091,16.3367182 14.1457909,16.2120273 14.7031364,15.9139636 C15.2272636,15.6336545 15.6336545,15.2272636 15.9139636,14.7031364 C16.2120273,14.1457909 16.3367182,13.6039091 16.3596273,12.3935727 L16.3636364,11.9375182 L16.3636364,6.06248182 L16.3596273,5.60645182 C16.3367182,4.39612364 16.2120273,3.85419273 15.9139636,3.29684727 C15.6336545,2.77276909 15.2272636,2.36635364 14.7031364,2.08606909 C14.1457909,1.78800545 13.6039091,1.66330636 12.3935727,1.64035636 L11.9375182,1.63636364 Z M9,4.70454545 C11.3723182,4.70454545 13.2954545,6.62768182 13.2954545,9 C13.2954545,11.3723182 11.3723182,13.2954545 9,13.2954545 C6.62768182,13.2954545 4.70454545,11.3723182 4.70454545,9 C4.70454545,6.62768182 6.62768182,4.70454545 9,4.70454545 Z M9,6.34090909 C7.53144545,6.34090909 6.34090909,7.53144545 6.34090909,9 C6.34090909,10.4685545 7.53144545,11.6590909 9,11.6590909 C10.4685545,11.6590909 11.6590909,10.4685545 11.6590909,9 C11.6590909,7.53144545 10.4685545,6.34090909 9,6.34090909 Z" id="Shape"></path>
            </g>
        </g>
    </g>
</svg>