<?xml version="1.0" encoding="UTF-8"?>
<svg width="24px" height="24px" viewBox="0 0 24 24" version="1.1" xmlns="http://www.w3.org/2000/svg" xmlns:xlink="http://www.w3.org/1999/xlink">
    <g id="Icons/Pause" stroke="none" stroke-width="1" fill="none" fill-rule="evenodd">
        <g>
            <rect id="Rectangle" x="0" y="0" width="24" height="24"></rect>
            <g id="pause_28" transform="translate(5.000000, 3.000000)" fill="currentColor">
                <path d="M3.80529333,0 C4.42932,0 4.65565333,0.06962 4.88376,0.20035 C5.11196,0.33108 5.29097333,0.52292 5.41305333,0.76737 C5.53504,1.01181 5.6,1.25427 5.6,1.92291 L5.6,16.0771 C5.6,16.7457 5.53504,16.9882 5.41305333,17.2326 C5.29097333,17.4771 5.11196,17.6689 4.88376,17.7997 C4.65565333,17.9304 4.42932,18 3.80529333,18 L1.794716,18 C1.170652,18 0.944356,17.9304 0.716212,17.7997 C0.488058667,17.6689 0.309008,17.4771 0.186993333,17.2326 C0.0649786667,16.9882 0,16.7457 0,16.0771 L0,1.92291 C0,1.25427 0.0649786667,1.01181 0.186993333,0.76737 C0.309008,0.52292 0.488058667,0.33108 0.716212,0.20035 C0.944356,0.06962 1.170652,0 1.794716,0 L3.80529333,0 Z M12.2052933,0 C12.82932,0 13.0556533,0.06962 13.28376,0.20035 C13.51196,0.33108 13.6909733,0.52292 13.8130533,0.76737 C13.93504,1.01181 14,1.25427 14,1.92291 L14,16.0771 C14,16.7457 13.93504,16.9882 13.8130533,17.2326 C13.6909733,17.4771 13.51196,17.6689 13.28376,17.7997 C13.0556533,17.9304 12.82932,18 12.2052933,18 L10.1947067,18 C9.57068,18 9.34434667,17.9304 9.11624,17.7997 C8.88804,17.6689 8.70902667,17.4771 8.58694667,17.2326 C8.46496,16.9882 8.4,16.7457 8.4,16.0771 L8.4,1.92291 C8.4,1.25427 8.46496,1.01181 8.58694667,0.76737 C8.70902667,0.52292 8.88804,0.33108 9.11624,0.20035 C9.34434667,0.06962 9.57068,0 10.1947067,0 L12.2052933,0 Z" id="Shape"></path>
            </g>
        </g>
    </g>
</svg>