<?xml version="1.0" encoding="UTF-8"?>
<svg width="24px" height="24px" viewBox="0 0 24 24" version="1.1" xmlns="http://www.w3.org/2000/svg" xmlns:xlink="http://www.w3.org/1999/xlink">
    <title>Icons/ic-resend</title>
    <g id="Icons/ic-resend" stroke="none" stroke-width="1" fill="none" fill-rule="evenodd">
        <g>
            <rect id="Rectangle" x="0" y="0" width="24" height="24"></rect>
            <g id="icons8-recurring_appointment" transform="translate(3.000000, 3.000000)" fill="currentColor">
                <path d="M9,0 C4.0384002,0 0,4.0384002 0,9 C0,13.9615995 4.0384002,18 9,18 C13.9615995,18 18.0000753,13.9615995 18.0000753,9 C18.0038252,8.72952306 17.8617185,8.47793898 17.6280954,8.34158421 C17.3944722,8.20522944 17.1055278,8.20522944 16.8719046,8.34158421 C16.6382815,8.47793898 16.4961748,8.72952306 16.5,9 C16.5,13.1509005 13.1509005,16.5 9,16.5 C4.8490998,16.5 1.5,13.1509005 1.5,9 C1.5,4.8490998 4.8490998,1.5 9,1.5 C10.8839805,1.5 12.5928607,2.19826763 13.9086915,3.34130857 L12,5.25 L16.5,5.25 L16.5,0.75 L14.9707035,2.27929688 C13.3803705,0.8665299 11.2903882,0 9,0 Z" id="Path"></path>
            </g>
        </g>
    </g>
</svg>