<?xml version="1.0" encoding="UTF-8"?>
<svg width="24px" height="24px" viewBox="0 0 24 24" version="1.1" xmlns="http://www.w3.org/2000/svg" xmlns:xlink="http://www.w3.org/1999/xlink">
    <title>Icons/ic-search</title>
    <g id="Icons/ic-search" stroke="none" stroke-width="1" fill="none" fill-rule="evenodd">
        <g>
            <rect id="Rectangle" x="0" y="0" width="24" height="24"></rect>
            <g id="search_outline_28" transform="translate(3.000000, 3.000000)" fill="currentColor">
                <path d="M7.71428571,0.428571429 C11.7380571,0.428571429 15,3.69049714 15,7.71428571 C15,9.41742857 14.4156,10.9840286 13.4364,12.2246571 L17.3203714,16.1082 C17.6550857,16.4429143 17.6550857,16.9856571 17.3203714,17.3203714 C16.9856571,17.6550857 16.4429143,17.6550857 16.1082,17.3203714 L12.2246571,13.4364 C10.9840286,14.4156 9.41742857,15 7.71428571,15 C3.69049714,15 0.428571429,11.7380571 0.428571429,7.71428571 C0.428571429,3.69049714 3.69049714,0.428571429 7.71428571,0.428571429 Z M7.71428571,2.14285714 C4.63727143,2.14285714 2.14285714,4.63727143 2.14285714,7.71428571 C2.14285714,10.7913429 4.63727143,13.2857143 7.71428571,13.2857143 C10.7913429,13.2857143 13.2857143,10.7913429 13.2857143,7.71428571 C13.2857143,4.63727143 10.7913429,2.14285714 7.71428571,2.14285714 Z" id="Shape"></path>
            </g>
        </g>
    </g>
</svg>