<?xml version="1.0" encoding="UTF-8"?>
<svg width="24px" height="24px" viewBox="0 0 24 24" version="1.1" xmlns="http://www.w3.org/2000/svg" xmlns:xlink="http://www.w3.org/1999/xlink">
    <title>Icons/ic-smile</title>
    <g id="Icons/ic-smile" stroke="none" stroke-width="1" fill="none" fill-rule="evenodd">
        <g>
            <rect id="Rectangle" x="0" y="0" width="24" height="24"></rect>
            <g id="smile_outline_28" transform="translate(3.000000, 3.000000)" fill="currentColor">
                <path d="M9,18 C4.029435,18 0,13.97055 0,9 C0,4.029435 4.029435,0 9,0 C13.97055,0 18,4.029435 18,9 C18,13.97055 13.97055,18 9,18 Z M9,16.5 C13.1421,16.5 16.5,13.1421 16.5,9 C16.5,4.8578625 13.1421,1.5 9,1.5 C4.8578625,1.5 1.5,4.8578625 1.5,9 C1.5,13.1421 4.8578625,16.5 9,16.5 Z M5.709,12.068625 C5.426505,11.7657 5.44308,11.2911 5.7460125,11.008575 C6.048975,10.726125 6.5235,10.7427 6.806025,11.045625 C7.935975,12.2574 9.834375,12.323625 11.046075,11.193675 C11.09715,11.14605 11.146425,11.096925 11.19375,11.0463 C11.47665,10.743825 11.951325,10.727925 12.2538,11.0109 C12.556275,11.293875 12.572175,11.768475 12.2892,12.07095 C12.21855,12.146475 12.145125,12.21975 12.069075,12.2907 C10.25145,13.9857 7.403925,13.88625 5.709,12.068625 Z M11.53125,8.4375 C10.858125,8.4375 10.3125,7.891875 10.3125,7.21875 C10.3125,6.545625 10.858125,6 11.53125,6 C12.204375,6 12.75,6.545625 12.75,7.21875 C12.75,7.891875 12.204375,8.4375 11.53125,8.4375 Z M6.46875,8.4375 C5.795655,8.4375 5.25,7.891875 5.25,7.21875 C5.25,6.545625 5.795655,6 6.46875,6 C7.141875,6 7.6875,6.545625 7.6875,7.21875 C7.6875,7.891875 7.141875,8.4375 6.46875,8.4375 Z" id="Shape"></path>
            </g>
        </g>
    </g>
</svg>