<?xml version="1.0" encoding="UTF-8"?>
<svg width="24px" height="24px" viewBox="0 0 24 24" version="1.1" xmlns="http://www.w3.org/2000/svg" xmlns:xlink="http://www.w3.org/1999/xlink">
    <g id="Icons/ic-screen-share-mute" stroke="none" stroke-width="1" fill="none" fill-rule="evenodd">
        <rect id="Rectangle" x="0" y="0" width="24" height="24"></rect>
        <path d="M10.483,13.311 L11.637,14.465 L7.25454545,17.68 C7.15153636,17.75552 7.09090909,17.87408 7.09090909,18 C7.09090909,18.22088 7.27406727,18.4 7.5,18.4 L15.571,18.399 L17.0872682,19.9158128 C16.8988998,19.971029 16.7012852,20 16.5,20 L7.5,20 C6.37032818,20 5.45454545,19.10456 5.45454545,18 C5.45454545,17.37048 5.75767364,16.77768 6.27272727,16.4 L10.483,13.311 Z M16.9090909,4 C19.1090182,4 20.9032909,5.697848 20.9962364,7.826488 L21,8 L21,12.8 C21,13.788 20.6312455,14.72208 19.9756364,15.44768 C19.6764273,15.77872 19.1593364,15.81 18.8206909,15.51744 C18.4821273,15.22488 18.4501364,14.71936 18.7493455,14.38824 C19.1037818,13.996 19.3178182,13.5044 19.3570909,12.97704 L19.3636364,12.8 L19.3636364,8 C19.3636364,6.721856 18.3418091,5.677072 17.0533364,5.604072 L16.9090909,5.6 L8.427,5.6 L6.83522553,4.00768591 C6.86123655,4.00611755 6.88731333,4.00478685 6.91345364,4.003696 L7.09090909,4 L16.9090909,4 Z M3.41484746,6.24281334 L4.68641808,7.51541926 C4.6629577,7.62729969 4.64745962,7.74201825 4.64052818,7.858984 L4.63636364,8 L4.63636364,12.8 C4.63636364,13.3936 4.85648727,13.9516 5.24985273,14.38736 C5.54888182,14.71856 5.51666182,15.22416 5.17789364,15.51656 C4.83911727,15.80888 4.32207545,15.77744 4.02304636,15.44616 C3.41500636,14.77264 3.05406545,13.9196 3.00560455,13.01072 L3,12.8 L3,8 C3,7.36957563 3.14915706,6.77321376 3.41484746,6.24281334 Z" id="Combined-Shape" fill="currentColor"></path>
        <rect id="Rectangle" fill="#D12433" transform="translate(12.000000, 12.000000) rotate(-315.000000) translate(-12.000000, -12.000000) " x="1" y="11" width="22" height="2" rx="0.5"></rect>
    </g>
</svg>