<?xml version="1.0" encoding="UTF-8"?>
<svg width="24px" height="24px" viewBox="0 0 24 24" version="1.1" xmlns="http://www.w3.org/2000/svg" xmlns:xlink="http://www.w3.org/1999/xlink">
    <g id="Icons/ic-screen-share" stroke="none" stroke-width="1" fill="none" fill-rule="evenodd">
        <g>
            <rect id="Rectangle" x="0" y="0" width="24" height="24"></rect>
            <g id="airplay_video_outline_28" transform="translate(3.000000, 4.000000)" fill="currentColor">
                <path d="M7.77272727,9.1 C8.50000909,8.56664 9.49999091,8.56664 10.2272727,9.1 L14.7272727,12.4 C15.6310364,13.06272 15.8141455,14.31632 15.1363636,15.2 C14.7501,15.7036 14.1438273,16 13.5,16 L4.5,16 C3.37032818,16 2.45454545,15.10456 2.45454545,14 C2.45454545,13.37048 2.75767364,12.77768 3.27272727,12.4 L7.77272727,9.1 Z M9.24545455,10.38 C9.09998182,10.27336 8.90001818,10.27336 8.75454545,10.38 L4.25454545,13.68 C4.15153636,13.75552 4.09090909,13.87408 4.09090909,14 C4.09090909,14.22088 4.27406727,14.4 4.5,14.4 L13.5,14.4 C13.6287818,14.4 13.7500364,14.34072 13.8272727,14.24 C13.9628455,14.06328 13.9261909,13.81256 13.7454545,13.68 L9.24545455,10.38 Z M13.9090909,0 C16.1090182,0 17.9032909,1.697848 17.9962364,3.826488 L18,4 L18,8.8 C18,9.788 17.6312455,10.72208 16.9756364,11.44768 C16.6764273,11.77872 16.1593364,11.81 15.8206909,11.51744 C15.4821273,11.22488 15.4501364,10.71936 15.7493455,10.38824 C16.1037818,9.996 16.3178182,9.5044 16.3570909,8.97704 L16.3636364,8.8 L16.3636364,4 C16.3636364,2.721856 15.3418091,1.677072 14.0533364,1.604072 L13.9090909,1.6 L4.09090909,1.6 C2.78371636,1.6 1.71518727,2.599136 1.64052818,3.858984 L1.63636364,4 L1.63636364,8.8 C1.63636364,9.3936 1.85648727,9.9516 2.24985273,10.38736 C2.54888182,10.71856 2.51666182,11.22416 2.17789364,11.51656 C1.83911727,11.80888 1.32207545,11.77744 1.02304636,11.44616 C0.415006364,10.77264 0.0540654545,9.9196 0.00560454545,9.01072 L0,8.8 L0,4 C0,1.849 1.73643545,0.094544 3.91345364,0.003696 L4.09090909,0 L13.9090909,0 Z" id="Shape"></path>
            </g>
        </g>
    </g>
</svg>