<?xml version="1.0" encoding="UTF-8"?>
<svg width="14px" height="14px" viewBox="0 0 14 14" version="1.1" xmlns="http://www.w3.org/2000/svg" xmlns:xlink="http://www.w3.org/1999/xlink">
    <g id="Symbols" stroke="none" stroke-width="1" fill="none" fill-rule="evenodd">
        <g id="Elements/Search/Default" transform="translate(-86.000000, -11.000000)" fill="#99A2AD" fill-rule="nonzero">
            <g id="Group" transform="translate(86.000000, 10.000000)">
                <g id="Icons/ic-search_16" transform="translate(0.000000, 1.000000)">
                    <path d="M13.7431,12.5741 L9.9101,8.73956 C10.5972,7.80246 10.9652,6.66953 10.9601,5.50756 C10.947,2.47441 8.49372,0.01757 5.46059,4.20249593e-06 C4.00907,-0.006512 2.61522,0.56771 1.58953,1.59481 C0.56385,2.6219 -0.008465,4.01655 -4.54891914e-06,5.46806 C0.0132,8.50148 2.4667,10.9585 5.50009,10.9761 C6.6668,10.9811 7.80387,10.6088 8.74159,9.9146 L8.74559,9.9116 L12.5751,13.7431 C12.7821,13.9603 13.0907,14.0482 13.3811,13.9728 C13.6716,13.8973 13.8983,13.6704 13.9735,13.3799 C14.0487,13.0894 13.9605,12.7809 13.7431,12.5741 Z M5.49609,9.87813722 C3.06951,9.8641 1.10675,7.89866 1.09602089,5.47206 C1.08955,4.311 1.54743,3.19551 2.36782,2.37389 C3.18822,1.55228 4.30303,1.09273 5.46409,1.09752231 C7.89068,1.11151 9.8534,3.07695 9.86416828,5.50356 C9.8706,6.66461 9.4128,7.78011 8.59236,8.60172 C7.77197,9.4233 6.65716,9.8829 5.49609,9.87813722 Z" id="Shape"></path>
                </g>
            </g>
        </g>
    </g>
</svg>