<?xml version="1.0" encoding="UTF-8"?>
<svg width="24px" height="24px" viewBox="0 0 24 24" version="1.1" xmlns="http://www.w3.org/2000/svg" xmlns:xlink="http://www.w3.org/1999/xlink">
    <title>Icons/ic-video-call</title>
    <g id="Icons/ic-video-call" stroke="none" stroke-width="1" fill="none" fill-rule="evenodd">
        <g>
            <rect id="Rectangle" x="0" y="0" width="24" height="24"></rect>
            <g id="videocam_outline_28" transform="translate(3.000000, 6.000000)" fill="currentColor">
                <path d="M9.65415,0 C10.991475,0 11.47635,0.1392375 11.965275,0.4007025 C12.454125,0.66216 12.837825,1.045845 13.099275,1.5347325 C13.273425,1.860375 13.39335,2.184255 13.454025,2.7594375 L14.959125,1.8191775 C15.88995,1.23741 17.116125,1.5203775 17.6979,2.451195 C17.8953,2.7670725 18,3.132075 18,3.5046 L18,8.4954 C18,9.5931 17.1102,10.4829 16.0125,10.4829 C15.639975,10.4829 15.275025,10.378275 14.959125,10.1808 L13.454025,9.2406 C13.39335,9.815775 13.273425,10.139625 13.099275,10.465275 C12.837825,10.954125 12.454125,11.337825 11.965275,11.599275 C11.47635,11.860725 10.991475,12 9.65415,12 L3.8458275,12 C2.5085475,12 2.02362,11.860725 1.5347325,11.599275 C1.045845,11.337825 0.66216,10.954125 0.4007025,10.465275 C0.1392375,9.97635 0,9.491475 0,8.15415 L0,3.84585 C0,2.5085475 0.1392375,2.02362 0.4007025,1.5347325 C0.66216,1.045845 1.045845,0.66216 1.5347325,0.4007025 C2.02362,0.1392375 2.5085475,0 3.8458275,0 L9.65415,0 Z M9.832425,1.5006975 L3.8458275,1.5 C2.8530525,1.5 2.55072,1.55838 2.2421325,1.7234175 C2.0146425,1.8450825 1.8450825,2.0146425 1.7234175,2.2421325 C1.5687,2.5314375 1.5077175,2.8152375 1.5006975,3.667575 L1.5,8.15415 C1.5,9.146925 1.55838,9.44925 1.7234175,9.757875 C1.8450825,9.98535 2.0146425,10.154925 2.2421325,10.276575 C2.55072,10.44165 2.8530525,10.5 3.8458275,10.5 L9.65415,10.5 C10.646925,10.5 10.94925,10.44165 11.257875,10.276575 C11.48535,10.154925 11.654925,9.98535 11.776575,9.757875 C11.94165,9.44925 12,9.146925 12,8.15415 L12,3.84585 C12,2.8530525 11.94165,2.55072 11.776575,2.2421325 C11.654925,2.0146425 11.48535,1.8450825 11.257875,1.7234175 C10.9686,1.5687 10.6848,1.5077175 9.832425,1.5006975 Z M15.754125,3.0912 L13.5,4.5 L13.5,7.5 L15.754125,8.9088 C15.8316,8.95725 15.92115,8.9829 16.0125,8.9829 C16.28175,8.9829 16.5,8.76465 16.5,8.4954 L16.5,3.5046 C16.5,3.413175 16.47435,3.3237 16.4259,3.246225 C16.283175,3.01785 15.982425,2.948475 15.754125,3.0912 Z" id="Shape"></path>
            </g>
        </g>
    </g>
</svg>