<svg width="12" height="12" viewBox="0 0 12 12" fill="none" xmlns="http://www.w3.org/2000/svg">
<path d="M3.30851 0.848988C3.7497 0.848988 4.1562 1.08843 4.3704 1.47445L5.11324 2.8134C5.30776 3.16404 5.3169 3.58814 5.13766 3.94681L4.52437 5.17365L4.54626 5.24081L4.59131 5.36607C4.70691 5.67143 4.86777 5.97732 5.0793 6.26052C5.17249 6.38529 5.27382 6.50309 5.38358 6.61292C5.492 6.72141 5.6081 6.82158 5.73094 6.91373C6.01406 7.12612 6.31978 7.2872 6.62496 7.40256C6.68455 7.42509 6.73905 7.44412 6.78754 7.45993L6.8169 7.46894L8.04416 6.85558C8.37027 6.69239 8.75044 6.68523 9.08023 6.83179L9.17755 6.88037L10.5194 7.62687C10.9048 7.84125 11.1438 8.24785 11.1438 8.68911V10.2306C11.1438 11.431 10.0083 12.2916 8.87038 11.9074C6.59603 11.1395 4.58117 10.1069 3.23654 8.76137C1.8919 7.41588 0.859935 5.39976 0.0925142 3.12392C-0.291438 1.98526 0.568666 0.848988 1.76823 0.848988H3.30851ZM3.30853 2.06433H1.76823C1.38412 2.06433 1.13018 2.39981 1.24333 2.73537C1.95597 4.84876 2.91342 6.7193 4.09537 7.90199C5.27729 9.0847 7.14666 10.0428 9.2587 10.7559C9.59401 10.8691 9.92926 10.615 9.92926 10.2306V8.68911L8.58738 7.94259L7.15633 8.65856C7.03702 8.71826 6.90138 8.73698 6.77036 8.71183C6.30796 8.62309 5.65645 8.37681 5.00239 7.88614C4.83438 7.76011 4.67472 7.62235 4.52477 7.47231C4.37301 7.32046 4.23376 7.15857 4.10643 6.9881C3.61864 6.33502 3.37245 5.68467 3.28276 5.22327C3.25718 5.0917 3.27579 4.95537 3.33569 4.83549L4.05133 3.40328L3.30853 2.06433ZM7.44539 0C7.75683 0 8.01351 0.234586 8.04859 0.536805L8.05267 0.607672L8.0519 3.13012L10.9718 0.32156C11.2136 0.0889472 11.598 0.09649 11.8305 0.338407C12.045 0.561716 12.0551 0.90667 11.8653 1.14138L11.8136 1.19762L8.95329 3.94945L11.3927 3.94987C11.7042 3.94987 11.9608 4.18446 11.9959 4.48668L12 4.55754C12 4.86918 11.7656 5.12602 11.4635 5.16113L11.3927 5.16522H7.44539L7.42154 5.16475C7.40905 5.16426 7.39658 5.16338 7.38415 5.16213L7.44539 5.16522C7.41104 5.16522 7.37735 5.16236 7.34456 5.15688C7.33711 5.15557 7.3292 5.15409 7.32133 5.15246C7.30305 5.14871 7.28561 5.14424 7.26849 5.13903C7.26356 5.13748 7.25819 5.13577 7.25284 5.13399C7.23599 5.12839 7.21974 5.12215 7.20384 5.11524C7.19748 5.11249 7.19105 5.10957 7.18466 5.10654C7.17183 5.1004 7.15927 5.09386 7.14698 5.08691C7.10379 5.06261 7.06272 5.03231 7.02519 4.99626C7.02088 4.99212 7.01657 4.98786 7.01233 4.98354C7.01094 4.98214 7.00929 4.98044 7.00765 4.97873L6.99453 4.96464C6.98324 4.95213 6.97246 4.93915 6.96223 4.92572L7.00765 4.97873C6.98395 4.95406 6.96274 4.92791 6.94402 4.90059C6.93533 4.88783 6.92706 4.87471 6.9193 4.86127C6.91449 4.85304 6.90988 4.8446 6.90549 4.83609C6.87271 4.77252 6.8508 4.7025 6.8422 4.62841C6.84088 4.61677 6.83991 4.60578 6.83924 4.59477L6.83811 4.55754V0.607672C6.83811 0.272064 7.11 0 7.44539 0Z" fill="currentColor"/>
</svg>
