<svg width="24" height="24" viewBox="0 0 24 24" fill="none" xmlns="http://www.w3.org/2000/svg">
<g clip-path="url(#clip0)">
<path d="M3.51488 20.4851C8.20139 25.1716 15.7996 25.1716 20.4852 20.485C25.1716 15.7986 25.1716 8.20036 20.485 3.51483C15.7996 -1.17164 8.20139 -1.17164 3.51488 3.51492C-1.17164 8.20036 -1.17164 15.7986 3.51488 20.4851ZM4.929 4.92919C8.83453 1.02366 15.1663 1.02366 19.0708 4.929C22.9763 8.83364 22.9763 15.1654 19.0709 19.0709C15.1663 22.9763 8.83453 22.9763 4.92909 19.0709C1.02366 15.1654 1.02366 8.83364 4.929 4.92919Z" fill="#3F8AE0"/>
<path d="M19.4244 4.57549C23.5251 8.67541 23.5251 15.3237 19.4245 19.4244L19.4244 4.57549ZM19.4244 4.57549C15.3246 0.474813 8.67626 0.474867 4.57549 4.57559M19.4244 4.57549L4.57549 4.57559M4.57549 4.57559C4.57548 4.57561 4.57546 4.57562 4.57545 4.57563M4.57549 4.57559L4.57545 4.57563M4.57545 4.57563C0.474809 8.67539 0.474883 15.3237 4.57554 19.4244C8.6762 23.5251 15.3246 23.5252 19.4244 19.4244L4.57545 4.57563ZM20.1316 20.1315L20.1316 20.1315C15.6413 24.6228 8.3597 24.6228 3.86843 20.1316C-0.622848 15.6402 -0.622786 8.35866 3.86839 3.86851L3.86843 3.86847C8.35971 -0.622852 15.6413 -0.622786 20.1314 3.86834L20.1315 3.86842C24.6228 8.35866 24.6228 15.6403 20.1316 20.1315Z" stroke="white" stroke-opacity="0.5"/>
<path d="M12 20C12.5523 20 13 19.5523 13 19L13 9.00004C13 8.44776 12.5523 8.00006 12 8.00006C11.4477 8.00006 11 8.44776 11 9.00004L11 19C11 19.5523 11.4477 20 12 20Z" fill="#3F8AE0"/>
<path d="M12.5 19C12.5 19.2762 12.2762 19.5 12 19.5C11.7239 19.5 11.5 19.2762 11.5 19L11.5 9.00004C11.5 8.7239 11.7239 8.50006 12 8.50006C12.2762 8.50006 12.5 8.7239 12.5 9.00004L12.5 19Z" stroke="white" stroke-opacity="0.5"/>
<path d="M12 6C12.552 6 13 5.55202 13 5.00002C13 4.44802 12.552 4.00003 12 4.00003C11.448 4.00003 11 4.44802 11 5.00002C11 5.55202 11.448 6 12 6Z" fill="#3F8AE0"/>
<path d="M12.5 5.00002C12.5 5.27587 12.2759 5.5 12 5.5C11.7242 5.5 11.5 5.27587 11.5 5.00002C11.5 4.72416 11.7242 4.50003 12 4.50003C12.2759 4.50003 12.5 4.72416 12.5 5.00002Z" stroke="white" stroke-opacity="0.5"/>
</g>
<defs>
<clipPath id="clip0">
<rect width="24" height="24" fill="white" transform="translate(24 24) rotate(-180)"/>
</clipPath>
</defs>
</svg>
