<svg width="80" height="80" viewBox="0 0 80 80" fill="none" xmlns="http://www.w3.org/2000/svg">
<path d="M16.5649 80C15.8396 80 15.2133 79.6952 14.6858 79.0857C14.1583 78.4762 13.8945 77.7524 13.8945 76.9143V3.08571C13.8945 2.24762 14.1583 1.52381 14.6858 0.914288C15.2133 0.304762 15.8396 0 16.5649 0H35.4556C36.1809 0 36.8073 0.304762 37.3348 0.914288C37.8623 1.52381 38.126 2.24762 38.126 3.08571V25.7143L49.3022 2.51429C50.0934 0.838097 51.4121 0 53.2584 0H75.1161C75.7096 0 76.2041 0.266666 76.5997 0.800002C77.0613 1.25714 77.292 1.82857 77.292 2.51429C77.292 2.97143 77.1931 3.39048 76.9953 3.77143L59.1926 38.2857L78.6767 76.2286C78.8745 76.5333 78.9734 76.9524 78.9734 77.4857C78.9734 78.1714 78.7426 78.781 78.2811 79.3143C77.8855 79.7714 77.3909 80 76.7975 80H54.2474C53.1265 80 52.2363 79.7333 51.577 79.2C50.9176 78.5905 50.4561 77.981 50.1923 77.3714L38.126 52.4571V76.9143C38.126 77.7524 37.8623 78.4762 37.3348 79.0857C36.8073 79.6952 36.1809 80 35.4556 80H16.5649Z" fill="#3F8AE0"/>
<path d="M41.7891 50.312L54.8636 25.5569C54.3117 26.6018 49.9268 30.1033 36.8021 35.7498C23.6773 41.3964 14.7597 51.8842 11.9414 56.4223L13.3953 60.319C14.8706 53.7488 21.9815 47.8521 25.3526 45.7251L26.0795 47.6734L31.2377 43.5591L41.7891 50.312Z" fill="#3A7BC5"/>
<path d="M4.16527 48.2281C11.4052 39.4043 21.758 35.1528 26.0294 34.1301C31.8343 33.8804 41.6877 34.1126 34.6623 37.0387C27.637 39.9647 14.6703 53.3317 9.06508 59.6494L4.16527 48.2281Z" fill="white"/>
<path d="M25.0234 37.2798L25.1096 44.7672L54.8653 25.5603L25.0234 37.2798Z" fill="#E2E2E2"/>
<path d="M25.1133 44.7692L30.0126 41.5615L32.7084 41.8539L25.1133 44.7692Z" fill="#D1D0D0"/>
<path d="M41.0843 48.3701L54.8674 25.5614L30.0117 41.5607L41.0843 48.3701Z" fill="#F5F5F5"/>
<path d="M16.5469 31.6884L25.0252 37.2817L54.8667 25.5622L16.5469 31.6884Z" fill="#F5F5F5"/>
</svg>
