<svg width="18" height="18" viewBox="0 0 18 18" fill="none" xmlns="http://www.w3.org/2000/svg">
<path fill-rule="evenodd" clip-rule="evenodd" d="M1.88496 3.48791C3.52986 1.36744 6.10545 0 9 0C11.9671 0 14.5989 1.43677 16.2369 3.64872C16.5327 4.04817 16.4487 4.61179 16.0492 4.9076C15.6498 5.20341 15.0862 5.11939 14.7903 4.71993C13.4772 2.94667 11.3726 1.8 9 1.8C6.67204 1.8 4.60224 2.90386 3.28466 4.62041C3.26643 4.64415 3.24703 4.66698 3.22653 4.68879L2.98102 4.95H4.95C5.44706 4.95 5.85 5.35294 5.85 5.85C5.85 6.34706 5.44706 6.75 4.95 6.75H0.9C0.402944 6.75 0 6.34706 0 5.85V1.8C0 1.30294 0.402944 0.9 0.9 0.9C1.39706 0.9 1.8 1.30294 1.8 1.8V3.5783L1.88496 3.48791ZM2.7 9C2.7 8.50294 3.10294 8.1 3.6 8.1H17.1C17.5971 8.1 18 8.50294 18 9V17.1C18 17.5971 17.5971 18 17.1 18H3.6C3.10294 18 2.7 17.5971 2.7 17.1V9ZM4.5 9.9V16.2H16.2V9.9H4.5Z" fill="currentColor"/>
</svg>
