<svg width="108" height="108" viewBox="0 0 108 108" fill="none" xmlns="http://www.w3.org/2000/svg">
<path d="M10.1094 23.3379H44.7469C45.9351 23.3379 46.8982 22.3748 46.8982 21.1866C46.8982 19.9983 45.9351 19.0352 44.7469 19.0352H10.1094C8.92119 19.0352 7.95801 19.9983 7.95801 21.1866C7.95801 22.3748 8.92119 23.3379 10.1094 23.3379Z" fill="currentColor"/>
<path d="M52.4949 23.3379H56.5825C57.7708 23.3379 58.7339 22.3748 58.7339 21.1866C58.7339 19.9983 57.7708 19.0352 56.5825 19.0352H52.4949C51.3067 19.0352 50.3435 19.9983 50.3435 21.1866C50.3435 22.3748 51.3067 23.3379 52.4949 23.3379Z" fill="currentColor"/>
<path d="M105.849 11.6133H2.15139C0.963179 11.6133 0 12.5765 0 13.7647V82.179C0 83.3672 0.963179 84.3304 2.15139 84.3304H40.8765V92.0754H33.5618C32.3735 92.0754 31.4104 93.0386 31.4104 94.2268C31.4104 95.415 32.3735 96.3782 33.5618 96.3782H74.4382C75.6265 96.3782 76.5896 95.415 76.5896 94.2268C76.5896 93.0386 75.6265 92.0754 74.4382 92.0754H67.1235V84.3304H105.849C107.037 84.3304 108 83.3672 108 82.179V13.7647C108 12.5765 107.037 11.6133 105.849 11.6133ZM62.8207 92.0754H45.1793V84.3304H62.8207V92.0754ZM103.697 80.0276H4.30279V15.9161H103.697V80.0276Z" fill="currentColor"/>
<g clip-path="url(#clip0)">
<path d="M42.3779 50.2517C42.3779 46.9651 43.9209 44.0392 46.3171 42.1555L42.6495 36.2852C39.5757 38.4928 37.2628 41.688 36.1716 45.4074C37.8798 46.5069 39.0127 48.428 39.0127 50.6114C39.0127 52.7173 37.9656 54.574 36.3584 55.6916C37.5316 59.2147 39.8177 62.2307 42.7999 64.3238L46.2109 58.2572C43.8738 56.3742 42.3779 53.4874 42.3779 50.2517Z" fill="currentColor"/>
<path d="M37.2784 50.6113C37.2784 53.0673 35.2838 55.0598 32.8284 55.0598C30.3718 55.0598 28.3787 53.0674 28.3787 50.6113C28.3787 48.1565 30.3718 46.1641 32.8284 46.1641C35.2838 46.1641 37.2784 48.1565 37.2784 50.6113Z" fill="currentColor"/>
<path d="M62.2687 61.365C63.3036 61.365 64.2778 61.6182 65.134 62.0677C67.8004 59.2575 69.5233 55.5495 69.8083 51.4423L62.8975 51.3086C62.3654 56.4917 57.9867 60.5296 52.6646 60.5296C51.1915 60.5296 49.7857 60.2197 48.5171 59.6593L45.0818 65.6696C47.3719 66.7964 49.9428 67.4295 52.6645 67.4295C53.8391 67.4295 54.991 67.3106 56.1009 67.0841C56.3377 63.8875 59.0082 61.365 62.2687 61.365Z" fill="currentColor"/>
<path d="M66.7121 67.5501C66.7121 70.0056 64.7217 71.9972 62.2649 71.9972C59.808 71.9972 57.8162 70.0056 57.8162 67.5501C57.8162 65.0927 59.808 63.1016 62.2649 63.1016C64.7217 63.1016 66.7121 65.0927 66.7121 67.5501Z" fill="currentColor"/>
<path d="M65.6051 38.9529C64.5982 39.6659 63.366 40.0879 62.0354 40.0879C58.6177 40.0879 55.8505 37.3199 55.8505 33.9043C55.8505 33.7229 55.8586 33.5474 55.8721 33.3713C54.8331 33.1724 53.7593 33.0703 52.6626 33.0703C49.9156 33.0703 47.3177 33.7168 45.0154 34.8618L48.4305 40.876C49.7221 40.2942 51.1546 39.9669 52.6626 39.9669C57.9376 39.9669 62.2854 43.9396 62.8795 49.0562L69.7902 48.8452C69.485 45.0722 67.957 41.6449 65.6051 38.9529Z" fill="currentColor"/>
<path d="M66.4762 33.9024C66.4762 36.3592 64.4897 38.351 62.0303 38.351C59.5737 38.351 57.5818 36.3592 57.5818 33.9024C57.5817 31.4455 59.5736 29.4531 62.0302 29.4531C64.4896 29.4531 66.4762 31.4455 66.4762 33.9024Z" fill="currentColor"/>
</g>
<defs>
<clipPath id="clip0">
<rect width="42.5455" height="42.5455" fill="currentColor" transform="translate(27.8164 29.4531)"/>
</clipPath>
</defs>
</svg>
