<svg width="12" height="12" viewBox="0 0 12 12" fill="none" xmlns="http://www.w3.org/2000/svg">
<path d="M3.5627 0C4.0378 0 4.47553 0.257659 4.70618 0.673075L5.50608 2.11398C5.71555 2.49131 5.72539 2.9477 5.53238 3.33367L4.87184 4.65378L4.89555 4.7262L4.94406 4.86099C5.06854 5.18961 5.24176 5.51878 5.46954 5.82354C5.56989 5.95781 5.67901 6.08458 5.7972 6.20277C5.91395 6.31952 6.03897 6.42732 6.17125 6.52648C6.47611 6.75505 6.80532 6.92839 7.13395 7.05253C7.19813 7.07678 7.25681 7.09726 7.30903 7.11426L7.34048 7.12375L8.66219 6.46391C9.01335 6.28829 9.42273 6.28059 9.77786 6.43831L9.88266 6.49058L11.3277 7.29395C11.7427 7.5247 12 7.9622 12 8.43703V10.0959C12 11.3876 10.7772 12.3139 9.55188 11.9004C7.1028 11.074 4.93313 9.96275 3.4852 8.51479C2.03727 7.06686 0.926 4.89721 0.099622 2.44814C-0.313829 1.22278 0.612356 0 1.90408 0H3.5627ZM3.56271 1.30788H1.90408C1.49046 1.30788 1.21701 1.66889 1.33885 2.03C2.10625 4.30426 3.13728 6.31725 4.41001 7.58998C5.68274 8.86274 7.69574 9.89376 9.97004 10.6611C10.3311 10.783 10.6921 10.5095 10.6921 10.0959V8.43703L9.24714 7.63367L7.70615 8.40416C7.57767 8.4684 7.4316 8.48854 7.29053 8.46149C6.7926 8.36599 6.09103 8.10096 5.38672 7.57293C5.20581 7.4373 5.03387 7.28906 4.8724 7.12759C4.70899 6.96418 4.55904 6.78997 4.42193 6.60652C3.89666 5.90371 3.63155 5.20385 3.53497 4.70732C3.50743 4.56573 3.52747 4.41902 3.59197 4.29001L4.3626 2.74874L3.56271 1.30788ZM8.62395 0.333358L8.68555 0.387759L9.61022 1.31243L10.5352 0.387735C10.7906 0.132356 11.2046 0.132356 11.46 0.387735C11.6957 0.623468 11.7139 0.994402 11.5144 1.25094L11.46 1.31254L10.5348 2.237L11.46 3.16217C11.7153 3.41755 11.7153 3.8316 11.4599 4.08698C11.2242 4.32271 10.8533 4.34084 10.5967 4.14137L10.5351 4.08697L9.61022 3.16224L8.68555 4.08697C8.43017 4.34235 8.01612 4.34235 7.76075 4.08697C7.52501 3.85124 7.50688 3.48031 7.70634 3.22377L7.76075 3.16217L8.68498 2.237L7.76074 1.31256C7.50537 1.05719 7.50537 0.643135 7.76075 0.387757C7.99648 0.152023 8.36742 0.133891 8.62395 0.333358Z" fill="currentColor"/>
</svg>
