<svg width="11" height="12" viewBox="0 0 11 12" fill="none" xmlns="http://www.w3.org/2000/svg">
<path d="M3.0328 0.848988C3.43723 0.848988 3.80985 1.08843 4.0062 1.47445L4.68713 2.8134C4.86544 3.16404 4.87383 3.58814 4.70952 3.94681L4.1471 5.17365L4.15593 5.20328L4.2087 5.36607C4.31467 5.67143 4.46213 5.97732 4.65603 6.26052C4.74145 6.38529 4.83434 6.50309 4.93495 6.61292C5.03434 6.72141 5.14076 6.82158 5.25336 6.91373C5.51289 7.12612 5.79313 7.2872 6.07288 7.40256C6.12751 7.42509 6.17747 7.44412 6.22192 7.45993L6.24858 7.46894L7.37381 6.85558C7.67274 6.69239 8.02124 6.68523 8.32355 6.83179L8.41276 6.88037L9.64277 7.62687C9.99609 7.84125 10.2152 8.24785 10.2152 8.68911V10.2306C10.2152 11.431 9.17424 12.2916 8.13118 11.9074C6.04636 11.1395 4.1994 10.1069 2.96683 8.76137C1.73424 7.41588 0.788274 5.39976 0.0848047 3.12392C-0.267152 1.98526 0.521278 0.848988 1.62088 0.848988H3.0328ZM3.03282 2.06433H1.62088C1.26878 2.06433 1.036 2.39981 1.13972 2.73537C1.79298 4.84876 2.67064 6.7193 3.75409 7.90199C4.83752 9.0847 6.55111 10.0428 8.48714 10.7559C8.79451 10.8691 9.10183 10.615 9.10183 10.2306V8.68911L7.87176 7.94259L6.55997 8.65856C6.4506 8.71826 6.32626 8.73698 6.20617 8.71183C5.7823 8.62309 5.18508 8.37681 4.58552 7.88614C4.43152 7.76011 4.28516 7.62235 4.1477 7.47231C4.00859 7.32046 3.88095 7.15857 3.76423 6.9881C3.31709 6.33502 3.09141 5.68467 3.00919 5.22327C2.98575 5.0917 3.00281 4.95537 3.05772 4.83549L3.71372 3.40328L3.03282 2.06433ZM10.4433 0C10.7288 0 10.9641 0.234586 10.9963 0.536805L11 0.607672V4.55754C11 4.89315 10.7508 5.16522 10.4433 5.16522C10.1578 5.16522 9.92255 4.93063 9.8904 4.62841L9.88665 4.55754L9.88576 2.18682L7.21078 4.99557C6.98917 5.22819 6.63677 5.22064 6.42368 4.97873C6.22698 4.75542 6.21773 4.41046 6.39178 4.17576L6.43911 4.11951L9.20558 1.21512L6.82495 1.21534C6.53946 1.21534 6.30417 0.980759 6.27202 0.67854L6.26827 0.607672C6.26827 0.296036 6.48317 0.0391905 6.76003 0.00408822L6.82495 0H10.4433Z" fill="currentColor"/>
</svg>
