<svg width="24" height="24" viewBox="0 0 24 24" fill="none" xmlns="http://www.w3.org/2000/svg">
<path fill-rule="evenodd" clip-rule="evenodd" d="M0 12C0 5.37258 5.37258 0 12 0C18.6274 0 24 5.37258 24 12C24 18.6274 18.6274 24 12 24C5.37258 24 0 18.6274 0 12ZM12 2.18182C6.57757 2.18182 2.18182 6.57757 2.18182 12C2.18182 17.4224 6.57757 21.8182 12 21.8182C17.4224 21.8182 21.8182 17.4224 21.8182 12C21.8182 6.57757 17.4224 2.18182 12 2.18182ZM9.27273 7.63636C9.87522 7.63636 10.3636 8.12478 10.3636 8.72727V15.2727C10.3636 15.8752 9.87522 16.3636 9.27273 16.3636C8.67023 16.3636 8.18182 15.8752 8.18182 15.2727V8.72727C8.18182 8.12478 8.67023 7.63636 9.27273 7.63636ZM14.7273 7.63636C15.3298 7.63636 15.8182 8.12478 15.8182 8.72727V15.2727C15.8182 15.8752 15.3298 16.3636 14.7273 16.3636C14.1248 16.3636 13.6364 15.8752 13.6364 15.2727V8.72727C13.6364 8.12478 14.1248 7.63636 14.7273 7.63636Z" fill="currentColor"/>
</svg>
