<svg width="24" height="20" viewBox="0 0 24 20" fill="none" xmlns="http://www.w3.org/2000/svg">
<path fill-rule="evenodd" clip-rule="evenodd" d="M0 2.22222C0 0.994923 1.02335 0 2.28571 0H21.7143C22.9767 0 24 0.994923 24 2.22222V17.7778C24 19.0051 22.9767 20 21.7143 20H2.28571C1.02335 20 0 19.0051 0 17.7778V2.22222ZM2.28571 16.0158V17.7778H21.7143V16.1046L13.3072 9.85426L10.582 12.9453C10.181 13.4001 9.48145 13.464 9.00035 13.0899L6.94196 11.4889L2.28571 16.0158ZM21.7143 13.3071V2.22222H2.28571V12.8731L6.04902 9.21433C6.4608 8.81399 7.11635 8.77869 7.57108 9.13237L9.56554 10.6836L12.2751 7.61023C12.6698 7.16259 13.3554 7.09257 13.8371 7.45071L21.7143 13.3071ZM6.57143 6.11111C6.72922 6.11111 6.85714 5.98675 6.85714 5.83333C6.85714 5.67992 6.72922 5.55556 6.57143 5.55556C6.41363 5.55556 6.28571 5.67992 6.28571 5.83333C6.28571 5.98675 6.41363 6.11111 6.57143 6.11111ZM4.57143 5.83333C4.57143 4.75945 5.46686 3.88889 6.57143 3.88889C7.676 3.88889 8.57143 4.75945 8.57143 5.83333C8.57143 6.90722 7.676 7.77778 6.57143 7.77778C5.46686 7.77778 4.57143 6.90722 4.57143 5.83333Z" fill="currentColor"/>
</svg>
