<svg width="18" height="18" viewBox="0 0 18 18" fill="none" xmlns="http://www.w3.org/2000/svg">
<path d="M5.34405 0C6.05669 0 6.71328 0.386501 7.05927 1.00962L8.25913 3.17097C8.57333 3.73697 8.58809 4.42155 8.29857 5.00051L7.30754 6.98088L7.32311 7.02871L7.41609 7.29148C7.60281 7.78441 7.86264 8.27817 8.20431 8.73532C8.35484 8.93672 8.51851 9.12687 8.6958 9.30416C8.87093 9.47928 9.05846 9.64098 9.25687 9.78973C9.71417 10.1326 10.208 10.3926 10.7009 10.5788C10.7972 10.6152 10.8852 10.6459 10.9635 10.6714L11.0105 10.6859L12.9933 9.69586C13.52 9.43244 14.1341 9.42088 14.6668 9.65746L14.824 9.73587L16.9914 10.9409C17.614 11.2869 18 11.9433 18 12.6555V15.1439C18 17.0815 16.1658 18.4708 14.3278 17.8505C10.6542 16.611 7.3997 14.9441 5.22781 12.7722C3.05588 10.6003 1.38901 7.34588 0.149433 3.67221C-0.470744 1.83417 0.918535 0 2.85612 0H5.34405ZM5.34408 1.96181H2.85612C2.23569 1.96181 1.82552 2.50334 2.00828 3.045C3.15938 6.45645 4.70589 9.47588 6.61502 11.385C8.52411 13.2941 11.5436 14.8406 14.9551 15.9917C15.4967 16.1745 16.0382 15.7643 16.0382 15.1439V12.6555L13.8707 11.4505L11.5592 12.6062C11.3665 12.7026 11.1474 12.7328 10.9358 12.6922C10.1889 12.549 9.13654 12.1514 8.08008 11.3594C7.80871 11.156 7.55081 10.9336 7.3086 10.6914C7.06348 10.4463 6.83856 10.1849 6.6329 9.90978C5.84499 8.85557 5.44732 7.80577 5.30245 7.06097C5.26115 6.8486 5.29121 6.62853 5.38796 6.43502L6.54388 4.12315L5.34408 1.96181Z" fill="currentColor"/>
</svg>
