<svg width="18" height="18" viewBox="0 0 18 18" fill="none" xmlns="http://www.w3.org/2000/svg">
<path d="M15.118 5.05327H12.4501V3.71933C12.4501 3.12969 12.2159 2.5642 11.799 2.14726C11.382 1.73033 10.8165 1.49609 10.2269 1.49609H7.55901C6.96937 1.49609 6.40388 1.73033 5.98694 2.14726C5.57 2.5642 5.33577 3.12969 5.33577 3.71933V5.05327H2.66788C1.96032 5.05327 1.28173 5.33435 0.781405 5.83468C0.28108 6.335 0 7.01359 0 7.72116V14.8355C0 15.5431 0.28108 16.2217 0.781405 16.722C1.28173 17.2223 1.96032 17.5034 2.66788 17.5034H15.118C15.8256 17.5034 16.5042 17.2223 17.0045 16.722C17.5048 16.2217 17.7859 15.5431 17.7859 14.8355V7.72116C17.7859 7.01359 17.5048 6.335 17.0045 5.83468C16.5042 5.33435 15.8256 5.05327 15.118 5.05327ZM7.11436 3.71933C7.11436 3.6014 7.1612 3.48831 7.24459 3.40492C7.32798 3.32153 7.44108 3.27468 7.55901 3.27468H10.2269C10.3448 3.27468 10.4579 3.32153 10.5413 3.40492C10.6247 3.48831 10.6715 3.6014 10.6715 3.71933V5.05327H7.11436V3.71933ZM16.0073 14.8355C16.0073 15.0714 15.9136 15.2976 15.7468 15.4643C15.5801 15.6311 15.3539 15.7248 15.118 15.7248H2.66788C2.43203 15.7248 2.20583 15.6311 2.03906 15.4643C1.87228 15.2976 1.77859 15.0714 1.77859 14.8355V7.72116C1.77859 7.4853 1.87228 7.25911 2.03906 7.09233C2.20583 6.92556 2.43203 6.83186 2.66788 6.83186H15.118C15.3539 6.83186 15.5801 6.92556 15.7468 7.09233C15.9136 7.25911 16.0073 7.4853 16.0073 7.72116V14.8355Z" fill="currentColor"/>
<path d="M8.89378 8.16602C8.27818 8.16602 7.67641 8.34856 7.16455 8.69057C6.6527 9.03258 6.25376 9.51869 6.01818 10.0874C5.7826 10.6562 5.72096 11.282 5.84106 11.8858C5.96116 12.4895 6.2576 13.0441 6.69289 13.4794C7.12819 13.9147 7.68279 14.2112 8.28656 14.3313C8.89033 14.4514 9.51616 14.3897 10.0849 14.1542C10.6536 13.9186 11.1398 13.5196 11.4818 13.0078C11.8238 12.4959 12.0063 11.8941 12.0063 11.2785C12.0063 10.4531 11.6784 9.66137 11.0947 9.07766C10.511 8.49394 9.71928 8.16602 8.89378 8.16602ZM8.89378 12.6125C8.62995 12.6125 8.37205 12.5343 8.15269 12.3877C7.93332 12.2411 7.76234 12.0328 7.66138 11.789C7.56042 11.5453 7.534 11.2771 7.58547 11.0183C7.63694 10.7595 7.76399 10.5219 7.95054 10.3353C8.1371 10.1488 8.37478 10.0217 8.63354 9.97024C8.8923 9.91877 9.16052 9.94518 9.40426 10.0461C9.64801 10.1471 9.85634 10.3181 10.0029 10.5374C10.1495 10.7568 10.2277 11.0147 10.2277 11.2785C10.2277 11.6323 10.0872 11.9716 9.83702 12.2218C9.58686 12.472 9.24757 12.6125 8.89378 12.6125Z" fill="currentColor"/>
</svg>
