<svg width="25" height="25" viewBox="0 0 25 25" fill="none" xmlns="http://www.w3.org/2000/svg">
<path fill-rule="evenodd" clip-rule="evenodd" d="M5.74463 6.47977C5.74463 2.91943 8.63085 0.0332031 12.1912 0.0332031C15.7515 0.0332031 18.6378 2.91943 18.6378 6.47977V8.57227C19.3915 8.57236 20.0135 8.57444 20.5238 8.61613C21.0797 8.66155 21.5818 8.75843 22.0507 8.99734C22.7845 9.37125 23.3811 9.96787 23.755 10.7017C23.9939 11.1706 24.0908 11.6727 24.1362 12.2286C24.1801 12.7657 24.1801 13.4265 24.1801 14.2346V14.2723V18.332V18.3697C24.1801 19.1777 24.1801 19.8386 24.1362 20.3757C24.0908 20.9316 23.9939 21.4336 23.755 21.9025C23.3811 22.6364 22.7845 23.233 22.0507 23.6069C21.5818 23.8458 21.0797 23.9427 20.5238 23.9881C19.9867 24.032 19.3259 24.032 18.5179 24.032H18.5178H18.4801H5.89384H5.85614H5.85604C5.04804 24.032 4.38722 24.032 3.85016 23.9881C3.29425 23.9427 2.79217 23.8458 2.32329 23.6069C1.58945 23.233 0.99283 22.6364 0.618923 21.9025C0.380013 21.4336 0.28313 20.9316 0.23771 20.3757C0.19383 19.8386 0.193838 19.1777 0.193848 18.3697V18.3697V18.332V14.2723V14.2346V14.2345V14.2345C0.193838 13.4265 0.19383 12.7657 0.23771 12.2286C0.28313 11.6727 0.380013 11.1706 0.618923 10.7017C0.99283 9.96787 1.58945 9.37125 2.32329 8.99734C2.79217 8.75843 3.29425 8.66155 3.85017 8.61613C4.36233 8.57428 4.98704 8.57235 5.74463 8.57227V6.47977ZM16.8378 6.47977V8.57227H7.54463V6.47977C7.54463 3.91354 9.62497 1.8332 12.1912 1.8332C14.7574 1.8332 16.8378 3.91354 16.8378 6.47977ZM3.99674 10.4101C3.55214 10.4465 3.31332 10.5131 3.14047 10.6012C2.74533 10.8025 2.42407 11.1237 2.22274 11.5189C2.13467 11.6917 2.06806 11.9306 2.03173 12.3752C1.99455 12.8303 1.99385 13.4173 1.99385 14.2723V18.332C1.99385 19.1869 1.99455 19.774 2.03173 20.2291C2.06806 20.6737 2.13467 20.9125 2.22274 21.0854C2.42407 21.4805 2.74533 21.8018 3.14047 22.0031C3.31332 22.0912 3.55214 22.1578 3.99674 22.1941C4.45185 22.2313 5.03892 22.232 5.89384 22.232H18.4801C19.335 22.232 19.9221 22.2313 20.3772 22.1941C20.8218 22.1578 21.0606 22.0912 21.2335 22.0031C21.6286 21.8018 21.9499 21.4805 22.1512 21.0854C22.2393 20.9125 22.3059 20.6737 22.3422 20.2291C22.3794 19.774 22.3801 19.1869 22.3801 18.332V14.2723C22.3801 13.4173 22.3794 12.8303 22.3422 12.3752C22.3059 11.9306 22.2393 11.6917 22.1512 11.5189C21.9499 11.1237 21.6286 10.8025 21.2335 10.6012C21.0606 10.5131 20.8218 10.4465 20.3772 10.4101C19.9221 10.373 19.335 10.3723 18.4801 10.3723H5.89385C5.03892 10.3723 4.45185 10.373 3.99674 10.4101ZM13.3221 17.1428C14.0534 16.7492 14.5454 16.0134 14.5454 15.1708C14.5454 13.9134 13.45 12.8941 12.0989 12.8941C10.7478 12.8941 9.65244 13.9134 9.65244 15.1708C9.65244 16.0134 10.1444 16.7492 10.8757 17.1428V19.1548C10.8757 19.7835 11.4233 20.2931 12.0989 20.2931C12.7745 20.2931 13.3221 19.7835 13.3221 19.1548V17.1428Z" fill="currentColor"/>
</svg>
