<svg width="12" height="12" viewBox="0 0 12 12" fill="none" xmlns="http://www.w3.org/2000/svg">
<path d="M9.73035 1.80156H2.15603L2.97658 1.02795C3.09544 0.91502 3.16221 0.761859 3.16221 0.602157C3.16221 0.442455 3.09544 0.289294 2.97658 0.176368C2.85773 0.0634414 2.69652 0 2.52843 0C2.36035 0 2.19914 0.0634414 2.08029 0.176368L0.186706 1.97548C0.127545 2.03123 0.080588 2.09756 0.0485432 2.17064C0.0164983 2.24372 0 2.3221 0 2.40127C0 2.48044 0.0164983 2.55882 0.0485432 2.6319C0.080588 2.70498 0.127545 2.77131 0.186706 2.82706L2.08029 4.62617C2.13896 4.68238 2.20878 4.72699 2.28569 4.75744C2.36261 4.78788 2.44511 4.80356 2.52843 4.80356C2.61176 4.80356 2.69426 4.78788 2.77118 4.75744C2.84809 4.72699 2.9179 4.68238 2.97658 4.62617C3.03574 4.57042 3.0827 4.50409 3.11474 4.43101C3.14679 4.35793 3.16329 4.27955 3.16329 4.20038C3.16329 4.12121 3.14679 4.04283 3.11474 3.96975C3.0827 3.89667 3.03574 3.83034 2.97658 3.77459L2.15603 3.00097H9.73035C9.85967 2.99859 9.98821 3.02043 10.1086 3.06525C10.2291 3.11008 10.339 3.177 10.4322 3.26221C10.5254 3.34742 10.6 3.44923 10.6518 3.56184C10.7036 3.67446 10.7315 3.79565 10.734 3.91852V5.39979C10.734 5.55884 10.8005 5.71137 10.9188 5.82384C11.0372 5.93631 11.1977 5.99949 11.3651 5.99949C11.5325 5.99949 11.6931 5.93631 11.8115 5.82384C11.9298 5.71137 11.9963 5.55884 11.9963 5.39979V3.91852C11.9939 3.63815 11.9333 3.36099 11.8181 3.10287C11.7029 2.84474 11.5352 2.61071 11.3248 2.41413C11.1144 2.21755 10.8653 2.06228 10.5917 1.95717C10.3181 1.85207 10.0254 1.79919 9.73035 1.80156ZM9.91971 7.37281C9.80086 7.25988 9.63965 7.19644 9.47157 7.19644C9.30348 7.19644 9.14227 7.25988 9.02342 7.37281C8.90456 7.48574 8.83779 7.6389 8.83779 7.7986C8.83779 7.9583 8.90456 8.11146 9.02342 8.22439L9.84397 8.99801H2.26965C2.14033 9.00039 2.01179 8.97855 1.89136 8.93372C1.77094 8.8889 1.66098 8.82197 1.56779 8.73677C1.47459 8.65156 1.39997 8.54974 1.3482 8.43713C1.29643 8.32452 1.26851 8.20332 1.26605 8.08046V6.59919C1.26605 6.44014 1.19955 6.2876 1.08117 6.17514C0.962803 6.06267 0.802257 5.99949 0.634854 5.99949C0.467451 5.99949 0.306904 6.06267 0.188532 6.17514C0.0701604 6.2876 0.00365988 6.44014 0.00365988 6.59919V8.08046C0.00613611 8.36083 0.0667129 8.63799 0.181931 8.89611C0.29715 9.15423 0.464754 9.38827 0.675172 9.58485C0.88559 9.78142 1.1347 9.9367 1.40828 10.0418C1.68186 10.1469 1.97456 10.1998 2.26965 10.1974H9.84397L9.02342 10.971C8.96426 11.0268 8.9173 11.0931 8.88525 11.1662C8.85321 11.2393 8.83671 11.3177 8.83671 11.3968C8.83671 11.476 8.85321 11.5544 8.88525 11.6275C8.9173 11.7005 8.96426 11.7669 9.02342 11.8226C9.0821 11.8788 9.15191 11.9234 9.22882 11.9539C9.30574 11.9843 9.38824 12 9.47157 12C9.55489 12 9.63739 11.9843 9.71431 11.9539C9.79122 11.9234 9.86103 11.8788 9.91971 11.8226L11.8133 10.0235C11.8725 9.96775 11.9194 9.90142 11.9515 9.82834C11.9835 9.75526 12 9.67688 12 9.59771C12 9.51854 11.9835 9.44016 11.9515 9.36708C11.9194 9.294 11.8725 9.22767 11.8133 9.17192L9.91971 7.37281Z" fill="currentColor"/>
</svg>
