<svg width="18" height="18" viewBox="0 0 18 18" fill="none" xmlns="http://www.w3.org/2000/svg">
<path fill-rule="evenodd" clip-rule="evenodd" d="M16.115 3.48791C14.4701 1.36744 11.8945 0 9 0C6.03288 0 3.40113 1.43677 1.76311 3.64872C1.4673 4.04817 1.55132 4.61179 1.95078 4.9076C2.35023 5.20341 2.91385 5.11939 3.20966 4.71993C4.52282 2.94667 6.62742 1.8 9 1.8C11.328 1.8 13.3978 2.90386 14.7153 4.62041C14.7336 4.64415 14.753 4.66698 14.7735 4.68879L15.019 4.95H13.05C12.5529 4.95 12.15 5.35294 12.15 5.85C12.15 6.34706 12.5529 6.75 13.05 6.75H17.1C17.5971 6.75 18 6.34706 18 5.85V1.8C18 1.30294 17.5971 0.9 17.1 0.9C16.6029 0.9 16.2 1.30294 16.2 1.8V3.5783L16.115 3.48791ZM15.3 9C15.3 8.50294 14.8971 8.1 14.4 8.1H0.9C0.402945 8.1 0 8.50294 0 9V17.1C0 17.5971 0.402945 18 0.9 18H14.4C14.8971 18 15.3 17.5971 15.3 17.1V9ZM13.5 9.9V16.2H1.8V9.9H13.5Z" fill="currentColor"/>
</svg>
