<svg width="32" height="32" viewBox="0 0 32 32" fill="none" xmlns="http://www.w3.org/2000/svg">
    <path fill-rule="evenodd" clip-rule="evenodd" d="M0 16C0 7.16344 7.16344 0 16 0C24.8366 0 32 7.16344 32 16C32 24.8366 24.8366 32 16 32C7.16344 32 0 24.8366 0 16Z" fill="#D6E9FF" fill-opacity="0.2" />
    <path d="M21.2193 12.2857C21.6584 11.8734 22.3334 11.9119 22.7272 12.3717C23.1209 12.8315 23.0841 13.5385 22.6451 13.9508C22.6451 13.9508 17.0457 19.3333 16.64 19.7143C16.2343 20.0952 15.7608 20.0952 15.3552 19.7143L9.35492 13.9508C8.91587 13.5385 8.87912 12.8315 9.27283 12.3717C9.66655 11.9119 10.3416 11.8734 10.7807 12.2857L16 17.3797L21.2193 12.2857Z" fill="currentColor" />
</svg>
    