<svg width="24" height="25" viewBox="0 0 24 25" fill="none" xmlns="http://www.w3.org/2000/svg">
<path fill-rule="evenodd" clip-rule="evenodd" d="M23.4659 11.9706C23.4659 12.4096 23.2144 12.8098 22.8188 13.0003L2.09052 22.9806C1.66832 23.1838 1.1648 23.1088 0.820222 22.7912C0.475646 22.4737 0.359836 21.9779 0.52805 21.5406L4.20883 11.9706L0.528051 2.40053C0.359836 1.96317 0.475646 1.46744 0.820223 1.14988C1.1648 0.832316 1.66831 0.757273 2.09052 0.960556L22.8188 10.9408C23.2144 11.1313 23.4659 11.5315 23.4659 11.9706ZM6.21822 13.1134L3.69622 19.6706L17.315 13.1134L6.21822 13.1134ZM17.315 10.8277L3.69622 4.27053L6.21822 10.8277L17.315 10.8277Z" fill="currentColor"/>
</svg>
