<svg width="30" height="30" viewBox="0 0 30 30" fill="none" xmlns="http://www.w3.org/2000/svg">
<path fill-rule="evenodd" clip-rule="evenodd" d="M10.9899 0.0513959C11.6142 -0.127747 12.274 0.173145 12.5684 0.771291C13.0212 1.69118 13.9414 2.31612 15 2.31612C16.0586 2.31612 16.9788 1.69118 17.4316 0.771291C17.726 0.173145 18.3858 -0.127747 19.0101 0.0513959C21.361 0.725935 23.4783 1.97779 25.2118 3.64853C25.653 4.07375 25.7727 4.74865 25.5063 5.30872C25.3281 5.68338 25.2273 6.10574 25.2273 6.5565C25.2273 8.11777 26.4483 9.38343 27.9545 9.38343L27.9925 9.38315C28.5953 9.37423 29.1323 9.7767 29.3129 10.3729C29.7597 11.8471 30 13.4144 30 15.0373C30 16.1083 29.8953 17.1555 29.6955 18.168C29.5556 18.8772 28.9213 19.3622 28.2262 19.2914C28.1373 19.2824 28.0468 19.2777 27.9545 19.2777C26.4483 19.2777 25.2273 20.5433 25.2273 22.1046C25.2273 22.7999 25.4677 23.4334 25.8687 23.926C26.3191 24.4793 26.2933 25.2959 25.809 25.8176C24.039 27.7241 21.8021 29.1646 19.2865 29.9409C18.5749 30.1605 17.8246 29.7496 17.5985 29.0166C17.2466 27.8753 16.2143 27.0517 15 27.0517C13.7857 27.0517 12.7534 27.8753 12.4015 29.0166C12.1754 29.7496 11.4251 30.1605 10.7135 29.9409C8.19793 29.1646 5.96103 27.7241 4.191 25.8176C3.70668 25.2959 3.68092 24.4793 4.13133 23.926C4.5323 23.4334 4.77273 22.7999 4.77273 22.1046C4.77273 20.5433 3.55169 19.2777 2.04545 19.2777C1.95325 19.2777 1.86265 19.2824 1.7738 19.2914C1.07874 19.3622 0.444434 18.8772 0.304474 18.168C0.104683 17.1555 0 16.1083 0 15.0373C0 13.4145 0.240323 11.8471 0.687073 10.3729C0.867744 9.77669 1.40468 9.37423 2.0075 9.38315L2.04545 9.38343C3.55169 9.38343 4.77273 8.11777 4.77273 6.5565C4.77273 6.10574 4.67193 5.68338 4.49372 5.30872C4.22731 4.74865 4.34703 4.07375 4.78821 3.64853C6.52168 1.97779 8.63904 0.725935 10.9899 0.0513959ZM7.32045 5.11374C7.43767 5.5751 7.5 6.05888 7.5 6.5565C7.5 9.32241 5.58388 11.6244 3.0525 12.1142C2.83994 13.0517 2.72727 14.0301 2.72727 15.0373C2.72727 15.5343 2.75471 16.0242 2.80801 16.5056C5.45948 16.89 7.5 19.2503 7.5 22.1046C7.5 23.0082 7.29477 23.8637 6.93039 24.6221C7.95313 25.5482 9.12467 26.3006 10.4022 26.8361C11.3708 25.2665 13.0669 24.2248 15 24.2248C16.9331 24.2248 18.6292 25.2665 19.5978 26.8361C20.8753 26.3006 22.0469 25.5481 23.0696 24.6221C22.7052 23.8637 22.5 23.0082 22.5 22.1046C22.5 19.2503 24.5405 16.89 27.192 16.5056C27.2453 16.0242 27.2727 15.5343 27.2727 15.0373C27.2727 14.0301 27.1601 13.0517 26.9475 12.1142C24.4161 11.6244 22.5 9.32241 22.5 6.5565C22.5 6.05888 22.5623 5.5751 22.6795 5.11374C21.6463 4.25336 20.4766 3.56335 19.21 3.08393C18.2106 4.34 16.6965 5.14305 15 5.14305C13.3035 5.14305 11.7894 4.34 10.79 3.08393C9.52344 3.56335 8.35372 4.25336 7.32045 5.11374ZM8.86364 15.0373C8.86364 11.5244 11.611 8.6767 15 8.6767C18.389 8.6767 21.1364 11.5244 21.1364 15.0373C21.1364 18.5501 18.389 21.3979 15 21.3979C11.611 21.3979 8.86364 18.5501 8.86364 15.0373ZM15 11.5036C13.1172 11.5036 11.5909 13.0857 11.5909 15.0373C11.5909 16.9889 13.1172 18.5709 15 18.5709C16.8828 18.5709 18.4091 16.9889 18.4091 15.0373C18.4091 13.0857 16.8828 11.5036 15 11.5036Z" fill="currentColor"/>
</svg>
