<svg width="12" height="18" viewBox="0 0 12 18" fill="none" xmlns="http://www.w3.org/2000/svg">
<mask id="path-1-inside-1" fill="currentColor">
<path fill-rule="evenodd" clip-rule="evenodd" d="M6 10.5487V1.99975C6 0.899889 6.89989 0 7.99975 0H9.99951C11.0994 0 11.9993 0.899889 11.9993 1.99975C11.9993 3.09962 11.0994 3.99951 9.99951 3.99951H7.99975V13.8483C7.99975 15.838 6.60992 17.6378 4.65017 17.9478C4.01891 18.0505 3.37224 18.0007 2.7642 17.8024C2.15616 17.604 1.60443 17.2631 1.15514 16.8079C0.705851 16.3527 0.372054 15.7966 0.181657 15.1861C-0.00873972 14.5755 -0.0502028 13.9282 0.0607342 13.2984C0.300705 11.8985 1.33058 10.7087 2.67041 10.2287C3.90026 9.79879 5.06012 10.0088 6 10.5487ZM3.99951 15.998C5.10394 15.998 5.99926 15.1027 5.99926 13.9983C5.99926 12.8938 5.10394 11.9985 3.99951 11.9985C2.89507 11.9985 1.99975 12.8938 1.99975 13.9983C1.99975 15.1027 2.89507 15.998 3.99951 15.998Z"/>
</mask>
<path fill-rule="evenodd" clip-rule="evenodd" d="M6 10.5487V1.99975C6 0.899889 6.89989 0 7.99975 0H9.99951C11.0994 0 11.9993 0.899889 11.9993 1.99975C11.9993 3.09962 11.0994 3.99951 9.99951 3.99951H7.99975V13.8483C7.99975 15.838 6.60992 17.6378 4.65017 17.9478C4.01891 18.0505 3.37224 18.0007 2.7642 17.8024C2.15616 17.604 1.60443 17.2631 1.15514 16.8079C0.705851 16.3527 0.372054 15.7966 0.181657 15.1861C-0.00873972 14.5755 -0.0502028 13.9282 0.0607342 13.2984C0.300705 11.8985 1.33058 10.7087 2.67041 10.2287C3.90026 9.79879 5.06012 10.0088 6 10.5487ZM3.99951 15.998C5.10394 15.998 5.99926 15.1027 5.99926 13.9983C5.99926 12.8938 5.10394 11.9985 3.99951 11.9985C2.89507 11.9985 1.99975 12.8938 1.99975 13.9983C1.99975 15.1027 2.89507 15.998 3.99951 15.998Z" fill="currentColor"/>
<path d="M6 10.5487L5.50188 11.4158L7 12.2764V10.5487H6ZM7.99975 3.99951V2.99951H6.99975V3.99951H7.99975ZM4.65017 17.9478L4.49394 16.9601L4.48951 16.9608L4.65017 17.9478ZM1.15514 16.8079L0.443457 17.5104L0.443459 17.5104L1.15514 16.8079ZM0.181657 15.1861L1.13632 14.8884H1.13632L0.181657 15.1861ZM0.0607342 13.2984L1.04559 13.4718L1.04636 13.4673L0.0607342 13.2984ZM2.67041 10.2287L2.34039 9.28473L2.33319 9.28731L2.67041 10.2287ZM5 1.99975V10.5487H7V1.99975H5ZM7.99975 -1C6.3476 -1 5 0.347604 5 1.99975H7C7 1.45217 7.45217 1 7.99975 1V-1ZM9.99951 -1H7.99975V1H9.99951V-1ZM12.9993 1.99975C12.9993 0.347604 11.6517 -1 9.99951 -1V1C10.5471 1 10.9993 1.45217 10.9993 1.99975H12.9993ZM9.99951 4.99951C11.6517 4.99951 12.9993 3.6519 12.9993 1.99975H10.9993C10.9993 2.54733 10.5471 2.99951 9.99951 2.99951V4.99951ZM7.99975 4.99951H9.99951V2.99951H7.99975V4.99951ZM8.99975 13.8483V3.99951H6.99975V13.8483H8.99975ZM4.80639 18.9355C7.30339 18.5406 8.99975 16.2762 8.99975 13.8483H6.99975C6.99975 15.3999 5.91646 16.7351 4.49394 16.9601L4.80639 18.9355ZM2.45413 18.7531C3.21392 19.0009 4.02201 19.0632 4.81082 18.9348L4.48951 16.9608C4.01582 17.0379 3.53055 17.0005 3.07427 16.8516L2.45413 18.7531ZM0.443459 17.5104C1.00489 18.0792 1.69433 18.5053 2.45413 18.7531L3.07427 16.8516C2.61799 16.7028 2.20398 16.4469 1.86683 16.1054L0.443459 17.5104ZM-0.773003 15.4838C-0.535084 16.2467 -0.117972 16.9416 0.443457 17.5104L1.86683 16.1054C1.52967 15.7638 1.27919 15.3465 1.13632 14.8884L-0.773003 15.4838ZM-0.924107 13.1249C-1.06273 13.912 -1.01092 14.7208 -0.773002 15.4838L1.13632 14.8884C0.993442 14.4302 0.962328 13.9445 1.04558 13.4718L-0.924107 13.1249ZM2.33319 9.28731C0.666548 9.88432 -0.621686 11.3607 -0.924888 13.1294L1.04636 13.4673C1.22309 12.4363 1.99461 11.533 3.00764 11.1702L2.33319 9.28731ZM6.49812 9.68159C5.33901 9.01572 3.87793 8.74725 2.3404 9.28476L3.00042 11.1727C3.92259 10.8503 4.78122 11.0018 5.50188 11.4158L6.49812 9.68159ZM4.99926 13.9983C4.99926 14.5504 4.55165 14.998 3.99951 14.998V16.998C5.65622 16.998 6.99926 15.655 6.99926 13.9983H4.99926ZM3.99951 12.9985C4.55165 12.9985 4.99926 13.4461 4.99926 13.9983H6.99926C6.99926 12.3416 5.65622 10.9985 3.99951 10.9985V12.9985ZM2.99975 13.9983C2.99975 13.4461 3.44736 12.9985 3.99951 12.9985V10.9985C2.34279 10.9985 0.999753 12.3416 0.999753 13.9983H2.99975ZM3.99951 14.998C3.44736 14.998 2.99975 14.5504 2.99975 13.9983H0.999753C0.999753 15.655 2.34279 16.998 3.99951 16.998V14.998Z" fill="currentColor" mask="url(#path-1-inside-1)"/>
</svg>
