<svg width="12" height="12" viewBox="0 0 12 12" fill="none" xmlns="http://www.w3.org/2000/svg">
<g clip-path="url(#clip0)">
<path d="M9.27237 7.63574H8.90873C8.6075 7.63574 8.36328 7.87996 8.36328 8.1812C8.36328 8.48243 8.6075 8.72665 8.90873 8.72665H9.27237C9.57361 8.72665 9.81782 8.48243 9.81782 8.1812C9.81782 7.87996 9.57361 7.63574 9.27237 7.63574Z" fill="currentColor"/>
<path d="M10.3633 5.4541H8.90874C8.6075 5.4541 8.36328 5.69832 8.36328 5.99956C8.36328 6.30079 8.6075 6.54501 8.90874 6.54501H10.3633C10.6645 6.54501 10.9087 6.30079 10.9087 5.99956C10.9087 5.69832 10.6645 5.4541 10.3633 5.4541Z" fill="currentColor"/>
<path d="M11.4542 3.27246H8.90874C8.6075 3.27246 8.36328 3.51668 8.36328 3.81791C8.36328 4.11915 8.6075 4.36337 8.90874 4.36337H11.4542C11.7554 4.36337 11.9996 4.11915 11.9996 3.81791C11.9996 3.51668 11.7554 3.27246 11.4542 3.27246Z" fill="currentColor"/>
<path d="M7.68312 0.0798546C7.488 -0.0361454 7.25128 -0.0234343 7.0672 0.112921L3.61836 2.66763H0.6C0.26864 2.66763 0 2.96612 0 3.3343V8.66764C0 9.03582 0.26864 9.33431 0.6 9.33431H3.61836L7.0672 11.889C7.1676 11.9634 7.28364 12.001 7.40004 12.001C7.49712 12.001 7.5944 11.9748 7.68312 11.9221C7.8782 11.8061 8 11.5802 8 11.3343V0.667633C8 0.421766 7.8782 0.195855 7.68312 0.0798546ZM6.8 10.0886L4.1328 8.11293C4.03424 8.03991 3.91844 8.00097 3.8 8.00097H1.2V4.00097H3.8C3.91844 4.00097 4.03424 3.96204 4.1328 3.88901L6.8 1.91332V10.0886Z" fill="currentColor"/>
</g>
<defs>
<clipPath id="clip0">
<rect width="12" height="12" fill="white"/>
</clipPath>
</defs>
</svg>
