<svg width="12" height="12" viewBox="0 0 12 12" fill="none" xmlns="http://www.w3.org/2000/svg">
<path fill-rule="evenodd" clip-rule="evenodd" d="M8.00842 1.08489e-08C8.16763 -3.02445e-05 8.32033 0.0632223 8.43289 0.175829L10.6244 2.36826C10.8585 2.60255 10.8585 2.98231 10.6244 3.2166L4.41952 9.42417C4.30699 9.53675 4.15434 9.6 3.99516 9.6H1.8C1.46863 9.6 1.2 9.33137 1.2 9V6.81597C1.2 6.65696 1.26312 6.50446 1.37548 6.39196L7.58401 0.17599C7.69653 0.0633407 7.8492 3.02662e-05 8.00842 1.08489e-08ZM8.00869 1.44888L2.4 7.06429V8.4H3.74655L9.35166 2.79243L8.00869 1.44888ZM0 11.4C0 11.0686 0.268629 10.8 0.6 10.8H11.4C11.7314 10.8 12 11.0686 12 11.4C12 11.7314 11.7314 12 11.4 12H0.6C0.268629 12 0 11.7314 0 11.4Z" fill="currentColor"/>
</svg>
