<svg width="18" height="19" viewBox="0 0 18 19" fill="none" xmlns="http://www.w3.org/2000/svg">
<path fill-rule="evenodd" clip-rule="evenodd" d="M13.9362 4.9455C13.9362 2.21417 11.7221 0 8.99073 0H8.70539C6.13165 0 4.04523 2.08642 4.04523 4.66016H5.84523C5.84523 3.08054 7.12576 1.8 8.70539 1.8H8.99073C10.7279 1.8 12.1362 3.20829 12.1362 4.9455V6.53786H5.7H5.6623C4.85425 6.53785 4.19339 6.53784 3.65632 6.58173C3.1004 6.62715 2.59833 6.72403 2.12944 6.96294C1.39561 7.33684 0.798981 7.93347 0.425075 8.6673C0.186165 9.13619 0.0892821 9.63827 0.0438622 10.1942C-1.87531e-05 10.7313 -1.01105e-05 11.3921 3.20342e-07 12.2002L6.7797e-07 12.2379V12.447L3.20342e-07 12.4847C-1.01105e-05 13.2927 -1.87531e-05 13.9536 0.0438622 14.4907C0.0892821 15.0466 0.186165 15.5486 0.425075 16.0175C0.798981 16.7514 1.39561 17.348 2.12944 17.7219C2.59833 17.9608 3.1004 18.0577 3.65632 18.1031C4.19337 18.147 4.85419 18.147 5.6622 18.147H5.6623H5.7H12.282H12.3197H12.3198C13.1278 18.147 13.7886 18.147 14.3257 18.1031C14.8816 18.0577 15.3837 17.9608 15.8526 17.7219C16.5864 17.348 17.183 16.7514 17.5569 16.0175C17.7958 15.5486 17.8927 15.0466 17.9381 14.4907C17.982 13.9536 17.982 13.2927 17.982 12.4847V12.447V12.2379V12.2002C17.982 11.3921 17.982 10.7313 17.9381 10.1942C17.8927 9.63827 17.7958 9.13619 17.5569 8.6673C17.183 7.93347 16.5864 7.33684 15.8526 6.96294C15.3837 6.72403 14.8816 6.62715 14.3257 6.58173C14.2025 6.57166 14.0728 6.5639 13.9362 6.55793V4.9455ZM3.8029 8.37575C3.3583 8.41207 3.11947 8.47868 2.94662 8.56675C2.55148 8.76808 2.23022 9.08934 2.02889 9.48448C1.94082 9.65733 1.87421 9.89616 1.83788 10.3408C1.8007 10.7959 1.8 11.3829 1.8 12.2379V12.447C1.8 13.3019 1.8007 13.889 1.83788 14.3441C1.87421 14.7887 1.94082 15.0275 2.02889 15.2004C2.23022 15.5955 2.55148 15.9167 2.94662 16.1181C3.11947 16.2062 3.3583 16.2728 3.8029 16.3091C4.258 16.3463 4.84507 16.347 5.7 16.347H12.282C13.1369 16.347 13.724 16.3463 14.1791 16.3091C14.6237 16.2728 14.8625 16.2062 15.0354 16.1181C15.4305 15.9167 15.7518 15.5955 15.9531 15.2004C16.0412 15.0275 16.1078 14.7887 16.1441 14.3441C16.1813 13.889 16.182 13.3019 16.182 12.447V12.2379C16.182 11.3829 16.1813 10.7959 16.1441 10.3408C16.1078 9.89616 16.0412 9.65733 15.9531 9.48448C15.7518 9.08934 15.4305 8.76808 15.0354 8.56675C14.8625 8.47868 14.6237 8.41207 14.1791 8.37575C13.724 8.33856 13.1369 8.33786 12.282 8.33786H5.7C4.84507 8.33786 4.258 8.33856 3.8029 8.37575ZM9.88997 12.9408C10.4274 12.6581 10.789 12.1298 10.789 11.5246C10.789 10.6217 9.98398 9.88979 8.99097 9.88979C7.99796 9.88979 7.19297 10.6217 7.19297 11.5246C7.19297 12.1298 7.55455 12.6581 8.09197 12.9408V14.3856C8.09197 14.8371 8.49447 15.2031 8.99097 15.2031C9.48747 15.2031 9.88997 14.8371 9.88997 14.3856V12.9408Z" fill="currentColor"/>
</svg>
