<svg width="143" height="143" viewBox="0 0 143 143" fill="none" xmlns="http://www.w3.org/2000/svg">
<path d="M50.9789 13.051C30.4468 13.051 13.605 29.9963 13.605 51.1443C13.605 63.6502 19.5076 74.7168 28.6028 81.6586C31.4207 83.8094 31.958 87.8326 29.8027 90.6447C27.6475 93.4567 23.6159 93.9929 20.798 91.8421C8.61733 82.5454 0.757812 67.7582 0.757812 51.1443C0.757812 23.1352 23.1335 0.230469 50.9789 0.230469C71.772 0.230469 89.5221 13.0151 97.1717 31.1386C100.134 30.3304 103.247 29.8994 106.455 29.8994C126.238 29.8994 142.077 46.1625 142.077 65.9789C142.077 80.7178 133.34 93.4449 120.746 99.036C117.505 100.475 113.708 99.0194 112.266 95.7848C110.824 92.5502 112.282 88.7614 115.524 87.3224C123.554 83.7571 129.23 75.5727 129.23 65.9789C129.23 53.0235 118.925 42.7199 106.455 42.7199C102.761 42.7199 99.2869 43.6133 96.211 45.199C94.4812 46.0908 92.4394 46.1515 90.6595 45.3642C88.8795 44.5768 87.5535 43.0263 87.054 41.1484C82.7282 24.8848 68.1478 13.051 50.9789 13.051Z" fill="currentColor"/>
<path d="M26.4523 51.5125C26.4523 37.3514 37.9561 25.8715 52.1467 25.8715C59.2404 25.8715 65.6729 28.7486 70.3155 33.3819C72.8239 35.8854 72.8238 39.9441 70.3151 42.4474C67.8064 44.9506 63.7392 44.9505 61.2307 42.447C58.8992 40.1201 55.6963 38.692 52.1467 38.692C45.0514 38.692 39.2995 44.432 39.2995 51.5125C39.2995 55.0547 40.7305 58.251 43.0623 60.5777C45.5709 63.0809 45.5711 67.1397 43.0627 69.6431C40.5542 72.1466 36.487 72.1468 33.9783 69.6436C29.3353 65.0106 26.4523 58.5915 26.4523 51.5125Z" fill="currentColor"/>
<path d="M68.2053 136.897V72.7949M68.2053 72.7949L45.7227 95.2308M68.2053 72.7949L90.6879 95.2308" stroke="currentColor" stroke-width="12" stroke-linecap="round" stroke-linejoin="round"/>
</svg>
