<svg width="68" height="78" viewBox="0 0 68 78" fill="none" xmlns="http://www.w3.org/2000/svg">
<path d="M42.0313 42.9057C42.4144 42.9077 42.7868 42.9105 43.1489 42.914L45.2021 42.9454L47.0333 43.0001L48.6668 43.0824C52.5236 43.3264 54.7558 43.8708 57.0798 45.0253C60.843 46.8948 63.9027 49.8781 65.8203 53.5473L66.0156 53.9297L66.371 54.684L66.6819 55.4406C66.7302 55.5679 66.7767 55.6962 66.8216 55.8258L67.0711 56.6221C67.1095 56.7585 67.1464 56.897 67.1818 57.038L67.3766 57.9177C67.4062 58.0705 67.4345 58.2266 67.4614 58.3864L67.608 59.3932L67.7261 60.509L67.8186 61.7533L67.8884 63.1454L67.9569 65.5533L67.9962 69.4623L68 74.1C68 76.2539 66.2091 78 64 78H4C1.79038 78 -0.000684019 76.2532 1.95971e-07 74.0988L0.00151735 69.3722L0.0144019 67.1299L0.0466149 65.1279L0.102672 63.3425L0.187087 61.7499C0.437336 57.9894 0.995775 55.8131 2.17987 53.5472C4.09733 49.8781 7.15697 46.8948 10.9203 45.0252C13.3992 43.7939 15.7736 43.2565 20.1268 43.0375L21.856 42.9696L23.7952 42.9271L25.9687 42.9057H42.0313ZM41.893 50.7051H26.1137L23.3233 50.7375L21.03 50.8076L19.7424 50.8788L18.6236 50.9721L17.6526 51.0896L16.8085 51.2335C16.2834 51.3386 15.8291 51.4627 15.4175 51.6087L14.8289 51.8443L14.5521 51.9751C12.2942 53.0968 10.4584 54.8868 9.30793 57.0884C9.21547 57.2653 9.12914 57.4476 9.0486 57.6386L8.82394 58.2413C8.71991 58.5591 8.62807 58.9043 8.54717 59.2881L8.39963 60.1109L8.2791 61.0573L8.18341 62.1476L8.08165 64.0975L8.02348 66.4858L8 70.2H59.996L59.9842 67.7166L59.9606 65.9691L59.9001 63.7508L59.8402 62.5101L59.7622 61.4358L59.6644 60.5069L59.5446 59.7027L59.401 59.0024C59.3749 58.8932 59.3478 58.7874 59.3196 58.6847L59.1364 58.1011L58.9245 57.5694L58.6922 57.0884C57.5417 54.8869 55.7058 53.0969 53.4479 51.9752C53.2664 51.885 53.0795 51.8009 52.8836 51.7223L52.2654 51.5033C51.9394 51.4019 51.5855 51.3123 51.1918 51.2335L50.3479 51.0896L49.3774 50.9721L48.2592 50.8788L46.2594 50.7796L43.8103 50.7229L41.893 50.7051ZM34 0C43.9411 0 52 7.8574 52 17.55C52 27.2426 43.9411 35.1 34 35.1C24.0589 35.1 16 27.2426 16 17.55C16 7.8574 24.0589 0 34 0ZM34 7.8C28.4771 7.8 24 12.1652 24 17.55C24 22.9348 28.4771 27.3 34 27.3C39.5229 27.3 44 22.9348 44 17.55C44 12.1652 39.5229 7.8 34 7.8Z" fill="currentColor"/>
</svg>
