<svg width="20" height="24" viewBox="0 0 20 24" fill="none" xmlns="http://www.w3.org/2000/svg">
<path fill-rule="evenodd" clip-rule="evenodd" d="M5.00729 4.90909C5.00729 2.19788 7.2421 0 9.99888 0C12.7557 0 14.9905 2.19788 14.9905 4.90909V12C14.9905 14.7112 12.7557 16.9091 9.99888 16.9091C7.2421 16.9091 5.00729 14.7112 5.00729 12V4.90909ZM9.99888 2.18182C8.46734 2.18182 7.22577 3.40286 7.22577 4.90909V12C7.22577 13.5062 8.46733 14.7273 9.99888 14.7273C11.5304 14.7273 12.772 13.5062 12.772 12V4.90909C12.772 3.40286 11.5304 2.18182 9.99888 2.18182ZM1.67956 10.3636C2.29217 10.3636 2.7888 10.8521 2.7888 11.4545C2.7888 15.3708 6.01685 18.5455 9.99888 18.5455C13.9809 18.5455 17.209 15.3708 17.209 11.4545C17.209 10.8521 17.7056 10.3636 18.3182 10.3636C18.9308 10.3636 19.4275 10.8521 19.4275 11.4545C19.4275 16.2067 15.7927 20.1239 11.1081 20.6638V22.9091C11.1081 23.5116 10.6115 24 9.99888 24C9.38627 24 8.88964 23.5116 8.88964 22.9091V20.6638C4.2051 20.1239 0.570312 16.2067 0.570312 11.4545C0.570312 10.8521 1.06694 10.3636 1.67956 10.3636Z" fill="currentColor"/>
</svg>
