<svg width="24" height="24" viewBox="0 0 24 24" fill="none" xmlns="http://www.w3.org/2000/svg">
<g clip-path="url(#clip0)">
<path d="M23.8469 22.4143L12.9225 0.565427C12.7182 0.20807 12.412 0.00390625 12.0036 0.00390625C11.5952 0.00390625 11.2378 0.208117 11.0847 0.565427L0.109224 22.5675C-0.0439222 22.8738 -0.0439222 23.2311 0.160289 23.5374C0.3645 23.7927 0.670793 23.9969 1.0281 23.9969H22.9791C23.5406 23.9969 24.0001 23.5374 24.0001 22.9759C24 22.7717 23.949 22.5675 23.8469 22.4143ZM2.61058 22.0059L12.0036 3.21998L21.3455 22.0059H2.61058Z" fill="#EBAD34"/>
<path d="M23.4136 22.6657L23.3997 22.6379L12.482 0.802619C12.3553 0.586622 12.2047 0.503906 12.0036 0.503906C11.7602 0.503906 11.6057 0.61912 11.5443 0.762401L11.5386 0.775685L11.5321 0.788618L0.556645 22.7907L0.556438 22.7911C0.478415 22.9471 0.481204 23.1049 0.565432 23.243C0.704859 23.4091 0.873878 23.4969 1.0281 23.4969H22.9791C23.2644 23.4969 23.5 23.2614 23.5001 22.976L23.4136 22.6657ZM23.4136 22.6657L23.4308 22.6916M23.4136 22.6657L23.4308 22.6916M23.4308 22.6916C23.466 22.7443 23.5 22.8458 23.5001 22.9759L23.4308 22.6916ZM2.16337 21.7823L1.80157 22.5059H2.61058H21.3455H22.1526L21.7932 21.7833L12.4513 2.99735L12.0048 2.09951L11.5564 2.99637L2.16337 21.7823Z" stroke="white" stroke-opacity="0.5"/>
<path d="M12.0053 8.73242C11.4438 8.73242 10.9844 9.19186 10.9844 9.75338V15.0624C10.9844 15.624 11.4438 16.0834 12.0053 16.0834C12.5669 16.0834 12.9753 15.624 13.0263 15.0624V9.75338C13.0263 9.19186 12.5669 8.73242 12.0053 8.73242Z" fill="#EBAD34"/>
<path d="M11.4844 9.75338C11.4844 9.468 11.72 9.23242 12.0053 9.23242C12.2907 9.23242 12.5263 9.468 12.5263 9.75338V15.0372C12.4864 15.3871 12.2489 15.5834 12.0053 15.5834C11.72 15.5834 11.4844 15.3478 11.4844 15.0624V9.75338Z" stroke="white" stroke-opacity="0.5"/>
<path d="M12.0053 17.668C11.4438 17.668 10.9844 18.1274 10.9844 18.6889V19.0463C10.9844 19.6078 11.4438 20.0672 12.0053 20.0672C12.5669 20.0672 12.9753 19.6078 13.0263 19.0463V18.6889C13.0263 18.1274 12.5669 17.668 12.0053 17.668Z" fill="#EBAD34"/>
<path d="M11.4844 18.6889C11.4844 18.4036 11.72 18.168 12.0053 18.168C12.2907 18.168 12.5263 18.4036 12.5263 18.6889V19.0211C12.4864 19.3709 12.2489 19.5672 12.0053 19.5672C11.72 19.5672 11.4844 19.3317 11.4844 19.0463V18.6889Z" stroke="white" stroke-opacity="0.5"/>
</g>
<defs>
<clipPath id="clip0">
<rect width="24" height="24" fill="white"/>
</clipPath>
</defs>
</svg>
