<svg width="108" height="108" viewBox="0 0 108 108" fill="none" xmlns="http://www.w3.org/2000/svg">
<path d="M10.1084 23.3379H44.7459C45.9341 23.3379 46.8973 22.3748 46.8973 21.1866C46.8973 19.9983 45.9341 19.0352 44.7459 19.0352H10.1084C8.92021 19.0352 7.95703 19.9983 7.95703 21.1866C7.95703 22.3748 8.92021 23.3379 10.1084 23.3379Z" fill="currentColor"/>
<path d="M52.4951 23.3379H56.5828C57.771 23.3379 58.7342 22.3748 58.7342 21.1866C58.7342 19.9983 57.771 19.0352 56.5828 19.0352H52.4951C51.3069 19.0352 50.3438 19.9983 50.3438 21.1866C50.3438 22.3748 51.3069 23.3379 52.4951 23.3379Z" fill="currentColor"/>
<path d="M105.849 11.6133H2.15139C0.963179 11.6133 0 12.5765 0 13.7647V82.179C0 83.3672 0.963179 84.3304 2.15139 84.3304H40.8765V92.0754H33.5618C32.3735 92.0754 31.4104 93.0386 31.4104 94.2268C31.4104 95.415 32.3735 96.3782 33.5618 96.3782H74.4382C75.6265 96.3782 76.5896 95.415 76.5896 94.2268C76.5896 93.0386 75.6265 92.0754 74.4382 92.0754H67.1235V84.3304H105.849C107.037 84.3304 108 83.3672 108 82.179V13.7647C108 12.5765 107.037 11.6133 105.849 11.6133ZM62.8207 92.0754H45.1793V84.3304H62.8207V92.0754ZM103.697 80.0276H4.30279V15.9161H103.697V80.0276Z" fill="currentColor"/>
<path d="M52.3857 34.4087V49.4384C52.3857 49.6163 52.5298 49.7604 52.7076 49.7604H73.3047C73.4825 49.7604 73.6266 49.6163 73.6266 49.4384V31.4117C73.6266 31.3183 73.5861 31.2294 73.5154 31.1682C73.4448 31.1071 73.3512 31.0798 73.2584 31.0932L52.6613 34.0901C52.503 34.1132 52.3857 34.2489 52.3857 34.4087Z" fill="currentColor"/>
<path d="M50.1332 67.1363C50.2106 67.1363 50.2859 67.1085 50.3449 67.057C50.415 66.9958 50.4551 66.9073 50.4551 66.8144V52.0133C50.4551 51.8355 50.311 51.6914 50.1332 51.6914H34.6934C34.608 51.6914 34.5261 51.7253 34.4657 51.7857C34.4053 51.8461 34.3715 51.9279 34.3715 52.0133L34.3722 64.6984C34.3722 64.8594 34.4911 64.9955 34.6504 65.0174L50.0894 67.1335C50.104 67.1353 50.1187 67.1363 50.1332 67.1363Z" fill="currentColor"/>
<path d="M34.6952 49.7565H50.1329C50.3107 49.7565 50.4548 49.6124 50.4548 49.4346V34.779C50.4548 34.686 50.4146 34.5977 50.3447 34.5365C50.2748 34.4754 50.1823 34.4473 50.0896 34.46L34.6379 36.5584C34.4781 36.5801 34.3591 36.7165 34.3593 36.8777L34.3733 49.4348C34.3735 49.6125 34.5176 49.7565 34.6952 49.7565Z" fill="currentColor"/>
<path d="M73.3056 70.3621C73.3827 70.3621 73.4578 70.3344 73.5167 70.2831C73.5871 70.222 73.6275 70.1334 73.6275 70.0402L73.6326 52.0133C73.6326 51.9279 73.5988 51.8461 73.5384 51.7857C73.478 51.7253 73.3961 51.6914 73.3107 51.6914H52.7085C52.5307 51.6914 52.3866 51.8355 52.3866 52.0133V67.1425C52.3866 67.3029 52.5048 67.4389 52.6636 67.4613L73.2606 70.359C73.2757 70.361 73.2906 70.3621 73.3056 70.3621Z" fill="currentColor"/>
</svg>
