<svg width="18" height="18" viewBox="0 0 18 18" fill="none" xmlns="http://www.w3.org/2000/svg">
<path fill-rule="evenodd" clip-rule="evenodd" d="M0 9C0 4.02944 4.02944 0 9 0C13.9706 0 18 4.02944 18 9C18 10.8075 16.5347 12.2727 14.7273 12.2727C13.8117 12.2727 12.9839 11.8967 12.3899 11.2907C11.6544 12.377 10.4106 13.0909 9 13.0909C6.74064 13.0909 4.90909 11.2594 4.90909 9C4.90909 6.74064 6.74064 4.90909 9 4.90909C9.92095 4.90909 10.7708 5.21341 11.4545 5.72697C11.4547 5.27524 11.821 4.90909 12.2727 4.90909C12.7246 4.90909 13.0909 5.2754 13.0909 5.72727V9C13.0909 9.90374 13.8235 10.6364 14.7273 10.6364C15.631 10.6364 16.3636 9.90374 16.3636 9C16.3636 4.93317 13.0668 1.63636 9 1.63636C4.93317 1.63636 1.63636 4.93317 1.63636 9C1.63636 13.0668 4.93317 16.3636 9 16.3636C10.8373 16.3636 12.5157 15.6918 13.8059 14.5793C14.1482 14.2842 14.6648 14.3224 14.9599 14.6646C15.255 15.0069 15.2167 15.5235 14.8745 15.8186C13.2985 17.1775 11.2443 18 9 18C4.02944 18 0 13.9706 0 9ZM11.4545 9C11.4545 7.64438 10.3556 6.54545 9 6.54545C7.64438 6.54545 6.54545 7.64438 6.54545 9C6.54545 10.3556 7.64438 11.4545 9 11.4545C10.3556 11.4545 11.4545 10.3556 11.4545 9Z" fill="white"/>
</svg>
