<svg width="24" height="24" viewBox="0 0 24 24" fill="none" xmlns="http://www.w3.org/2000/svg">
<path d="M6.4661 1.8774C7.32836 1.8774 8.12282 2.35242 8.54146 3.11825L9.99324 5.77462C10.3734 6.47026 10.3913 7.31164 10.041 8.0232L8.84227 10.457L8.86068 10.5159L8.97318 10.8388C9.1991 11.4446 9.51347 12.0515 9.92686 12.6133C10.109 12.8609 10.3071 13.0946 10.5216 13.3125C10.7335 13.5278 10.9604 13.7265 11.2005 13.9093C11.7538 14.3307 12.3513 14.6502 12.9477 14.8791C13.0642 14.9238 13.1707 14.9615 13.2655 14.9929L13.3232 15.0111L15.7214 13.7939C16.3524 13.4734 17.0869 13.4563 17.7269 13.7381L17.9365 13.8431L20.5589 15.3241C21.3122 15.7494 21.7793 16.5561 21.7793 17.4315V20.4897C21.7793 22.8711 19.56 24.5786 17.3361 23.8163C12.8911 22.2929 8.95335 20.2442 6.32546 17.5748C3.69749 14.9055 1.68063 10.9057 0.180812 6.39067C-0.569588 4.13166 1.11139 1.8774 3.4558 1.8774H6.4661ZM6.46614 4.28853H3.4558C2.7051 4.28853 2.20881 4.95408 2.42995 5.61981C3.82272 9.81257 5.69395 13.5236 8.00393 15.8699C10.3139 18.2163 13.9673 20.117 18.095 21.5317C18.7504 21.7564 19.4056 21.2523 19.4056 20.4897V17.4315L16.7831 15.9505L13.9862 17.3709C13.753 17.4893 13.488 17.5265 13.2319 17.4766C12.3282 17.3005 11.0549 16.8119 9.77659 15.8385C9.44825 15.5884 9.1362 15.3151 8.84313 15.0175C8.54652 14.7162 8.27434 14.395 8.02548 14.0567C7.07219 12.7611 6.59105 11.4709 6.41577 10.5555C6.36579 10.2945 6.40217 10.024 6.51924 9.78619L7.91787 6.94483L6.46614 4.28853ZM17.271 0.272173C18.8196 0.666622 20.24 1.47728 21.3928 2.64827C22.5456 3.81931 23.3438 5.26209 23.732 6.83511C24.018 7.99351 24.0756 9.20002 23.9023 10.381C23.8057 11.0396 23.2017 11.4938 22.5534 11.3957C21.9051 11.2975 21.4579 10.6841 21.5545 10.0255C21.6818 9.15815 21.6395 8.27177 21.4296 7.42154C21.1451 6.26894 20.5612 5.21348 19.7143 4.3532C18.8674 3.49297 17.8283 2.89993 16.6936 2.6109C15.8566 2.39772 14.9839 2.35472 14.13 2.48402C13.4817 2.58218 12.8778 2.12791 12.7811 1.46937C12.6845 0.810825 13.1317 0.197395 13.78 0.0992318C14.9427 -0.0768104 16.1305 -0.0182956 17.271 0.272173ZM18.0598 5.77322C19.1369 6.86728 19.6185 8.39616 19.3982 9.89692C19.3016 10.5555 18.6977 11.0097 18.0493 10.9116C17.4473 10.8204 17.0187 10.285 17.0379 9.68168L17.0504 9.54142C17.1609 8.78852 16.9208 8.02608 16.3814 7.47818C15.8958 6.98499 15.2393 6.73807 14.5725 6.77543L14.3501 6.79847C13.7018 6.89664 13.0979 6.44237 13.0012 5.78383C12.9046 5.12529 13.3518 4.51186 14.0001 4.41369C15.4776 4.18997 16.9827 4.67914 18.0598 5.77322Z" fill="white"/>
</svg>
