<svg width="22" height="22" viewBox="0 0 22 22" fill="none" xmlns="http://www.w3.org/2000/svg">
<path fill-rule="evenodd" clip-rule="evenodd" d="M6 2H16C16.8416 2 17.6225 2.2599 18.2667 2.70381L2.70381 18.2667C2.2599 17.6225 2 16.8416 2 16V6C2 3.79086 3.79086 2 6 2ZM4.21724 19.5817C4.75402 19.8494 5.35942 20 6 20H16C18.2091 20 20 18.2091 20 16V6C20 5.35942 19.8494 4.75402 19.5817 4.21724L4.21724 19.5817ZM0 6C0 2.68629 2.68629 0 6 0H16C19.3137 0 22 2.68629 22 6V16C22 19.3137 19.3137 22 16 22H6C2.68629 22 0 19.3137 0 16V6Z" fill="#373F51"/>
</svg>
