<svg width="30" height="28" viewBox="0 0 30 28" fill="none" xmlns="http://www.w3.org/2000/svg">
<path d="M8.90674 0C10.0945 0 11.1888 0.601223 11.7654 1.57051L13.7652 4.93261C14.2889 5.81307 14.3135 6.87797 13.8309 7.77858L12.1798 10.859L12.2052 10.9335L12.3601 11.3422C12.6713 12.109 13.1044 12.8771 13.6738 13.5882C13.9247 13.9015 14.1975 14.1973 14.493 14.4731C14.7849 14.7456 15.0974 14.9971 15.4281 15.2285C16.1903 15.7618 17.0133 16.1662 17.8349 16.4559C17.9953 16.5125 18.142 16.5603 18.2726 16.6L18.352 16.623L21.6555 15.0824C22.5246 14.6768 23.5364 14.6551 24.418 15.0118L24.7066 15.1447L28.319 17.0191C29.3566 17.5575 30 18.5784 30 19.6864V23.5571C30 26.5712 26.943 28.7323 23.8796 27.7675C17.7569 25.8393 12.3328 23.2464 8.71301 19.8679C5.09312 16.4894 2.31499 11.4269 0.24906 5.71233C-0.78458 2.85317 1.53088 0 4.7602 0H8.90674ZM8.9068 3.05171H4.7602C3.72615 3.05171 3.04253 3.89408 3.34714 4.73667C5.26561 10.0433 7.84314 14.7403 11.025 17.71C14.2068 20.6797 19.2393 23.0854 24.925 24.876C25.8278 25.1603 26.7303 24.5223 26.7303 23.5571V19.6864L23.1179 17.8119L19.2654 19.6097C18.9442 19.7596 18.579 19.8066 18.2263 19.7435C16.9815 19.5206 15.2276 18.9022 13.4668 17.6702C13.0145 17.3537 12.5847 17.0078 12.181 16.631C11.7724 16.2497 11.3975 15.8432 11.0547 15.4151C9.7416 13.7752 9.07886 12.1422 8.83742 10.9837C8.76857 10.6533 8.81868 10.311 8.97994 10.0099L10.9065 6.41372L8.9068 3.05171ZM24.8766 4.93084C26.3602 6.31556 27.0235 8.25063 26.7201 10.1501C26.587 10.9836 25.7551 11.5586 24.8621 11.4343C24.0329 11.3189 23.4425 10.6412 23.4689 9.87767L23.4862 9.70016C23.6384 8.74723 23.3076 7.78223 22.5646 7.08877C21.8957 6.46455 20.9914 6.15203 20.073 6.19932L19.7666 6.22847C18.8736 6.35272 18.0417 5.77776 17.9086 4.94427C17.7754 4.11077 18.3915 3.33436 19.2845 3.21012C21.3196 2.92697 23.3928 3.5461 24.8766 4.93084Z" fill="currentColor"/>
</svg>
