<svg width="24" height="24" viewBox="0 0 24 24" fill="none" xmlns="http://www.w3.org/2000/svg">
<path d="M7.12539 0H3.80816C1.22471 0 -0.627658 2.44557 0.199244 4.89628C1.852 9.79442 4.07454 14.1337 6.9704 17.0296C9.86627 19.9255 14.2056 22.148 19.1038 23.8007C21.5544 24.6277 24 22.7753 24 20.1918V16.8741C24 15.9244 23.4853 15.0494 22.6553 14.5879L19.7653 12.9812L19.5557 12.8766C18.8455 12.5612 18.0267 12.5766 17.3244 12.9278L14.6808 14.2481L14.6181 14.2285C14.5136 14.1945 14.3963 14.1536 14.2679 14.1051C13.6106 13.8568 12.9522 13.5101 12.3425 13.053C12.0779 12.8546 11.8279 12.639 11.5944 12.4055C11.358 12.1692 11.1398 11.9156 10.9391 11.6471C10.4835 11.0376 10.1371 10.3792 9.88811 9.72198L9.76414 9.37161L9.74356 9.30695L11.0648 6.66734C11.4508 5.8954 11.4311 4.98263 11.0122 4.22795L9.41236 1.34615C8.95106 0.515318 8.07559 0 7.12539 0ZM3.80816 2.61575H7.12542L8.72519 5.49747L7.18394 8.58003C7.05494 8.83804 7.01486 9.13147 7.06993 9.41463C7.26309 10.4077 7.79332 11.8074 8.84386 13.213C9.11807 13.5799 9.41797 13.9284 9.7448 14.2552C10.0677 14.5781 10.4116 14.8746 10.7734 15.1459C12.1821 16.2019 13.5852 16.732 14.5811 16.923C14.8632 16.9771 15.1553 16.9368 15.4123 16.8083L18.4943 15.2673L21.3842 16.8741V20.1918C21.3842 21.0191 20.6622 21.566 19.9401 21.3223C15.3915 19.7875 11.3655 17.7255 8.82003 15.18C6.27456 12.6345 4.21249 8.60852 2.67771 4.06C2.43403 3.33778 2.98092 2.61575 3.80816 2.61575Z" fill="currentColor"/>
</svg>
