<svg width="30" height="28" viewBox="0 0 30 28" fill="none" xmlns="http://www.w3.org/2000/svg">
<path d="M10.2678 9.94003C10.2678 10.8164 9.54828 11.5267 8.66071 11.5267C7.77314 11.5267 7.05357 10.8164 7.05357 9.94003C7.05357 9.06378 7.77314 8.35334 8.66071 8.35334C9.54828 8.35334 10.2678 9.06378 10.2678 9.94003Z" fill="currentColor"/>
<path d="M16.6964 9.94003C16.6964 10.8164 15.9768 11.5267 15.0893 11.5267C14.2017 11.5267 13.4821 10.8164 13.4821 9.94003C13.4821 9.06378 14.2017 8.35334 15.0893 8.35334C15.9768 8.35334 16.6964 9.06378 16.6964 9.94003Z" fill="currentColor"/>
<path d="M17.3214 17.5699C17.3214 18.2272 17.8611 18.7599 18.5268 18.7599C19.1925 18.7599 19.7321 18.2272 19.7321 17.5699C19.7321 16.9127 19.1925 16.3799 18.5268 16.3799C17.8611 16.3799 17.3214 16.9127 17.3214 17.5699Z" fill="currentColor"/>
<path d="M22.1428 17.5699C22.1428 18.2272 22.6825 18.7599 23.3482 18.7599C24.0139 18.7599 24.5536 18.2272 24.5536 17.5699C24.5536 16.9127 24.0139 16.3799 23.3482 16.3799C22.6825 16.3799 22.1428 16.9127 22.1428 17.5699Z" fill="currentColor"/>
<path fill-rule="evenodd" clip-rule="evenodd" d="M0 12.6C0 5.64118 5.7563 0 12.8571 0C19.6691 0 25.2435 5.19138 25.6859 11.7577C28.2716 13.2904 30 16.0724 30 19.25C30 20.42 29.7649 21.5393 29.3375 22.5626L29.9808 26.3714C30.0681 26.8883 29.8535 27.4098 29.4247 27.7228C28.9959 28.0358 28.4247 28.0879 27.9443 27.8579L25.6536 26.7611C24.3136 27.5476 22.745 28 21.0714 28C18.4469 28 16.0868 26.8902 14.4532 25.1234C12.6048 25.3384 10.6945 25.1435 8.73704 24.5705L4.14266 26.5044C3.66272 26.7064 3.10853 26.6356 2.69746 26.3197C2.2864 26.0039 2.08399 25.4934 2.16964 24.9884L2.91559 20.5904C1.09454 18.4166 0 15.6322 0 12.6ZM12.7413 22.406C12.3548 21.4269 12.1428 20.3627 12.1428 19.25C12.1428 14.4175 16.1403 10.5 21.0714 10.5C21.6124 10.5 22.1421 10.5472 22.6566 10.6375C21.7292 6.16575 17.6941 2.8 12.8571 2.8C7.33426 2.8 2.85714 7.18758 2.85714 12.6C2.85714 15.155 3.85294 17.4788 5.48744 19.2241C5.78468 19.5415 5.91625 19.9754 5.84417 20.4003L5.41669 22.9207L8.09692 21.7926C8.41842 21.6572 8.77942 21.6423 9.11145 21.7504C10.3901 22.1671 11.5977 22.3807 12.7413 22.406ZM15 19.25C15 15.9639 17.7182 13.3 21.0714 13.3C24.4246 13.3 27.1428 15.9639 27.1428 19.25C27.1428 20.153 26.9386 21.0053 26.5742 21.7683C26.5059 21.9054 26.4601 22.0542 26.4407 22.2092C26.423 22.3494 26.4274 22.49 26.4523 22.6263L26.7097 24.1504L26.1981 23.9054C25.9527 23.7819 25.6757 23.7308 25.4026 23.7572C25.2097 23.7758 25.0188 23.8331 24.8424 23.9309C24.782 23.9642 24.724 24.0018 24.6687 24.0437C23.662 24.7708 22.4199 25.2 21.0714 25.2C17.7182 25.2 15 22.5361 15 19.25Z" fill="currentColor"/>
</svg>
