<svg width="24" height="24" viewBox="0 0 24 24" fill="none" xmlns="http://www.w3.org/2000/svg">
<path fill-rule="evenodd" clip-rule="evenodd" d="M5.12572 5.4C5.12572 2.41767 7.56506 0 11.3143 0C15.0635 0 17.5886 2.41767 17.5886 5.4C17.5886 8.38234 15.0635 10.8 11.3143 10.8C7.56506 10.8 5.12572 8.38234 5.12572 5.4ZM11.3143 2.4C9.23139 2.4 8.14287 3.74315 8.14287 5.4C8.14287 7.05686 9.23139 8.4 11.3143 8.4C13.3972 8.4 14.5714 7.05686 14.5714 5.4C14.5714 3.74315 13.3972 2.4 11.3143 2.4ZM11.0989 13.2H17.3486C18.1818 13.2 18.8572 13.7373 18.8572 14.4C18.8572 15.0627 18.1818 15.6 17.3486 15.6H11.1634C9.4488 15.6 8.25354 15.6009 7.32299 15.6614C6.41007 15.7207 5.88555 15.8313 5.48825 15.9923C4.63668 16.3375 3.94432 16.8882 3.51043 17.5656C3.30799 17.8817 3.16894 18.2989 3.09435 19.0251C3.02757 19.6752 3.01854 20.4878 3.01733 21.6H17.3486C18.1818 21.6 18.8572 22.1373 18.8572 22.8C18.8572 23.4627 18.1818 24 17.3486 24H1.50857C0.675412 24 7.55608e-07 23.4627 7.55608e-07 22.8L3.95937e-07 22.0286C-1.47103e-05 20.7281 -2.67646e-05 19.6791 0.0872235 18.8297C0.177058 17.955 0.366857 17.1868 0.822122 16.4761C1.54527 15.3471 2.69918 14.4292 4.11849 13.8539C5.012 13.4918 5.97779 13.3408 7.07731 13.2694C8.14519 13.2 9.46392 13.2 11.0989 13.2Z" fill="currentColor"/>
<path d="M22.7144 15.4289C23.4245 15.4289 24.0001 14.8532 24.0001 14.1431C24.0001 13.4331 23.4245 12.8574 22.7144 12.8574C22.0043 12.8574 21.4287 13.4331 21.4287 14.1431C21.4287 14.8532 22.0043 15.4289 22.7144 15.4289Z" fill="currentColor"/>
<path d="M22.7144 16.2861C22.3734 16.2861 22.0464 16.4022 21.8053 16.6089C21.5642 16.8156 21.4287 17.0959 21.4287 17.3882V22.8984C21.4287 23.1907 21.5642 23.471 21.8053 23.6776C22.0464 23.8843 22.3734 24.0004 22.7144 24.0004C23.0554 24.0004 23.3824 23.8843 23.6236 23.6776C23.8647 23.471 24.0001 23.1907 24.0001 22.8984V17.3882C24.0001 17.0959 23.8647 16.8156 23.6236 16.6089C23.3824 16.4022 23.0554 16.2861 22.7144 16.2861Z" fill="currentColor"/>
</svg>
