<svg width="8" height="8" viewBox="0 0 8 8" fill="none" xmlns="http://www.w3.org/2000/svg">
<path d="M4.93893 3.9993L7.80274 1.14175C7.92815 1.01632 7.9986 0.846204 7.9986 0.668821C7.9986 0.491439 7.92815 0.321322 7.80274 0.195893C7.67733 0.070465 7.50723 0 7.32988 0C7.15252 0 6.98243 0.070465 6.85702 0.195893L3.99987 3.06011L1.14272 0.195893C1.01731 0.070465 0.84722 -1.3216e-09 0.669863 0C0.492506 1.3216e-09 0.322413 0.070465 0.197002 0.195893C0.0715915 0.321322 0.0011366 0.491439 0.0011366 0.668821C0.0011366 0.846204 0.0715915 1.01632 0.197002 1.14175L3.06081 3.9993L0.197002 6.85685C0.134579 6.91878 0.0850323 6.99245 0.0512203 7.07362C0.0174083 7.15479 0 7.24185 0 7.32978C0 7.41771 0.0174083 7.50478 0.0512203 7.58595C0.0850323 7.66712 0.134579 7.74079 0.197002 7.80271C0.258916 7.86514 0.332576 7.9147 0.413734 7.94851C0.494893 7.98233 0.581943 7.99974 0.669863 7.99974C0.757783 7.99974 0.844833 7.98233 0.925992 7.94851C1.00715 7.9147 1.08081 7.86514 1.14272 7.80271L3.99987 4.9385L6.85702 7.80271C6.91893 7.86514 6.99259 7.9147 7.07375 7.94851C7.15491 7.98233 7.24196 7.99974 7.32988 7.99974C7.4178 7.99974 7.50485 7.98233 7.586 7.94851C7.66716 7.9147 7.74082 7.86514 7.80274 7.80271C7.86516 7.74079 7.91471 7.66712 7.94852 7.58595C7.98233 7.50478 7.99974 7.41771 7.99974 7.32978C7.99974 7.24185 7.98233 7.15479 7.94852 7.07362C7.91471 6.99245 7.86516 6.91878 7.80274 6.85685L4.93893 3.9993Z" fill="currentColor"/>
</svg>
