<svg width="30" height="28" viewBox="0 0 30 28" fill="none" xmlns="http://www.w3.org/2000/svg">
<path d="M14.3289 15.0791C14.4595 15.0799 14.5864 15.0809 14.7099 15.0822L15.4099 15.0938L16.0341 15.1139L16.591 15.1442C17.9058 15.234 18.6668 15.4345 19.4591 15.8595C20.742 16.5478 21.7851 17.6462 22.4388 18.9971L22.5054 19.1379L22.6265 19.4156L22.7325 19.6942C22.749 19.7411 22.7648 19.7883 22.7801 19.836L22.8652 20.1292C22.8783 20.1794 22.8909 20.2304 22.9029 20.2823L22.9693 20.6062C22.9794 20.6624 22.9891 20.7199 22.9983 20.7787L23.0482 21.1494L23.0885 21.5602L23.12 22.0184L23.1438 22.5309L23.1672 23.4174L23.1806 24.8566L23.1819 26.5641C23.1819 27.3571 22.5713 28 21.8182 28H1.36364C0.610358 28 -0.000233189 27.3569 6.68083e-08 26.5637L0.00051728 24.8234L0.00490974 23.9979L0.0158915 23.2608L0.0350017 22.6035L0.0637797 22.0171C0.149092 20.6326 0.339469 19.8313 0.743139 18.9971C1.39682 17.6462 2.43988 16.5478 3.72284 15.8595C4.5679 15.4061 5.37738 15.2083 6.86142 15.1277L7.45094 15.1026L8.11202 15.087L8.85299 15.0791H14.3289ZM26.2772 15.8595C27.5601 16.5478 28.6032 17.6462 29.2569 18.9971L29.386 19.2771C29.4062 19.3233 29.4258 19.3695 29.4447 19.4156L29.5506 19.6942C29.5671 19.7411 29.583 19.7883 29.5983 19.836L29.6833 20.1292C29.6964 20.1794 29.709 20.2304 29.7211 20.2823L29.7875 20.6062C29.8077 20.7187 29.826 20.836 29.8427 20.9595L29.8876 21.3494L29.9234 21.7829L29.9619 22.5309L29.9853 23.4174L29.9969 24.4666L30 26.5641C30 27.3571 29.3895 28 28.6364 28C27.937 28 27.3607 27.4457 27.2819 26.7316L27.2727 26.5641L27.2716 24.9453L27.2593 23.5745L27.2389 22.7595L27.2186 22.3034L27.1922 21.9082L27.1591 21.5664C27.153 21.5134 27.1466 21.4624 27.1398 21.4131L27.0953 21.137C27.0711 21.0082 27.0436 20.8923 27.0127 20.7851L26.946 20.5808L26.8692 20.3919C26.8556 20.3613 26.8414 20.331 26.8269 20.3008C26.4782 19.5804 25.945 18.9796 25.2901 18.5649L25.039 18.4183C24.368 18.0582 24.1012 17.1936 24.4431 16.487C24.785 15.7804 25.6062 15.4995 26.2772 15.8595ZM14.2818 17.9507H8.90242L7.95115 17.9626L7.16933 17.9884L6.73039 18.0146L6.34897 18.049L6.01794 18.0922L5.73018 18.1452C5.55119 18.1839 5.39629 18.2296 5.25599 18.2834L5.05532 18.3701L4.96097 18.4183C4.19123 18.8313 3.56538 19.4903 3.17317 20.3008C3.14164 20.366 3.11222 20.4331 3.08476 20.5034L3.00817 20.7253C2.9727 20.8423 2.94139 20.9694 2.91382 21.1107L2.86352 21.4137L2.82243 21.7621L2.7898 22.1635L2.75511 22.8814L2.73528 23.7607L2.72728 25.1282H20.4532L20.4492 24.2139L20.4412 23.5705L20.4205 22.7538L20.4001 22.297L20.3735 21.9014L20.3402 21.5595L20.2993 21.2634L20.2504 21.0055C20.2415 20.9653 20.2323 20.9264 20.2226 20.8886L20.1602 20.6737L20.088 20.4779L20.0087 20.3008C19.6165 19.4903 18.9907 18.8313 18.2209 18.4183C18.1591 18.3851 18.0953 18.3541 18.0285 18.3252L17.8178 18.2445C17.7067 18.2072 17.586 18.1742 17.4518 18.1452L17.1641 18.0922L16.8332 18.049L16.452 18.0146L15.7703 17.9781L14.9354 17.9572L14.2818 17.9507ZM21.5727 0.206234C23.402 1.3669 24.5456 3.45209 24.5456 5.74376C24.5456 8.03543 23.5 11 21.4163 11.8161C20.7713 12.2253 19.9332 12.0065 19.5445 11.3273C19.1559 10.648 19.3637 9.76561 20.0087 9.35632C21.4286 8.8378 21.8183 7.01814 21.8183 5.74376C21.8183 4.46938 21.1837 3.31223 20.1651 2.66597C19.5201 2.25668 19.3123 1.37426 19.7009 0.695023C20.0896 0.0157858 20.9277 -0.203052 21.5727 0.206234Z" fill="currentColor"/>
</svg>
