<svg width="19" height="19" viewBox="0 0 19 19" fill="none" xmlns="http://www.w3.org/2000/svg">
<path fill-rule="evenodd" clip-rule="evenodd" d="M13.8537 0.574857C14.1762 0.252392 14.699 0.252391 15.0215 0.574856L18.5247 4.07811C18.6796 4.23296 18.7666 4.44299 18.7666 4.66199C18.7666 4.88098 18.6796 5.09101 18.5248 5.24586L15.0219 8.74867C15.0218 8.74882 15.0216 8.74898 15.0215 8.74913C15.0213 8.74929 15.0212 8.74944 15.021 8.74959L5.67947 18.0912C5.52461 18.246 5.31457 18.333 5.09557 18.333L1.59242 18.3329C1.1364 18.3329 0.766723 17.9632 0.766709 17.5072L0.766602 14.004C0.766595 13.785 0.853591 13.575 1.00845 13.4201L10.3478 4.08082C10.3487 4.07991 10.3496 4.07901 10.3505 4.07811C10.3514 4.07721 10.3523 4.07631 10.3532 4.07542L13.8537 0.574857ZM10.9343 5.82975L2.41806 14.346L2.41814 16.6815L4.75357 16.6815L13.2699 8.16525L10.9343 5.82975ZM14.4376 6.9975L12.1021 4.66199L14.4376 2.32649L16.7731 4.66199L14.4376 6.9975Z" fill="currentColor"/>
</svg>
