<svg width="16" height="16" viewBox="0 0 16 16" fill="none" xmlns="http://www.w3.org/2000/svg">
<path fill-rule="evenodd" clip-rule="evenodd" d="M11.633 0.214977C11.9196 -0.0716588 12.3844 -0.0716591 12.671 0.214976L15.785 3.32898C15.9227 3.46663 16 3.65332 16 3.84798C16 4.04264 15.9227 4.22934 15.785 4.36698L12.6714 7.48059C12.6713 7.48073 12.6711 7.48086 12.671 7.481C12.6709 7.48114 12.6707 7.48128 12.6706 7.48141L4.36699 15.785C4.22934 15.9227 4.04264 16 3.84797 16L0.734057 15.9999C0.328707 15.9999 0.000107797 15.6713 9.53722e-05 15.266L3.43309e-10 12.152C-5.94946e-06 11.9574 0.0773243 11.7707 0.214978 11.633L8.5166 3.33138C8.51739 3.33058 8.51819 3.32978 8.51899 3.32898C8.51979 3.32818 8.52059 3.32738 8.5214 3.32659L11.633 0.214977ZM9.038 4.88599L1.46797 12.456L1.46803 14.532L3.54397 14.532L11.114 6.962L9.038 4.88599ZM12.152 5.92399L10.076 3.84799L12.152 1.77198L14.228 3.84798L12.152 5.92399Z" fill="currentColor" fill-opacity="0.5"/>
</svg>
