<svg width="24" height="24" viewBox="0 0 24 24" fill="none" xmlns="http://www.w3.org/2000/svg">
<path d="M4.53885 19.8094L5.509 20.0519C5.59615 19.7033 5.48954 19.3347 5.22973 19.0864L4.53885 19.8094ZM3.79111 22.8003L2.82097 22.5578C2.72927 22.9246 2.85229 23.3118 3.13891 23.5584C3.42552 23.805 3.82671 23.8688 4.17573 23.7234L3.79111 22.8003ZM6.88112 21.5128L7.3557 20.6326C7.0904 20.4896 6.77473 20.4738 6.4965 20.5898L6.88112 21.5128ZM21.7992 12.0002C21.7992 17.4126 17.4116 21.8002 11.9992 21.8002V23.8002C18.5162 23.8002 23.7992 18.5172 23.7992 12.0002H21.7992ZM11.9992 2.2002C17.4116 2.2002 21.7992 6.5878 21.7992 12.0002H23.7992C23.7992 5.48323 18.5162 0.200195 11.9992 0.200195V2.2002ZM2.19922 12.0002C2.19922 6.5878 6.58683 2.2002 11.9992 2.2002V0.200195C5.48226 0.200195 0.199219 5.48323 0.199219 12.0002H2.19922ZM5.22973 19.0864C3.36115 17.3008 2.19922 14.787 2.19922 12.0002H0.199219C0.199219 15.3555 1.60093 18.3851 3.84798 20.5323L5.22973 19.0864ZM4.76126 23.0429L5.509 20.0519L3.56871 19.5668L2.82097 22.5578L4.76126 23.0429ZM6.4965 20.5898L3.4065 21.8773L4.17573 23.7234L7.26574 22.4359L6.4965 20.5898ZM11.9992 21.8002C10.3171 21.8002 8.73671 21.3772 7.3557 20.6326L6.40654 22.393C8.07199 23.291 9.97763 23.8002 11.9992 23.8002V21.8002Z" fill="#3F8AE0"/>
<path fill-rule="evenodd" clip-rule="evenodd" d="M11.9992 7.2002C12.5294 7.2002 12.9592 7.63 12.9592 8.16019V11.0402H15.8392C16.3694 11.0402 16.7992 11.47 16.7992 12.0002C16.7992 12.5304 16.3694 12.9602 15.8392 12.9602H12.9592V15.8402C12.9592 16.3704 12.5294 16.8002 11.9992 16.8002C11.469 16.8002 11.0392 16.3704 11.0392 15.8402V12.9602H8.15922C7.62902 12.9602 7.19922 12.5304 7.19922 12.0002C7.19922 11.47 7.62902 11.0402 8.15922 11.0402H11.0392V8.16019C11.0392 7.63 11.469 7.2002 11.9992 7.2002Z" fill="#3F8AE0"/>
</svg>
