<svg width="24" height="24" viewBox="0 0 24 24" fill="none" xmlns="http://www.w3.org/2000/svg">
<path d="M17.8372 12.6245L18.0024 12.6892L18.1626 12.7692L20.3722 13.9976C20.9581 14.3233 21.3385 14.9185 21.3935 15.5792L21.4004 15.7457V18.2824C21.4004 20.2577 19.5286 21.6735 17.6549 21.0412C15.0943 20.177 12.6648 19.0747 10.6477 17.71C10.1903 17.4005 10.0703 16.7788 10.3798 16.3214C10.6893 15.864 11.311 15.744 11.7684 16.0535C13.6137 17.3019 15.8897 18.3346 18.2944 19.1462C18.8126 19.321 19.3313 18.9642 19.3941 18.3983L19.4004 18.2824V15.7457L17.1908 14.5172L14.8343 15.6954C14.6378 15.7936 14.4145 15.8244 14.1987 15.7831C13.9157 15.7288 13.4779 15.6025 12.9473 15.3769C12.439 15.1608 12.2022 14.5736 12.4183 14.0653C12.6345 13.5571 13.2217 13.3203 13.7299 13.5364C13.8969 13.6074 14.0481 13.6641 14.1784 13.7079L14.274 13.7379L16.2964 12.7282C16.7797 12.4866 17.335 12.453 17.8372 12.6245ZM20.7071 3.29375C21.0676 3.65423 21.0953 4.22146 20.7903 4.61375L20.7071 4.70796L4.70711 20.708C4.31658 21.0985 3.68342 21.0985 3.29289 20.708C2.93241 20.3475 2.90468 19.7802 3.2097 19.388L3.29289 19.2937L19.2929 3.29375C19.6834 2.90322 20.3166 2.90322 20.7071 3.29375ZM8.4981 2.84375C9.1688 2.84375 9.79079 3.1795 10.1598 3.73077L10.2467 3.873L11.47 6.07646C11.7611 6.601 11.8 7.22544 11.583 7.77809L11.5102 7.94156L10.5 9.96086L10.5103 9.99403C10.5342 10.068 10.5628 10.1504 10.5964 10.24L10.6504 10.3797C10.8555 10.8925 10.606 11.4744 10.0931 11.6794C9.58032 11.8845 8.99839 11.635 8.79336 11.1221C8.71405 10.9238 8.64932 10.7414 8.59755 10.5787L8.5108 10.2807C8.48733 10.1909 8.46913 10.111 8.45573 10.0421C8.42206 9.86887 8.43494 9.69067 8.49194 9.52532L8.54292 9.404L9.72132 7.04714L8.49806 4.8437L5.9618 4.84375C5.3297 4.84375 4.91136 5.39656 5.09782 5.94911C5.86772 8.23059 6.84032 10.4046 8.01159 12.2058C8.31267 12.6688 8.1814 13.2882 7.7184 13.5892C7.2554 13.8903 6.63599 13.7591 6.33491 13.2961C5.05899 11.3339 4.02185 9.0157 3.20281 6.5886C2.58966 4.77163 3.90254 2.95715 5.78381 2.84885L5.9618 2.84375H8.4981Z" fill="#C74848"/>
</svg>
