<svg width="18" height="19" viewBox="0 0 18 19" fill="none" xmlns="http://www.w3.org/2000/svg">
<path d="M14.2222 1.2002C15.1594 1.2002 15.9273 1.89369 15.9951 2.77332L16 2.9002V7.7877C16 8.25714 15.602 8.6377 15.1111 8.6377C14.6553 8.6377 14.2795 8.30956 14.2282 7.88682L14.2222 7.7877V2.9002H1.77778V16.5002H8C8.49092 16.5002 8.88889 16.8808 8.88889 17.3502C8.88889 17.7861 8.54574 18.1454 8.10366 18.1945L8 18.2002H1.77778C0.840565 18.2002 0.0727419 17.5067 0.00487624 16.6271L0 16.5002V2.9002C0 2.00399 0.725224 1.26975 1.6451 1.20486L1.77778 1.2002H14.2222ZM11.5556 4.6002C12.0465 4.6002 12.4444 4.98075 12.4444 5.4502C12.4444 5.88611 12.1013 6.24538 11.6592 6.29448L11.5556 6.3002H4.44444C3.95352 6.3002 3.55556 5.91964 3.55556 5.4502C3.55556 5.01428 3.8987 4.65501 4.34078 4.60591L4.44444 4.6002H11.5556Z" fill="white"/>
<path d="M10.2227 15.9C10.2227 15.5923 10.4649 15.3387 10.7769 15.304L10.8501 15.3L13.4547 15.3008L10.5547 12.4159C10.3145 12.177 10.3223 11.7972 10.5721 11.5675C10.8027 11.3555 11.1588 11.3455 11.4012 11.5331L11.4593 11.5841L14.3007 14.4102L14.3011 12C14.3011 11.6923 14.5433 11.4387 14.8554 11.404L14.9285 11.4C15.2503 11.4 15.5155 11.6316 15.5518 11.93L15.556 12L15.556 15.9L15.5555 15.9236C15.555 15.9359 15.5541 15.9482 15.5528 15.9605L15.556 15.9C15.556 15.9339 15.553 15.9672 15.5474 15.9996C15.546 16.007 15.5445 16.0148 15.5428 16.0226C15.5389 16.0406 15.5343 16.0579 15.529 16.0748C15.5274 16.0797 15.5256 16.085 15.5237 16.0902C15.518 16.1069 15.5115 16.123 15.5044 16.1387C15.5016 16.1449 15.4985 16.1513 15.4954 16.1576C15.4891 16.1703 15.4823 16.1827 15.4751 16.1948C15.45 16.2375 15.4188 16.2781 15.3815 16.3152C15.3773 16.3194 15.3729 16.3237 15.3684 16.3279C15.367 16.3292 15.3652 16.3309 15.3634 16.3325L15.3489 16.3455C15.336 16.3566 15.3226 16.3673 15.3087 16.3774L15.3634 16.3325C15.338 16.3559 15.311 16.3769 15.2828 16.3954C15.2696 16.404 15.256 16.4121 15.2422 16.4198C15.2337 16.4245 15.2249 16.4291 15.2161 16.4334C15.1505 16.4658 15.0782 16.4875 15.0017 16.496C14.9897 16.4973 14.9783 16.4982 14.967 16.4989L14.9285 16.5L10.8501 16.5C10.5036 16.5 10.2227 16.2314 10.2227 15.9Z" fill="white"/>
</svg>
