<?xml version="1.0" encoding="UTF-8"?>
<svg width="24px" height="24px" viewBox="0 0 24 24" version="1.1" xmlns="http://www.w3.org/2000/svg" xmlns:xlink="http://www.w3.org/1999/xlink">
    <title>Icons/ic-add-new</title>
    <g id="Icons/ic-add-new" stroke="none" stroke-width="1" fill="none" fill-rule="evenodd">
        <g id="Icon/ic-add-new">
            <rect id="Rectangle" x="0" y="0" width="24" height="24"></rect>
            <g id="add_circle_outline_28" transform="translate(3.000000, 3.000000)" fill="#3F8AE0">
                <path d="M9,0 C13.97055,0 18,4.029435 18,9 C18,13.97055 13.97055,18 9,18 C4.029435,18 0,13.97055 0,9 C0,4.029435 4.029435,0 9,0 Z M9,1.5 C4.8578625,1.5 1.5,4.8578625 1.5,9 C1.5,13.1421 4.8578625,16.5 9,16.5 C13.1421,16.5 16.5,13.1421 16.5,9 C16.5,4.8578625 13.1421,1.5 9,1.5 Z M9,4.5 C9.414225,4.5 9.75,4.83579 9.75,5.25 L9.75,8.25 L12.75,8.25 C13.164225,8.25 13.5,8.585775 13.5,9 C13.5,9.414225 13.164225,9.75 12.75,9.75 L9.75,9.75 L9.75,12.75 C9.75,13.164225 9.414225,13.5 9,13.5 C8.585775,13.5 8.25,13.164225 8.25,12.75 L8.25,9.75 L5.25,9.75 C4.83579,9.75 4.5,9.414225 4.5,9 C4.5,8.585775 4.83579,8.25 5.25,8.25 L8.25,8.25 L8.25,5.25 C8.25,4.83579 8.585775,4.5 9,4.5 Z" id="Shape"></path>
            </g>
        </g>
    </g>
</svg>