<?xml version="1.0" encoding="UTF-8"?>
<svg width="24px" height="24px" viewBox="0 0 24 24" version="1.1" xmlns="http://www.w3.org/2000/svg" xmlns:xlink="http://www.w3.org/1999/xlink">
    <title>Icons/ic-chat-outline</title>
    <g id="Icons/ic-chat-outline" stroke="none" stroke-width="1" fill="none" fill-rule="evenodd">
        <g>
            <rect id="Rectangle" x="0" y="0" width="24" height="24"></rect>
            <g id="message_outline_28" transform="translate(2.000000, 3.000000)" fill="#3F8AE0">
                <path d="M0.447358333,8.59000909 C0.447358333,3.95919818 4.854875,0.409090909 10.0153333,0.409090909 C15.1758333,0.409090909 19.5833333,3.95919818 19.5833333,8.59000909 C19.5833333,13.2209182 15.1758333,16.7710091 10.0153333,16.7710091 C8.87108333,16.7710091 7.77116667,16.5992727 6.75033333,16.2828818 C5.54631667,17.3862 3.79689167,17.9165455 1.656875,17.9991 C0.785125,18.0327273 0.155908333,17.1424636 0.520933333,16.3456364 C1.03876667,15.2072182 1.70785,13.9021364 1.78719167,12.7638 C0.939833333,11.5523182 0.447358333,10.1226273 0.447358333,8.59000909 Z M10.0153333,2.04545455 C5.52779167,2.04545455 2.114025,5.08819909 2.114025,8.59000909 C2.114025,9.84755455 2.54289167,11.0272909 3.29890833,12.0269455 C3.40559167,12.168 3.4632,12.339 3.4632,12.5146636 C3.4632,13.8514091 2.920475,15.1126364 2.36784167,16.3095545 C4.08123333,16.1308636 5.20526667,15.5921727 5.88305833,14.8090909 C6.11069167,14.5461273 6.48195833,14.4516273 6.81108333,14.5729636 C7.78791667,14.9331273 8.8715,15.1346455 10.0153333,15.1346455 C14.5029167,15.1346455 17.9166667,12.0919091 17.9166667,8.59000909 C17.9166667,5.08819909 14.5029167,2.04545455 10.0153333,2.04545455 Z" id="Shape"></path>
            </g>
        </g>
    </g>
</svg>