<?xml version="1.0" encoding="UTF-8"?>
<svg width="24px" height="24px" viewBox="0 0 24 24" version="1.1" xmlns="http://www.w3.org/2000/svg" xmlns:xlink="http://www.w3.org/1999/xlink">
    <title>Icons/ic-contacts</title>
    <g id="Icons/ic-contacts" stroke="none" stroke-width="1" fill="none" fill-rule="evenodd">
        <g>
            <rect id="Rectangle" x="0" y="0" width="24" height="24"></rect>
            <g id="icons8-group" transform="translate(3.000000, 5.000000)" fill="currentColor">
                <path d="M11.25,0 C8.8635,0 7.875,1.50389474 7.875,3.31578947 C7.875,3.92589474 8.172363,4.53906232 8.172363,4.53906232 C8.053113,4.60685179 7.8547965,4.82229779 7.9042965,5.20250832 C7.9965465,5.91135042 8.30977725,6.09011495 8.50927725,6.10485179 C8.58502725,6.766536 9.30975,7.61378947 9.5625,7.73684211 L9.5625,8.72553463 C9,10.3834294 4.5,10.1315789 4.5,14 L18,14 C18,10.1315789 13.5,10.3834294 12.9375,8.72553463 L12.9375,7.73684211 C13.191,7.61378947 13.9149728,6.766536 13.9907227,6.10485179 C14.1902228,6.09011495 14.5034535,5.91135042 14.5957035,5.20250832 C14.6452027,4.82156095 14.446887,4.60685179 14.327637,4.53906232 C14.327637,4.53906232 14.625,3.98557895 14.625,3.31578947 C14.625,1.974 14.08875,0.828947368 12.9375,0.828947368 C12.9375,0.828947368 12.53775,0 11.25,0 Z M5.625,1.47368421 C4.55175,1.47368421 4.21875,2.25657895 4.21875,2.25657895 C3.2595,2.25657895 2.8125,3.33933379 2.8125,4.60670221 C2.8125,5.23891274 3.06005857,5.76089611 3.06005857,5.76089611 C2.96030857,5.82426453 2.79615232,6.02734558 2.83740232,6.38692453 C2.91390232,7.056714 3.17555857,7.22633726 3.34130857,7.24033726 C3.40430857,7.86517937 4.008,8.66524032 4.21875,8.78166137 L4.21875,9.30550968 C3.75,10.8705623 0,10.3467368 0,14 L3,14 C3,10.6768421 5.5035,9.49471747 7.03125,8.79029642 L7.03125,8.78022232 C7.1715,8.70285389 7.48328902,8.32258589 7.69628925,7.89227011 C7.52378925,7.64027011 7.36358205,7.37494874 7.24658205,7.09642242 C6.84383205,6.75010663 6.52248045,6.19868421 6.41748045,5.38815789 C6.37023045,5.02710526 6.40901955,4.67390442 6.52001955,4.35485179 C6.43901955,4.05200968 6.375,3.69231579 6.375,3.31578947 C6.375,2.70642105 6.46280857,2.14623684 6.62255857,1.63486842 C6.32630857,1.53981579 6.00375,1.47368421 5.625,1.47368421 Z" id="Shape"></path>
            </g>
        </g>
    </g>
</svg>