<?xml version="1.0" encoding="UTF-8"?>
<svg width="24px" height="24px" viewBox="0 0 24 24" version="1.1" xmlns="http://www.w3.org/2000/svg" xmlns:xlink="http://www.w3.org/1999/xlink">
    <title>Icons/ic-close</title>
    <g id="Icons/ic-close" stroke="none" stroke-width="1" fill="none" fill-rule="evenodd">
        <g>
            <rect id="Rectangle" x="0" y="0" width="24" height="24"></rect>
            <g id="cancel_outline_28-@-close" transform="translate(4.000000, 4.000000)" fill="currentColor">
                <path d="M0.29289,0.29289 C0.68342,-0.09763 1.31658,-0.09763 1.70711,0.29289 L7.99999932,6.585 L14.2929,0.29289 C14.6534,-0.06759 15.2206,-0.09532 15.6129,0.2097 L15.7071,0.29289 C16.0976,0.68342 16.0976,1.31658 15.7071,1.70711 L9.415,7.99999932 L15.7071,14.2929 C16.0676,14.6534 16.0953,15.2206 15.7903,15.6129 L15.7071,15.7071 C15.3166,16.0976 14.6834,16.0976 14.2929,15.7071 L7.99999932,9.415 L1.70711,15.7071 C1.34662,16.0676 0.77939,16.0953 0.3871,15.7903 L0.29289,15.7071 C-0.09763,15.3166 -0.09763,14.6834 0.29289,14.2929 L6.585,7.99999932 L0.29289,1.70711 C-0.06759,1.34662 -0.09532,0.77939 0.2097,0.3871 L0.29289,0.29289 Z" id="Path"></path>
            </g>
        </g>
    </g>
</svg>