<?xml version="1.0" encoding="UTF-8"?>
<svg width="24px" height="24px" viewBox="0 0 24 24" version="1.1" xmlns="http://www.w3.org/2000/svg" xmlns:xlink="http://www.w3.org/1999/xlink">
    <title>Icons/ic-check-filled</title>
    <g id="Icons/ic-check-filled" stroke="none" stroke-width="1" fill="none" fill-rule="evenodd">
        <g>
            <rect id="Rectangle" x="0" y="0" width="24" height="24"></rect>
            <g id="done_circle_16-@-check_circle" transform="translate(3.000000, 3.000000)" fill="#3F8AE0">
                <path d="M9,0 C13.9705875,0 18,4.029435 18,9 C18,13.9705875 13.9705875,18 9,18 C4.029435,18 0,13.9705875 0,9 C0,4.029435 4.029435,0 9,0 Z M11.77155,6.37155 L7.7625,10.3806112 L6.22845,8.84655 C5.833035,8.45114625 5.191965,8.45114625 4.79655,8.84655 C4.40114625,9.241965 4.40114625,9.883035 4.79655,10.27845 L7.04655,12.52845 C7.441965,12.9238875 8.083035,12.9238875 8.47845,12.52845 L13.20345,7.80345 C13.5988875,7.408035 13.5988875,6.766965 13.20345,6.37155 C12.8080125,5.97614625 12.1669875,5.97614625 11.77155,6.37155 Z" id="Shape"></path>
            </g>
        </g>
    </g>
</svg>