<?xml version="1.0" encoding="UTF-8"?>
<svg width="24px" height="24px" viewBox="0 0 24 24" version="1.1" xmlns="http://www.w3.org/2000/svg" xmlns:xlink="http://www.w3.org/1999/xlink">
    <title>Icons/ic-clear</title>
    <g id="Icons/ic-clear" stroke="none" stroke-width="1" fill="none" fill-rule="evenodd">
        <g>
            <rect id="Rectangle" x="0" y="0" width="24" height="24"></rect>
            <g id="mop-(1)" transform="translate(5.000000, 2.000000)" fill="currentColor">
                <path d="M1.56257332,14.2741797 L0.625713341,14.1857422 C0.908342548,14.8360547 1.0966232,15.5416016 1.71795313,16.4599609 C2.42583233,17.5060938 3.61609315,18.2059766 4.91346154,18.3660156 L4.91346154,19.0627734 C5.18484615,19.1390625 5.85482692,19.4669531 6.90000601,19.4691797 L6.91037981,19.4691797 C8.59271454,19.4691797 10.1851304,18.6136719 11.1717013,17.1792578 C11.7811809,16.2930078 12.2927909,15.3315625 12.6924093,14.3217578 L13.0887338,13.1994922 C13.4100186,12.2886719 12.9532686,11.2779688 12.0704736,10.9464453 L11.4453576,10.7117188 C11.4496358,10.1832422 11.2206172,9.6765625 10.8258828,9.33984375 L13.9991292,0.440234375 L12.9332025,0.035625 L9.7593125,8.93699219 C9.25652404,8.93121094 8.75714303,9.16132813 8.42548438,9.57765625 L7.80116346,9.34324219 C6.91632392,9.01097656 5.93959675,9.48074219 5.61747897,10.3938281 L5.04347476,12.0209766 C4.52455769,13.4921094 3.09285998,14.4186719 1.56257332,14.2741797 L1.56257332,14.2741797 Z M6.68484435,10.7946484 C6.79217909,10.4903125 7.11766647,10.3336719 7.41271394,10.4444922 L9.0136863,11.0455859 L9.20794892,10.4950391 C9.31505649,10.1914844 9.64145252,10.0342969 9.93585637,10.1448438 C10.2301088,10.2553516 10.382384,10.5922656 10.2752764,10.8958984 L10.0810517,11.4464844 L11.682024,12.0476172 C11.9762764,12.158125 12.1285138,12.4950391 12.0214063,12.7986719 L11.8272194,13.3492188 L6.49065745,11.3451953 L6.68484435,10.7946484 Z M6.10164002,12.44625 L11.4046196,14.4376563 C11.0795108,15.1610547 10.6909856,15.8530859 10.2453666,16.5011328 C9.47153425,17.6263281 8.22535337,18.2973047 6.91037981,18.2973047 C6.90772957,18.2973047 6.90492788,18.2973047 6.90227764,18.2973047 C6.61309856,18.2966797 6.33126442,18.2637891 6.04927885,18.1972656 L6.04927885,17.2291016 L5.48137019,17.2291016 C4.33544411,17.2291016 3.25024639,16.6773438 2.6492476,15.7891406 C2.56902103,15.6705469 2.49280769,15.5488281 2.4208726,15.424375 C4.14704988,15.2029688 5.53990264,14.0096094 6.10164002,12.44625 L6.10164002,12.44625 Z" id="Combined-Shape"></path>
            </g>
        </g>
    </g>
</svg>