<?xml version="1.0" encoding="UTF-8"?>
<svg width="24px" height="24px" viewBox="0 0 24 24" version="1.1" xmlns="http://www.w3.org/2000/svg" xmlns:xlink="http://www.w3.org/1999/xlink">
    <title>Icons/ic-call</title>
    <g id="Icons/ic-call" stroke="none" stroke-width="1" fill="none" fill-rule="evenodd">
        <g>
            <rect id="Rectangle" x="0" y="0" width="24" height="24"></rect>
            <g id="icons8-phone_disconnected" transform="translate(12.000000, 12.000000) rotate(-90.000000) translate(-12.000000, -12.000000) translate(3.000000, 3.000000)" fill="#3F8AE0">
                <path d="M6.34773913,13.4804348 C6.534,13.1626957 6.53008696,12.7721739 6.34226087,12.456 L5.38826087,10.8547826 C5.1746087,10.4963478 5.19965217,10.0486957 5.45634783,9.72 C5.90008696,9.15182609 6.64669565,8.23695652 7.4426087,7.44104348 C8.23852174,6.64513043 9.1533913,5.89852174 9.72156522,5.45478261 C10.0502609,5.19808696 10.497913,5.17304348 10.8563478,5.38669565 L12.4575652,6.34069565 C12.7737391,6.52930435 13.1673913,6.53086957 13.4851304,6.3446087 L17.4991304,3.99443478 C17.8873043,3.76669565 18.0782609,3.31434783 17.9710435,2.87686957 C17.8669565,2.45191304 17.6149565,1.90017391 17.0366087,1.32182609 C15.2256522,-0.489130435 12.1711304,-1.45095652 5.36086957,5.35930435 C-1.4493913,12.1695652 -0.488347826,15.2248696 1.3226087,17.0358261 C1.90252174,17.6157391 2.45504348,17.8669565 2.88078261,17.9710435 C3.31747826,18.0766957 3.76669565,17.8888696 3.99365217,17.5014783 C4.55947826,16.5341739 5.78113043,14.4477391 6.34773913,13.4804348 Z" id="Path"></path>
            </g>
        </g>
    </g>
</svg>