<?xml version="1.0" encoding="UTF-8"?>
<svg width="24px" height="24px" viewBox="0 0 24 24" version="1.1" xmlns="http://www.w3.org/2000/svg" xmlns:xlink="http://www.w3.org/1999/xlink">
    <title>Icons/ic-call</title>
    <g id="Icons/ic-call" stroke="none" stroke-width="1" fill="none" fill-rule="evenodd">
        <g>
            <rect id="Rectangle" x="0" y="0" width="24" height="24"></rect>
            <g id="phone_outline_28" transform="translate(3.000000, 3.000000)" fill="currentColor">
                <path d="M11.0439391,11.6664545 L10.4694261,12.2670818 C10.3159565,12.4276909 10.0872783,12.4805455 9.88333043,12.4024909 C9.31194783,12.1828091 8.5971913,11.6251364 7.73898261,10.7278364 C6.88147826,9.83127273 6.34734783,9.08394545 6.13801565,8.48577273 C6.06312783,8.27271818 6.11334783,8.03356364 6.26673913,7.87295455 L6.84195652,7.27232727 C7.90176522,6.16426364 7.99865217,4.41911455 7.06445217,3.26080636 L6.39,2.42266909 C5.62014,1.46538818 4.23318522,1.36892455 3.29122957,2.20625182 C2.94091043,2.52189 2.67755478,2.92959818 2.52836609,3.38725636 C2.46389478,3.58647545 2.42225217,3.79300091 2.40432261,4.00248 C2.05933304,6.6798 3.29433652,9.49009091 6.10855826,12.4324364 C8.92275652,15.3747818 11.6098435,16.6652182 14.1713217,16.3045636 C14.8367739,16.2381273 15.4521391,15.9060273 15.8893043,15.3772364 C16.6909304,14.3932091 16.5979565,12.9423273 15.683087,12.1374 L14.8814609,11.4313909 C13.772113,10.4562818 12.1036696,10.5583909 11.0439391,11.6664545 Z M8.84574783,9.57076364 C9.25567826,9.99940909 9.61317391,10.3244727 9.9021913,10.5458727 C11.5639043,8.80854545 14.1495652,8.65014545 15.8899304,10.1799 L16.6910087,10.8854182 C18.2790783,12.2827091 18.4379478,14.7725182 17.0734696,16.4473364 C16.3728,17.2947273 15.3866348,17.8270364 14.3802783,17.9262818 C11.2638522,18.3651545 8.12981739,16.8600273 5.00173826,13.5895091 C1.87357304,10.3188273 0.433377391,7.04143636 0.845334783,3.85665545 C0.87429913,3.51824727 0.941564348,3.18463364 1.04682522,2.85939818 C1.28591217,2.12595545 1.70797304,1.47255545 2.2773287,0.959612727 C3.87171391,-0.457674545 6.25205739,-0.291640909 7.58770435,1.36920273 L8.26106087,2.20598182 C9.72626087,4.02261545 9.57615652,6.72790909 7.94801739,8.43013636 C8.12488696,8.76837273 8.43566087,9.14195455 8.84574783,9.57076364 Z" id="Shape"></path>
            </g>
        </g>
    </g>
</svg>