<?xml version="1.0" encoding="UTF-8"?>
<svg width="24px" height="24px" viewBox="0 0 24 24" version="1.1" xmlns="http://www.w3.org/2000/svg" xmlns:xlink="http://www.w3.org/1999/xlink">
    <title>Icons/ic-delete</title>
    <g id="Icons/ic-delete" stroke="none" stroke-width="1" fill="none" fill-rule="evenodd">
        <g>
            <rect id="Rectangle" x="0" y="0" width="24" height="24"></rect>
            <g id="delete_outline_28-Android" transform="translate(3.000000, 2.000000)" fill="#3F8AE0">
                <path d="M16.2,6.36363636 L16.2,15.9090909 C16.2,18.1684545 14.38677,20 12.15,20 L5.85,20 C3.613248,20 1.8,18.1684545 1.8,15.9090909 L1.8,6.36363636 L1.161171,6.36363636 C0.519876,6.36363636 0,5.83850909 0,5.19073636 L0,3.86363636 C0,2.48292727 1.108098,1.36363636 2.475,1.36363636 L3.961044,1.36363636 C4.432374,0.539472727 5.312781,0 6.3,0 L11.7,0 C12.68721,0 13.56759,0.539472727 14.03892,1.36363636 L15.525,1.36363636 C16.89192,1.36363636 18,2.48292727 18,3.86363636 L18,5.19073636 C18,5.83850909 17.48016,6.36363636 16.83882,6.36363636 L16.2,6.36363636 Z M15.3,4.54545455 L16.2,4.54545455 L16.2,3.86363636 C16.2,3.48708182 15.89778,3.18181818 15.525,3.18181818 L13.4433,3.18181818 C13.03263,3.18181818 12.67407,2.90103636 12.57174,2.49932727 C12.4704,2.10190909 12.11301,1.81818182 11.7,1.81818182 L6.3,1.81818182 C5.88699,1.81818182 5.5296,2.10190909 5.42826,2.49932727 C5.325939,2.90103636 4.967361,3.18181818 4.556709,3.18181818 L2.475,3.18181818 C2.102211,3.18181818 1.8,3.48708182 1.8,3.86363636 L1.8,4.54545455 L2.7,4.54545455 L15.3,4.54545455 Z M3.6,6.36363636 L3.6,15.9090909 C3.6,17.1642727 4.607361,18.1818182 5.85,18.1818182 L12.15,18.1818182 C13.39263,18.1818182 14.4,17.1642727 14.4,15.9090909 L14.4,6.36363636 L3.6,6.36363636 Z" id="Shape"></path>
            </g>
        </g>
    </g>
</svg>