<?xml version="1.0" encoding="UTF-8"?>
<svg width="24px" height="24px" viewBox="0 0 24 24" version="1.1" xmlns="http://www.w3.org/2000/svg" xmlns:xlink="http://www.w3.org/1999/xlink">
    <title>Icons/ic-double_tick</title>
    <g id="Icons/ic-double_tick" stroke="none" stroke-width="1" fill="none" fill-rule="evenodd">
        <g>
            <rect id="Rectangle" x="0" y="0" width="24" height="24"></rect>
            <g id="icons8-double_tick" transform="translate(3.000000, 7.000000)" fill="currentColor">
                <path d="M13.6430497,0.6188965 C13.4817954,0.62373471 13.3287459,0.691596691 13.2163256,0.8081055 L7.44827586,6.61621125 L5.41042566,4.56420875 C5.40841915,4.56216035 5.40639861,4.56012593 5.40436419,4.55810563 C5.2879815,4.44088959 5.13012487,4.37502509 4.96551724,4.375 C4.62271981,4.375 4.34482759,4.65482203 4.34482759,5 C4.3448525,5.16575067 4.41026272,5.32470348 4.52667029,5.44189438 L6.57058221,7.5 L5.5862069,8.49121125 L1.68022626,4.55810563 C1.52454662,4.39483194 1.29337139,4.32906155 1.07585675,4.38615978 C0.858342105,4.44325801 0.688477029,4.61430266 0.631772518,4.8333278 C0.575068008,5.05235294 0.640384746,5.28513358 0.802532359,5.44189438 L5.14735994,9.81689438 C5.38975779,10.0608746 5.78265601,10.0608746 6.02505385,9.81689438 L14.0940192,1.6918945 C14.2775947,1.5122124 14.3327916,1.23747831 14.2330131,1.00007407 C14.1332347,0.76266983 13.8989498,0.611297495 13.6430497,0.6188965 Z M17.3793103,0.625 C17.2147028,0.625 17.0568462,0.690889545 16.9404635,0.8081055 L9.31034483,8.49121125 L9.128502,8.30810562 L8.25080834,9.19189438 L8.871498,9.81689438 C9.11389581,10.0608744 9.50679384,10.0608744 9.74919166,9.81689438 L17.8120961,1.69799806 C17.9322258,1.58033269 18,1.41875249 18,1.25 C18,0.904822031 17.7221078,0.625 17.3793103,0.625 Z" id="Shape"></path>
            </g>
        </g>
    </g>
</svg>