<?xml version="1.0" encoding="UTF-8"?>
<svg width="15px" height="15px" viewBox="0 0 15 15" version="1.1" xmlns="http://www.w3.org/2000/svg" xmlns:xlink="http://www.w3.org/1999/xlink">
    <title>Icons/ic-email</title>
    <g id="Page-1" stroke="none" stroke-width="1" fill="none" fill-rule="evenodd">
        <g id="Messages-(Actions---Dialog)" transform="translate(-1162.000000, -190.000000)">
            <g id="InfoBar" transform="translate(1140.000000, 0.000000)">
                <g id="Information" transform="translate(20.000000, 96.000000)">
                    <g id="Icons/ic-email" transform="translate(0.000000, 91.000000)">
                        <rect id="Rectangle" x="0" y="0" width="20" height="20"></rect>
                        <g id="mention_outline_28" transform="translate(2.500000, 2.500000)" fill="#3F8AE0">
                            <path d="M7.27697727,14.772 C5.84761364,14.772 4.60007045,14.4956087 3.53427955,13.9427609 C2.46848864,13.389913 1.64507727,12.6052826 1.06401818,11.5888043 C0.482959091,10.5723261 0.192436364,9.38647826 0.192436364,8.03119565 L0.192436364,7.54076087 C0.192436364,6.19141304 0.495388636,4.99363696 1.10130682,3.94743261 C1.707225,2.90123478 2.55859773,2.0883587 3.65545909,1.5087913 C4.75232045,0.929217391 6.00606818,0.639436957 7.41675,0.639436957 L7.49134091,0.639436957 C8.80881818,0.639436957 9.98802273,0.899497826 11.0289545,1.41962609 C12.0698864,1.93975435 12.8839773,2.65900435 13.4712273,3.57740217 C14.0585455,4.4958 14.3521364,5.53754348 14.3521364,6.70258696 L14.3521364,7.14841304 C14.3521364,7.94497826 14.2154318,8.6493913 13.9420227,9.26165217 C13.6685455,9.87391304 13.2863864,10.350913 12.7954091,10.6927174 C12.3045,11.0345217 11.7389318,11.2053913 11.0988409,11.2053913 C10.5209318,11.2053913 10.02375,11.0895 9.60736364,10.8576522 C9.19104545,10.6258696 8.94245455,10.3226739 8.86165909,9.94819565 L8.76845455,9.94819565 C8.70006818,10.1800435 8.56336364,10.3925217 8.35827273,10.5856957 C8.15318182,10.7789348 7.90309091,10.9305 7.60786364,11.0404565 C7.31270455,11.150413 7.0035,11.2053913 6.68038636,11.2053913 C6.17079545,11.2053913 5.72645455,11.0865652 5.34736364,10.8487826 C4.96827273,10.611 4.67618864,10.2721957 4.47111136,9.83230435 C4.26603409,9.39241304 4.16349545,8.87230435 4.16349545,8.27191304 L4.16349545,7.38026087 C4.16349545,6.79773913 4.26758864,6.2895 4.475775,5.85554348 C4.68396136,5.42158696 4.98225,5.08874348 5.37068182,4.85691522 C5.75904545,4.62508043 6.21429545,4.50916957 6.73629545,4.50916957 C7.19618182,4.50916957 7.60009091,4.61765217 7.94809091,4.83462391 C8.29615909,5.05158913 8.52606818,5.33543478 8.63795455,5.68617391 L8.71247727,5.68617391 L8.71247727,5.45432609 C8.71247727,5.21654348 8.78086364,5.02781087 8.91756818,4.88812174 C9.05427273,4.74842609 9.24075,4.67858478 9.47686364,4.67858478 C9.70684091,4.67858478 9.89011364,4.74842609 10.0268864,4.88812174 C10.1635909,5.02781087 10.2319773,5.21654348 10.2319773,5.45432609 L10.2319773,9.02086957 C10.2319773,9.32406522 10.32825,9.56628261 10.5209318,9.74758696 C10.7135455,9.9288913 10.9652727,10.0195435 11.2759773,10.0195435 C11.6053636,10.0195435 11.8943182,9.89765217 12.1429091,9.65393478 C12.3915,9.41021739 12.5825455,9.06397826 12.7161818,8.61521739 C12.8498182,8.1663913 12.9166364,7.64184783 12.9166364,7.04145652 L12.9166364,6.74719565 C12.9166364,5.81393478 12.6850909,4.97877391 12.2221364,4.24168043 C11.7591818,3.50458043 11.1159545,2.92799348 10.2925227,2.51188696 C9.46909091,2.09578696 8.53540909,1.88773696 7.49134091,1.88773696 L7.41675,1.88773696 C6.28575,1.88773696 5.28518182,2.12550652 4.41518182,2.60105217 C3.54514773,3.07659783 2.86932955,3.74681087 2.38770682,4.61171087 C1.90607727,5.47663043 1.66527273,6.47080435 1.66527273,7.59423913 L1.66527273,7.97765217 C1.66527273,9.09521739 1.89831136,10.0745217 2.36440227,10.9156304 C2.83049318,11.7567391 3.49077273,12.4046739 4.34526818,12.8594348 C5.19975,13.3141304 6.19561364,13.5415435 7.33288636,13.5415435 L7.40747727,13.5415435 C7.83006818,13.5415435 8.35513636,13.4969348 8.98281818,13.4077826 C9.31220455,13.3661739 9.52656818,13.3453696 9.62604545,13.3453696 C9.80625,13.3453696 9.95543182,13.3973478 10.0734545,13.5013696 C10.1915455,13.6054565 10.2505909,13.7377174 10.2505909,13.8981522 C10.2505909,14.0586522 10.2008864,14.195413 10.1014091,14.3083696 C10.002,14.4212609 9.85909091,14.5015435 9.67261364,14.549087 C9.06981818,14.6977174 8.29922727,14.772 7.36084091,14.772 L7.27697727,14.772 Z M5.7855,8.06680435 C5.7855,8.66719565 5.90509091,9.12345652 6.14434091,9.43552174 C6.38359091,9.74758696 6.73629545,9.90358696 7.20238636,9.90358696 C7.66227273,9.90358696 8.01334091,9.75352174 8.25572727,9.45332609 C8.49811364,9.15313043 8.61927273,8.71773913 8.61927273,8.14708696 L8.61927273,7.42486957 C8.61927273,6.90176087 8.49034091,6.4886087 8.23240909,6.18547826 C7.97454545,5.88228261 7.62497727,5.73071739 7.18370455,5.73071739 C6.7425,5.73071739 6.39913636,5.88971739 6.15368182,6.20778261 C5.90822727,6.52578261 5.7855,6.9701087 5.7855,7.54076087 L5.7855,8.06680435 Z" id="Shape"></path>
                        </g>
                    </g>
                </g>
            </g>
        </g>
    </g>
</svg>