<?xml version="1.0" encoding="UTF-8"?>
<svg width="24px" height="24px" viewBox="0 0 24 24" version="1.1" xmlns="http://www.w3.org/2000/svg" xmlns:xlink="http://www.w3.org/1999/xlink">
    <title>Icons/ic-edit</title>
    <g id="Icons/ic-edit" stroke="none" stroke-width="1" fill="none" fill-rule="evenodd">
        <g>
            <rect id="Rectangle" x="0" y="0" width="24" height="24"></rect>
            <g id="edit_outline_28" transform="translate(3.000000, 3.000000)" fill="#3F8AE0">
                <path d="M15.6447,1.05437455 L16.9421727,2.35183909 C17.9007545,3.31039636 17.9007545,4.86453273 16.9421727,5.82308182 L14.7272727,8.03798182 L5.84705455,16.9182818 C5.15658273,17.6086636 4.22013273,17.9965636 3.24369,17.9965636 L1.67727273,17.9965636 C0.750943636,17.9965636 0,17.2456364 0,16.3192909 L0,14.7529636 C0,13.7763818 0.387932727,12.8398909 1.07845364,12.1494273 L9.95890909,3.26945455 L9.95858182,3.26928273 L12.1734818,1.05437455 C13.1320636,0.0958172727 14.6861182,0.0958172727 15.6447,1.05437455 Z M11.0454545,4.49709545 L2.23550182,13.3065 C1.85188091,13.6901455 1.63636364,14.2104273 1.63636364,14.7529636 L1.63636364,16.3192909 C1.63636364,16.3418727 1.65468273,16.3602 1.67727273,16.3602 L3.24369,16.3602 C3.78615273,16.3602 4.30641,16.1446909 4.68999818,15.7611273 L13.5,6.95168182 L11.0454545,4.49709545 Z M13.3305545,2.21146364 L12.2727273,3.26928273 L14.7272727,5.72382818 L15.7851,4.66600909 C16.1046,4.34648455 16.1046,3.82844455 15.7851,3.50892 L14.4876273,2.21146364 C14.1681273,1.89193909 13.6500545,1.89193909 13.3305545,2.21146364 Z" id="Shape"></path>
            </g>
        </g>
    </g>
</svg>