<?xml version="1.0" encoding="UTF-8"?>
<svg width="24px" height="24px" viewBox="0 0 24 24" version="1.1" xmlns="http://www.w3.org/2000/svg" xmlns:xlink="http://www.w3.org/1999/xlink">
    <title>Icons/ic-fullscreen</title>
    <g id="Icons/ic-fullscreen" stroke="none" stroke-width="1" fill="none" fill-rule="evenodd">
        <g>
            <rect id="Rectangle" x="0" y="0" width="24" height="24"></rect>
            <g id="fullscreen_24" transform="translate(3.000000, 3.000000)" fill="currentColor">
                <path d="M7.57845,10.42155 C7.9738875,10.8169875 7.9738875,11.4580125 7.57845,11.85345 L3.45688875,15.975 L5.7354525,15.975 C6.294645,15.975 6.7479525,16.4282625 6.7479525,16.9875 C6.7479525,17.5467375 6.294645,18 5.7354525,18 L1.0125,18 C0.4533075,18 -4.82280882e-13,17.5467375 -4.82280882e-13,16.9875 L-4.82280882e-13,12.2625 C-4.82280882e-13,11.703375 0.4533075,11.25 1.0125,11.25 C1.5716925,11.25 2.025,11.703375 2.025,12.2625 L2.025,14.5431 L6.14656125,10.42155 C6.541965,10.0261125 7.1830125,10.0261125 7.57845,10.42155 Z M16.9875,4.2721382e-13 C17.5467375,4.2721382e-13 18,0.4533075 18,1.0125 L18,5.73751125 C18,6.2966925 17.5467375,6.75 16.9875,6.75 C16.4282625,6.75 15.975,6.2966925 15.975,5.73751125 L15.975,3.45688875 L11.85345,7.57845 C11.4580125,7.9738875 10.8169875,7.9738875 10.42155,7.57845 C10.0261125,7.1830125 10.0261125,6.541965 10.42155,6.14656125 L14.5431,2.025 L12.2625,2.025 C11.7032625,2.025 11.25,1.5716925 11.25,1.0125 C11.25,0.4533075 11.7032625,4.2721382e-13 12.2625,4.2721382e-13 L16.9875,4.2721382e-13 Z" id="Combined-Shape"></path>
            </g>
        </g>
    </g>
</svg>