<?xml version="1.0" encoding="UTF-8"?>
<svg width="24px" height="24px" viewBox="0 0 24 24" version="1.1" xmlns="http://www.w3.org/2000/svg" xmlns:xlink="http://www.w3.org/1999/xlink">
    <title>Icons/ic-group</title>
    <g id="Icons/ic-group" stroke="none" stroke-width="1" fill="none" fill-rule="evenodd">
        <g>
            <rect id="Rectangle" x="0" y="0" width="24" height="24"></rect>
            <g id="user_outline_24" transform="translate(4.000000, 3.000000)" fill="currentColor">
                <path d="M10.85,4.94999 C10.85,3.37517 9.5748,2.09999 8,2.09999 C6.4252,2.09999 5.15001,3.37517 5.15001,4.94999 C5.15001,6.52481 6.4252,7.8 8,7.8 C9.5748,7.8 10.85,6.52481 10.85,4.94999 Z M12.65,4.94999 C12.65,7.5189 10.5689,9.6 8,9.6 C5.43108,9.6 3.35001,7.5189 3.35001,4.94999 C3.35001,2.38106 5.43108,0.29999 8,0.29999 C10.5689,0.29999 12.65,2.38106 12.65,4.94999 Z M1.90001,15.4286 C1.90001,16.1974 1.80924,16.1 2.2353,16.1 L13.7647,16.1 C14.1908,16.1 14.1,16.1974 14.1,15.4286 C14.1,13.536 11.3218,12.4 8,12.4 C4.6782,12.4 1.90001,13.536 1.90001,15.4286 Z M0.10001,15.4286 C0.10001,12.1018 3.77279,10.6 8,10.6 C12.2272,10.6 15.9,12.1018 15.9,15.4286 C15.9,17.1642 15.2145,17.9 13.7647,17.9 L2.2353,17.9 C0.78554,17.9 0.10001,17.1642 0.10001,15.4286 Z" id="Shape"></path>
            </g>
        </g>
    </g>
</svg>