<?xml version="1.0" encoding="UTF-8"?>
<svg width="24px" height="24px" viewBox="0 0 24 24" version="1.1" xmlns="http://www.w3.org/2000/svg" xmlns:xlink="http://www.w3.org/1999/xlink">
    <title>Icons/ic-info</title>
    <g id="Icons/ic-info" stroke="none" stroke-width="1" fill="none" fill-rule="evenodd">
        <g>
            <rect id="Rectangle" x="0" y="0" width="24" height="24"></rect>
            <g id="error_circle_outline_28" transform="translate(3.000000, 3.000000)" fill="#3F8AE0">
                <path d="M9,0 C13.97055,0 18,4.029435 18,9 C18,13.97055 13.97055,18 9,18 C4.029435,18 0,13.97055 0,9 C0,4.029435 4.029435,0 9,0 Z M9,1.5 C4.8578625,1.5 1.5,4.8578625 1.5,9 C1.5,13.1421 4.8578625,16.5 9,16.5 C13.1421,16.5 16.5,13.1421 16.5,9 C16.5,4.8578625 13.1421,1.5 9,1.5 Z M9,11.7 C9.5799,11.7 10.05,12.1701 10.05,12.75 C10.05,13.3299 9.5799,13.8 9,13.8 C8.4201,13.8 7.95,13.3299 7.95,12.75 C7.95,12.1701 8.4201,11.7 9,11.7 Z M9.0552,4.5 C9.2334,4.5 9.3453,4.5278475 9.443025,4.5801375 C9.540825,4.632435 9.61755,4.7091675 9.669825,4.806945 C9.722175,4.9047225 9.75,5.016585 9.75,5.194785 L9.75,9.8052 C9.75,9.9834 9.722175,10.0953 9.669825,10.193025 C9.61755,10.290825 9.540825,10.36755 9.443025,10.419825 C9.3453,10.472175 9.2334,10.5 9.0552,10.5 L8.9448,10.5 C8.7666,10.5 8.6547,10.472175 8.556975,10.419825 C8.459175,10.36755 8.38245,10.290825 8.330175,10.193025 C8.277825,10.0953 8.25,9.9834 8.25,9.8052 L8.25,5.194785 C8.25,5.016585 8.277825,4.9047225 8.330175,4.806945 C8.38245,4.7091675 8.459175,4.632435 8.556975,4.5801375 C8.6547,4.5278475 8.7666,4.5 8.9448,4.5 L9.0552,4.5 Z" id="Shape"></path>
            </g>
        </g>
    </g>
</svg>