<?xml version="1.0" encoding="UTF-8"?>
<svg width="18px" height="18px" viewBox="0 0 18 18" version="1.1" xmlns="http://www.w3.org/2000/svg" xmlns:xlink="http://www.w3.org/1999/xlink">
    <title>Icons/ic-links</title>
    <g id="Page-1" stroke="none" stroke-width="1" fill="none" fill-rule="evenodd">
        <g id="Messages-(Actions---Dialog)" transform="translate(-1163.000000, -607.000000)">
            <g id="InfoBar" transform="translate(1140.000000, 0.000000)">
                <g id="Media" transform="translate(20.000000, 466.000000)">
                    <g id="Icons/ic-links" transform="translate(0.000000, 138.000000)">
                        <rect id="Rectangle" x="0" y="0" width="24" height="24"></rect>
                        <g id="chain_outline_28-@-linked" transform="translate(3.000000, 3.000000)" fill="#3F8AE0">
                            <path d="M7.84636364,11.3154545 C7.52727273,11.6345455 7.00363636,11.6345455 6.68454545,11.3154545 C5.08909091,9.72 5.08909091,7.12636364 6.68454545,5.53090909 L10.9718182,1.24363636 C12.5672727,-0.351818182 15.1609091,-0.351818182 16.7563636,1.24363636 C18.3518182,2.83909091 18.3518182,5.43272727 16.7563636,7.02818182 L15.5815364,8.20300909 C15.2627727,8.52177273 14.7460909,8.52218182 14.4268364,8.20399091 C14.1075818,7.88588182 14.1066,7.36928182 14.4245455,7.04994545 L15.5945455,5.87454545 C16.56,4.91727273 16.56,3.36272727 15.5945455,2.40545455 C14.6372727,1.44 13.0827273,1.44 12.1254545,2.40545455 L7.84636364,6.68454545 C6.88090909,7.64181818 6.88090909,9.19636364 7.84636364,10.1536364 C8.18181818,10.4727273 8.18181818,10.9963636 7.84636364,11.3154545 Z M10.1536364,6.68454545 C10.4727273,6.36545455 10.9963636,6.36545455 11.3154545,6.68454545 C12.9109091,8.28 12.9109091,10.8736364 11.3154545,12.4690909 L7.02818182,16.7563636 C5.43272727,18.3518182 2.83909091,18.3518182 1.24363636,16.7563636 C-0.351818182,15.1609091 -0.351818182,12.5672727 1.24363636,10.9718182 L2.41483909,9.80059091 C2.73402818,9.48076364 3.25206818,9.48076364 3.57158455,9.80026364 C3.57169909,9.80042727 3.57181364,9.80050909 3.57158455,9.80091818 L3.57223091,9.80157273 C3.89109273,10.1214818 3.89094545,10.6393091 3.57189545,10.9589727 L2.40545455,12.1254545 C1.44,13.0827273 1.44,14.6372727 2.40545455,15.5945455 C3.36272727,16.56 4.91727273,16.56 5.87454545,15.5945455 L10.1536364,11.3154545 C11.1190909,10.3581818 11.1190909,8.80363636 10.1536364,7.84636364 C9.81818182,7.52727273 9.81818182,7.00363636 10.1536364,6.68454545 Z" id="Shape"></path>
                        </g>
                    </g>
                </g>
            </g>
        </g>
    </g>
</svg>