<?xml version="1.0" encoding="UTF-8"?>
<svg width="24px" height="24px" viewBox="0 0 24 24" version="1.1" xmlns="http://www.w3.org/2000/svg" xmlns:xlink="http://www.w3.org/1999/xlink">
    <title>Icons/ic-language</title>
    <g id="Icons/ic-language" stroke="none" stroke-width="1" fill="none" fill-rule="evenodd">
        <g>
            <rect id="Base" x="0" y="0" width="24" height="24"></rect>
            <path d="M5.896482,16.68357 C6.365232,16.68357 6.628902,16.44927 6.792972,15.88677 L7.238282,14.56836 L10.291012,14.56836 L10.736332,15.90427 C10.894532,16.45507 11.158202,16.68357 11.656252,16.68357 C12.171872,16.68357 12.541012,16.33787 12.541012,15.85157 C12.541012,15.67577 12.511722,15.51757 12.429692,15.28907 L10.109372,8.9961 C9.857422,8.30469 9.447262,8 8.755862,8 C8.087892,8 7.671872,8.31641 7.425782,9.00196 L5.117192,15.28907 C5.041012,15.50587 5,15.70507 5,15.85157 C5,16.36137 5.345702,16.68357 5.896482,16.68357 Z M7.625002,13.19727 L8.720702,9.73438 L8.761722,9.73438 L9.880862,13.19727 L7.625002,13.19727 Z M15.236342,16.67187 C16.021442,16.67187 16.806642,16.27927 17.158242,15.61137 L17.193342,15.61137 L17.193342,15.93357 C17.228542,16.43747 17.550742,16.69527 18.013642,16.69527 C18.500042,16.69527 18.845742,16.40237 18.845742,15.83397 L18.845742,12.25391 C18.845742,10.98829 17.796842,10.15625 16.185542,10.15625 C14.884742,10.15625 13.876952,10.61915 13.583982,11.36915 C13.525392,11.49805 13.496092,11.6211 13.496092,11.75586 C13.496092,12.14258 13.794922,12.41211 14.210942,12.41211 C14.486342,12.41211 14.703142,12.30665 14.890642,12.09571 C15.271442,11.60352 15.587842,11.4336 16.109342,11.4336 C16.753942,11.4336 17.164042,11.77344 17.164042,12.35938 L17.164042,12.77539 L15.582042,12.86915 C14.011742,12.96289 13.132812,13.625 13.132812,14.76757 C13.132812,15.89847 14.041042,16.67187 15.236342,16.67187 Z M15.798842,15.43557 C15.224642,15.43557 14.837842,15.14257 14.837842,14.67387 C14.837842,14.22852 15.201142,13.94141 15.839842,13.89454 L17.164042,13.8125 L17.164042,14.26954 C17.164042,14.94927 16.548842,15.43557 15.798842,15.43557 Z" id="Icon" fill="#3F8AE0"></path>
        </g>
    </g>
</svg>