<?xml version="1.0" encoding="UTF-8"?>
<svg width="24px" height="24px" viewBox="0 0 24 24" version="1.1" xmlns="http://www.w3.org/2000/svg" xmlns:xlink="http://www.w3.org/1999/xlink">
    <title>Icons/ic-microphone-mute</title>
    <g id="Icons/ic-microphone-mute" stroke="none" stroke-width="1" fill="none" fill-rule="evenodd">
        <g id="Icons/ic-microphone">
            <rect id="Rectangle" x="0" y="0" width="24" height="24"></rect>
            <path d="M5.75,10.5 C6.16421,10.5 6.5,10.835775 6.5,11.25 C6.5,14.563725 9.18629,17.25 12.5,17.25 C13.0843042,17.25 13.6490998,17.166479 14.1830997,17.0107243 L15.3579218,18.1862688 C14.6976762,18.4585998 13.9900419,18.6394039 13.250825,18.712875 L13.25,20.25 C13.25,20.664225 12.914225,21 12.5,21 C12.085775,21 11.75,20.664225 11.75,20.25 L11.749925,18.71295 C7.959965,18.3366 5,15.138975 5,11.25 C5,10.835775 5.33579,10.5 5.75,10.5 Z M8,10.827 L9.87443604,12.702462 C10.1474698,13.1949528 10.5550472,13.6025302 11.047538,13.875564 L12.904304,15.7320838 C12.7711203,15.7439431 12.6362675,15.75 12.5,15.75 C10.014725,15.75 8,13.735275 8,11.25 L8,10.827 Z M19.25,10.5 C19.664225,10.5 20,10.835775 20,11.25 C20,12.9186305 19.4550839,14.4599836 18.5334952,15.7058159 L17.4583371,14.6296353 C18.1156351,13.6671566 18.5,12.5034676 18.5,11.25 C18.5,10.835775 18.835775,10.5 19.25,10.5 Z M12.5,3 C14.985275,3 17,5.0147175 17,7.5 L17,11.25 C17,12.0877285 16.7710854,12.8719928 16.3723964,13.5436526 L15.2586462,12.4308627 C15.4139877,12.068449 15.5,11.669267 15.5,11.25 L15.5,7.5 C15.5,5.843145 14.156825,4.5 12.5,4.5 C11.097183,4.5 9.91921663,5.46287886 9.59100012,6.76379193 L8.4221058,5.59463671 C9.13953843,4.06181227 10.6957727,3 12.5,3 Z" id="Combined-Shape" fill="currentColor"></path>
            <rect id="Rectangle" fill="#D12433" transform="translate(12.000000, 12.000000) rotate(-315.000000) translate(-12.000000, -12.000000) " x="1" y="11" width="22" height="2" rx="0.5"></rect>
        </g>
    </g>
</svg>