<?xml version="1.0" encoding="UTF-8"?>
<svg width="24px" height="24px" viewBox="0 0 24 24" version="1.1" xmlns="http://www.w3.org/2000/svg" xmlns:xlink="http://www.w3.org/1999/xlink">
    <title>Icons/ic-menu</title>
    <g id="Icons/ic-menu" stroke="none" stroke-width="1" >
        <g>
            <rect id="Rectangle" x="0" y="0" width="24" height="24" fill="none"></rect>
            <g id="menu_28" transform="translate(3.000000, 5.000000)" >
                <path d="M16.875,11.8125 C17.49636,11.8125 18,12.30215 18,12.90625 C18,13.51035 17.49636,14 16.875,14 L1.125,14 C0.503676,14 0,13.51035 0,12.90625 C0,12.30215 0.503676,11.8125 1.125,11.8125 L16.875,11.8125 Z M16.875,6.125 C17.49636,6.125 18,6.61465 18,7.21875 C18,7.82285 17.49636,8.3125 16.875,8.3125 L1.125,8.3125 C0.503676,8.3125 0,7.82285 0,7.21875 C0,6.61465 0.503676,6.125 1.125,6.125 L16.875,6.125 Z M16.875,0.4375 C17.49636,0.4375 18,0.927185 18,1.53125 C18,2.135315 17.49636,2.625 16.875,2.625 L1.125,2.625 C0.503676,2.625 0,2.135315 0,1.53125 C0,0.927185 0.503676,0.4375 1.125,0.4375 L16.875,0.4375 Z" id="Shape"></path>
            </g>
        </g>
    </g>
</svg>