<?xml version="1.0" encoding="UTF-8"?>
<svg width="24px" height="24px" viewBox="0 0 24 24" version="1.1" xmlns="http://www.w3.org/2000/svg" xmlns:xlink="http://www.w3.org/1999/xlink">
    <title>Icons/ic-notifications-off</title>
    <g id="Icons/ic-notifications-off" stroke="none" stroke-width="1" fill="none" fill-rule="evenodd">
        <g>
            <rect id="Rectangle" x="0" y="0" width="24" height="24"></rect>
            <g id="notification_disable_outline_28" transform="translate(3.000000, 3.000000)" fill="#3F8AE0">
                <path d="M1.05781909,1.05781909 C1.37734364,0.738302727 1.89538364,0.738302727 2.21490818,1.05781909 L17.2570091,16.0999364 C17.5765091,16.4194364 17.5765091,16.9375091 17.2570091,17.2570091 C16.9375091,17.5765091 16.4194364,17.5765091 16.0999364,17.2570091 L13.9760182,15.1336636 C13.9539273,15.1354636 13.9315909,15.1363636 13.9090909,15.1363636 L12.5991,15.1369364 C12.0526364,16.9891364 10.8100636,18 9,18 C7.18993636,18 5.94736364,16.9891364 5.40094091,15.1369364 L3.27272727,15.1363636 C1.91031545,15.1363636 1.01620636,14.6665636 0.620157273,13.8241636 C0.44838,13.4588455 0.409090909,13.1625 0.409090909,12.7539818 C0.409090909,11.8431818 0.756613636,11.2567091 1.63049727,10.2438 C1.74429,10.1120727 1.79633455,10.0516909 1.85161091,9.98648182 C2.29230818,9.46685455 2.45454545,9.17599091 2.45454545,8.92399091 L2.45454545,7.42819091 C2.45454545,6.31521818 2.68576364,5.24420182 3.12419455,4.28243727 L1.05781909,2.21490818 C0.738302727,1.89538364 0.738302727,1.37734364 1.05781909,1.05781909 Z M10.8649636,15.1370182 L7.13503636,15.1370182 C7.50387273,15.9898909 8.09893636,16.3636364 9,16.3636364 C9.90106364,16.3636364 10.4961273,15.9898909 10.8649636,15.1370182 Z M9.00376364,0.409090909 C12.7111909,0.409090909 15.5454545,3.51333 15.5454545,7.43031818 L15.5416909,8.92399091 C15.5416909,9.17558182 15.7041818,9.46636364 16.1455909,9.98590909 C16.2009818,10.0511182 16.2531,10.1115 16.3671545,10.2432273 C17.0250545,11.0043818 17.3182091,11.4296727 17.4925636,12.0496909 C17.5572818,12.2799273 17.5909091,12.5145 17.5909091,12.7539818 C17.5909091,13.2058636 17.2246091,13.5721636 16.7727273,13.5721636 C16.3208455,13.5721636 15.9545455,13.2058636 15.9545455,12.7539818 C15.9545455,12.6672545 15.9422727,12.5813455 15.9173182,12.4926545 C15.8302636,12.1829727 15.6307091,11.8935818 15.1290818,11.3132455 C15.0154364,11.1819273 14.9586545,11.1161455 14.8986,11.0454545 C14.2204909,10.2473182 13.9053273,9.68342727 13.9053273,8.92194545 L13.9090909,7.42819091 C13.9090909,4.38552 11.7724909,2.04545455 9.00376364,2.04545455 C8.14082727,2.04545455 7.32919091,2.26917818 6.61524545,2.6919 C6.22636364,2.92211182 5.72455636,2.79352636 5.49434455,2.40469364 C5.26413273,2.01586909 5.39271818,1.51402909 5.78151818,1.28382545 C6.74713636,0.712145455 7.84652727,0.409090909 9.00376364,0.409090909 Z M12.3430909,13.5 L4.38598636,5.54373 C4.19224909,6.13513636 4.09090909,6.77045455 4.09090909,7.42819091 L4.09090909,8.92399091 C4.09090909,9.68301818 3.7764,10.2468273 3.09960818,11.0448818 C3.03961909,11.1155727 2.98298455,11.1813545 2.86950273,11.3126727 C2.24764364,12.0334909 2.04545455,12.3746727 2.04545455,12.7539818 C2.04545455,12.9390545 2.05852091,13.0375636 2.10101727,13.1279727 C2.20241455,13.3436455 2.50002,13.5 3.27272727,13.5 L12.3430909,13.5 Z" id="Shape"></path>
            </g>
        </g>
    </g>
</svg>