<?xml version="1.0" encoding="UTF-8"?>
<svg width="24px" height="24px" viewBox="0 0 24 24" version="1.1" xmlns="http://www.w3.org/2000/svg" xmlns:xlink="http://www.w3.org/1999/xlink">
    <title>Icons/ic-outgoing-call</title>
    <g id="Icons/ic-outgoing-call" stroke="none" stroke-width="1" fill="none" fill-rule="evenodd">
        <g>
            <rect id="Rectangle" x="0" y="0" width="24" height="24"></rect>
            <g id="phone_outgoing_16" transform="translate(3.000000, 3.000000)" fill="currentColor">
                <path d="M5.16498,0.961035 L6.02682,1.985415 C7.220505,3.40113 7.09668,5.5341 5.74251,6.88839 L5.007465,7.622505 C4.81149,7.81884 4.747335,8.111085 4.84302,8.37147 C5.110485,9.102615 5.79303,10.01604 6.88866,11.111745 C7.985265,12.2085 8.89863,12.8901 9.62871,13.1586 C9.88926,13.254 10.18152,13.18935 10.377615,12.99315 L11.11167,12.25905 C12.4659,10.904685 14.5977,10.77987 16.0152,11.97168 L17.03955,12.8346 C18.2085,13.8183 18.3273,15.59175 17.3031,16.79445 C16.7445,17.44065 15.9582,17.84655 15.10785,17.9277 C11.83482,18.3687 8.401335,16.79145 4.805385,13.1952 C1.20942,9.59895 -0.36864,6.16419 0.072195,2.89191 C0.0951,2.635875 0.148305,2.383455 0.230685,2.13996 C0.42132,1.58061 0.75783,1.082295 1.20546,0.69651 C2.40906,-0.32688 4.18128,-0.20898 5.16498,0.961035 Z M15.555,1.5075 C16.0728,1.5075 16.4925,1.92723 16.4925,2.445 L16.4925,6.555 C16.4925,7.07277 16.0728,7.4925 15.555,7.4925 C15.0372,7.4925 14.6175,7.07277 14.6175,6.555 L14.6175,4.7055 L10.60791,8.71791 C10.24179,9.08403 9.64821,9.08403 9.28209,8.71791 C8.91597,8.35179 8.91597,7.75821 9.28209,7.39209 L13.2915,3.3825 L11.445,3.3825 C10.92723,3.3825 10.5075,2.96277 10.5075,2.445 C10.5075,1.92723 10.92723,1.5075 11.445,1.5075 L15.555,1.5075 Z" id="Shape"></path>
            </g>
        </g>
    </g>
</svg>