<?xml version="1.0" encoding="UTF-8"?>
<svg style="transform: rotate(-90deg);" width="24px" height="24px" viewBox="0 0 26 26" version="1.1" xmlns="http://www.w3.org/2000/svg" xmlns:xlink="http://www.w3.org/1999/xlink">
    <title>Circle</title>
    <g id="Messages" stroke="none" stroke-width="1" fill="none" fill-rule="evenodd">
        <g id="Messages-(Dialog)---Voice--&amp;-Doc--1" transform="translate(-464.000000, -528.000000)" stroke-width="2">
            <g id="Body" transform="translate(347.000000, 52.000000)">
                <g id="Message" transform="translate(64.000000, 192.000000)">
                    <g id="Row" transform="translate(46.000000, 227.000000)">
                        <g id="File" transform="translate(0.000000, 50.000000)">
                            <g id="Circle" transform="translate(8.000000, 8.000000)">
                            <g xmlns="http://www.w3.org/2000/svg" id="Icons/ic-close" transform="translate(6.000000, 6.000000)">
                                    <rect id="Rectangle" x="0" y="0" width="12" height="12"/>
                                    <g id="cancel_outline_28-@-close" transform="translate(2.000000, 2.000000)" fill="currentColor">
                                        <path d="M0.146445,0.146445 C0.34171,-0.048815 0.65829,-0.048815 0.853555,0.146445 L3.99999966,3.2925 L7.14645,0.146445 C7.3267,-0.033795 7.6103,-0.04766 7.80645,0.10485 L7.85355,0.146445 C8.0488,0.34171 8.0488,0.65829 7.85355,0.853555 L4.7075,3.99999966 L7.85355,7.14645 C8.0338,7.3267 8.04765,7.6103 7.89515,7.80645 L7.85355,7.85355 C7.6583,8.0488 7.3417,8.0488 7.14645,7.85355 L3.99999966,4.7075 L0.853555,7.85355 C0.67331,8.0338 0.389695,8.04765 0.19355,7.89515 L0.146445,7.85355 C-0.048815,7.6583 -0.048815,7.3417 0.146445,7.14645 L3.2925,3.99999966 L0.146445,0.853555 C-0.033795,0.67331 -0.04766,0.389695 0.10485,0.19355 L0.146445,0.146445 Z" id="Path"/>
                                    </g>
                                </g>
                                <circle id="Oval" stroke="#6D7885" opacity="0.400000006" cx="12" cy="12" r="10"></circle>
                                <circle id="Oval" style="stroke-dasharray: 75.39 75.39; stroke-dashoffset: 75.39;" stroke="#3F8AE0" cx="12" cy="12" r="10"></circle>
                            </g>
                        </g>
                    </g>
                </g>
            </g>
        </g>
    </g>
</svg>