<?xml version="1.0" encoding="UTF-8"?>
<svg width="24px" height="24px" viewBox="0 0 24 24" version="1.1" xmlns="http://www.w3.org/2000/svg" xmlns:xlink="http://www.w3.org/1999/xlink">
    <title>Icons/ic-settings</title>
    <g id="Icons/ic-settings" stroke="none" stroke-width="1" fill="none" fill-rule="evenodd">
        <g>
            <rect id="Rectangle" x="0" y="0" width="24" height="24"></rect>
            <g id="icons8-settings" transform="translate(3.000000, 3.000000)" fill="currentColor">
                <path d="M9,0 C8.61784615,0 8.30769231,0.310153846 8.30769231,0.692307692 L8.30769231,0.811298077 C8.30769231,1.14222115 8.07466569,1.43746872 7.74789646,1.49008417 C7.589358,1.51569948 7.43242085,1.54537138 7.27734392,1.58067907 C6.95611315,1.65406368 6.63125815,1.47219231 6.50525815,1.16826923 L6.45928477,1.06009615 C6.31320785,0.707019231 5.90845638,0.538777662 5.55468785,0.685546892 C5.20161058,0.831623815 5.03336901,1.236375 5.18013824,1.59014423 L5.22611176,1.7010216 C5.35349638,2.00563705 5.25162981,2.36625362 4.97055288,2.54071516 C4.83486058,2.6251767 4.7024784,2.71366228 4.57301686,2.8057392 C4.30440148,2.99750843 3.93282692,2.95386058 3.69951923,2.72055288 L3.61568506,2.63671878 C3.34499275,2.36602641 2.90671872,2.36602648 2.63671878,2.63671878 C2.36671878,2.90741109 2.36671878,3.34568513 2.63671878,3.61568506 L2.72055288,3.69951923 C2.95386058,3.93282692 2.99750843,4.30370917 2.8057392,4.57301686 C2.71366228,4.70247833 2.6251767,4.83486058 2.54071516,4.97055288 C2.36625362,5.25162981 2.00497715,5.35415622 1.69966945,5.22746391 L1.59014423,5.18149038 C1.23706731,5.03541346 0.830963977,5.20296272 0.684194677,5.55603992 C0.538117823,5.90911685 0.705667085,6.31386762 1.05874401,6.46063685 L1.16691708,6.50525815 C1.47084016,6.63125815 1.65406368,6.95611315 1.58067907,7.27734392 C1.54537138,7.43242085 1.51434734,7.589358 1.48873195,7.74789646 C1.43680888,8.07397338 1.14222115,8.30769231 0.811298077,8.30769231 L0.692307692,8.30769231 C0.310153846,8.30769231 0,8.61784615 0,9 C0,9.38215385 0.310153846,9.69230769 0.692307692,9.69230769 L0.811298077,9.69230769 C1.14222115,9.69230769 1.43746872,9.92533431 1.49008417,10.2521035 C1.51569948,10.410642 1.54537138,10.5675792 1.58067907,10.7226561 C1.65406368,11.0438868 1.47219231,11.3687418 1.16826923,11.4947418 L1.06009615,11.5407152 C0.707019231,11.6867922 0.538777662,12.0915436 0.685546892,12.4453122 C0.831623815,12.7983898 1.236375,12.9666309 1.59014423,12.8198617 L1.7010216,12.7738883 C2.00632929,12.647196 2.36691346,12.7490622 2.54206731,13.0294468 C2.62652885,13.1651398 2.71432212,13.2981812 2.80709135,13.4283351 C2.99886058,13.6969505 2.95521272,14.0685252 2.72190503,14.3018328 L2.63671878,14.3856672 C2.36602641,14.6563595 2.36602648,15.0946332 2.63671878,15.3646332 C2.90741109,15.6346332 3.34568506,15.6353255 3.61568506,15.3646332 L3.70087138,15.2807995 C3.93417907,15.0474918 4.30440148,15.0024918 4.57301686,15.1942611 C4.70317071,15.2870303 4.83621272,15.3761753 4.97190503,15.4606368 C5.25228965,15.6350984 5.35550843,15.996375 5.22881612,16.3016827 L5.18284253,16.4112078 C5.03676561,16.7642848 5.20431494,17.1703883 5.557392,17.3171575 C5.91046892,17.4632345 6.31521969,17.2956849 6.46198892,16.942608 L6.50661092,16.8344349 C6.63261092,16.5305118 6.95746523,16.3472885 7.278696,16.4206731 C7.43377292,16.4559808 7.59071008,16.4870045 7.74924854,16.5126198 C8.07394085,16.5631583 8.30769231,16.8577788 8.30769231,17.1887019 L8.30769231,17.3076923 C8.30769231,17.6898462 8.61784615,18 9,18 C9.38215385,18 9.69230769,17.6898462 9.69230769,17.3076923 L9.69230769,17.1887019 C9.69230769,16.8577788 9.92533431,16.5625311 10.2521035,16.5099157 C10.410642,16.4843003 10.5675792,16.4546287 10.7226561,16.419321 C11.0438868,16.3459364 11.3687418,16.5278077 11.4947418,16.8317308 L11.5407152,16.9399038 C11.6867922,17.2929808 12.0915436,17.4612226 12.4453122,17.3144534 C12.7983898,17.1683765 12.9666309,16.763625 12.8198617,16.4098558 L12.7738883,16.2989785 C12.647196,15.9936708 12.7490622,15.6330865 13.0294468,15.4579327 C13.1651398,15.3734712 13.2981812,15.2856775 13.4283351,15.1929083 C13.6969505,15.0011391 14.0685252,15.044787 14.3018328,15.2780947 L14.3856672,15.3632811 C14.6563595,15.6339734 15.0946332,15.6339734 15.3646332,15.3632811 C15.6346332,15.0925888 15.6353255,14.6543151 15.3646332,14.3843151 L15.2807995,14.2991287 C15.0474918,14.065821 15.0024918,13.6955984 15.1942611,13.426983 C15.2870303,13.2968292 15.3761753,13.163787 15.4606368,13.0280947 C15.6350984,12.7477101 15.996375,12.6444918 16.3016827,12.7711842 L16.4112078,12.8171575 C16.7642848,12.9632345 17.1703883,12.7956849 17.3171575,12.442608 C17.4632345,12.0895311 17.2956849,11.6847803 16.942608,11.5380111 L16.8344349,11.4933891 C16.5305118,11.3673898 16.3472885,11.0425348 16.4206731,10.721304 C16.4559808,10.5662271 16.4870045,10.4092899 16.5126198,10.2507515 C16.5631583,9.92605915 16.8577788,9.69230769 17.1887019,9.69230769 L17.3076923,9.69230769 C17.6898462,9.69230769 18,9.38215385 18,9 C18,8.61784615 17.6898462,8.30769231 17.3076923,8.30769231 L17.1887019,8.30769231 C16.8577788,8.30769231 16.5625311,8.07466569 16.5099157,7.74789646 C16.4843003,7.589358 16.4546287,7.43242085 16.419321,7.27734392 C16.3459364,6.95611315 16.5278077,6.63125815 16.8317308,6.50525815 L16.9399038,6.45928477 C17.2929808,6.31320785 17.4612226,5.90845638 17.3144534,5.55468785 C17.1683765,5.20161058 16.763625,5.03336901 16.4098558,5.18013824 L16.2989785,5.22611176 C15.9936708,5.35280407 15.6330865,5.2509375 15.4579327,4.97055288 C15.3734712,4.83486058 15.2856775,4.70181849 15.1929083,4.57166465 C15.0011391,4.30304926 15.044787,3.93147478 15.2780947,3.69816708 L15.3632811,3.61433292 C15.6339734,3.34364061 15.6339734,2.90536657 15.3632811,2.63536657 C15.0925888,2.36467426 14.6543151,2.36467426 14.3843151,2.63536657 L14.3004808,2.72055288 C14.0671731,2.95386058 13.6955984,2.99886058 13.426983,2.80709135 C13.2968292,2.71432212 13.163787,2.6251767 13.0280947,2.54071516 C12.7477101,2.36625362 12.6458439,2.00497715 12.7725362,1.69966945 L12.8185096,1.59014423 C12.9645865,1.23706731 12.797037,0.830963908 12.4439601,0.684194677 C12.0908832,0.538117823 11.6861324,0.705667085 11.5393632,1.05874401 L11.4933891,1.16691708 C11.3673898,1.47084016 11.0425348,1.65406368 10.721304,1.58067907 C10.5662271,1.54537138 10.4092899,1.51434734 10.2507515,1.48873195 C9.92536685,1.43680888 9.69230769,1.14222115 9.69230769,0.811298077 L9.69230769,0.692307692 C9.69230769,0.310153846 9.38215385,0 9,0 Z M9,3.46153846 C11.8236773,3.46153846 14.1497903,5.57645262 14.4911361,8.30769231 L10.1966649,8.30769231 C9.94976485,7.88004705 9.49380092,7.61625781 9,7.61538462 C8.99954931,7.6153844 8.99909862,7.6153844 8.99864792,7.61538462 L6.851412,3.89423077 C7.51223008,3.61573546 8.23791531,3.46153846 9,3.46153846 Z M5.65609985,4.59194712 L7.801983,8.30769231 C7.68007485,8.51807432 7.61571749,8.75684968 7.61538462,9 C7.61619125,9.24223282 7.68053237,9.48001553 7.801983,9.68960354 L5.65474777,13.4067005 C4.32444863,12.3950742 3.46153846,10.8000492 3.46153846,9 C3.46153846,7.19926962 4.32494107,5.60351146 5.65609985,4.59194712 Z M10.198017,9.69230769 L14.4911361,9.69230769 C14.1497903,12.4235474 11.8236773,14.5384615 9,14.5384615 C8.23791531,14.5384615 7.51223008,14.3842645 6.851412,14.1057692 L8.99864792,10.3846154 C8.99909862,10.3846156 8.99954931,10.3846156 9,10.3846154 C9.49428415,10.3842244 9.950875,10.1203705 10.198017,9.69230769 Z" id="Shape"></path>
            </g>
        </g>
    </g>
</svg>