<?xml version="1.0" encoding="UTF-8"?>
<svg width="24px" height="24px" viewBox="0 0 24 24" version="1.1" xmlns="http://www.w3.org/2000/svg" xmlns:xlink="http://www.w3.org/1999/xlink">
    <title>Icons/ic-time</title>
    <g id="Icons/ic-time" stroke="none" stroke-width="1" fill="none" fill-rule="evenodd">
        <g>
            <rect id="Rectangle" x="0" y="0" width="24" height="24"></rect>
            <g id="clock_outline_24" transform="translate(6.000000, 6.000000)" fill="currentColor">
                <path d="M6,0.060006 C9.28056,0.060006 11.94,2.719434 11.94,6 C11.94,9.28056 9.28056,11.94 6,11.94 C2.719434,11.94 0.060006,9.28056 0.060006,6 C0.060006,2.719434 2.719434,0.060006 6,0.060006 Z M6,1.140006 C3.3159,1.140006 1.140006,3.3159 1.140006,6 C1.140006,8.6841 3.3159,10.86 6,10.86 C8.6841,10.86 10.86,8.6841 10.86,6 C10.86,3.3159 8.6841,1.140006 6,1.140006 Z M5.7,3.060006 C5.99826,3.060006 6.24,3.30177 6.24,3.600006 L6.24,3.600006 L6.24,5.92578 L8.2896,6.69438 C8.56884,6.79908 8.71032,7.11036 8.60562,7.3896 C8.50092,7.66884 8.18964,7.81032 7.9104,7.70562 L7.9104,7.70562 L5.5104,6.80562 C5.29962,6.7266 5.16,6.52512 5.16,6.3 L5.16,6.3 L5.16,3.600006 C5.16,3.30177 5.40174,3.060006 5.7,3.060006 Z" id="Combined-Shape"></path>
            </g>
        </g>
    </g>
</svg>