<?xml version="1.0" encoding="UTF-8"?>
<svg width="24px" height="24px" viewBox="0 0 24 24" version="1.1" xmlns="http://www.w3.org/2000/svg" xmlns:xlink="http://www.w3.org/1999/xlink">
    <title>Icons/ic-text-typing</title>
    <g id="Icons/ic-text-typing" stroke="none" stroke-width="1" fill="none" fill-rule="evenodd">
        <g>
            <rect id="Base" x="0" y="0" width="24" height="24"></rect>
            <path d="M19.7473,17 C20.1677,17 20.5,17.3358 20.5,17.75 L20.4931,17.8524 C20.4433,18.2203 20.1284,18.5 19.7473,18.5 L7.2527,18.5 C6.83226,18.5 6.5,18.1642 6.5,17.75 C6.5,17.3329 6.837,17 7.2527,17 L19.7473,17 Z M19.7484,12 C20.1673,12 20.5,12.33579 20.5,12.75 C20.5,13.1671 20.1635,13.5 19.7484,13.5 L11.25163,13.5 C10.83272,13.5 10.5,13.1642 10.5,12.75 L10.50686,12.6476 C10.55663,12.27973 10.87111,12 11.25163,12 L19.7484,12 Z M10.74738,5.5 C11.15625,5.5 11.5,5.83579 11.5,6.25 L11.49313,6.35238 C11.44329,6.72027 11.1284,7 10.74738,7 L8.25,7 L8.25,12.75 C8.25,13.1642 7.91421,13.5 7.5,13.5 C7.08579,13.5 6.75,13.1642 6.75,12.75 L6.75,7 L4.25262,7 C3.87782,7 3.55774,6.71785 3.507,6.35177 L3.5,6.25 C3.5,5.8329 3.83696,5.5 4.25262,5.5 L10.74738,5.5 Z M19.7509,7 C20.1624,7 20.5,7.33579 20.5,7.75 C20.5,8.1671 20.1646,8.5 19.7509,8.5 L14.2491,8.5 C13.8376,8.5 13.5,8.16421 13.5,7.75 L13.5068,7.64762 C13.5564,7.27973 13.8699,7 14.2491,7 L19.7509,7 Z" id="Icon" fill="currentColor"></path>
        </g>
    </g>
</svg>