<?xml version="1.0" encoding="UTF-8"?>
<svg width="20px" height="20px" viewBox="0 0 24 24" version="1.1" xmlns="http://www.w3.org/2000/svg" xmlns:xlink="http://www.w3.org/1999/xlink">
    <title>Icons/ic-tick</title>
    <g id="Icons/ic-tick" stroke="none" stroke-width="1" fill="none" fill-rule="evenodd">
        <g>
            <rect id="Rectangle" x="0" y="0" width="24" height="24"></rect>
            <g id="icons8-checkmark" transform="translate(5.000000, 7.000000)" fill="#3F8AE0">
                <path d="M12.9528358,0.521176 C12.8181254,0.525250282 12.6902692,0.582397214 12.5963543,0.680509895 L4.66666667,8.72944105 L1.40364581,5.41735211 C1.27359244,5.27985848 1.08047075,5.22447288 0.898760986,5.2725556 C0.717051224,5.32063832 0.575147477,5.46467592 0.527777042,5.64911815 C0.480406607,5.83356037 0.534971619,6.02958617 0.670428267,6.16159526 L4.300058,9.84580579 C4.50255494,10.0512627 4.8307784,10.0512627 5.03327533,9.84580579 L13.3295716,1.42475326 C13.4829289,1.27344202 13.5290399,1.042087 13.4456859,0.842167639 C13.3623318,0.642248278 13.1666124,0.514776838 12.9528358,0.521176 Z" id="Path"></path>
            </g>
        </g>
    </g>
</svg>