<?xml version="1.0" encoding="UTF-8"?>
<svg width="24px" height="24px" viewBox="0 0 24 24" version="1.1" xmlns="http://www.w3.org/2000/svg" xmlns:xlink="http://www.w3.org/1999/xlink">
    <title>Icons/ic-video-call-mute</title>
    <g id="Icons/ic-video-call-mute" stroke="none" stroke-width="1" fill="none" fill-rule="evenodd">
        <g id="Icons/ic-video-call">
            <rect id="Rectangle" x="0" y="0" width="24" height="24"></rect>
            <g id="videocam_outline_28" transform="translate(3.000000, 3.000000)">
                <path d="M0.96991536,3.79880233 L2.03292593,4.86195285 C1.90657114,4.96499343 1.80438766,5.09073398 1.7234175,5.2421325 C1.5687,5.5314375 1.5077175,5.8152375 1.5006975,6.667575 L1.5,11.15415 C1.5,12.146925 1.55838,12.44925 1.7234175,12.757875 C1.8450825,12.98535 2.0146425,13.154925 2.2421325,13.276575 C2.55072,13.44165 2.8530525,13.5 3.8458275,13.5 L9.65415,13.5 C10.0980097,13.5 10.4038558,13.4883365 10.6339558,13.4606862 L11.8366509,14.6649912 C11.3851207,14.8839976 10.8746388,15 9.65415,15 L3.8458275,15 C2.5085475,15 2.02362,14.860725 1.5347325,14.599275 C1.045845,14.337825 0.66216,13.954125 0.4007025,13.465275 C0.1392375,12.97635 0,12.491475 0,11.15415 L0,6.84585 C0,5.5085475 0.1392375,5.02362 0.4007025,4.5347325 C0.551084728,4.25353961 0.741902169,4.00714973 0.96991536,3.79880233 Z M9.65415,3 C10.991475,3 11.47635,3.1392375 11.965275,3.4007025 C12.454125,3.66216 12.837825,4.045845 13.099275,4.5347325 C13.273425,4.860375 13.39335,5.184255 13.454025,5.7594375 L14.959125,4.8191775 C15.88995,4.23741 17.116125,4.5203775 17.6979,5.451195 C17.8953,5.7670725 18,6.132075 18,6.5046 L18,11.4954 C18,12.4984353 17.2570535,13.3278827 16.2914181,13.4634845 L12,9.172 L12,6.84585 C12,5.8530525 11.94165,5.55072 11.776575,5.2421325 C11.654925,5.0146425 11.48535,4.8450825 11.257875,4.7234175 C10.9686,4.5687 10.6848,4.5077175 9.832425,4.5006975 L7.327,4.5 L5.827,3 L9.65415,3 Z M15.754125,6.0912 L13.5,7.5 L13.5,10.5 L15.754125,11.9088 C15.8316,11.95725 15.92115,11.9829 16.0125,11.9829 C16.28175,11.9829 16.5,11.76465 16.5,11.4954 L16.5,6.5046 C16.5,6.413175 16.47435,6.3237 16.4259,6.246225 C16.283175,6.01785 15.982425,5.948475 15.754125,6.0912 Z" id="Combined-Shape" fill="currentColor"></path>
                <rect id="Rectangle" fill="#D12433" transform="translate(9.000000, 9.000000) rotate(-315.000000) translate(-9.000000, -9.000000) " x="-2" y="8" width="22" height="2" rx="0.5"></rect>
            </g>
        </g>
    </g>
</svg>