<?xml version="1.0" encoding="UTF-8"?>
<svg width="24px" height="24px" viewBox="0 0 24 24" version="1.1" xmlns="http://www.w3.org/2000/svg" xmlns:xlink="http://www.w3.org/1999/xlink">
    <title>Icons/ic-write-message</title>
    <g id="Icons/ic-write-message" stroke="none" stroke-width="1" fill="none" fill-rule="evenodd">
        <g id="Icon/ic-write-message">
            <rect id="Rectangle" x="0" y="0" width="24" height="24"></rect>
            <g id="write_outline_24" transform="translate(3.000000, 3.000000)" fill="currentColor">
                <path d="M13.7142857,8.57142 C13.7142857,8.09802857 14.0980286,7.71427714 14.5714286,7.71427714 C15.0109714,7.71427714 15.3732857,8.04516857 15.4228286,8.47146 L15.4285714,8.57142 L15.4285714,13.1164286 C15.4285714,14.8145143 15.2517429,15.4302857 14.9197714,16.0511143 C14.5877143,16.6719429 14.1005143,17.1591429 13.4796857,17.4912 C12.8588571,17.8231714 12.2430857,18 10.545,18 L4.88358857,18 C3.18546,18 2.56968,17.8231714 1.94886857,17.4912 C1.32805714,17.1591429 0.84084,16.6719429 0.508825714,16.0511143 C0.176811429,15.4302857 0,14.8145143 0,13.1164286 L0,7.45500857 C0,5.75688 0.176811429,5.1411 0.508825714,4.52028857 C0.84084,3.89947714 1.32805714,3.41226 1.94886857,3.08024571 C2.56968,2.74823143 3.18546,2.57142 4.88358857,2.57142 L9.42857143,2.57142 L9.42857143,4.28570571 L4.77822,4.28570571 C3.48153429,4.28570571 3.08665714,4.36195714 2.68359429,4.57752 C2.38647429,4.73642571 2.16500571,4.95789429 2.0061,5.25501429 C1.80252,5.63568 1.72319143,6.00905143 1.71500571,7.14172286 L1.71428571,13.2217714 C1.71428571,14.5184571 1.79053714,14.9133429 2.0061,15.3163714 C2.16500571,15.6135429 2.38647429,15.8350286 2.68359429,15.9938571 C3.08665714,16.2094286 3.48153429,16.2857143 4.77822,16.2857143 L10.6503429,16.2857143 C11.9470286,16.2857143 12.3419143,16.2094286 12.7449429,15.9938571 C13.0421143,15.8350286 13.2636,15.6135429 13.4225143,15.3163714 C13.638,14.9133429 13.7142857,14.5184571 13.7142857,13.2217714 L13.7142857,8.57142 Z M14.0470286,2.43584571 L15.5183143,3.99507429 C13.3722,6.14116286 9.6558,9.85757143 8.99365714,10.5197143 C8.08457143,11.4288 6.41777143,12.1864286 6.11477143,11.8834286 C5.81171143,11.5803429 6.56931429,9.91362857 7.47848571,9.00445714 L7.60105714,8.8818 C8.51742857,7.96552286 12.0150857,4.46779714 14.0470286,2.43584571 Z M9.42857143,2.57142 C9.90197143,2.57142 10.2857143,2.95518 10.2857143,3.42856286 C10.2857143,3.86814 9.95485714,4.23042857 9.52851429,4.27993714 L9.42857143,4.28570571 L9.42857143,2.57142 Z M17.0244,0.97374 C17.4789429,1.42830857 17.4789429,2.03440286 17.0244,2.48897143 L16.7826,2.73081429 C16.6863429,2.82707143 16.5661714,2.94718286 16.4259429,3.08742857 L14.9106857,1.57219714 C15.2262857,1.25664 15.4398857,1.04302286 15.5091429,0.97374 C15.9637714,0.519170571 16.5698571,0.519170571 17.0244,0.97374 Z" id="Shape"></path>
            </g>
        </g>
    </g>
</svg>