<svg width="24" height="24" viewBox="0 0 24 24" fill="none" xmlns="http://www.w3.org/2000/svg">
<path d="M13.3636 6.27273C13.3636 5.51962 12.7531 4.90909 12 4.90909C11.2469 4.90909 10.6364 5.51962 10.6364 6.27273C10.6364 7.02584 11.2469 7.63636 12 7.63636C12.7531 7.63636 13.3636 7.02584 13.3636 6.27273Z" fill="currentColor"/>
<path d="M10.0909 9.81818C10.0909 9.21569 10.5793 8.72727 11.1818 8.72727H12.2727C12.8752 8.72727 13.3636 9.21569 13.3636 9.81818V16.3636H14.1818C14.7843 16.3636 15.2727 16.8521 15.2727 17.4545C15.2727 18.057 14.7843 18.5455 14.1818 18.5455H10.3636C9.76114 18.5455 9.27273 18.057 9.27273 17.4545C9.27273 16.8521 9.76114 16.3636 10.3636 16.3636H11.1818V10.9091C10.5793 10.9091 10.0909 10.4207 10.0909 9.81818Z" fill="currentColor"/>
<path fill-rule="evenodd" clip-rule="evenodd" d="M12 0C8.68662 0 5.68512 1.34434 3.51472 3.51471C1.34436 5.68511 0 8.68662 0 12C0 15.3134 1.34434 18.3149 3.51471 20.4853C5.68511 22.6556 8.68661 24 12 24C15.3134 24 18.3149 22.6556 20.4853 20.4853C22.6556 18.3149 24 15.3134 24 12C24 8.68661 22.6556 5.68512 20.4853 3.51472C18.3149 1.34435 15.3134 0 12 0ZM5.05749 5.0575C6.83546 3.27956 9.28851 2.18182 12 2.18182C14.7115 2.18182 17.1645 3.27956 18.9425 5.0575C20.7204 6.83546 21.8182 9.28851 21.8182 12C21.8182 14.7115 20.7204 17.1645 18.9425 18.9425C17.1645 20.7204 14.7115 21.8182 12 21.8182C9.28851 21.8182 6.83546 20.7204 5.0575 18.9425C3.27956 17.1645 2.18182 14.7115 2.18182 12C2.18182 9.28851 3.27955 6.83547 5.05749 5.0575Z" fill="currentColor"/>
</svg>
