<svg width="18" height="18" viewBox="0 0 18 18" fill="none" xmlns="http://www.w3.org/2000/svg">
<path fill-rule="evenodd" clip-rule="evenodd" d="M2.25 1.8C2.00147 1.8 1.8 2.00147 1.8 2.25V15.75C1.8 15.9985 2.00147 16.2 2.25 16.2H6.75446C7.25152 16.2 7.65446 16.6029 7.65446 17.1C7.65446 17.5971 7.25152 18 6.75446 18H2.25C1.00736 18 0 16.9926 0 15.75V2.25C0 1.00736 1.00736 0 2.25 0H15.75C16.9926 0 18 1.00736 18 2.25V6.76368C18 7.26073 17.5971 7.66368 17.1 7.66368C16.6029 7.66368 16.2 7.26073 16.2 6.76368V2.25C16.2 2.00147 15.9985 1.8 15.75 1.8H2.25ZM9.1864 7.9136C9.53787 8.26508 9.53787 8.83492 9.1864 9.1864L8.00723 10.3656H17.1C17.5971 10.3656 18 10.7685 18 11.2656V16.65C18 17.3956 17.3956 18 16.65 18H11.2667C10.7696 18 10.3667 17.5971 10.3667 17.1C10.3667 16.6029 10.7696 16.2 11.2667 16.2H16.2V12.1656H8.03836L9.1864 13.3136C9.53787 13.6651 9.53787 14.2349 9.1864 14.5864C8.83492 14.9379 8.26508 14.9379 7.9136 14.5864L5.2136 11.8864C4.86213 11.5349 4.86213 10.9651 5.2136 10.6136L7.9136 7.9136C8.26508 7.56213 8.83492 7.56213 9.1864 7.9136Z" fill="white"/>
</svg>
