<svg width="30" height="28" viewBox="0 0 30 28" fill="none" xmlns="http://www.w3.org/2000/svg">
<path fill-rule="evenodd" clip-rule="evenodd" d="M3.75 2.8C3.33579 2.8 3 3.1134 3 3.5V24.5C3 24.8866 3.33579 25.2 3.75 25.2H11.2574C12.0859 25.2 12.7574 25.8268 12.7574 26.6C12.7574 27.3732 12.0859 28 11.2574 28H3.75C1.67893 28 0 26.433 0 24.5V3.5C0 1.567 1.67893 0 3.75 0H26.25C28.3211 0 30 1.567 30 3.5V10.5213C30 11.2945 29.3284 11.9213 28.5 11.9213C27.6716 11.9213 27 11.2945 27 10.5213V3.5C27 3.1134 26.6642 2.8 26.25 2.8H3.75ZM15.3107 12.3101C15.8964 12.8568 15.8964 13.7432 15.3107 14.2899L13.3454 16.1242H28.5C29.3284 16.1242 30 16.751 30 17.5242V25.9C30 27.0598 28.9926 28 27.75 28H18.7778C17.9494 28 17.2778 27.3732 17.2778 26.6C17.2778 25.8268 17.9494 25.2 18.7778 25.2H27V18.9242H13.3973L15.3107 20.7101C15.8964 21.2568 15.8964 22.1432 15.3107 22.69C14.7249 23.2367 13.7751 23.2367 13.1893 22.69L8.68934 18.4899C8.10355 17.9432 8.10355 17.0568 8.68934 16.51L13.1893 12.3101C13.7751 11.7633 14.7249 11.7633 15.3107 12.3101Z" fill="currentColor"/>
</svg>
