<svg width="108" height="108" viewBox="0 0 108 108" fill="none" xmlns="http://www.w3.org/2000/svg">
<path d="M10.1084 23.3379H44.7459C45.9341 23.3379 46.8973 22.3748 46.8973 21.1866C46.8973 19.9983 45.9341 19.0352 44.7459 19.0352H10.1084C8.92021 19.0352 7.95703 19.9983 7.95703 21.1866C7.95703 22.3748 8.92021 23.3379 10.1084 23.3379Z" fill="currentColor"/>
<path d="M52.4951 23.3379H56.5828C57.771 23.3379 58.7342 22.3748 58.7342 21.1866C58.7342 19.9983 57.771 19.0352 56.5828 19.0352H52.4951C51.3069 19.0352 50.3438 19.9983 50.3438 21.1866C50.3438 22.3748 51.3069 23.3379 52.4951 23.3379Z" fill="currentColor"/>
<path d="M105.849 11.6133H2.15139C0.963179 11.6133 0 12.5765 0 13.7647V82.179C0 83.3672 0.963179 84.3304 2.15139 84.3304H40.8765V92.0754H33.5618C32.3735 92.0754 31.4104 93.0386 31.4104 94.2268C31.4104 95.415 32.3735 96.3782 33.5618 96.3782H74.4382C75.6265 96.3782 76.5896 95.415 76.5896 94.2268C76.5896 93.0386 75.6265 92.0754 74.4382 92.0754H67.1235V84.3304H105.849C107.037 84.3304 108 83.3672 108 82.179V13.7647C108 12.5765 107.037 11.6133 105.849 11.6133ZM62.8207 92.0754H45.1793V84.3304H62.8207V92.0754ZM103.697 80.0276H4.30279V15.9161H103.697V80.0276Z" fill="currentColor"/>
<path d="M37.8578 43.4543C34.1336 49.6962 36.5012 59.1687 40.6195 64.9121C42.6752 67.7836 44.7565 70.3611 47.6072 70.3611C47.6609 70.3611 47.7148 70.3602 47.77 70.3581C49.1093 70.3065 50.0771 69.9082 51.0129 69.5233C52.0635 69.0909 53.1501 68.6438 54.8544 68.6438C56.4758 68.6438 57.5105 69.0763 58.5112 69.4946C59.4974 69.9066 60.5132 70.333 62.0141 70.3058C65.2251 70.248 67.1967 67.4667 68.9361 65.013C70.7511 62.4511 71.6617 59.9637 71.9689 59.0131L71.9813 58.9753C72.0398 58.8064 71.9572 58.622 71.7895 58.5476C71.7849 58.5455 71.7678 58.5387 71.763 58.5367C71.1976 58.3134 66.2375 56.1881 66.1853 50.3955C66.1369 45.6894 69.9064 43.1972 70.6623 42.7455L70.6976 42.7243C70.7795 42.6734 70.8365 42.5926 70.8559 42.5003C70.8752 42.408 70.855 42.3121 70.8001 42.2345C68.1983 38.557 64.2105 38.0028 62.605 37.9361C62.372 37.9136 62.1315 37.9023 61.89 37.9023C60.0043 37.9023 58.1979 38.5902 56.7466 39.1429C55.7448 39.5244 54.8795 39.8539 54.2827 39.8539C53.6121 39.8539 52.7419 39.5204 51.7342 39.1343C50.3867 38.6177 48.8593 38.0324 47.2424 38.0324C47.2038 38.0324 47.1658 38.0328 47.1284 38.0335C43.3688 38.0869 39.8163 40.1643 37.8578 43.4543Z" fill="currentColor"/>
<path d="M62.6109 27.8167C60.3342 27.9062 57.6031 29.2598 55.9707 31.1065C54.5834 32.6587 53.2282 35.2467 53.5852 37.8554C53.6076 38.0186 53.7451 38.1445 53.9151 38.1572C54.0688 38.1688 54.2257 38.1747 54.3819 38.1748C56.6081 38.1748 59.0096 36.9853 60.6496 35.07C62.3757 33.0475 63.2485 30.452 62.9845 28.1271C62.9637 27.9449 62.7978 27.8096 62.6109 27.8167Z" fill="currentColor"/>
</svg>
