<svg width="12" height="12" viewBox="0 0 12 12" fill="none" xmlns="http://www.w3.org/2000/svg">
<path d="M6 9.54545C6.37655 9.54545 6.68182 9.24019 6.68182 8.86364C6.68182 8.48708 6.37655 8.18182 6 8.18182C5.62345 8.18182 5.31818 8.48708 5.31818 8.86364C5.31818 9.24019 5.62345 9.54545 6 9.54545Z" fill="#C74848"/>
<path d="M6.54545 2.72727C6.54545 2.42603 6.30125 2.18182 6 2.18182C5.69875 2.18182 5.45455 2.42603 5.45455 2.72727V7.09091C5.45455 7.39216 5.69875 7.63636 6 7.63636C6.30125 7.63636 6.54545 7.39216 6.54545 7.09091V2.72727Z" fill="#C74848"/>
<path fill-rule="evenodd" clip-rule="evenodd" d="M1.75736 1.75735C2.84256 0.672172 4.34331 0 6 0C7.65669 0 9.15744 0.672172 10.2426 1.75736C11.3278 2.84256 12 4.34331 12 6C12 7.65669 11.3278 9.15744 10.2426 10.2426C9.15744 11.3278 7.65669 12 6 12C4.34331 12 2.84256 11.3278 1.75736 10.2426C0.672175 9.15744 0 7.65669 0 6C0 4.34331 0.672178 2.84256 1.75736 1.75735ZM6 1.09091C4.64426 1.09091 3.41773 1.63978 2.52874 2.52875C1.63977 3.41773 1.09091 4.64426 1.09091 6C1.09091 7.35575 1.63978 8.58227 2.52875 9.47124C3.41773 10.3602 4.64426 10.9091 6 10.9091C7.35574 10.9091 8.58227 10.3602 9.47124 9.47124C10.3602 8.58227 10.9091 7.35574 10.9091 6C10.9091 4.64426 10.3602 3.41773 9.47124 2.52875C8.58227 1.63978 7.35575 1.09091 6 1.09091Z" fill="#C74848"/>
</svg>
