<svg width="17" height="9" viewBox="0 0 17 9" fill="none" xmlns="http://www.w3.org/2000/svg">
<path d="M12.91 1.28033C13.2118 0.987437 13.2118 0.512563 12.91 0.21967C12.6083 -0.0732233 12.119 -0.0732233 11.8172 0.21967L4.63636 7.18934L1.31913 3.96967C1.01736 3.67678 0.528095 3.67678 0.226327 3.96967C-0.0754422 4.26256 -0.0754422 4.73744 0.226327 5.03033L4.08996 8.78033C4.39173 9.07322 4.881 9.07322 5.18276 8.78033L12.91 1.28033Z" fill="white"/>
<path d="M16.7737 1.28033C17.0754 0.987437 17.0754 0.512563 16.7737 0.21967C16.4719 -0.0732233 15.9826 -0.0732233 15.6809 0.21967L8.49636 7.19288C8.19304 6.95951 7.75095 6.97886 7.47064 7.25092C7.16888 7.54381 7.16888 8.01869 7.47064 8.31158L7.9536 8.78033C8.25537 9.07322 8.74463 9.07322 9.0464 8.78033L16.7737 1.28033Z" fill="white"/>
<path d="M5.66572 4.43842L5.18276 3.96967C4.881 3.67678 4.39173 3.67678 4.08996 3.96967C3.78819 4.26256 3.78819 4.73744 4.08996 5.03033L4.57292 5.49908C4.87469 5.79197 5.36395 5.79197 5.66572 5.49908C5.96749 5.20619 5.96749 4.73131 5.66572 4.43842Z" fill="white"/>
</svg>
