<svg width="18" height="18" viewBox="0 0 18 18" fill="none" xmlns="http://www.w3.org/2000/svg">
<path fill-rule="evenodd" clip-rule="evenodd" d="M9 1.63636C6.28878 1.63636 4.09091 3.83423 4.09091 6.54545V13.9091H13.9091V6.54545C13.9091 3.83423 11.7112 1.63636 9 1.63636ZM15.5455 13.9091V6.54545C15.5455 2.93049 12.615 0 9 0C5.38504 0 2.45455 2.93049 2.45455 6.54545V13.9091H0.818182C0.366312 13.9091 0 14.2754 0 14.7273C0 15.1791 0.366312 15.5455 0.818182 15.5455H6.16536C6.36387 16.9332 7.55736 18 9 18C10.4426 18 11.6361 16.9332 11.8346 15.5455H17.1818C17.6337 15.5455 18 15.1791 18 14.7273C18 14.2754 17.6337 13.9091 17.1818 13.9091H15.5455ZM10.1574 15.5455H7.84256C8.01105 16.0221 8.46565 16.3636 9 16.3636C9.53435 16.3636 9.98895 16.0221 10.1574 15.5455ZM6.376 5.55782C6.69552 5.2383 7.21357 5.2383 7.53309 5.55782L9 7.02473L10.4669 5.55782C10.7864 5.2383 11.3045 5.2383 11.624 5.55782C11.9435 5.87734 11.9435 6.39539 11.624 6.71491L10.1571 8.18182L11.624 9.64873C11.9435 9.96825 11.9435 10.4863 11.624 10.8058C11.3045 11.1253 10.7864 11.1253 10.4669 10.8058L9 9.3389L7.53309 10.8058C7.21357 11.1253 6.69552 11.1253 6.376 10.8058C6.05648 10.4863 6.05648 9.96825 6.376 9.64873L7.84292 8.18182L6.376 6.71491C6.05648 6.39539 6.05648 5.87734 6.376 5.55782Z" fill="white"/>
</svg>
