<svg width="18" height="19" viewBox="0 0 18 19" fill="none" xmlns="http://www.w3.org/2000/svg">
<path d="M15.118 5.55327H12.4501V4.21933C12.4501 3.62969 12.2159 3.0642 11.799 2.64726C11.382 2.23033 10.8165 1.99609 10.2269 1.99609H7.55901C6.96937 1.99609 6.40388 2.23033 5.98694 2.64726C5.57 3.0642 5.33577 3.62969 5.33577 4.21933V5.55327H2.66788C1.96032 5.55327 1.28173 5.83435 0.781405 6.33468C0.28108 6.835 0 7.51359 0 8.22116V15.3355C0 16.0431 0.28108 16.7217 0.781405 17.222C1.28173 17.7223 1.96032 18.0034 2.66788 18.0034H15.118C15.8256 18.0034 16.5042 17.7223 17.0045 17.222C17.5048 16.7217 17.7859 16.0431 17.7859 15.3355V8.22116C17.7859 7.51359 17.5048 6.835 17.0045 6.33468C16.5042 5.83435 15.8256 5.55327 15.118 5.55327ZM7.11436 4.21933C7.11436 4.1014 7.1612 3.98831 7.24459 3.90492C7.32798 3.82153 7.44108 3.77468 7.55901 3.77468H10.2269C10.3448 3.77468 10.4579 3.82153 10.5413 3.90492C10.6247 3.98831 10.6715 4.1014 10.6715 4.21933V5.55327H7.11436V4.21933ZM16.0073 15.3355C16.0073 15.5714 15.9136 15.7976 15.7468 15.9643C15.5801 16.1311 15.3539 16.2248 15.118 16.2248H2.66788C2.43203 16.2248 2.20583 16.1311 2.03906 15.9643C1.87228 15.7976 1.77859 15.5714 1.77859 15.3355V8.22116C1.77859 7.9853 1.87228 7.75911 2.03906 7.59233C2.20583 7.42556 2.43203 7.33186 2.66788 7.33186H15.118C15.3539 7.33186 15.5801 7.42556 15.7468 7.59233C15.9136 7.75911 16.0073 7.9853 16.0073 8.22116V15.3355Z" fill="currentColor"/>
<path d="M8.89281 8.66602C8.27721 8.66602 7.67543 8.84856 7.16358 9.19057C6.65172 9.53258 6.25278 10.0187 6.0172 10.5874C5.78162 11.1562 5.71998 11.782 5.84008 12.3858C5.96018 12.9895 6.25662 13.5441 6.69191 13.9794C7.12721 14.4147 7.68181 14.7112 8.28558 14.8313C8.88935 14.9514 9.51518 14.8897 10.0839 14.6542C10.6527 14.4186 11.1388 14.0196 11.4808 13.5078C11.8228 12.9959 12.0053 12.3941 12.0053 11.7785C12.0053 10.9531 11.6774 10.1614 11.0937 9.57766C10.51 8.99394 9.7183 8.66602 8.89281 8.66602ZM8.89281 13.1125C8.62898 13.1125 8.37107 13.0343 8.15171 12.8877C7.93234 12.7411 7.76137 12.5328 7.6604 12.289C7.55944 12.0453 7.53303 11.7771 7.5845 11.5183C7.63597 11.2595 7.76301 11.0219 7.94957 10.8353C8.13612 10.6488 8.37381 10.5217 8.63257 10.4702C8.89133 10.4188 9.15954 10.4452 9.40328 10.5461C9.64703 10.6471 9.85536 10.8181 10.0019 11.0374C10.1485 11.2568 10.2267 11.5147 10.2267 11.7785C10.2267 12.1323 10.0862 12.4716 9.83605 12.7218C9.58588 12.972 9.24659 13.1125 8.89281 13.1125Z" fill="white"/>
</svg>
