<svg width="24" height="24" viewBox="0 0 24 24" fill="none" xmlns="http://www.w3.org/2000/svg">
<path fill-rule="evenodd" clip-rule="evenodd" d="M0 12C0 5.37258 5.37258 0 12 0C18.6274 0 24 5.37258 24 12C24 18.6274 18.6274 24 12 24C5.37258 24 0 18.6274 0 12ZM12 2.18182C6.57757 2.18182 2.18182 6.57757 2.18182 12C2.18182 17.4224 6.57757 21.8182 12 21.8182C17.4224 21.8182 21.8182 17.4224 21.8182 12C21.8182 6.57757 17.4224 2.18182 12 2.18182ZM9.27273 7.27623C9.61026 7.08136 10.0261 7.08136 10.3636 7.27623L16.9091 11.0552C17.2466 11.2501 17.4545 11.6103 17.4545 12C17.4545 12.3897 17.2466 12.7499 16.9091 12.9448L10.3636 16.7238C10.0261 16.9186 9.61026 16.9186 9.27273 16.7238C8.9352 16.5289 8.72727 16.1688 8.72727 15.779V8.22098C8.72727 7.83124 8.9352 7.4711 9.27273 7.27623ZM10.9091 10.1105V13.8895L14.1818 12L10.9091 10.1105Z" fill="currentColor"/>
</svg>
