<svg width="18" height="18" viewBox="0 0 18 18" fill="none" xmlns="http://www.w3.org/2000/svg">
<path fill-rule="evenodd" clip-rule="evenodd" d="M9 1C9.45187 1 9.81818 1.35817 9.81818 1.8V16.2C9.81818 16.6418 9.45187 17 9 17C8.54813 17 8.18182 16.6418 8.18182 16.2V1.8C8.18182 1.35817 8.54813 1 9 1ZM5.92944 3.42481C6.29184 3.51516 6.54545 3.83431 6.54545 4.2V13C6.54545 13.4418 6.17914 13.8 5.72727 13.8H0.818182C0.529415 13.8 0.262033 13.6512 0.114628 13.4084C-0.0327767 13.1656 -0.0383727 12.8648 0.0999038 12.6169L5.00899 3.81692C5.18809 3.49588 5.56703 3.33445 5.92944 3.42481ZM12.0706 3.42481C12.433 3.33445 12.8119 3.49588 12.991 3.81692L17.9001 12.6169C18.0384 12.8648 18.0328 13.1656 17.8854 13.4084C17.738 13.6512 17.4706 13.8 17.1818 13.8H12.2727C11.8209 13.8 11.4545 13.4418 11.4545 13V4.2C11.4545 3.83431 11.7082 3.51516 12.0706 3.42481ZM2.19644 12.2H4.90909V7.33733L2.19644 12.2ZM13.0909 7.33733V12.2H15.8036L13.0909 7.33733Z" fill="currentColor"/>
</svg>
