<svg width="15" height="16" viewBox="0 0 15 16" fill="none" xmlns="http://www.w3.org/2000/svg">
<path fill-rule="evenodd" clip-rule="evenodd" d="M11.2859 15.7397C10.9892 15.3925 10.9892 14.8297 11.2859 14.4826L12.4063 13.1716L5.62852 13.1716C2.6054 13.1716 0.12218 10.3772 0.00436768 6.84246C-0.120161 3.10741 2.43397 -1.44883e-07 5.62853 1.34394e-07L11.9612 6.88017e-07C12.3808 7.24696e-07 12.7209 0.39797 12.7209 0.888889C12.7209 1.37981 12.3808 1.77778 11.9612 1.77778L5.62853 1.77778C3.2963 1.77778 1.43165 4.04637 1.52256 6.77317L0.763465 6.80782L1.52256 6.77318C1.60857 9.35369 3.42145 11.3938 5.62852 11.3938L12.4063 11.3938L11.2859 10.0828C10.9892 9.73568 10.9892 9.17287 11.2859 8.82573C11.5825 8.4786 12.0635 8.47859 12.3602 8.82572L14.7775 11.6541C14.92 11.8208 15 12.0469 15 12.2827C15 12.5184 14.92 12.7445 14.7775 12.9112L12.3602 15.7396C12.0636 16.0868 11.5826 16.0868 11.2859 15.7397Z" fill="currentColor"/>
</svg>
