<svg width="24" height="24" viewBox="0 0 24 24" fill="none" xmlns="http://www.w3.org/2000/svg">
<path fill-rule="evenodd" clip-rule="evenodd" d="M0 10.9334C0 4.89507 4.89507 0 10.9334 0C16.9717 0 21.8668 4.89507 21.8668 10.9334C21.8668 13.538 20.956 15.9299 19.4356 17.808L23.6629 22.0353C24.1124 22.4848 24.1124 23.2135 23.6629 23.6629C23.2135 24.1124 22.4848 24.1124 22.0353 23.6629L17.808 19.4356C15.9299 20.956 13.538 21.8668 10.9334 21.8668C4.89507 21.8668 0 16.9717 0 10.9334ZM10.9334 2.30177C6.1663 2.30177 2.30177 6.1663 2.30177 10.9334C2.30177 15.7005 6.1663 19.565 10.9334 19.565C15.7005 19.565 19.565 15.7005 19.565 10.9334C19.565 6.1663 15.7005 2.30177 10.9334 2.30177ZM6.86441 6.28891C7.90453 5.24886 9.3447 4.60353 10.9334 4.60353C12.5221 4.60353 13.9623 5.24885 15.0023 6.28894C15.4518 6.73838 15.4518 7.46708 15.0023 7.91653C14.5529 8.36598 13.8242 8.36598 13.3748 7.91653C12.7487 7.29048 11.8871 6.9053 10.9334 6.9053C9.97967 6.9053 9.11807 7.29047 8.49194 7.91656C8.04248 8.36599 7.31378 8.36596 6.86435 7.9165C6.41492 7.46704 6.41494 6.73834 6.86441 6.28891Z" fill="currentColor"/>
</svg>
