<svg width="24" height="24" viewBox="0 0 24 24" fill="none" xmlns="http://www.w3.org/2000/svg">
<path fill-rule="evenodd" clip-rule="evenodd" d="M3.51472 3.51471C5.68512 1.34434 8.68662 0 12 0C15.3134 0 18.3149 1.34434 20.4853 3.51471L19.7139 4.28611L20.4853 3.51472C22.6556 5.68512 24 8.68661 24 12C24 15.3134 22.6556 18.3149 20.4853 20.4853C18.3149 22.6556 15.3134 24 12 24C8.68661 24 5.68512 22.6556 3.51472 20.4853L4.28611 19.7139L3.51471 20.4853C1.34434 18.3149 0 15.3134 0 12C0 8.68662 1.34434 5.68512 3.51471 3.51472L3.51472 3.51471ZM12 2.18182C9.28851 2.18182 6.83546 3.27956 5.05749 5.0575C3.27955 6.83547 2.18182 9.28851 2.18182 12C2.18182 14.7115 3.27956 17.1645 5.0575 18.9425C6.83546 20.7204 9.28852 21.8182 12 21.8182C14.7115 21.8182 17.1645 20.7204 18.9425 18.9425C20.7204 17.1645 21.8182 14.7115 21.8182 12C21.8182 9.28852 20.7204 6.83546 18.9425 5.0575C17.1645 3.27956 14.7115 2.18182 12 2.18182ZM18.2259 7.95588C18.652 8.38191 18.652 9.07264 18.2259 9.49866L11.6805 16.0441C11.2545 16.4701 10.5637 16.4701 10.1377 16.0441L6.86497 12.7714C6.43895 12.3454 6.43895 11.6546 6.86497 11.2286C7.291 10.8026 7.98173 10.8026 8.40775 11.2286L10.9091 13.7299L16.6832 7.95588C17.1092 7.52986 17.7999 7.52986 18.2259 7.95588Z" fill="currentColor"/>
</svg>
