<svg width="24" height="24" viewBox="0 0 24 24" fill="none" xmlns="http://www.w3.org/2000/svg">
<path d="M6.54545 7.63636C5.94296 7.63636 5.45455 8.12478 5.45455 8.72727C5.45455 9.32977 5.94296 9.81818 6.54545 9.81818H16.3636C16.9661 9.81818 17.4545 9.32977 17.4545 8.72727C17.4545 8.12478 16.9661 7.63636 16.3636 7.63636H6.54545Z" fill="currentColor"/>
<path d="M5.45455 13.0909C5.45455 12.4884 5.94296 12 6.54545 12H16.3636C16.9661 12 17.4545 12.4884 17.4545 13.0909C17.4545 13.6934 16.9661 14.1818 16.3636 14.1818H6.54545C5.94296 14.1818 5.45455 13.6934 5.45455 13.0909Z" fill="currentColor"/>
<path d="M6.54545 16.3636C5.94296 16.3636 5.45455 16.8521 5.45455 17.4545C5.45455 18.057 5.94296 18.5455 6.54545 18.5455H12C12.6025 18.5455 13.0909 18.057 13.0909 17.4545C13.0909 16.8521 12.6025 16.3636 12 16.3636H6.54545Z" fill="currentColor"/>
<path fill-rule="evenodd" clip-rule="evenodd" d="M0 12V22.909C0 23.5115 0.488504 24 1.091 24H12C18.6274 24 24 18.6274 24 12C24 5.37258 18.6274 0 12 0C5.37258 0 0 5.37258 0 12ZM2.18182 12C2.18182 6.57757 6.57757 2.18182 12 2.18182C17.4224 2.18182 21.8182 6.57757 21.8182 12C21.8182 17.4224 17.4224 21.8182 12 21.8182H2.18182V12Z" fill="currentColor"/>
</svg>
