<svg width="24" height="24" viewBox="0 0 24 24" fill="none" xmlns="http://www.w3.org/2000/svg">
<path d="M12 0C18.6274 0 24 5.37258 24 12C24 18.6274 18.6274 24 12 24C5.37258 24 0 18.6274 0 12C0 5.37258 5.37258 0 12 0ZM12 2.18182C6.57757 2.18182 2.18182 6.57757 2.18182 12C2.18182 17.4224 6.57757 21.8182 12 21.8182C17.4224 21.8182 21.8182 17.4224 21.8182 12C21.8182 6.57757 17.4224 2.18182 12 2.18182ZM16.3061 14.8424C16.8449 15.1119 17.0634 15.7672 16.7939 16.3061C16.6002 16.6935 16.2326 17.2124 15.6566 17.7244C14.699 18.5756 13.4752 19.0909 12 19.0909C10.5248 19.0909 9.30099 18.5756 8.34342 17.7244C7.76735 17.2124 7.39979 16.6935 7.20608 16.3061C6.93664 15.7672 7.15506 15.1119 7.69395 14.8424C8.19434 14.5922 8.7951 14.7627 9.0941 15.2198L9.15756 15.3303C9.23657 15.4883 9.44856 15.7876 9.79294 16.0937C10.3695 16.6062 11.0888 16.9091 12 16.9091C12.9112 16.9091 13.6305 16.6062 14.2071 16.0937C14.5022 15.8313 14.7002 15.574 14.8004 15.4063L14.8424 15.3303C15.1119 14.7914 15.7672 14.573 16.3061 14.8424ZM15.8182 7.63636C16.3776 7.63636 16.8387 8.0575 16.9018 8.60005L16.9091 8.72727V10.9091C16.9091 11.5116 16.4207 12 15.8182 12C15.2587 12 14.7976 11.5789 14.7346 11.0363L14.7273 10.9091V8.72727C14.7273 8.12478 15.2157 7.63636 15.8182 7.63636ZM8.18182 7.63636C8.74128 7.63636 9.20237 8.0575 9.26539 8.60005L9.27273 8.72727V10.9091C9.27273 11.5116 8.78431 12 8.18182 12C7.62236 12 7.16126 11.5789 7.09825 11.0363L7.09091 10.9091V8.72727C7.09091 8.12478 7.57933 7.63636 8.18182 7.63636Z" fill="currentColor"/>
</svg>
