<svg width="24" height="24" viewBox="0 0 24 24" fill="none" xmlns="http://www.w3.org/2000/svg">
<path d="M21 0H5.54545C4.34035 0.00135274 3.185 0.47004 2.33286 1.30324C1.48072 2.13644 1.00138 3.26612 1 4.44444V13.3333C1.00054 13.8047 1.19227 14.2565 1.53313 14.5898C1.87399 14.9231 2.33614 15.1106 2.81818 15.1111H9.04273L8.28193 20.3187C8.27582 20.3603 8.27274 20.4024 8.27273 20.4444C8.27273 21.3874 8.65584 22.2918 9.33779 22.9586C10.0197 23.6254 10.9447 24 11.9091 24C12.8735 24 13.7984 23.6254 14.4804 22.9586C15.1623 22.2918 15.5455 21.3874 15.5455 20.4444C15.5455 20.4024 15.5424 20.3603 15.5364 20.3187L14.7753 15.1111H21C21.482 15.1106 21.9442 14.9231 22.2851 14.5898C22.6259 14.2565 22.8176 13.8047 22.8182 13.3333V1.77778C22.8176 1.30644 22.6259 0.854567 22.2851 0.521284C21.9442 0.188 21.482 0.000529357 21 0ZM5.54545 1.77778H15.5455V5.33333C15.5455 5.56908 15.6412 5.79517 15.8117 5.96187C15.9822 6.12857 16.2134 6.22222 16.4545 6.22222C16.6957 6.22222 16.9269 6.12857 17.0974 5.96187C17.2679 5.79517 17.3636 5.56908 17.3636 5.33333V1.77778H21L21.0007 8.88889H2.81818V4.44444C2.81899 3.73744 3.10659 3.05963 3.61788 2.5597C4.12917 2.05978 4.82239 1.77857 5.54545 1.77778ZM13.7264 20.5013C13.7114 20.9629 13.5134 21.4006 13.1743 21.7219C12.8351 22.0432 12.3813 22.2229 11.9091 22.2229C11.4368 22.2229 10.9831 22.0432 10.6439 21.7219C10.3048 21.4006 10.1068 20.9629 10.0918 20.5013L10.8793 15.1111H12.9389L13.7264 20.5013ZM21 13.3333H2.81818V10.6667H21.0009L21.0011 13.3333H21Z" fill="currentColor"/>
</svg>
