<svg width="18" height="18" viewBox="0 0 18 18" fill="none" xmlns="http://www.w3.org/2000/svg">
<path fill-rule="evenodd" clip-rule="evenodd" d="M2.38019 2.9027C4.02415 1.11883 6.38113 0 9 0C13.9706 0 18 4.02944 18 9C18 13.9706 13.9706 18 9 18C4.02944 18 0 13.9706 0 9C0 8.54813 0.366312 8.18182 0.818182 8.18182C1.27005 8.18182 1.63636 8.54813 1.63636 9C1.63636 13.0668 4.93317 16.3636 9 16.3636C13.0668 16.3636 16.3636 13.0668 16.3636 9C16.3636 4.93317 13.0668 1.63636 9 1.63636C6.81983 1.63636 4.86026 2.58356 3.51124 4.09091H4.53723C4.9891 4.09091 5.35541 4.45722 5.35541 4.90909C5.35541 5.36096 4.9891 5.72727 4.53723 5.72727H1.56201C1.11014 5.72727 0.743825 5.36096 0.743825 4.90909V1.93389C0.743825 1.48202 1.11014 1.11571 1.56201 1.11571C2.01388 1.11571 2.38019 1.48202 2.38019 1.93389V2.9027ZM9.00213 3.27273C9.454 3.27277 9.82027 3.63912 9.82023 4.09099L9.81977 8.66473L13.0489 11.8939C13.3685 12.2134 13.3685 12.7315 13.0489 13.051C12.7294 13.3705 12.2114 13.3705 11.8919 13.051L8.42301 9.58214C8.26955 9.42868 8.18335 9.22054 8.18337 9.00352L8.18386 4.09083C8.18391 3.63896 8.55026 3.27268 9.00213 3.27273Z" fill="white"/>
</svg>
