<svg width="18" height="22" viewBox="0 0 18 22" fill="none" xmlns="http://www.w3.org/2000/svg">
<path d="M8.00098 11.7343C8.00098 11.1943 7.55326 10.7565 7.00098 10.7565C6.44869 10.7565 6.00098 11.1943 6.00098 11.7343V16.6233C6.00098 17.1633 6.44869 17.6011 7.00098 17.6011C7.55326 17.6011 8.00098 17.1633 8.00098 16.6233V11.7343Z" fill="white"/>
<path d="M11.0012 10.7556C11.5535 10.7556 12.0012 11.1933 12.0012 11.7333V16.6211C12.0012 17.1611 11.5535 17.5989 11.0012 17.5989C10.4489 17.5989 10.0012 17.1611 10.0012 16.6211V11.7333C10.0012 11.1933 10.4489 10.7556 11.0012 10.7556Z" fill="white"/>
<path fill-rule="evenodd" clip-rule="evenodd" d="M12.0045 0.450913C11.8555 0.223191 11.6168 0.0659332 11.345 0.0164957C11.0732 -0.0329418 10.7926 0.0298523 10.5698 0.189962L2.67193 5.86667H1C0.716881 5.86667 0.447027 5.98402 0.257408 6.18959C0.067789 6.39517 -0.0238205 6.6697 0.0053126 6.94506L1.50531 21.1228C1.55804 21.6212 1.98756 22 2.5 22H15.5C16.0124 22 16.442 21.6212 16.4947 21.1228L17.9947 6.94506C18.0238 6.6697 17.9322 6.39517 17.7426 6.18959C17.553 5.98402 17.2831 5.86667 17 5.86667H15.5474L12.0045 0.450913ZM14.9852 7.82223C14.9957 7.82239 15.0062 7.82239 15.0167 7.82223H15.8912L14.5981 20.0444H3.40189L2.10879 7.82223H2.99511C2.99891 7.82225 3.0027 7.82225 3.0065 7.82223H14.9852ZM13.1733 5.86667L10.8947 2.38355L6.04866 5.86667H13.1733Z" fill="white"/>
</svg>
