<svg width="24" height="24" viewBox="0 0 24 24" fill="none" xmlns="http://www.w3.org/2000/svg">
<path fill-rule="evenodd" clip-rule="evenodd" d="M16.0168 2.16979e-08C16.3353 -6.04889e-05 16.6407 0.126445 16.8658 0.351658L21.2487 4.73652C21.7171 5.2051 21.7171 5.96461 21.2487 6.4332L8.83904 18.8483C8.61398 19.0735 8.30867 19.2 7.99032 19.2H3.6C2.93726 19.2 2.4 18.6627 2.4 18V13.6319C2.4 13.3139 2.52623 13.0089 2.75096 12.7839L15.168 0.35198C15.3931 0.126681 15.6984 6.05323e-05 16.0168 2.16979e-08ZM16.0174 2.89775L4.8 14.1286V16.8H7.49311L18.7033 5.58486L16.0174 2.89775ZM0 22.8C0 22.1373 0.537258 21.6 1.2 21.6H22.8C23.4627 21.6 24 22.1373 24 22.8C24 23.4627 23.4627 24 22.8 24H1.2C0.537258 24 0 23.4627 0 22.8Z" fill="currentColor"/>
</svg>
