<svg width="24" height="24" viewBox="0 0 24 24" fill="none" xmlns="http://www.w3.org/2000/svg">
<path fill-rule="evenodd" clip-rule="evenodd" d="M8.18182 8.72727C8.18182 6.61856 9.89129 4.90909 12 4.90909C14.1087 4.90909 15.8182 6.61856 15.8182 8.72727C15.8182 10.836 14.1087 12.5455 12 12.5455C9.89129 12.5455 8.18182 10.836 8.18182 8.72727ZM12 7.09091C11.0963 7.09091 10.3636 7.82355 10.3636 8.72727C10.3636 9.631 11.0963 10.3636 12 10.3636C12.9037 10.3636 13.6364 9.631 13.6364 8.72727C13.6364 7.82355 12.9037 7.09091 12 7.09091Z" fill="currentColor"/>
<path fill-rule="evenodd" clip-rule="evenodd" d="M0 12C0 5.37258 5.37258 0 12 0C18.6274 0 24 5.37258 24 12C24 15.3387 22.6365 18.359 20.436 20.5343C20.4036 20.5705 20.3687 20.6045 20.3317 20.6362C18.1733 22.7189 15.2363 24 12 24C8.79827 24 5.88941 22.7461 3.73769 20.7026C3.65008 20.6393 3.57245 20.5635 3.50729 20.4778C1.34008 18.3069 0 15.3099 0 12ZM5.52742 19.3827C7.25548 20.899 9.52039 21.8182 12 21.8182C14.4796 21.8182 16.7445 20.899 18.4726 19.3827C18.0976 17.3548 16.3188 15.8182 14.1818 15.8182H9.81817C7.68122 15.8182 5.90244 17.3548 5.52742 19.3827ZM20.1462 17.4823C19.118 15.2139 16.8344 13.6364 14.1818 13.6364H9.81817C7.16557 13.6364 4.88198 15.2139 3.85376 17.4823C2.79808 15.9167 2.18182 14.0303 2.18182 12C2.18182 6.57757 6.57757 2.18182 12 2.18182C17.4224 2.18182 21.8182 6.57757 21.8182 12C21.8182 14.0303 21.2019 15.9167 20.1462 17.4823Z" fill="currentColor"/>
</svg>
