<svg width="24" height="24" viewBox="0 0 24 24" fill="none" xmlns="http://www.w3.org/2000/svg">
<path d="M6.15013 2.77284C6.97037 2.77284 7.72608 3.22866 8.12407 3.96348L9.50484 6.5122C9.86653 7.17965 9.88353 7.98697 9.55035 8.66992L8.40985 11.0054L8.42771 11.0617L8.53473 11.3716C8.74963 11.9529 9.04869 12.5352 9.44193 13.0744C9.61515 13.3119 9.8035 13.5361 10.0075 13.7451C10.2091 13.9517 10.4249 14.1424 10.6533 14.3178C11.1795 14.7221 11.7478 15.0287 12.3151 15.2483C12.4259 15.2912 12.5272 15.3274 12.6173 15.3575L12.6714 15.3747L14.9532 14.2071C15.5594 13.8964 16.2661 13.8828 16.8791 14.1618L17.06 14.2542L19.5545 15.6753C20.2709 16.0835 20.7151 16.8574 20.7151 17.6974V20.6318C20.7151 22.9168 18.6043 24.5551 16.489 23.8238C12.2613 22.362 8.51592 20.3963 6.01635 17.8349C3.51686 15.2737 1.5986 11.4358 0.171973 7.10345C-0.541749 4.93588 1.05708 2.77284 3.28692 2.77284H6.15013ZM6.15006 5.0863H3.28692C2.57293 5.0863 2.10088 5.72501 2.31121 6.36378C3.63601 10.3869 5.41577 13.9477 7.61281 16.199C9.80993 18.4504 13.2849 20.2743 17.2108 21.6317C17.8342 21.8472 18.4574 21.3635 18.4574 20.6318V17.6974L15.963 16.2763L13.3028 17.6392C13.081 17.7529 12.8289 17.7885 12.5853 17.7406C11.7258 17.5717 10.5148 17.1029 9.299 16.1689C8.98666 15.929 8.68983 15.6667 8.41107 15.3811C8.129 15.092 7.87017 14.7839 7.63351 14.4594C6.72667 13.2162 6.26899 11.9781 6.10226 11.0997C6.05472 10.8493 6.08932 10.5897 6.20068 10.3615L7.53095 7.63532L6.15006 5.0863ZM20.049 0C20.6724 0 21.1778 0.517904 21.1778 1.15677L21.1777 1.18265L22.4519 0.661121C23.1498 0.375063 23.9053 0.853935 23.9918 1.59355L24 1.73516V6.36224C24 7.18061 23.1934 7.74021 22.4519 7.43627L21.1777 6.9138L21.1702 7.07553C21.11 7.60658 20.6989 8.02793 20.1806 8.08961L20.049 8.0974H13.2758C12.6523 8.0974 12.1469 7.57949 12.1469 6.94063V1.15677C12.1469 0.517904 12.6523 0 13.2758 0H20.049ZM18.9192 2.3134H14.4046V5.78306H18.9192L18.9201 5.20547C18.9201 4.57965 19.3918 4.10516 19.9453 4.05244L20.0562 4.04761L19.9453 4.04496C19.4344 3.99629 18.9931 3.58825 18.9283 3.03354L18.9201 2.89193L18.9192 2.3134ZM21.7414 3.44291L20.4682 3.96596C20.381 4.00172 20.2928 4.02552 20.2052 4.03836L20.0814 4.04884L20.2052 4.05903C20.249 4.06545 20.293 4.07461 20.3369 4.08664L20.4682 4.13143L21.7414 4.65354V3.44291Z" fill="white"/>
</svg>
