<svg width="18" height="18" viewBox="0 0 18 18" fill="none" xmlns="http://www.w3.org/2000/svg">
<path fill-rule="evenodd" clip-rule="evenodd" d="M2.86364 1.94171C2.86364 1.47663 3.22995 1.09961 3.68182 1.09961H14.3182C14.7701 1.09961 15.1364 1.47663 15.1364 1.94171V2.78382H17.1818C17.6337 2.78382 18 3.16084 18 3.62593V14.5733C18 15.0384 17.6337 15.4154 17.1818 15.4154H15.1364V16.2575C15.1364 16.7226 14.7701 17.0996 14.3182 17.0996H3.68182C3.22995 17.0996 2.86364 16.7226 2.86364 16.2575V15.4154H0.818182C0.366312 15.4154 0 15.0384 0 14.5733V3.62593C0 3.16084 0.366312 2.78382 0.818182 2.78382H2.86364V1.94171ZM4.5 15.4154H13.5V2.78382H4.5V15.4154ZM2.86364 4.46803H1.63636V13.7312H2.86364V4.46803ZM15.1364 13.7312H16.3636V4.46803H15.1364V13.7312ZM7.79575 6.67294C8.06179 6.52639 8.3846 6.54245 8.63566 6.71473L11.0902 8.39894C11.3178 8.55512 11.4545 8.81805 11.4545 9.09961C11.4545 9.38117 11.3178 9.6441 11.0902 9.80028L8.63566 11.4845C8.3846 11.6568 8.06179 11.6728 7.79575 11.5263C7.52971 11.3797 7.36364 11.0944 7.36364 10.7838V7.4154C7.36364 7.10483 7.52971 6.81948 7.79575 6.67294ZM9 8.98889V9.21033L9.16137 9.09961L9 8.98889Z" fill="currentColor"/>
</svg>
