<svg width="18" height="19" viewBox="0 0 18 19" fill="none" xmlns="http://www.w3.org/2000/svg">
<rect width="18" height="19" fill="#E5E5E5"/>
<rect width="1440" height="1024" transform="translate(-1112 -642)" fill="#262C38"/>
<rect x="-685" y="-642" width="1013" height="1024" fill="#373F51" fill-opacity="0.7"/>
<rect x="-20" y="-642" width="348" height="1024" fill="#373F51"/>
<path fill-rule="evenodd" clip-rule="evenodd" d="M2.86364 2.44171C2.86364 1.97663 3.22995 1.59961 3.68182 1.59961H14.3182C14.7701 1.59961 15.1364 1.97663 15.1364 2.44171V3.28382H17.1818C17.6337 3.28382 18 3.66084 18 4.12593V15.0733C18 15.5384 17.6337 15.9154 17.1818 15.9154H15.1364V16.7575C15.1364 17.2226 14.7701 17.5996 14.3182 17.5996H3.68182C3.22995 17.5996 2.86364 17.2226 2.86364 16.7575V15.9154H0.818182C0.366312 15.9154 0 15.5384 0 15.0733V4.12593C0 3.66084 0.366312 3.28382 0.818182 3.28382H2.86364V2.44171ZM4.5 15.9154H13.5V3.28382H4.5V15.9154ZM2.86364 4.96803H1.63636V14.2312H2.86364V4.96803ZM15.1364 14.2312H16.3636V4.96803H15.1364V14.2312ZM7.79575 7.17294C8.06179 7.02639 8.3846 7.04245 8.63566 7.21473L11.0902 8.89894C11.3178 9.05512 11.4545 9.31805 11.4545 9.59961C11.4545 9.88117 11.3178 10.1441 11.0902 10.3003L8.63566 11.9845C8.3846 12.1568 8.06179 12.1728 7.79575 12.0263C7.52971 11.8797 7.36364 11.5944 7.36364 11.2838V7.9154C7.36364 7.60483 7.52971 7.31948 7.79575 7.17294ZM9 9.48889V9.71033L9.16137 9.59961L9 9.48889Z" fill="white"/>
</svg>
