<svg width="300" height="280" viewBox="0 0 300 280" fill="none" xmlns="http://www.w3.org/2000/svg">
<path d="M289.966 53.5241H196.183C196.573 51.1283 196.783 48.6739 196.783 46.1708C196.783 20.712 175.803 0 150.019 0C124.233 0 103.255 20.712 103.255 46.1708C103.255 48.6749 103.464 51.1283 103.855 53.5241H10.0333C4.4919 53.5241 0 57.9449 0 63.3975V270.126C0 275.578 4.4919 280 10.0333 280H289.967C295.507 280 300 275.579 300 270.126V63.3975C299.999 57.9449 295.507 53.5241 289.966 53.5241ZM150.019 14.81C167.507 14.81 181.734 28.8775 181.734 46.1698C181.734 63.4621 167.507 77.5305 150.019 77.5305C132.532 77.5305 118.306 63.4631 118.306 46.1698C118.306 28.8785 132.532 14.81 150.019 14.81ZM112.194 73.2728C120.702 84.8172 134.483 92.3426 150.019 92.3426C165.554 92.3426 179.336 84.8182 187.845 73.2728H279.931V225.798H205.693C204.17 214.105 199.431 204.004 191.702 196.22C184.759 189.227 175.656 184.383 165.264 182.008C180.236 176.047 190.834 161.594 190.834 144.74C190.834 122.583 172.524 104.556 150.019 104.556C127.515 104.556 109.206 122.583 109.206 144.74C109.206 161.593 119.802 176.047 134.772 182.008C124.381 184.381 115.278 189.226 108.337 196.219C100.609 204.003 95.8674 214.104 94.3451 225.798H20.0666V73.2728H112.194ZM150.019 165.179C138.579 165.179 129.272 156.01 129.272 144.739C129.272 133.471 138.579 124.304 150.019 124.304C161.459 124.304 170.767 133.471 170.767 144.739C170.767 156.01 161.46 165.179 150.019 165.179ZM177.35 210.02C181.493 214.193 184.189 219.478 185.415 225.797H114.625C115.85 219.477 118.547 214.192 122.689 210.019C129.053 203.61 138.758 200.079 150.018 200.079C161.279 200.079 170.984 203.61 177.35 210.02ZM20.0666 260.251V245.546H103.846H196.193H279.931V260.251H20.0666Z" fill="currentColor"/>
<path d="M150.017 68.5416C162.501 68.5416 172.66 58.5111 172.66 46.1834C172.66 33.8576 162.501 23.8281 150.017 23.8281C137.534 23.8281 127.379 33.8576 127.379 46.1834C127.379 58.5111 137.534 68.5416 150.017 68.5416ZM149.018 29.8036C149.641 31.2302 149.998 32.7979 149.998 34.451C149.998 40.9375 144.668 46.1943 138.107 46.1943C136.451 46.1943 134.879 45.8513 133.447 45.2479C133.923 36.9532 140.635 30.2997 149.018 29.8036Z" fill="currentColor"/>
</svg>
