<svg width="24" height="24" viewBox="0 0 24 24" fill="none" xmlns="http://www.w3.org/2000/svg">
<rect width="24" height="24" fill="currentColor"/>
<path fill-rule="evenodd" clip-rule="evenodd" d="M7.00826 4.90909C7.00826 2.19788 9.24307 0 11.9999 0C14.7566 0 16.9915 2.19788 16.9915 4.90909V12C16.9915 14.7112 14.7566 16.9091 11.9999 16.9091C9.24307 16.9091 7.00826 14.7112 7.00826 12V4.90909ZM11.9999 2.18182C10.4683 2.18182 9.22675 3.40286 9.22675 4.90909V12C9.22675 13.5062 10.4683 14.7273 11.9999 14.7273C13.5314 14.7273 14.773 13.5062 14.773 12V4.90909C14.773 3.40286 13.5314 2.18182 11.9999 2.18182ZM3.68053 10.3636C4.29315 10.3636 4.78978 10.8521 4.78978 11.4545C4.78978 15.3708 8.01783 18.5455 11.9999 18.5455C15.9819 18.5455 19.2099 15.3708 19.2099 11.4545C19.2099 10.8521 19.7066 10.3636 20.3192 10.3636C20.9318 10.3636 21.4284 10.8521 21.4284 11.4545C21.4284 16.2067 17.7936 20.1239 13.1091 20.6638V22.9091C13.1091 23.5116 12.6125 24 11.9999 24C11.3872 24 10.8906 23.5116 10.8906 22.9091V20.6638C6.20608 20.1239 2.57129 16.2067 2.57129 11.4545C2.57129 10.8521 3.06791 10.3636 3.68053 10.3636Z" fill="currentColor"/>
</svg>
