<svg width="18" height="18" viewBox="0 0 18 18" fill="none" xmlns="http://www.w3.org/2000/svg">
<rect width="18" height="18" fill="#373F51"/>
<path fill-rule="evenodd" clip-rule="evenodd" d="M5.25742 3.68182C5.25742 1.64841 6.93353 0 9.00112 0C11.0687 0 12.7448 1.64841 12.7448 3.68182V9C12.7448 11.0334 11.0687 12.6818 9.00112 12.6818C6.93353 12.6818 5.25742 11.0334 5.25742 9V3.68182ZM9.00112 1.63636C7.85245 1.63636 6.92128 2.55215 6.92128 3.68182V9C6.92128 10.1297 7.85245 11.0455 9.00112 11.0455C10.1498 11.0455 11.0809 10.1297 11.0809 9V3.68182C11.0809 2.55215 10.1498 1.63636 9.00112 1.63636ZM2.76162 7.77273C3.22108 7.77273 3.59355 8.13904 3.59355 8.59091C3.59355 11.5281 6.01459 13.9091 9.00112 13.9091C11.9876 13.9091 14.4087 11.5281 14.4087 8.59091C14.4087 8.13904 14.7811 7.77273 15.2406 7.77273C15.7001 7.77273 16.0725 8.13904 16.0725 8.59091C16.0725 12.155 13.3465 15.0929 9.83305 15.4978V17.1818C9.83305 17.6337 9.46058 18 9.00112 18C8.54165 18 8.16918 17.6337 8.16918 17.1818V15.4978C4.65578 15.0929 1.92969 12.155 1.92969 8.59091C1.92969 8.13904 2.30216 7.77273 2.76162 7.77273Z" fill="white"/>
</svg>
