<svg width="24" height="24" viewBox="0 0 24 24" fill="none" xmlns="http://www.w3.org/2000/svg">
<path fill-rule="evenodd" clip-rule="evenodd" d="M7.00729 4.90909C7.00729 2.19788 9.2421 0 11.9989 0C14.7557 0 16.9905 2.19788 16.9905 4.90909V12C16.9905 14.7112 14.7557 16.9091 11.9989 16.9091C9.2421 16.9091 7.00729 14.7112 7.00729 12V4.90909ZM11.9989 2.18182C10.4673 2.18182 9.22577 3.40286 9.22577 4.90909V12C9.22577 13.5062 10.4673 14.7273 11.9989 14.7273C13.5304 14.7273 14.772 13.5062 14.772 12V4.90909C14.772 3.40286 13.5304 2.18182 11.9989 2.18182ZM3.67956 10.3636C4.29217 10.3636 4.7888 10.8521 4.7888 11.4545C4.7888 15.3708 8.01685 18.5455 11.9989 18.5455C15.9809 18.5455 19.209 15.3708 19.209 11.4545C19.209 10.8521 19.7056 10.3636 20.3182 10.3636C20.9308 10.3636 21.4275 10.8521 21.4275 11.4545C21.4275 16.2067 17.7927 20.1239 13.1081 20.6638V22.9091C13.1081 23.5116 12.6115 24 11.9989 24C11.3863 24 10.8896 23.5116 10.8896 22.9091V20.6638C6.2051 20.1239 2.57031 16.2067 2.57031 11.4545C2.57031 10.8521 3.06694 10.3636 3.67956 10.3636Z" fill="currentColor"/>
</svg>
