<svg width="595" height="714" viewBox="0 0 595 714" fill="none" xmlns="http://www.w3.org/2000/svg">
<g clip-path="url(#clip0)">
<g opacity="0.2">
<path d="M527.707 642.484H317.487C293.905 642.484 274.637 623.164 274.637 599.517V115.059C274.637 91.4125 293.905 72.0918 317.487 72.0918H527.707C551.288 72.0918 570.556 91.4125 570.556 115.059V599.229C570.556 623.164 551.288 642.484 527.707 642.484Z" fill="#0E2AB9"/>
<path opacity="0.2" d="M581.77 115.062H578.894V178.504H581.77V115.062Z" fill="#0E2AB9"/>
<path opacity="0.2" d="M581.77 192.922H578.894V207.34H581.77V192.922Z" fill="#0E2AB9"/>
<path d="M430.793 642.487H205.619C180.312 642.487 159.606 621.725 159.606 596.348V77.2854C159.606 51.909 180.312 31.1465 205.619 31.1465H431.081C456.387 31.1465 477.093 51.909 477.093 77.2854V596.348C476.806 621.725 456.1 642.487 430.793 642.487Z" fill="white"/>
<path opacity="0.2" d="M431.08 21.0527H386.793V23.9364H431.08V21.0527Z" fill="#D7E2FF"/>
<path opacity="0.2" d="M376.153 21.0527H352.571V23.9364H376.153V21.0527Z" fill="#D7E2FF"/>
<path d="M329.851 231.27C317.485 231.27 307.132 221.177 307.132 208.489V181.959C307.132 169.559 317.198 159.178 329.851 159.178C342.217 159.178 352.57 169.271 352.57 181.959V208.489C352.57 220.889 342.217 231.27 329.851 231.27Z" fill="white"/>
<path d="M384.78 52.1928H251.631C239.84 52.1928 230.35 42.6766 230.35 30.8535H406.06C406.06 42.6766 396.57 52.1928 384.78 52.1928Z" fill="#0E2AB9"/>
<path d="M262.847 305.386C217.122 305.386 179.737 267.898 179.737 222.047C179.737 176.197 217.122 138.709 262.847 138.709C308.572 138.709 345.957 176.197 345.957 222.047C345.957 268.186 308.86 305.386 262.847 305.386ZM262.847 140.151C217.697 140.151 181.175 177.062 181.175 222.047C181.175 267.321 217.697 303.944 262.847 303.944C307.997 303.944 344.519 267.321 344.519 222.047C344.519 177.062 307.997 140.151 262.847 140.151Z" fill="#0E2AB9"/>
<path d="M321.224 266.166C305.695 250.306 284.989 241.366 262.846 241.366C240.702 241.366 219.997 250.017 204.467 266.166L203.317 265.301C219.134 249.152 240.127 240.213 262.846 240.213C285.277 240.213 306.558 249.152 322.375 265.301L321.224 266.166Z" fill="#0E2AB9"/>
<path d="M318.349 609.327C299.082 609.327 283.265 593.466 283.265 574.146C283.265 554.825 299.082 538.965 318.349 538.965C337.617 538.965 353.434 554.825 353.434 574.146C353.146 593.755 337.617 609.327 318.349 609.327ZM318.349 540.695C299.944 540.695 284.703 555.69 284.703 574.434C284.703 592.89 299.657 607.885 318.349 607.885C336.754 607.885 351.996 592.89 351.996 574.434C351.709 555.979 336.754 540.695 318.349 540.695Z" fill="#0E2AB9"/>
<path d="M475.366 323.549H404.909C389.092 323.549 376.151 310.572 376.151 294.712C376.151 278.852 389.092 265.875 404.909 265.875H475.366C491.183 265.875 504.124 278.852 504.124 294.712C504.124 310.572 491.183 323.549 475.366 323.549Z" fill="#0E2AB9"/>
<path d="M475.366 394.49H404.909C389.092 394.49 376.151 381.513 376.151 365.653C376.151 349.793 389.092 336.816 404.909 336.816H475.366C491.183 336.816 504.124 349.793 504.124 365.653C504.124 381.513 491.183 394.49 475.366 394.49Z" fill="#0E2AB9"/>
<g opacity="0.2">
<path opacity="0.2" d="M396.857 200.42H384.491L392.256 106.412H404.334L396.857 200.42Z" fill="#0E2AB9"/>
<path opacity="0.2" d="M434.816 200.42H422.738L430.215 106.412H442.58L434.816 200.42Z" fill="#0E2AB9"/>
<path opacity="0.2" d="M367.811 140.442L368.674 128.33H462.424L461.274 140.442H367.811Z" fill="#0E2AB9"/>
<path opacity="0.2" d="M364.648 178.506L365.798 166.395H459.261L458.398 178.506H364.648Z" fill="#0E2AB9"/>
</g>
<path opacity="0.2" d="M263.134 231.849C250.193 231.849 239.841 221.468 239.841 208.491V181.961C239.841 168.985 250.481 158.604 263.134 158.604C276.075 158.604 286.428 168.985 286.428 181.961V208.491C286.716 221.468 276.075 231.849 263.134 231.849ZM263.134 160.045C251.056 160.045 241.278 169.85 241.278 181.961V208.491C241.278 220.603 251.056 230.407 263.134 230.407C275.213 230.407 284.99 220.603 284.99 208.491V181.961C285.278 169.85 275.213 160.045 263.134 160.045Z" fill="#0E2AB9"/>
<path opacity="0.2" d="M243.004 182.827C240.703 182.827 238.402 182.827 235.814 182.539L236.102 181.097C261.984 183.981 275.5 169.851 275.788 169.562L276.938 170.428C276.65 170.428 264.86 182.827 243.004 182.827Z" fill="#0E2AB9"/>
<path opacity="0.2" d="M253.643 187.15H252.205V195.225H253.643V187.15Z" fill="#0E2AB9"/>
<path opacity="0.2" d="M274.35 187.15H272.912V195.225H274.35V187.15Z" fill="#0E2AB9"/>
<path opacity="0.2" d="M266.298 213.683H266.01V212.241C272.624 212.53 276.363 207.051 276.363 207.051L277.513 207.916C277.226 207.916 273.487 213.683 266.298 213.683Z" fill="#0E2AB9"/>
<path d="M300.231 504.931H141.488V353.826H300.231V504.931ZM144.363 502.047H297.355V356.998H144.363V502.047Z" fill="#ABADE3"/>
</g>
<path d="M89.7239 207.626C77.9331 222.044 67.8679 222.044 72.7567 236.751C77.6456 251.458 82.822 258.667 62.4039 271.355C41.9858 284.331 132.573 328.452 134.586 292.694C136.599 256.648 142.926 254.341 129.41 232.714C116.181 210.798 107.266 186.575 89.7239 207.626Z" fill="#2749DE"/>
<path d="M143.5 272.219C146.951 280.294 150.689 288.368 154.428 296.442C156.441 300.479 158.166 304.228 160.179 308.265C162.192 312.014 164.493 315.763 166.506 318.647L166.793 319.223C166.793 319.223 166.793 319.223 167.081 319.512C167.369 319.8 168.231 320.088 169.094 320.377C170.82 321.242 172.545 321.819 174.558 322.395C178.584 323.549 182.61 324.414 186.924 324.991C191.238 325.567 195.264 325.856 199.577 325.856C202.166 325.567 205.329 325.279 207.917 326.144C210.793 326.721 213.381 327.874 215.682 329.316C217.982 330.758 218.845 333.93 217.407 336.525C215.969 338.832 212.806 339.697 210.505 338.256C209.068 337.391 207.342 336.525 205.904 336.237C204.179 335.949 202.741 335.372 201.015 335.66C196.126 336.525 191.525 336.525 186.636 336.814C181.748 336.814 177.146 336.525 172.257 335.949C169.669 335.66 167.369 335.084 164.78 334.218C163.343 333.642 162.192 333.353 160.467 332.488C159.604 332.2 158.741 331.623 157.879 330.758L157.016 330.181L156.728 329.893L156.441 329.605L155.865 328.739C152.415 324.702 149.826 320.665 147.526 316.34C145.225 312.302 142.924 308.265 140.911 303.94C136.885 295.577 133.434 287.214 130.271 278.563C128.833 274.815 130.846 270.489 134.585 269.336C138.036 267.029 142.062 268.759 143.5 272.219Z" fill="#ED9974"/>
<path d="M141.199 707.076C138.324 707.076 135.735 705.058 135.16 701.886C131.134 677.375 130.271 661.514 129.984 660.938C129.696 657.477 132.284 654.593 135.735 654.305C139.186 654.017 142.062 656.612 142.35 660.072C142.35 660.361 143.212 675.933 147.238 699.579C147.814 703.039 145.513 706.211 142.062 706.788C142.062 707.077 141.774 707.076 141.199 707.076Z" fill="#ED9974"/>
<path d="M144.65 546.169C148.389 512.141 142.35 356.711 142.35 356.711H103.814C103.814 356.711 86.8469 375.167 90.0103 401.12C93.1737 427.361 112.154 533.769 113.879 544.727C104.389 578.755 123.945 670.744 125.382 676.8C126.245 680.549 147.526 679.684 148.676 674.204C150.114 663.823 143.788 568.662 144.65 546.169Z" fill="#D7E2FF"/>
<path d="M173.696 712.561H131.71C130.847 712.561 129.984 711.696 130.272 710.831L131.134 701.315C131.134 699.584 132.86 698.431 134.298 699.008C138.612 700.161 146.376 701.603 149.54 698.143L170.82 705.352C171.683 705.64 172.546 706.505 173.121 707.37L175.134 710.831C175.422 711.407 174.846 712.561 173.696 712.561Z" fill="#0E2AB9"/>
<path d="M20.1306 699.583C19.2679 699.583 18.4052 699.294 17.83 699.006C14.6666 697.564 13.2288 694.104 14.3791 690.932C23.294 669.016 28.1828 653.732 28.1828 653.732C29.0456 650.56 32.7841 648.542 35.9475 649.695C39.1108 650.56 41.1239 654.021 39.9736 657.481C39.686 658.058 35.0847 673.341 25.8822 695.834C24.7319 698.141 22.4313 699.583 20.1306 699.583Z" fill="#FCB692"/>
<path d="M128.835 263.857H97.2009C85.4102 263.857 76.7829 274.815 79.3711 286.35C84.2599 307.689 90.8742 338.833 90.8742 356.424H142.351C142.351 356.424 146.664 323.261 147.24 282.313C147.24 272.22 139.187 263.857 128.835 263.857Z" fill="#0E2AB9"/>
<path d="M123.946 240.499C124.233 242.805 123.946 245.401 123.946 247.708C123.946 250.015 123.658 252.61 123.658 254.917C123.37 257.224 123.37 259.819 122.795 262.126L122.22 265.875L121.933 267.894C121.645 268.47 121.357 269.047 119.92 269.624C116.469 270.777 112.73 270.2 109.854 268.182L108.704 267.317C107.554 266.452 107.266 266.163 107.554 265.587L107.841 264.145L108.129 260.973L108.704 254.34L109.279 247.419C109.567 245.112 109.567 242.805 109.854 240.499C110.429 236.75 113.88 233.866 117.906 234.443C121.07 234.443 123.658 237.326 123.946 240.499Z" fill="#FCB692"/>
<path d="M109.567 248.863C110.142 252.612 113.593 255.496 116.756 256.361C121.933 257.803 123.946 250.882 123.946 250.882L109.567 248.863Z" fill="#ED9974"/>
<path d="M134.585 213.971C136.31 216.854 136.885 220.027 137.461 223.199C138.036 226.371 138.323 229.543 138.036 232.715L137.748 235.022C136.31 246.268 125.957 254.342 114.742 252.901C107.552 252.035 101.513 247.133 98.6375 241.077C97.1996 237.617 96.3369 234.157 95.7617 230.408C95.1866 226.659 94.899 223.199 95.4742 219.45C96.912 208.203 107.265 200.417 118.48 201.859C125.095 202.724 130.846 206.762 133.722 212.241L134.585 213.971Z" fill="#FCB692"/>
<path d="M124.809 194.649C115.894 187.44 103.528 189.458 94.9007 198.109C85.6982 207.337 84.5478 220.602 93.7503 229.542C96.6261 228.388 99.2143 226.946 101.803 225.216C110.717 222.044 117.907 217.142 123.083 210.509C127.972 215.988 134.011 223.486 137.175 228.677C137.75 229.83 139.475 229.253 139.475 228.1C140.626 218.584 141.488 195.514 124.809 194.649ZM105.541 222.621C111.58 218.295 116.469 213.393 120.495 207.626C121.07 208.202 121.933 209.068 122.508 209.933C118.195 215.412 112.731 219.449 105.541 222.621Z" fill="#2749DE"/>
<path d="M98.6392 226.659C94.9007 216.278 86.5609 224.929 90.8746 232.138C94.3255 237.617 103.528 240.501 98.6392 226.659Z" fill="#FCB692"/>
<path d="M143.214 352.677C141.488 352.677 140.913 352.1 140.05 351.812C139.475 351.523 138.612 350.946 137.462 350.946C136.312 350.946 135.449 351.235 134.874 351.812C134.011 352.388 133.436 352.677 131.71 352.677C129.985 352.677 129.41 352.1 128.547 351.812C127.972 351.523 127.109 350.946 125.959 350.946C124.521 350.946 123.946 351.235 123.371 351.812C122.508 352.388 121.933 352.677 120.207 352.677C118.482 352.677 117.907 352.1 117.044 351.812C116.469 351.523 115.606 350.946 114.456 350.946C113.018 350.946 112.443 351.235 111.868 351.812C111.005 352.388 110.43 352.677 108.704 352.677C106.979 352.677 106.404 352.1 105.541 351.812C104.966 351.523 104.103 350.946 102.953 350.946C101.515 350.946 100.94 351.235 100.364 351.812C99.5016 352.388 98.9265 352.677 97.201 352.677C95.4755 352.677 94.9004 352.1 94.0376 351.812C93.4625 351.523 92.5997 350.946 91.4494 350.946C91.1618 350.946 90.8743 350.658 90.8743 350.37C90.8743 350.081 91.1618 349.793 91.4494 349.793C93.1749 349.793 93.7501 350.37 94.6128 350.658C95.1879 350.946 96.0507 351.523 97.201 351.523C98.6389 351.523 99.214 351.235 99.7892 350.658C100.652 350.081 101.227 349.793 102.953 349.793C104.678 349.793 105.253 350.37 106.116 350.658C106.691 350.946 107.554 351.523 108.704 351.523C110.142 351.523 110.717 351.235 111.292 350.658C112.155 350.081 112.73 349.793 114.456 349.793C116.181 349.793 116.756 350.37 117.619 350.658C118.194 350.946 119.057 351.523 120.207 351.523C121.645 351.523 122.22 351.235 122.795 350.658C123.658 350.081 124.233 349.793 125.959 349.793C127.684 349.793 128.259 350.37 129.122 350.658C129.697 350.946 130.56 351.523 131.71 351.523C133.148 351.523 133.723 351.235 134.299 350.658C135.161 350.081 135.737 349.793 137.462 349.793C139.187 349.793 139.763 350.37 140.625 350.658C141.201 350.946 142.063 351.523 143.214 351.523C143.501 351.523 143.789 351.812 143.789 352.1C143.789 352.388 143.501 352.677 143.214 352.677Z" fill="white"/>
<path d="M121.646 283.466C104.391 283.466 100.653 264.145 100.653 264.145C100.653 263.857 100.653 263.568 100.94 263.568C101.228 263.568 101.516 263.568 101.516 263.857C101.803 264.722 105.254 283.754 123.372 282.601C127.11 282.312 129.698 281.159 130.849 278.852C133.437 273.661 126.822 264.433 126.535 264.145C126.535 263.857 126.535 263.568 126.535 263.568C126.822 263.568 127.11 263.568 127.11 263.568C127.398 263.857 134.012 273.373 131.424 279.14C130.273 281.736 127.398 283.177 123.372 283.466C122.796 283.466 122.221 283.466 121.646 283.466Z" fill="white"/>
<path d="M90.874 356.711C90.874 356.711 71.031 375.167 69.5932 401.12C68.4428 424.189 69.5932 510.7 69.5932 537.518C44.5738 565.201 19.2669 660.939 16.1035 670.744C15.2408 673.051 34.5086 681.702 37.6719 676.8C43.4235 668.149 96.338 562.029 101.802 539.825C111.004 509.834 128.834 356.711 128.834 356.711H90.874Z" fill="white"/>
<path d="M46.5866 712.562H36.2338C35.3711 712.562 34.5083 712.562 33.6456 712.274L8.05112 703.911C6.61322 703.335 6.03807 701.893 6.61322 700.451L9.48901 693.53C10.3517 691.511 12.94 690.646 14.6654 691.8C18.4039 694.107 24.7307 696.99 28.4692 694.972L34.7959 701.893L44.286 705.642C45.1488 705.93 46.0115 706.795 46.5866 707.66L48.0245 710.255C48.3121 711.409 47.4494 712.562 46.5866 712.562Z" fill="#0E2AB9"/>
<path d="M148.678 704.481C148.39 704.481 148.103 704.193 148.103 703.905C148.966 699.002 151.841 697.849 152.129 697.561C152.416 697.561 152.704 697.561 152.704 697.849C152.704 698.137 152.704 698.426 152.416 698.426C152.416 698.426 149.828 699.579 148.966 703.905C148.966 704.193 148.966 704.481 148.678 704.481Z" fill="white"/>
<path d="M151.554 705.349C151.266 705.349 150.979 705.06 150.979 704.772C151.841 699.87 154.717 698.716 155.005 698.428C155.292 698.428 155.58 698.428 155.58 698.716C155.58 699.004 155.58 699.293 155.292 699.293C155.292 699.293 152.704 700.446 151.841 704.772C152.129 705.349 151.842 705.349 151.554 705.349Z" fill="white"/>
<path d="M25.3065 700.734H25.0189C24.7313 700.445 24.7313 700.157 25.0189 700.157C28.1823 696.408 31.6332 696.985 31.6332 696.985C31.9208 696.985 31.9208 697.273 31.9208 697.562C31.9208 697.85 31.6332 698.139 31.3456 697.85C31.3456 697.85 28.4698 697.562 25.5941 700.734H25.3065Z" fill="white"/>
<path d="M27.3187 703.041H27.0311C26.7435 702.752 26.7435 702.464 27.0311 702.464C30.1945 698.715 33.6454 699.292 33.6454 699.292C33.933 699.292 33.933 699.58 33.933 699.868C33.933 700.157 33.6454 700.157 33.3578 700.157C33.3578 700.157 30.4821 699.868 27.6063 703.041C27.3187 703.041 27.3187 703.041 27.3187 703.041Z" fill="white"/>
<path d="M187.789 711.119H0V714.003H187.789V711.119Z" fill="#4161D8"/>
<path d="M394.847 515.893C389.095 515.893 383.056 514.74 376.442 512.433C363.501 508.107 347.971 499.168 330.429 485.903C318.063 483.308 304.835 479.847 292.181 475.522C260.26 464.564 233.227 450.145 215.973 434.573C192.966 413.811 198.143 369.979 209.646 338.547C212.522 330.761 215.685 323.552 219.424 316.919V316.631C219.424 316.342 219.711 316.054 219.711 315.477C235.528 283.468 261.698 264.436 292.181 242.232C320.651 221.469 353.148 197.823 381.906 158.605C389.383 148.224 398.873 143.321 406.062 146.205C410.663 147.935 417.853 153.991 415.84 176.195C413.539 204.167 391.396 230.985 371.84 254.632C369.827 256.938 368.102 259.245 366.089 261.552C364.363 263.571 364.076 265.301 364.651 267.031C367.527 275.971 394.847 283.757 421.016 291.543C437.408 296.157 454.375 301.059 465.878 306.249C485.146 313.17 489.747 320.956 491.761 324.417C496.362 332.491 496.937 342.007 492.911 350.37C491.185 353.83 487.734 361.328 475.369 366.23C485.146 372.863 491.473 379.783 494.061 386.704C497.225 395.355 496.074 404.871 490.898 412.657C484.284 422.174 472.78 427.364 456.676 427.652C463.003 435.438 463.865 440.917 464.441 443.513C465.878 452.741 463.003 461.68 456.101 468.312C452.362 472.061 444.598 479.27 423.317 475.81C424.755 479.847 425.617 483.596 425.33 487.056C425.33 496.573 420.729 504.935 412.964 510.414C408.075 514.163 402.036 515.893 394.847 515.893ZM211.084 339.412C199.581 370.267 194.404 413.234 216.835 433.42C233.803 448.703 260.835 463.122 292.469 473.791C305.122 478.117 318.351 481.577 330.717 484.173L331.004 484.461C348.546 497.726 363.788 506.665 376.729 510.991C391.396 515.893 403.474 515.316 412.389 509.261C419.578 504.07 423.892 496.284 423.892 487.345C423.892 483.596 423.029 479.559 421.304 475.233L420.729 473.791L422.167 474.08C443.447 478.117 451.212 470.619 454.951 467.159C461.277 461.103 464.153 452.741 462.715 444.09C462.14 441.206 461.277 435.727 454.375 427.652L453.225 426.211H455.238C471.918 425.922 483.708 421.308 490.035 411.792C494.924 404.583 496.074 395.644 493.198 387.281C490.61 380.36 483.996 373.439 473.643 366.807L472.205 365.942L473.931 365.365C486.872 360.751 490.323 353.83 492.048 349.793C495.787 341.719 495.499 333.068 491.185 325.282C489.172 321.821 484.859 314.612 466.166 307.691C454.663 302.501 437.696 297.598 421.591 292.984C393.409 284.91 366.951 277.413 364.076 267.32C363.213 265.013 364.076 262.417 365.801 260.11C367.527 257.804 369.54 255.497 371.553 253.19C390.82 229.832 412.964 203.302 414.977 175.907C416.127 160.623 412.964 150.531 406.35 147.935C400.023 145.628 391.396 150.242 384.206 159.758C355.161 199.265 322.664 222.911 294.194 243.673C263.998 265.589 237.829 284.622 222.299 316.342C222.299 316.631 222.012 316.919 222.012 317.207C222.012 317.496 222.012 317.784 221.724 317.784C217.123 324.705 213.96 331.914 211.084 339.412Z" fill="white"/>
<path d="M288.73 374.306C286.142 374.306 283.554 374.306 280.966 374.018V372.288C348.547 375.748 363.788 333.358 363.788 332.781L365.514 333.358C365.514 333.935 350.847 374.306 288.73 374.306Z" fill="white"/>
<path d="M284.99 252.611C278.664 280.583 257.095 371.419 226.324 440.628C224.311 445.53 219.135 448.125 213.959 446.972C199.292 443.8 168.809 436.302 144.077 421.595C139.763 419 137.75 413.809 139.188 408.907C149.253 377.475 185.488 261.839 195.266 219.161C196.704 212.817 203.606 209.068 209.645 211.375C224.599 216.854 251.056 227.235 278.664 240.212C283.553 242.23 286.141 247.421 284.99 252.611Z" fill="#0E2AB9"/>
<path d="M94.6139 273.95C96.0518 278.276 97.2021 282.601 98.64 286.927C100.078 291.252 101.516 295.578 102.954 299.904C104.392 304.229 106.117 308.266 107.843 312.303C109.568 316.052 111.581 320.089 113.882 322.108C116.47 324.703 119.921 327.299 123.372 329.605C126.823 331.912 130.849 333.931 134.587 335.661C138.613 337.391 142.64 338.257 146.378 338.545C146.666 338.545 146.666 338.545 147.241 338.545H148.391C149.254 338.545 149.829 338.545 150.692 338.545C152.13 338.545 153.568 338.833 155.005 339.122C157.881 339.987 160.469 341.14 162.77 342.582C165.071 344.312 165.646 347.484 164.208 349.791C162.77 352.098 159.607 352.675 157.306 351.233C155.868 350.368 154.143 349.503 152.417 348.926C151.554 348.638 150.692 348.638 149.829 348.349C149.541 348.349 148.966 348.061 148.679 348.061H146.953C141.489 348.349 136.313 347.484 131.424 346.331C126.535 344.889 121.934 343.159 117.333 340.852C112.731 338.545 108.418 336.238 104.104 332.201C101.803 330.182 100.078 327.587 98.64 325.28C97.2021 322.973 96.0518 320.666 94.9015 318.647C92.6009 314.034 90.5878 309.708 89.1499 305.094C85.699 295.866 83.1108 286.927 81.0977 277.411C80.235 273.374 82.8232 269.625 86.5617 268.76C89.7251 267.895 93.4636 270.202 94.6139 273.95Z" fill="#FCB692"/>
<path d="M504.41 240.215C504.697 242.522 504.985 244.829 504.985 247.136L505.56 254.056L506.135 260.689L506.423 263.861L506.71 265.303C506.71 265.88 506.423 266.456 505.56 267.033L504.41 267.898C501.246 269.917 497.508 270.205 494.344 269.34C492.907 269.052 492.619 268.187 492.331 267.61L492.044 265.591L491.469 261.842C491.181 259.536 490.894 256.94 490.606 254.633C490.318 252.326 490.318 249.731 490.318 247.424C490.318 245.117 490.318 242.81 490.318 240.215C490.606 236.178 494.057 233.294 497.795 233.582C501.246 234.159 504.122 236.754 504.41 240.215Z" fill="#FCB692"/>
<path d="M489.458 266.742C491.046 266.742 492.334 265.451 492.334 263.858C492.334 262.266 491.046 260.975 489.458 260.975C487.87 260.975 486.582 262.266 486.582 263.858C486.582 265.451 487.87 266.742 489.458 266.742Z" fill="white"/>
<path d="M532.019 273.665C534.608 282.605 536.045 291.256 537.196 300.195C537.771 304.809 538.059 309.423 538.059 314.037C538.059 316.344 538.059 318.939 537.771 321.246C537.771 322.399 537.483 323.841 537.196 324.995C536.908 325.571 536.908 326.437 536.621 327.013L536.333 328.167L536.045 328.744L535.758 329.609C534.895 331.916 533.745 333.069 532.882 334.223C532.019 335.376 530.869 336.241 530.006 337.106C527.993 338.836 526.268 340.278 524.255 341.432C520.229 344.027 516.203 346.334 511.889 348.064C507.575 350.083 503.261 351.813 498.66 352.966C495.784 354.12 493.196 356.427 491.183 359.311C489.458 361.618 486.294 362.194 483.994 360.464C481.693 358.734 481.118 355.85 482.843 353.543C485.719 349.218 490.32 345.469 495.784 344.027C499.523 342.585 502.974 340.567 506.712 338.26C510.163 335.953 513.327 333.646 516.49 331.05C517.928 329.609 519.366 328.455 520.516 327.013C521.091 326.437 521.667 325.86 521.954 325.283C522.242 324.706 522.529 324.13 522.529 324.418V324.13V323.553C522.529 323.265 522.529 322.688 522.817 322.399C522.817 321.534 523.104 320.669 523.104 319.804C523.104 318.074 523.392 316.055 523.104 314.037C523.104 310 522.529 305.962 521.954 301.925C521.379 297.888 520.804 293.563 520.229 289.525C519.653 285.488 518.791 281.163 517.928 277.126V276.837C517.065 272.8 519.653 269.051 523.68 268.475C527.418 267.609 530.869 269.916 532.019 273.665Z" fill="#ED9974"/>
<path d="M472.777 707.082C472.489 707.082 472.202 707.082 471.914 707.082C468.463 706.505 466.163 703.333 466.738 700.161C470.189 676.226 471.627 660.366 471.627 660.077C471.914 656.617 475.078 654.31 478.241 654.599C481.692 654.887 483.992 658.059 483.705 661.231C483.705 661.519 482.267 677.668 478.816 701.891C478.528 704.775 475.94 707.082 472.777 707.082Z" fill="#FCB692"/>
<path d="M440.282 712.561H482.268C483.131 712.561 483.994 711.696 483.706 710.831L482.843 701.315C482.843 699.584 481.118 698.431 479.68 699.008C475.366 700.161 467.602 701.603 464.438 698.143L443.158 705.352C442.295 705.64 441.432 706.505 440.857 707.37L438.844 710.831C438.556 711.408 439.419 712.561 440.282 712.561Z" fill="white"/>
<path d="M544.96 707.082C541.509 707.082 538.921 704.198 538.921 701.026C538.921 677.091 537.196 661.519 537.196 661.519C536.908 658.059 539.209 655.175 542.66 654.599C546.111 654.31 548.986 656.617 549.561 660.077C549.561 660.654 551.287 676.515 551.287 701.026C551.287 704.198 548.411 707.082 544.96 707.082Z" fill="#ED9974"/>
<path d="M518.788 218.875C519.363 222.624 519.076 226.373 518.5 229.833C517.925 233.582 517.063 237.042 515.625 240.503C511.023 250.884 498.657 255.498 488.305 250.884C481.69 247.712 477.377 241.656 476.514 234.735L476.226 232.428C475.939 228.968 476.226 226.084 476.801 222.912C477.377 219.74 478.239 216.857 479.677 213.685L480.828 211.666C486.292 201.861 498.657 198.113 508.435 203.303C514.187 206.764 517.925 212.819 518.788 218.875Z" fill="#FCB692"/>
<path d="M485.143 263.857H517.064C528.855 263.857 537.482 274.815 534.894 286.35C530.005 307.689 523.391 338.833 523.391 356.424H471.627C471.627 356.424 467.313 323.261 466.738 282.313C466.738 272.22 475.078 263.857 485.143 263.857Z" fill="#2749DE"/>
<path d="M544.671 544.733C544.383 533.775 545.821 427.367 544.671 401.126C543.52 374.884 523.39 356.717 523.39 356.717H484.567C484.567 356.717 504.122 512.147 513.612 546.175C518.214 568.668 530.579 664.983 533.168 674.787C534.605 680.266 555.599 678.247 555.599 675.652C555.599 665.559 559.912 578.76 544.671 544.733Z" fill="#0B279B"/>
<path d="M512.177 712.561H554.164C555.026 712.561 555.889 711.696 555.601 710.831L554.739 701.315C554.739 699.584 553.013 698.431 551.575 699.008C547.262 700.161 539.497 701.603 536.334 698.143L515.053 705.352C514.19 705.64 513.327 706.505 512.752 707.37L510.739 710.831C510.452 711.408 511.027 712.561 512.177 712.561Z" fill="white"/>
<path d="M481.405 277.126C479.104 285.777 476.228 294.139 472.777 302.214C471.052 306.251 469.326 310.576 467.026 314.614C465.013 318.651 462.712 322.688 459.549 326.725L458.398 328.167L458.111 328.744C457.536 329.32 456.96 329.897 456.098 330.186C454.66 331.051 452.359 331.627 450.921 331.339C448.046 331.051 446.895 329.897 446.032 329.32C445.17 328.744 444.595 328.167 444.019 327.59C442.006 325.572 440.568 323.553 439.418 321.823L432.229 311.153C429.928 307.693 427.34 304.521 424.752 301.637C423.314 300.195 421.588 299.33 420.15 298.177C418.713 297.023 416.987 296.446 415.549 295.87C412.961 294.716 411.523 291.833 412.673 289.237C413.536 286.642 416.412 285.2 419 286.065C421.588 286.93 423.889 288.372 425.902 289.814C427.915 291.256 429.64 292.986 431.366 294.428C435.104 297.312 438.268 300.772 441.144 303.944C444.307 307.116 447.183 310.576 450.059 313.46C451.496 314.902 452.934 316.632 453.797 317.497C454.085 317.786 454.372 317.786 454.372 317.786C454.372 317.786 454.372 317.497 452.359 317.209C451.496 317.209 449.771 317.209 448.621 318.074C448.046 318.362 447.758 318.651 447.47 319.228C447.47 319.228 447.47 319.228 447.47 318.939L448.333 317.786C450.346 314.902 452.359 311.442 454.085 307.693C455.81 303.944 457.536 300.195 458.974 296.158C462.137 288.372 465.013 280.298 467.888 272.512C469.326 268.763 473.352 266.744 477.091 268.186C480.254 269.628 482.267 273.377 481.405 277.126Z" fill="#FCB692"/>
<path d="M510.451 356.717H471.628C471.628 356.717 465.589 512.147 469.327 546.175C470.19 568.668 463.863 663.829 465.876 674.21C467.027 679.689 488.02 680.554 489.17 676.806C490.608 670.75 510.451 578.76 500.673 544.733C502.111 533.775 521.379 427.367 524.542 401.126C527.418 374.884 510.451 356.717 510.451 356.717Z" fill="#0E2AB9"/>
<path d="M500.097 263.858C500.097 265.3 498.947 266.742 497.221 266.742C495.496 266.742 494.345 265.589 494.345 263.858C494.345 262.128 495.496 260.975 497.221 260.975C498.947 260.975 500.097 262.416 500.097 263.858Z" fill="white"/>
<path d="M504.987 263.858C504.987 265.3 503.837 266.742 502.111 266.742C500.673 266.742 499.236 265.589 499.236 263.858C499.236 262.128 500.386 260.975 502.111 260.975C503.837 261.263 504.987 262.416 504.987 263.858Z" fill="white"/>
<path d="M507.286 266.457C508.874 266.457 510.162 265.166 510.162 263.573C510.162 261.981 508.874 260.689 507.286 260.689C505.698 260.689 504.41 261.981 504.41 263.573C504.41 265.166 505.698 266.457 507.286 266.457Z" fill="white"/>
<path d="M492.907 266.457C494.495 266.457 495.783 265.166 495.783 263.573C495.783 261.981 494.495 260.689 492.907 260.689C491.319 260.689 490.031 261.981 490.031 263.573C490.031 265.166 491.319 266.457 492.907 266.457Z" fill="white"/>
<path d="M497.508 199.262C490.031 198.397 478.815 208.202 474.501 218.871C474.501 218.871 494.057 223.197 501.246 215.123" fill="white"/>
<path d="M481.98 213.105C477.091 220.314 480.254 241.076 497.509 245.114C530.868 252.899 490.32 200.993 481.98 213.105Z" fill="white"/>
<path d="M477.378 210.22C477.378 210.22 477.091 210.22 477.378 210.22C477.091 209.932 476.803 209.932 477.091 209.643C479.391 205.606 482.842 202.434 487.444 200.992C491.757 199.55 496.646 200.127 500.672 202.146C500.96 202.146 500.96 202.434 500.96 202.723C500.96 203.011 500.672 203.011 500.385 203.011C496.359 200.992 492.045 200.416 487.731 201.857C483.418 203.299 479.967 205.895 477.954 209.932C477.666 210.22 477.378 210.22 477.378 210.22Z" fill="white"/>
<path d="M485.43 230.406C484.567 220.024 475.652 227.522 478.24 235.596C480.253 241.652 486.58 245.112 485.43 230.406Z" fill="#FCB692"/>
<path d="M500.098 224.064C492.621 224.064 486.582 218.008 486.582 210.51C486.582 203.013 492.621 196.957 500.098 196.957C507.575 196.957 513.614 203.013 513.614 210.51C513.614 218.008 507.575 224.064 500.098 224.064Z" fill="#0E2AB9"/>
<path d="M548.493 246.716C562.194 232.977 562.194 210.702 548.493 196.963C534.792 183.225 512.578 183.224 498.876 196.963C485.175 210.702 485.175 232.977 498.876 246.716C512.578 260.455 534.792 260.455 548.493 246.716Z" fill="white"/>
<path d="M594.999 711.119H407.21V714.003H594.999V711.119Z" fill="#4161D8"/>
<path d="M161.906 120.537C170.821 111.309 170.821 96.6024 161.906 87.663C152.991 78.7236 138.325 78.4352 129.122 87.663C119.92 78.4352 105.253 78.4352 96.3382 87.663C87.1357 96.8908 87.1357 111.598 96.3382 120.537C96.9133 121.114 97.7761 121.69 98.3512 122.267L129.41 153.411L161.906 120.537Z" fill="white"/>
<path d="M179.738 81.0328H179.45L161.333 62.8656C160.758 62.5772 160.47 62.2888 160.182 61.7121C157.594 59.1168 156.156 55.6564 156.156 51.9076C156.156 48.1588 157.594 44.6984 160.182 42.1031C165.646 36.6241 174.274 36.6241 179.738 41.8147C185.202 36.6241 193.829 36.9124 199.293 42.1031C204.757 47.5821 204.757 56.2331 199.293 61.7121L180.025 81.0328C179.738 81.0328 179.738 81.0328 179.738 81.0328ZM169.96 38.931C166.509 38.931 163.346 40.0845 160.758 42.6798C158.169 45.2751 157.019 48.4472 157.019 51.9076C157.019 55.368 158.457 58.8284 160.758 61.1354C161.045 61.4237 161.333 61.7121 161.908 62.2888L179.738 80.1677L198.43 61.4237C203.319 56.2331 203.319 48.1588 198.43 42.9682C193.254 37.7775 185.202 37.7775 180.025 42.9682C179.738 42.9682 179.738 42.9682 179.45 42.9682C176.574 40.0845 173.411 38.931 169.96 38.931Z" fill="white"/>
<path d="M158.457 16.1468C162.195 12.3981 162.195 6.63069 158.457 2.8819C154.718 -0.866885 148.967 -0.866885 145.228 2.8819C141.49 -0.866885 135.738 -0.866885 131.999 2.8819C128.261 6.63069 128.261 12.3981 131.999 16.1468C132.287 16.4352 132.575 16.7236 132.862 17.012L145.228 29.4118L158.457 16.1468Z" fill="white"/>
<path d="M539.209 91.6982H504.412V51.0383H490.608L491.184 50.4616L521.667 19.8945L521.954 20.1829L553.013 51.3267H539.209V91.6982ZM504.987 91.1215H538.346V50.4616H551.287L521.667 20.7596L492.046 50.4616H504.987V91.1215Z" fill="#0E2AB9"/>
<path d="M540.935 54.5026L510.452 23.9355L480.256 54.5026H493.485V95.1625H527.419V54.5026H540.935Z" fill="white"/>
<path d="M206.806 426.785C206.806 440.981 195.33 452.488 181.174 452.488C167.019 452.488 155.542 440.981 155.542 426.785C155.542 412.589 167.019 401.082 181.174 401.082C195.33 401.082 206.806 412.589 206.806 426.785Z" stroke="white" stroke-width="0.5"/>
</g>
<defs>
<clipPath id="clip0">
<rect width="595" height="714" fill="white"/>
</clipPath>
</defs>
</svg>
