<svg width="172" height="48" viewBox="0 0 172 48" fill="none" xmlns="http://www.w3.org/2000/svg">
<path d="M89.32 12.438C88.8213 13.2087 88.2547 14.0587 87.62 14.988C87.008 15.9173 86.3733 16.8807 85.716 17.878C85.0587 18.8527 84.39 19.816 83.71 20.768C83.0527 21.72 82.418 22.604 81.806 23.42C82.486 24.1 83.2227 24.9613 84.016 26.004C84.8093 27.024 85.5913 28.112 86.362 29.268C87.1327 30.4013 87.858 31.5573 88.538 32.736C89.218 33.9147 89.762 35.0027 90.17 36H86.736C86.26 34.9573 85.7047 33.892 85.07 32.804C84.458 31.716 83.8007 30.6733 83.098 29.676C82.418 28.656 81.7153 27.7153 80.99 26.854C80.2873 25.9927 79.596 25.2673 78.916 24.678V36H75.856V12.438H78.916V22.842C79.5053 22.094 80.1287 21.244 80.786 20.292C81.4433 19.34 82.0893 18.388 82.724 17.436C83.3813 16.484 83.9933 15.5773 84.56 14.716C85.1267 13.832 85.6027 13.0727 85.988 12.438H89.32ZM96.754 12.438H99.814V36H96.754V12.438ZM117.114 32.736C116.66 31.104 116.196 29.54 115.72 28.044C115.244 26.548 114.779 25.1427 114.326 23.828C113.895 22.4907 113.476 21.278 113.068 20.19C112.66 19.102 112.286 18.15 111.946 17.334C111.855 18.626 111.776 20.054 111.708 21.618C111.662 23.1593 111.606 24.746 111.538 26.378C111.492 28.01 111.447 29.6533 111.402 31.308C111.379 32.94 111.356 34.504 111.334 36H108.41C108.478 33.96 108.546 31.9087 108.614 29.846C108.682 27.7607 108.761 25.7207 108.852 23.726C108.965 21.7087 109.078 19.748 109.192 17.844C109.328 15.94 109.475 14.138 109.634 12.438H112.66C113.068 13.4127 113.532 14.58 114.054 15.94C114.575 17.2773 115.096 18.6827 115.618 20.156C116.162 21.6293 116.683 23.1027 117.182 24.576C117.68 26.0493 118.111 27.398 118.474 28.622C118.836 27.398 119.256 26.0493 119.732 24.576C120.208 23.1027 120.706 21.6293 121.228 20.156C121.749 18.6827 122.259 17.2773 122.758 15.94C123.279 14.58 123.744 13.4127 124.152 12.438H127.178C127.336 14.138 127.472 15.94 127.586 17.844C127.722 19.748 127.835 21.7087 127.926 23.726C128.039 25.7207 128.13 27.7607 128.198 29.846C128.266 31.9087 128.334 33.96 128.402 36H125.478C125.432 34.504 125.387 32.9287 125.342 31.274C125.319 29.6193 125.274 27.9647 125.206 26.31C125.16 24.6327 125.104 23.012 125.036 21.448C124.968 19.8613 124.888 18.4107 124.798 17.096C124.594 17.6627 124.333 18.3767 124.016 19.238C123.721 20.0767 123.404 20.9947 123.064 21.992C122.746 22.9893 122.406 24.0207 122.044 25.086C121.704 26.1287 121.375 27.1373 121.058 28.112C120.763 29.0867 120.491 29.982 120.242 30.798C120.015 31.5913 119.834 32.2373 119.698 32.736H117.114ZM140.05 22.468H142.158C144.968 22.468 146.374 21.1987 146.374 18.66C146.374 17.8667 146.249 17.2207 146 16.722C145.773 16.2007 145.467 15.804 145.082 15.532C144.696 15.2373 144.243 15.0333 143.722 14.92C143.223 14.8067 142.69 14.75 142.124 14.75C141.784 14.75 141.432 14.7613 141.07 14.784C140.73 14.8067 140.39 14.8407 140.05 14.886V22.468ZM140.05 24.916V33.416C140.48 33.484 140.9 33.5407 141.308 33.586C141.738 33.6313 142.158 33.654 142.566 33.654C143.2 33.654 143.801 33.586 144.368 33.45C144.934 33.314 145.422 33.0873 145.83 32.77C146.26 32.4527 146.589 32.022 146.816 31.478C147.065 30.9113 147.19 30.22 147.19 29.404C147.19 27.9987 146.804 26.8993 146.034 26.106C145.286 25.3127 144.107 24.916 142.498 24.916H140.05ZM136.99 12.778C137.783 12.5967 138.588 12.4607 139.404 12.37C140.242 12.2567 141.07 12.2 141.886 12.2C142.906 12.2 143.869 12.302 144.776 12.506C145.705 12.6873 146.521 13.016 147.224 13.492C147.926 13.9453 148.482 14.5573 148.89 15.328C149.32 16.076 149.536 17.0167 149.536 18.15C149.536 19.5553 149.241 20.7113 148.652 21.618C148.062 22.502 147.303 23.1593 146.374 23.59C147.53 24.0433 148.482 24.7347 149.23 25.664C149.978 26.5933 150.352 27.874 150.352 29.506C150.352 30.73 150.148 31.7613 149.74 32.6C149.354 33.4387 148.799 34.13 148.074 34.674C147.348 35.1953 146.476 35.5807 145.456 35.83C144.458 36.0567 143.359 36.17 142.158 36.17C141.364 36.17 140.537 36.1247 139.676 36.034C138.814 35.9433 137.919 35.8073 136.99 35.626V12.778ZM164.512 36.51C162.313 36.51 160.659 35.8867 159.548 34.64C158.46 33.3933 157.916 31.4213 157.916 28.724V12.438H160.976V28.452C160.976 30.2427 161.237 31.5913 161.758 32.498C162.279 33.382 163.22 33.824 164.58 33.824C165.985 33.824 166.937 33.3707 167.436 32.464C167.957 31.5347 168.218 30.1973 168.218 28.452V12.438H171.278V28.724C171.278 31.376 170.711 33.3367 169.578 34.606C168.445 35.8753 166.756 36.51 164.512 36.51Z" fill="#4A5466"/>
<path d="M7.93916 48C7.50398 48 7.12815 47.8171 6.81165 47.4514C6.49516 47.0857 6.33691 46.6514 6.33691 46.1486V1.85143C6.33691 1.34857 6.49516 0.914288 6.81165 0.548572C7.12815 0.182857 7.50398 0 7.93916 0H19.2736C19.7087 0 20.0846 0.182857 20.4011 0.548572C20.7176 0.914288 20.8758 1.34857 20.8758 1.85143V15.4286L27.5815 1.50857C28.0562 0.502858 28.8475 0 29.9552 0H43.0699C43.4259 0 43.7226 0.16 43.96 0.480001C44.2369 0.754286 44.3754 1.09714 44.3754 1.50857C44.3754 1.78286 44.3161 2.03429 44.1974 2.26286L33.5157 22.9714L45.2062 45.7371C45.3249 45.92 45.3842 46.1714 45.3842 46.4914C45.3842 46.9029 45.2458 47.2686 44.9688 47.5886C44.7315 47.8629 44.4348 48 44.0787 48H30.5486C29.8761 48 29.342 47.84 28.9464 47.52C28.5508 47.1543 28.2738 46.7886 28.1156 46.4229L20.8758 31.4743V46.1486C20.8758 46.6514 20.7176 47.0857 20.4011 47.4514C20.0846 47.8171 19.7087 48 19.2736 48H7.93916Z" fill="#3F8AE0"/>
<path d="M23.0735 30.188L30.9181 15.3349C30.587 15.9619 27.9561 18.0627 20.0812 21.4507C12.2064 24.8386 6.8558 31.1313 5.16485 33.8542L6.03718 36.1922C6.92236 32.2501 11.1889 28.7121 13.2116 27.4358L13.6477 28.6048L16.7426 26.1362L23.0735 30.188Z" fill="#3A7BC5"/>
<path d="M0.499159 28.9368C4.8431 23.6426 11.0548 21.0917 13.6177 20.4781C17.1006 20.3283 23.0126 20.4676 18.7974 22.2232C14.5822 23.9788 6.80216 31.999 3.43905 35.7896L0.499159 28.9368Z" fill="white"/>
<path d="M13.0133 22.3679L13.065 26.8603L30.9184 15.3362L13.0133 22.3679Z" fill="#E2E2E2"/>
<path d="M13.0688 26.8615L16.0083 24.9369L17.6258 25.1123L13.0688 26.8615Z" fill="#D1D0D0"/>
<path d="M22.6509 29.0221L30.9208 15.3368L16.0073 24.9364L22.6509 29.0221Z" fill="#F5F5F5"/>
<path d="M7.92832 19.0146L13.0153 22.3706L30.9202 15.3389L7.92832 19.0146Z" fill="#F5F5F5"/>
</svg>
