<svg width="258" height="203" viewBox="0 0 258 203" fill="none" xmlns="http://www.w3.org/2000/svg">
<path d="M243.156 121.251L242.157 121.273L243.156 121.251ZM66.6144 221.375C67.0962 221.645 67.2678 222.255 66.9978 222.736C66.7277 223.218 66.1183 223.39 65.6365 223.12L66.6144 221.375ZM81.3028 230.539C80.7908 230.332 80.5433 229.749 80.7501 229.237C80.9569 228.725 81.5397 228.477 82.0518 228.684L81.3028 230.539ZM87.3731 230.733C87.8915 230.923 88.1576 231.498 87.9674 232.016C87.7771 232.534 87.2025 232.801 86.6841 232.61L87.3731 230.733ZM103.151 237.864C102.618 237.718 102.306 237.167 102.452 236.635C102.598 236.102 103.149 235.789 103.681 235.936L103.151 237.864ZM109.209 237.38C109.746 237.513 110.072 238.056 109.939 238.592C109.807 239.128 109.264 239.455 108.728 239.322L109.209 237.38ZM125.644 242.853C125.099 242.761 124.733 242.244 124.826 241.7C124.919 241.155 125.435 240.789 125.98 240.882L125.644 242.853ZM131.619 241.771C132.165 241.85 132.544 242.358 132.465 242.904C132.386 243.451 131.878 243.83 131.332 243.751L131.619 241.771ZM148.519 245.567C147.968 245.531 147.551 245.055 147.587 244.504C147.623 243.953 148.099 243.535 148.65 243.571L148.519 245.567ZM154.349 243.865C154.901 243.886 155.331 244.35 155.311 244.902C155.29 245.454 154.826 245.884 154.274 245.864L154.349 243.865ZM171.57 245.72C171.019 245.751 170.547 245.33 170.515 244.778C170.484 244.227 170.906 243.755 171.457 243.723L171.57 245.72ZM177.139 243.301C177.689 243.251 178.176 243.655 178.226 244.205C178.277 244.755 177.872 245.242 177.322 245.293L177.139 243.301ZM194.445 242.68C193.905 242.799 193.372 242.457 193.254 241.918C193.136 241.378 193.477 240.845 194.017 240.727L194.445 242.68ZM199.542 239.378C200.075 239.233 200.624 239.549 200.769 240.082C200.913 240.615 200.597 241.164 200.064 241.308L199.542 239.378ZM216.382 235.409C215.882 235.643 215.287 235.427 215.053 234.926C214.819 234.426 215.035 233.831 215.535 233.597L216.382 235.409ZM220.581 231.028C221.065 230.76 221.673 230.935 221.941 231.418C222.208 231.901 222.033 232.51 221.55 232.778L220.581 231.028ZM235.707 222.664C235.3 223.037 234.668 223.01 234.294 222.603C233.921 222.196 233.948 221.563 234.355 221.19L235.707 222.664ZM238.345 217.198C238.718 216.79 239.351 216.762 239.758 217.135C240.165 217.508 240.193 218.141 239.82 218.548L238.345 217.198ZM249.764 204.27C249.511 204.761 248.908 204.953 248.417 204.7C247.926 204.446 247.734 203.843 247.987 203.353L249.764 204.27ZM250.572 197.797C250.788 197.289 251.376 197.052 251.884 197.268C252.392 197.484 252.629 198.072 252.413 198.58L250.572 197.797ZM258.086 179.684C257.994 180.229 257.478 180.596 256.934 180.504C256.389 180.413 256.022 179.897 256.113 179.352L258.086 179.684ZM256.866 172.987C256.903 172.436 257.38 172.019 257.931 172.056C258.482 172.093 258.899 172.57 258.862 173.121L256.866 172.987ZM256.758 153.408C256.917 153.937 256.617 154.495 256.088 154.654C255.56 154.813 255.002 154.514 254.843 153.985L256.758 153.408ZM252.605 148.011C252.378 147.507 252.601 146.915 253.104 146.687C253.608 146.46 254.2 146.683 254.427 147.187L252.605 148.011ZM242.88 131.066C243.281 131.445 243.299 132.078 242.92 132.479C242.541 132.881 241.908 132.899 241.506 132.519L242.88 131.066ZM236.596 128.418C236.151 128.09 236.056 127.464 236.384 127.02C236.712 126.575 237.338 126.48 237.782 126.808L236.596 128.418ZM219.99 118.069C220.522 118.219 220.831 118.772 220.681 119.303C220.531 119.835 219.978 120.144 219.446 119.994L219.99 118.069ZM213.198 118.659C212.652 118.581 212.272 118.074 212.351 117.527C212.43 116.98 212.937 116.601 213.484 116.68L213.198 118.659ZM193.731 118.822C194.236 118.599 194.827 118.827 195.051 119.332C195.274 119.837 195.046 120.428 194.541 120.651L193.731 118.822ZM189.59 123.754C189.188 124.133 188.555 124.114 188.176 123.712C187.797 123.31 187.816 122.677 188.218 122.299L189.59 123.754ZM190.423 138.967C190.026 138.584 190.016 137.95 190.399 137.553C190.783 137.156 191.416 137.146 191.813 137.529L190.423 138.967ZM196.25 141.07C196.708 141.377 196.831 141.998 196.524 142.457C196.217 142.916 195.595 143.039 195.137 142.731L196.25 141.07ZM211.632 149.587C211.091 149.475 210.743 148.946 210.855 148.405C210.966 147.865 211.495 147.517 212.036 147.628L211.632 149.587ZM217.69 148.383C218.242 148.415 218.663 148.888 218.632 149.439C218.6 149.99 218.127 150.412 217.576 150.38L217.69 148.383ZM234.882 145.818C234.442 146.152 233.815 146.066 233.48 145.626C233.146 145.186 233.232 144.559 233.672 144.225L234.882 145.818ZM237.515 140.25C237.836 139.801 238.46 139.696 238.91 140.017C239.359 140.338 239.464 140.962 239.143 141.412L237.515 140.25ZM244.142 124.275C244.124 124.827 243.661 125.259 243.11 125.241C242.558 125.222 242.125 124.76 242.143 124.208L244.142 124.275ZM242.014 118.107C241.977 117.556 242.393 117.079 242.944 117.041C243.495 117.003 243.972 117.42 244.01 117.971L242.014 118.107ZM239.143 99.3383C239.401 99.8264 239.215 100.432 238.727 100.69C238.239 100.948 237.633 100.762 237.375 100.274L239.143 99.3383ZM234.022 95.1307C233.68 94.6972 233.754 94.0684 234.187 93.7262C234.621 93.384 235.25 93.458 235.592 93.8915L234.022 95.1307ZM220.641 81.7402C221.121 82.0134 221.289 82.624 221.016 83.104C220.742 83.5839 220.132 83.7515 219.652 83.4783L220.641 81.7402ZM214.094 80.5376C213.6 80.292 213.398 79.6919 213.643 79.1972C213.889 78.7026 214.489 78.5006 214.984 78.7462L214.094 80.5376ZM197.672 70.8258C198.175 71.0526 198.4 71.6447 198.173 72.1482C197.946 72.6518 197.354 72.8761 196.85 72.6493L197.672 70.8258ZM191.077 70.0003C190.577 69.7657 190.362 69.1702 190.597 68.6702C190.831 68.1703 191.427 67.9552 191.927 68.1898L191.077 70.0003ZM175.16 59.4495C175.636 59.7294 175.795 60.3423 175.515 60.8184C175.235 61.2945 174.622 61.4535 174.146 61.1736L175.16 59.4495ZM168.716 57.8326C168.252 57.5335 168.118 56.9147 168.417 56.4504C168.716 55.9861 169.334 55.8521 169.799 56.1511L168.716 57.8326ZM154.645 44.9108C155.065 45.269 155.115 45.9002 154.757 46.3205C154.399 46.7408 153.768 46.7912 153.347 46.4329L154.645 44.9108ZM148.586 42.1852C148.183 41.8084 148.161 41.1756 148.538 40.7719C148.915 40.3682 149.547 40.3464 149.951 40.7233L148.586 42.1852ZM137.043 26.9847C137.395 27.4102 137.335 28.0406 136.909 28.3926C136.484 28.7446 135.853 28.6849 135.501 28.2593L137.043 26.9847ZM131.502 23.3576C131.143 22.9373 131.194 22.3061 131.614 21.9478C132.034 21.5895 132.665 21.6398 133.024 22.06L131.502 23.3576ZM119.332 9.51889C119.787 9.83144 119.903 10.4539 119.59 10.9093C119.278 11.3646 118.655 11.4804 118.2 11.1678L119.332 9.51889ZM113.064 8.03667C112.577 7.7759 112.394 7.16984 112.654 6.683C112.915 6.19615 113.521 6.01288 114.008 6.27365L113.064 8.03667ZM96.2886 0.518267C96.8357 0.593163 97.2186 1.09746 97.1437 1.64464C97.0688 2.19182 96.5645 2.57469 96.0173 2.49979L96.2886 0.518267ZM90.0241 2.01904C89.472 2.00486 89.0359 1.54579 89.0501 0.993685C89.0643 0.441582 89.5234 0.00551528 90.0755 0.0197018L90.0241 2.01904ZM71.5988 2.13522C72.1358 2.00651 72.6756 2.33755 72.8043 2.87463C72.933 3.4117 72.602 3.95143 72.0649 4.08015L71.5988 2.13522ZM66.2132 5.68417C65.6852 5.84631 65.1258 5.54976 64.9637 5.02182C64.8015 4.49387 65.0981 3.93444 65.626 3.7723L66.2132 5.68417ZM48.3578 10.4466C48.8608 10.2185 49.4534 10.4414 49.6815 10.9444C49.9096 11.4474 49.6868 12.04 49.1838 12.2681L48.3578 10.4466ZM43.6555 14.8624C43.1582 15.1028 42.5603 14.8947 42.3199 14.3974C42.0795 13.9002 42.2877 13.3023 42.7849 13.0619L43.6555 14.8624ZM26.3308 21.3248C26.8251 21.0786 27.4255 21.2797 27.6718 21.774C27.918 22.2683 27.7169 22.8687 27.2226 23.115L26.3308 21.3248ZM21.678 25.7902C21.1766 26.0216 20.5824 25.8027 20.351 25.3012C20.1196 24.7998 20.3385 24.2056 20.8399 23.9742L21.678 25.7902ZM3.95408 28.1105C4.48528 28.2616 4.79337 28.8148 4.64222 29.346C4.49108 29.8772 3.93792 30.1853 3.40672 30.0341L3.95408 28.1105ZM64.1915 219.972C64.9763 220.442 65.7843 220.91 66.6144 221.375L65.6365 223.12C64.7903 222.645 63.9657 222.168 63.1638 221.688L64.1915 219.972ZM82.0518 228.684C83.7803 229.382 85.5554 230.066 87.3731 230.733L86.6841 232.61C84.8469 231.936 83.0518 231.245 81.3028 230.539L82.0518 228.684ZM103.681 235.936C105.5 236.436 107.344 236.918 109.209 237.38L108.728 239.322C106.846 238.855 104.986 238.369 103.151 237.864L103.681 235.936ZM125.98 240.882C127.849 241.2 129.729 241.497 131.619 241.771L131.332 243.751C129.426 243.474 127.529 243.175 125.644 242.853L125.98 240.882ZM148.65 243.571C150.549 243.696 152.45 243.794 154.349 243.865L154.274 245.864C152.356 245.792 150.437 245.693 148.519 245.567L148.65 243.571ZM171.457 243.723C173.361 243.615 175.256 243.475 177.139 243.301L177.322 245.293C175.415 245.469 173.497 245.611 171.57 245.72L171.457 243.723ZM194.017 240.727C195.881 240.318 197.724 239.869 199.542 239.378L200.064 241.308C198.214 241.808 196.34 242.265 194.445 242.68L194.017 240.727ZM215.535 233.597C217.256 232.792 218.939 231.937 220.581 231.028L221.55 232.778C219.867 233.709 218.143 234.586 216.382 235.409L215.535 233.597ZM234.355 221.19C235.739 219.92 237.07 218.59 238.345 217.198L239.82 218.548C238.506 219.984 237.133 221.355 235.707 222.664L234.355 221.19ZM247.987 203.353C248.42 202.514 248.838 201.661 249.241 200.792L251.055 201.633C250.641 202.528 250.21 203.407 249.764 204.27L247.987 203.353ZM249.241 200.792C249.707 199.785 250.151 198.787 250.572 197.797L252.413 198.58C251.983 199.59 251.531 200.607 251.055 201.633L249.241 200.792ZM256.113 179.352C256.479 177.176 256.727 175.054 256.866 172.987L258.862 173.121C258.718 175.256 258.462 177.443 258.086 179.684L256.113 179.352ZM254.843 153.985C254.217 151.908 253.467 149.916 252.605 148.011L254.427 147.187C255.325 149.172 256.107 151.246 256.758 153.408L254.843 153.985ZM241.506 132.519C239.943 131.042 238.299 129.674 236.596 128.418L237.782 126.808C239.55 128.111 241.256 129.531 242.88 131.066L241.506 132.519ZM219.446 119.994C217.354 119.402 215.262 118.957 213.198 118.659L213.484 116.68C215.637 116.99 217.815 117.455 219.99 118.069L219.446 119.994ZM194.541 120.651C193.576 121.078 192.653 121.562 191.779 122.102L190.729 120.4C191.684 119.81 192.687 119.285 193.731 118.822L194.541 120.651ZM191.779 122.102C190.915 122.635 190.19 123.189 189.59 123.754L188.218 122.299C188.929 121.629 189.765 120.995 190.729 120.4L191.779 122.102ZM191.813 137.529C193.088 138.761 194.583 139.953 196.25 141.07L195.137 142.731C193.385 141.558 191.794 140.293 190.423 138.967L191.813 137.529ZM212.036 147.628C213.92 148.018 215.816 148.276 217.69 148.383L217.576 150.38C215.597 150.267 213.603 149.994 211.632 149.587L212.036 147.628ZM233.672 144.225C235.098 143.142 236.391 141.826 237.515 140.25L239.143 141.412C237.902 143.152 236.467 144.613 234.882 145.818L233.672 144.225ZM242.143 124.208C242.175 123.263 242.18 122.285 242.157 121.273L244.156 121.228C244.18 122.276 244.175 123.291 244.142 124.275L242.143 124.208ZM242.157 121.273C242.132 120.187 242.084 119.132 242.014 118.107L244.01 117.971C244.082 119.027 244.131 120.113 244.156 121.228L242.157 121.273ZM237.375 100.274C236.393 98.4197 235.272 96.7144 234.022 95.1307L235.592 93.8915C236.915 95.5678 238.103 97.3744 239.143 99.3383L237.375 100.274ZM219.652 83.4783C217.881 82.4702 216.026 81.4968 214.094 80.5376L214.984 78.7462C216.941 79.718 218.83 80.7092 220.641 81.7402L219.652 83.4783ZM196.85 72.6493C194.96 71.7976 193.034 70.9185 191.077 70.0003L191.927 68.1898C193.871 69.1021 195.787 69.9768 197.672 70.8258L196.85 72.6493ZM174.146 61.1736C172.347 60.1157 170.536 59.0046 168.716 57.8326L169.799 56.1511C171.594 57.3076 173.382 58.4046 175.16 59.4495L174.146 61.1736ZM153.347 46.4329C151.759 45.0793 150.171 43.665 148.586 42.1852L149.951 40.7233C151.514 42.1822 153.079 43.5764 154.645 44.9108L153.347 46.4329ZM135.501 28.2593C134.822 27.4379 134.144 26.6015 133.468 25.7497L135.035 24.5065C135.703 25.3478 136.372 26.1737 137.043 26.9847L135.501 28.2593ZM133.468 25.7497C132.816 24.9272 132.16 24.13 131.502 23.3576L133.024 22.06C133.698 22.8506 134.368 23.6659 135.035 24.5065L133.468 25.7497ZM118.2 11.1678C116.498 9.99936 114.785 8.95858 113.064 8.03667L114.008 6.27365C115.795 7.23068 117.57 8.30967 119.332 9.51889L118.2 11.1678ZM96.0173 2.49979C94.0219 2.22667 92.0231 2.07041 90.0241 2.01904L90.0755 0.0197018C92.1444 0.0728636 94.2168 0.234691 96.2886 0.518267L96.0173 2.49979ZM72.0649 4.08015C70.1023 4.55049 68.1506 5.08917 66.2132 5.68417L65.626 3.7723C67.5998 3.16612 69.592 2.61616 71.5988 2.13522L72.0649 4.08015ZM49.1838 12.2681C47.312 13.1169 45.468 13.9861 43.6555 14.8624L42.7849 13.0619C44.6093 12.1798 46.4684 11.3034 48.3578 10.4466L49.1838 12.2681ZM27.2226 23.115C25.3075 24.0691 23.4561 24.9695 21.678 25.7902L20.8399 23.9742C22.5934 23.165 24.4254 22.2741 26.3308 21.3248L27.2226 23.115ZM3.40672 30.0341C2.27696 29.7126 1.25047 29.1813 0.349719 28.4103L1.65028 26.8909C2.31785 27.4623 3.08305 27.8626 3.95408 28.1105L3.40672 30.0341Z" fill="#D6E9FF" fill-opacity="0.5"/>
</svg>
